<?xml version="1.0" standalone="no"?>
<!DOCTYPE svg PUBLIC "-//W3C//DTD SVG 1.1//EN" "http://www.w3.org/Graphics/SVG/1.1/DTD/svg11.dtd">
<svg width="100%" height="100%" viewBox="0 0 700 700" version="1.1" xmlns="http://www.w3.org/2000/svg" xmlns:xlink="http://www.w3.org/1999/xlink" xml:space="preserve" style="fill-rule:evenodd;clip-rule:evenodd;stroke-linejoin:round;stroke-miterlimit:1.41421;">
    <g id="Group">
        <path id="Fill-39" d="M104.522,124C134.219,124 137.239,126.01 137.239,131.539L137.239,196.384L197.144,196.384C201.675,196.384 203.688,197.39 203.688,221.516L203.688,225.034C203.688,249.167 201.675,250.172 197.144,250.172L137.239,250.172L137.239,374.326C137.239,388.903 139.763,396.951 145.796,402.48C150.837,407.004 158.387,409.51 167.95,409.51C176.004,409.51 185.064,407.5 194.124,404.491C199.158,402.976 201.675,405.999 207.211,424.596L208.721,429.622C214.258,448.219 213.755,451.235 207.715,454.25C191.608,462.292 169.46,466.816 149.823,466.816C121.636,466.816 102.005,459.277 88.9184,446.208C74.8177,432.135 68.2742,411.025 68.2742,378.347L68.2742,250.172L33.5435,250.172C29.0134,250.172 27,249.167 27,225.034L27,221.516C27,197.39 29.0134,196.384 33.5435,196.384L68.2742,196.384L68.2742,131.539C68.2742,126.01 69.2809,124 102.005,124L104.522,124Z" style="fill:black;"/>
        <path id="Fill-41" d="M307.258,124C336.955,124 339.975,126.01 339.975,131.539L339.975,196.384L399.88,196.384C404.41,196.384 406.424,197.39 406.424,221.516L406.424,225.034C406.424,249.167 404.41,250.172 399.88,250.172L339.975,250.172L339.975,374.326C339.975,388.903 342.499,396.951 348.532,402.48C353.573,407.004 361.123,409.51 370.686,409.51C378.74,409.51 387.8,407.5 396.86,404.491C401.894,402.976 404.41,405.999 409.947,424.596L411.457,429.622C416.994,448.219 416.491,451.235 410.451,454.25C394.344,462.292 372.196,466.816 352.559,466.816C324.372,466.816 304.741,459.277 291.654,446.208C277.554,432.135 271.01,411.025 271.01,378.347L271.01,250.172L236.279,250.172C231.749,250.172 229.736,249.167 229.736,225.034L229.736,221.516C229.736,197.39 231.749,196.384 236.279,196.384L271.01,196.384L271.01,131.539C271.01,126.01 272.017,124 304.741,124L307.258,124Z" style="fill:black;"/>
        <path id="Fill-43" d="M665.492,521.909C670.358,521.909 672.302,524.924 672.302,547.04L672.302,550.056C672.302,572.171 670.358,575.187 665.492,575.187L425.299,575.187C420.441,575.187 418.49,572.171 418.49,550.056L418.49,547.04C418.49,524.924 420.441,521.909 425.299,521.909L665.492,521.909Z" style="fill:black;"/>
    </g>
</svg>
