<svg height="1025" viewBox="0 0 1024 1025" width="1024" xmlns="http://www.w3.org/2000/svg"><g fill-rule="evenodd"><path d="m171.775218 199c41.286782 0 45.485437 2.791561 45.485437 10.468355v90.03755h83.283059c6.297984 0 9.097088 1.395781 9.097088 34.894519v4.885232c0 33.508431-2.799104 34.904211-9.097088 34.904211h-83.283059v172.388613c0 20.238821 3.508599 31.414759 11.896192 39.091553 7.007478 6.281014 17.504118 9.760773 30.799861 9.760773 11.196416 0 23.792383-2.791562 36.38835-6.969211 6.99776-2.103364 10.49664 2.093671 18.194175 27.915614l2.099328 6.978904c7.697536 25.821944 6.99776 30.009286-1.399552 34.196628-22.39283 11.166246-53.182973 17.447259-80.483955 17.447259-39.187454 0-66.478716-10.468355-84.672891-28.613505-19.603446-19.54093-28.700534-48.852325-28.700534-94.224892v-177.971736h-48.2845415c-6.2979836 0-9.0970875-1.39578-9.0970875-34.904211v-4.885232c0-33.498738 2.7991039-34.894519 9.0970875-34.894519h48.2845415v-90.03755c0-7.676794 1.399552-10.468355 46.894709-10.468355zm282 0c41.286782 0 45.485437 2.791561 45.485437 10.468355v90.03755h83.283059c6.297984 0 9.097088 1.395781 9.097088 34.894519v4.885232c0 33.508431-2.799104 34.904211-9.097088 34.904211h-83.283059v172.388613c0 20.238821 3.508599 31.414759 11.896192 39.091553 7.007478 6.281014 17.504118 9.760773 30.799861 9.760773 11.196416 0 23.792383-2.791562 36.38835-6.969211 6.99776-2.103364 10.49664 2.093671 18.194175 27.915614l2.099328 6.978904c7.697536 25.821944 6.99776 30.009286-1.399552 34.196628-22.39283 11.166246-53.182973 17.447259-80.483955 17.447259-39.187454 0-66.478716-10.468355-84.672891-28.613505-19.603446-19.54093-28.700534-48.852325-28.700534-94.224892v-177.971736h-48.284541c-6.297984 0-9.097088-1.39578-9.097088-34.904211v-4.885232c0-33.498738 2.799104-34.894519 9.097088-34.894519h48.284541v-90.03755c0-7.676794 1.399552-10.468355 46.894709-10.468355z"/><path d="m950.529885 752c6.767146 0 9.470115 4.188679 9.470115 34.90566v4.18868c0 30.716981-2.702969 34.90566-9.470115 34.90566h-334.05977c-6.757423 0-9.470115-4.188679-9.470115-34.90566v-4.18868c0-30.716981 2.712692-34.90566 9.470115-34.90566z"/></g></svg>