<svg xmlns="http://www.w3.org/2000/svg" xmlns:xlink="http://www.w3.org/1999/xlink" style="display: none;"><symbol id="ban-alt" viewBox="0 0 32 32"><path d="M23.07 23.07A9.936 9.936 0 0 1 15.998 26c-1.633 0-3.186-.432-4.592-1.164l13.43-13.43C25.568 12.814 26 14.365 26 15.998a9.936 9.936 0 0 1-2.93 7.072M6 16.002C6 10.486 10.484 6 15.996 6H16c1.633 0 3.183.431 4.594 1.164L7.164 20.591C6.429 19.183 6 17.632 6 16.002M16 0C7.162 0 0 7.164 0 16s7.162 16 16 16c8.836 0 16-7.164 16-16S24.836 0 16 0"  fill-rule="evenodd"/></symbol><symbol id="crop" viewBox="0 0 32 32"><clipPath id="b"><use xlink:href="#a" overflow="visible"/></clipPath><g clip-path="url(#b)"><clipPath id="d"><use xlink:href="#c" overflow="visible"/></clipPath><path d="M30 20h-4V8a2 2 0 0 0-2-2H14v6h6v8h-8V2a2 2 0 0 0-2-2H8a2 2 0 0 0-2 2v4H2a2 2 0 0 0-2 2v2a2 2 0 0 0 2 2h4v12a2 2 0 0 0 2 2h12v4a2 2 0 0 0 2 2h2a2 2 0 0 0 2-2v-4h4a2 2 0 0 0 2-2v-2a2 2 0 0 0-2-2" clip-path="url(#d)"/></g></symbol><symbol id="o-chart-rise" viewBox="0 0 32 32"><path d="M30 30h-4V15h4v15zm0-17h-4c-1.1 0-2 .9-2 2v15c0 1.1.9 2 2 2h4c1.1 0 2-.9 2-2V15c0-1.1-.9-2-2-2zM26 0a1 1 0 0 0 0 2h2.586L20 10.586l-7.793-7.793L4.5 10.5a.999.999 0 1 0 1.414 1.414l6.293-6.293L20 13.414l10-10V6a1 1 0 0 0 2 0V0h-6zm-8 30h-4V20h4v10zm0-12h-4c-1.1 0-2 .9-2 2v10c0 1.1.9 2 2 2h4c1.1 0 2-.9 2-2V20c0-1.1-.9-2-2-2zM6 30H2V16h4v14zm0-16H2c-1.1 0-2 .9-2 2v14c0 1.1.9 2 2 2h4c1.1 0 2-.9 2-2V16c0-1.1-.9-2-2-2z"  fill-rule="evenodd"/></symbol><symbol id="o-clapper" viewBox="0 0 32 32"><path d="M30 10h-9l9.215-2.393c1.062-.293 1.679-1.366 1.377-2.396l-1.115-3.802C30.226.556 29.425 0 28.553 0c-.181 0-.365.024-.548.075L1.453 7.397C.593 7.635 0 8.396 0 9.263v18.859C0 30.261 1.794 32 4 32h24c2.206 0 4-1.739 4-3.878V12.606c0-1.07-.895-2.606-2-2.606zm-4.271 2l-1.333 4h-4.945l1.333-4h4.945zm-6 0l-1.333 4h-4.945l1.333-4h4.945zm-7.333 4H7.451l1.333-4h4.945l-1.333 4zM28.552 1.94l1.115 3.802-3.273.903-2.445-3.435 4.603-1.27zm-5.619 1.55l2.446 3.435-4.765 1.314-2.445-3.435 4.764-1.314zm-5.779 1.594l2.445 3.435-4.766 1.314-2.446-3.435 4.767-1.314zm-5.782 1.594l2.446 3.435-4.708 1.298-2.443-3.435 4.705-1.298zM2 9.263l3.652-1.007 2.405 3.381L6.396 16H2V9.263zm28 18.859c0 1.07-.895 1.939-2 1.939H4c-1.102 0-2-.869-2-1.939V17h28v11.122zM30 16h-4.549l1.333-4H30v4z"/><ellipse cx="5" cy="12.607" rx="1" ry=".97"/></symbol><symbol id="o-crop" viewBox="0 0 32 32"><path d="M30.001 18H26V8a2 2 0 0 0-2-2H14V2a2 2 0 0 0-2-2H8.001a2 2 0 0 0-2 2v4h-4a2 2 0 0 0-2 2v4a2 2 0 0 0 2 2h4v10a2 2 0 0 0 2 2H18v4a2 2 0 0 0 2 2h4.001A1.998 1.998 0 0 0 26 30v-4h4.001A1.998 1.998 0 0 0 32 24v-4c0-1.105-.893-2-1.999-2zM24 8v11h-4v-7h-7V8h11zm-5.999 6v4H14v-4h4.001zM2 12V8h5v4H2zm22.001 18H20v-5h4.001v5zm6-6H8V2h4v18h18.001v4z"/></symbol><symbol id="o-document" viewBox="0 0 24 32"><path d="M19.5 14h-15a.5.5 0 0 0 0 1h15a.5.5 0 0 0 0-1zm0 4h-15a.5.5 0 0 0 0 1h15a.5.5 0 0 0 0-1zM22 30H2V2h12v8h8v20zM15 3l6 6h-6V3zm8.414 5.586l-8-8A2 2 0 0 0 14 0H2a2 2 0 0 0-2 2v28a2 2 0 0 0 2 2h20a2 2 0 0 0 2-2V10a2 2 0 0 0-.586-1.414zM19.5 26h-15a.5.5 0 0 0 0 1h15a.5.5 0 0 0 0-1zm0-4h-15a.5.5 0 0 0 0 1h15a.5.5 0 0 0 0-1z"  fill-rule="evenodd"/></symbol><symbol id="o-file-zip" viewBox="0 0 24 28"><path d="M22 18h-8v8H2V2h20v16zm-7 7v-6h6l-6 6zm7-25H2a2 2 0 0 0-2 2v24a2 2 0 0 0 2 2h12c.53 0 1.039-.21 1.414-.586l8-8A2 2 0 0 0 24 18V2a2 2 0 0 0-2-2zM11.904 14.317a.56.56 0 0 0 .408-.168.558.558 0 0 0 .168-.409V6.781a.558.558 0 0 0-.168-.409.555.555 0 0 0-.408-.168.555.555 0 0 0-.408.168.558.558 0 0 0-.168.409v6.959c0 .161.056.296.168.409a.56.56 0 0 0 .408.168zM7.866 8.88c-.132.313-.269.645-.414.996-.143.353-.288.697-.431 1.032-.336.792-.693 1.644-1.069 2.556a.512.512 0 0 0-.048.229c0 .112.033.219.096.324.12.168.28.252.48.252h2.88a.562.562 0 0 0 .409-.168.56.56 0 0 0 .168-.408.562.562 0 0 0-.168-.409.558.558 0 0 0-.409-.168H7.344l.259-.618c.107-.259.227-.546.359-.857.132-.313.27-.643.414-.99.145-.349.288-.691.433-1.027.327-.792.687-1.647 1.08-2.567a.526.526 0 0 0 .048-.229.614.614 0 0 0-.097-.324.56.56 0 0 0-.48-.252H6.48a.561.561 0 0 0-.408.168.555.555 0 0 0-.168.408c0 .161.056.296.168.409a.557.557 0 0 0 .408.168h2.016c-.064.16-.152.368-.264.624-.112.255-.234.54-.366.851zm7.494-1.475h.864c.24 0 .444.084.612.251a.835.835 0 0 1 .252.613v.672a.833.833 0 0 1-.252.611.833.833 0 0 1-.612.252h-.864V7.405zm-.576 6.912a.56.56 0 0 0 .408-.168.558.558 0 0 0 .168-.409v-2.784h.864a1.985 1.985 0 0 0 1.428-.588 2.001 2.001 0 0 0 .588-1.427v-.672a2.001 2.001 0 0 0-.588-1.429 2.001 2.001 0 0 0-1.428-.588h-1.44a.56.56 0 0 0-.408.168.555.555 0 0 0-.168.408v6.912c0 .161.056.296.168.409a.56.56 0 0 0 .408.168z"  fill-rule="evenodd"/></symbol><symbol id="o-keynote" viewBox="0 0 32 32"><path d="M2 18l3-8h22l3 8H2zm28 3H2v-2h28v2zm-17.374 9C13.837 27.648 14 24.054 14 24v-1h4v1c0 .054.163 3.648 1.374 6h-6.748zm.373-28h6c.551 0 1 .449 1 1 0 .551-.449 1-1 1h-6a1.001 1.001 0 0 1 0-2zm18.898 15.368l-3-8A2 2 0 0 0 27 8H7.999V5a1 1 0 0 1 1-1h1.183a2.992 2.992 0 0 0 2.817 2h6a3 3 0 1 0 0-6h-6a2.992 2.992 0 0 0-2.817 2H8.999c-1.655 0-3 1.346-3 3v3H5a2 2 0 0 0-1.897 1.368l-3 8A1.992 1.992 0 0 0 0 18v3a2 2 0 0 0 2 2h10v1c0 1.1-.9 6-2 6H7.999a1 1 0 1 0 0 2H24a1 1 0 0 0 0-2h-2c-1.1 0-2-4.9-2-6v-1h10a2 2 0 0 0 2-2v-3c0-.215-.035-.429-.103-.632z"  fill-rule="evenodd"/></symbol><symbol id="o-photo" viewBox="0 0 32 32"><path d="M23 6c.827 0 1.5.673 1.5 1.5S23.827 9 23 9s-1.5-.673-1.5-1.5S22.173 6 23 6zm0 4a2.5 2.5 0 1 0 0-5 2.5 2.5 0 0 0 0 5zM2 23V2h28v21H2zm28 7H2v-6h28v6zm0-30H2C.898 0 0 .895 0 2v28c0 1.104.898 2 2 2h28a2 2 0 0 0 2-2V2a2 2 0 0 0-2-2zm-5.804 19H7.723L14 8.015l4.27 7.466.83 1.452.885-1.419L21 13.888 24.196 19zm-5.059-4.016L14 6 6 20h20l-5-8-1.863 2.984z"  fill-rule="evenodd"/></symbol><symbol id="o-video" viewBox="0 0 32 32"><path d="M31.051 6.299a1.992 1.992 0 0 0-1.945-.088l-5.223 2.612A6.01 6.01 0 0 0 18 4H6c-3.308 0-6 2.692-6 6v12c0 3.308 2.692 6 6 6h12a6.01 6.01 0 0 0 5.883-4.823l5.223 2.612a1.997 1.997 0 0 0 1.946-.088A2 2 0 0 0 32 24V8c0-.693-.359-1.337-.949-1.701zM18 26H6c-2.206 0-4-1.794-4-4V10c0-2.206 1.794-4 4-4h12c1.9 0 4 2 4 4v12c0 2-2.1 4-4 4zm12-2l-5.223-2.612L23 20.5v-9l1.777-.888L30 8v16z"/></symbol><symbol id="o-volume-high" viewBox="0 0 32 32"><path d="M22.031 8.38a1 1 0 0 0-1.225 1.58C22.866 11.557 24 13.654 24 15.865c0 2.21-1.134 4.307-3.194 5.905a.999.999 0 1 0 1.225 1.58c2.56-1.984 3.97-4.642 3.97-7.485s-1.41-5.501-3.97-7.485zm-6.03-4.245v23.73L7.763 21H3c-.542 0-1-.458-1-1v-8c0-.542.458-1 1-1h4.764L16 4.135zM3 9c-1.656 0-3 1.346-3 3v8c0 1.654 1.344 3 3 3h4.04L18 32V0L7.04 9H3zm23.03-4.36a1 1 0 0 0-1.225 1.58C28.156 8.819 30 12.244 30 15.866c0 3.62-1.845 7.046-5.194 9.643a1 1 0 0 0 1.225 1.58c3.85-2.984 5.97-6.97 5.97-11.223 0-4.254-2.12-8.24-5.97-11.224z"  fill-rule="evenodd"/></symbol><symbol id="o-weight-scale" viewBox="0 0 32 32"><path d="M23.662 14H19V9.826c0-.248-.321-.345-.458-.139L15.667 14H8.339l-1.84-3.917A11.362 11.362 0 0 1 16 5a11.36 11.36 0 0 1 9.5 5.083L23.663 14zM16 4C11.818 4 7.955 6.068 5.666 9.531a1 1 0 0 0-.071.976l1.838 3.918c.165.351.518.575.906.575h15.323a.998.998 0 0 0 .905-.575l1.839-3.918a.998.998 0 0 0-.072-.976C24.044 6.068 20.182 4 16 4zm8.5 15h-17c-.275 0-.5.225-.5.5s.225.5.5.5h17c.275 0 .5-.225.5-.5s-.225-.5-.5-.5zm5.5 7c0 2.2-1.8 4-4 4H6c-2.2 0-4-1.8-4-4V6c0-2.2 1.8-4 4-4h20c2.2 0 4 1.8 4 4v20zM26 0H6C2.692 0 0 2.692 0 6v20c0 3.308 2.692 6 6 6h20c3.309 0 6-2.692 6-6V6c0-3.308-2.691-6-6-6zm-1.5 25h-17c-.275 0-.5.225-.5.5s.225.5.5.5h17c.275 0 .5-.225.5-.5s-.225-.5-.5-.5zm0-3h-17c-.275 0-.5.225-.5.5s.225.5.5.5h17c.275 0 .5-.225.5-.5s-.225-.5-.5-.5z"  fill-rule="evenodd"/></symbol><symbol id="upload" viewBox="0 0 28 32"><path d="M26 26H2c-1.098 0-2 .9-2 2v2c0 1.1.902 2 2 2h24c1.102 0 2-.9 2-2v-2c0-1.1-.898-2-2-2M2.805 13.344A3.138 3.138 0 0 0 4.75 14H10v6a3.999 3.999 0 1 0 8 0v-6h5.25a3.114 3.114 0 0 0 1.945-.656c1.075-.875 1.075-2.297 0-3.172L15.945.65c-1.074-.867-2.812-.869-3.882.008l-9.258 9.514c-1.075.875-1.075 2.297 0 3.172"  fill-rule="evenodd"/></symbol></svg>