<svg xmlns="http://www.w3.org/2000/svg" xmlns:xlink="http://www.w3.org/1999/xlink" style="display: none;"><symbol id="address-book" viewBox="0 0 32 28"><path d="M30 10h-2v8h2c1.102 0 2-.895 2-2v-4c0-1.105-.898-2-2-2M4 2v2H2a2 2 0 1 0 0 4h2v10H2a2 2 0 1 0 0 4h2v4a2 2 0 0 0 2 2h20V0H6a2 2 0 0 0-2 2m26-2h-2v8h2c1.102 0 2-.895 2-2V2c0-1.105-.898-2-2-2" fill-rule="evenodd"/></symbol><symbol id="alarm-alt" viewBox="0 0 32 32"><path d="M16 28C9.934 28 5 23.064 5 17 5 10.934 9.934 6 16 6s11 4.934 11 11c0 6.064-4.934 11-11 11m0-26C7.715 2 1 8.715 1 17s6.715 15 15 15 15-6.715 15-15S24.285 2 16 2m10-2c-1.363 0-2.59.492-3.594 1.262a17.095 17.095 0 0 1 8.657 7.884C31.64 8.23 32 7.164 32 6c0-3.314-2.684-6-6-6M16 9.75a.97.97 0 0 0-.97.88l-.522 5.227-4.422.444a.972.972 0 0 0-.88.97c0 .507.38.925.88.976l6.98.73h.028a.615.615 0 0 0 .61-.636l-.73-7.71A.974.974 0 0 0 16 9.75M9.594 1.262C8.59.492 7.367 0 6 0a6 6 0 0 0-6 6c0 1.164.36 2.23.938 3.146a17.104 17.104 0 0 1 8.656-7.884" fill-rule="evenodd"/></symbol><symbol id="anchor" viewBox="0 0 32 32"><path d="M16 8c-1.104 0-2-.898-2-2 0-1.102.896-2 2-2s2 .898 2 2c0 1.102-.896 2-2 2m14.75 12.004h-1.234L29.504 20c-.008 0-.01.004-.018.004L23.25 20c-.687 0-1.25.56-1.25 1.25.004.344.14.656.367.883l2.34 2.34-2.684 2.697c-.41.404-1.45.83-2.023.83h-2V11.633c2.326-.826 4-3.024 4-5.633a6 6 0 0 0-12 0c0 2.61 1.674 4.807 4 5.633V28h-2c-.57 0-1.598-.426-2-.828l-2.7-2.7 2.333-2.335c.226-.23.367-.543.367-.887 0-.686-.562-1.248-1.25-1.248L1.25 20C.563 20 0 20.56 0 21.25v7.5a1.252 1.252 0 0 0 2.133.887L4.47 27.3 7.173 30c1.158 1.16 3.19 2 4.828 2h8c1.63 0 3.662-.832 4.844-1.992l2.693-2.707 2.33 2.333a1.246 1.246 0 0 0 2.13-.88L32 22.51v-1.26c0-.69-.56-1.246-1.25-1.246" fill-rule="evenodd"/></symbol><symbol id="bed" viewBox="0 0 32 28"><path d="M30 4c-1.106 0-2 .895-2 2v14H3.998V2A2 2 0 1 0 0 2v24a2 2 0 1 0 3.998 0v-2H28v2a2 2 0 1 0 3.998 0V6A2 2 0 0 0 30 4zM9.998 10H6v8h3.998v-8zm16 2a2 2 0 0 0-2-2h-12v8h14v-6z" fill-rule="evenodd"/></symbol><symbol id="bell" viewBox="0 0 27 28"><path d="M25.936 20.398S21.132 13.96 21.132 10V9c0-4.97-3.582-9-8-9-4.42 0-8 4.03-8 9v1c0 3.96-4.805 10.397-4.805 10.397C-.33 21.277.034 22 1.132 22H25.14c1.094-.003 1.453-.723.797-1.602M13.132 28a4 4 0 0 0 4-4h-8c0 2.208 1.793 4 4 4" fill-rule="evenodd"/></symbol><symbol id="book" viewBox="0 0 28 32"><path d="M25.667 0H2.334c-.39 0-.75.104-1.072.272l17.555 5.163a4.695 4.695 0 0 1 3.35 4.477v16.92h3.5A2.332 2.332 0 0 0 28 24.5V2.333A2.333 2.333 0 0 0 25.667 0M18.16 7.674L0 2.334v22.753c0 1.035.682 1.947 1.675 2.24l15.167 4.46a2.334 2.334 0 0 0 2.992-2.24V9.913a2.333 2.333 0 0 0-1.675-2.238" fill-rule="evenodd"/></symbol><symbol id="bookmark" viewBox="0 0 24 32"><path d="M0 0v30.33c0 1.626 1.078 2.156 2.4 1.182l7.2-5.32c1.322-.977 3.478-.977 4.8 0l7.2 5.32c1.322.974 2.4.444 2.4-1.183V0H0z" fill-rule="evenodd"/></symbol><symbol id="burger" viewBox="0 0 32 28"><path d="M7.5 4C8.328 4 9 4.448 9 5s-.672 1-1.5 1S6 5.552 6 5s.672-1 1.5-1m5-2c.828 0 1.5.448 1.5 1s-.672 1-1.5 1S11 3.552 11 3s.672-1 1.5-1m7 0c.828 0 1.5.448 1.5 1s-.672 1-1.5 1S18 3.552 18 3s.672-1 1.5-1m5 2c.828 0 1.5.448 1.5 1s-.672 1-1.5 1S23 5.552 23 5s.672-1 1.5-1M3 12h26c1.1 0 2-.9 2-2 0-5.38-6.716-10-15-10C7.716 0 1 4.62 1 10c0 1.1.9 2 2 2m26 10H3c-1.1 0-2 .9-2 2v.5C1 26.425 3.7 28 7 28h18c3.3 0 6-1.575 6-3.5V24c0-1.1-.9-2-2-2m0-8H15.6L10 18l-4-4H3c-1.65 0-3 1.35-3 3s1.35 3 3 3h26c1.65 0 3-1.35 3-3s-1.35-3-3-3" fill-rule="evenodd"/></symbol><symbol id="calculator" viewBox="0 0 24 32"><path d="M20 8H3.996V4H20v4zm0 7c0 .55-.45 1-1 1h-2c-.55 0-1-.45-1-1v-2c0-.55.45-1 1-1h2c.55 0 1 .45 1 1v2zm0 12c0 .55-.45 1-1 1h-2c-.55 0-1-.45-1-1v-8c0-.55.45-1 1-1h2c.55 0 1 .45 1 1v8zm-6-12c0 .55-.45 1-1 1h-2c-.55 0-1-.45-1-1v-2c0-.55.45-1 1-1h2c.55 0 1 .45 1 1v2zm0 6c0 .55-.45 1-1 1h-2c-.55 0-1-.45-1-1v-2c0-.55.45-1 1-1h2c.55 0 1 .45 1 1v2zm0 6c0 .55-.45 1-1 1h-2c-.55 0-1-.45-1-1v-2c0-.55.45-1 1-1h2c.55 0 1 .45 1 1v2zM8 15c0 .55-.45 1-1 1H5c-.55 0-1-.45-1-1v-2c0-.55.45-1 1-1h2c.55 0 1 .45 1 1v2zm0 6c0 .55-.45 1-1 1H5c-.55 0-1-.45-1-1v-2c0-.55.45-1 1-1h2c.55 0 1 .45 1 1v2zm0 6c0 .55-.45 1-1 1H5c-.55 0-1-.45-1-1v-2c0-.55.45-1 1-1h2c.55 0 1 .45 1 1v2zM20 0H4a4.01 4.01 0 0 0-4 4v24c0 2.2 1.8 4 4 4h16a4.01 4.01 0 0 0 3.998-4V4c0-2.2-1.8-4-3.998-4z" fill-rule="evenodd"/></symbol><symbol id="calendar-add" viewBox="0 0 28 30"><path d="M9 18h4v-4a1 1 0 0 1 2 0v4h4a1 1 0 0 1 0 2h-4v4a1 1 0 0 1-2 0v-4H9a1 1 0 0 1 0-2zM0 28a2 2 0 0 0 2 2h24a2 2 0 0 0 2-2V10H0v18zM26 4h-2V2a2 2 0 1 0-4 0v2H8V2a2 2 0 1 0-4 0v2H2a2 2 0 0 0-2 2v2h28V6a2 2 0 0 0-2-2z" fill-rule="evenodd"/></symbol><symbol id="calendar" viewBox="0 0 28 30"><path d="M26 4h-2V2a2 2 0 1 0-4 0v2H8V2a2 2 0 1 0-4 0v2H2a2 2 0 0 0-2 2v2h28V6a2 2 0 0 0-2-2zM4 22h4v4H4v-4zm0-8h4v4H4v-4zm8 8h4v4h-4v-4zm0-8h4v4h-4v-4zm8 8h4v4h-4v-4zm0-8h4v4h-4v-4zM0 28a2 2 0 0 0 2 2h24a2 2 0 0 0 2-2V10H0v18z" fill-rule="evenodd"/></symbol><symbol id="camera-alt" viewBox="0 0 32 26"><path d="M27 11a2 2 0 1 1 0-4 2 2 0 0 1 0 4M16 22c-3.86 0-7-3.14-7-7s3.14-7 7-7 7 3.14 7 7-3.14 7-7 7M30 4h-5.11l-1.25-2.252C23.103.788 21.767 0 20.667 0h-9.336c-1.1 0-2.436.787-2.97 1.748L7.11 4H2C.9 4 0 4.9 0 6v18c0 1.1.9 2 2 2h28c1.1 0 2-.9 2-2V6c0-1.1-.9-2-2-2" fill-rule="evenodd"/></symbol><symbol id="cart" viewBox="0 0 32 32"><path d="M31.625 6.832A2.003 2.003 0 0 0 30 6H9.44L7.896 1.367A1.997 1.997 0 0 0 6 0H2a2 2 0 1 0 0 4h2.56L10.1 20.633A2 2 0 0 0 12 22h14a2 2 0 0 0 1.898-1.367l4-12a1.997 1.997 0 0 0-.273-1.8M14 24c-2.21 0-4 1.79-4 4a4 4 0 1 0 8 0c0-2.21-1.793-4-4-4m10 0c-2.21 0-4 1.79-4 4a4 4 0 1 0 8 0c0-2.21-1.793-4-4-4" fill-rule="evenodd"/></symbol><symbol id="chart-pie" viewBox="0 0 32 32"><path d="M20 12V5.008A13.274 13.274 0 0 1 26.992 12H20zM16 0v16h16C31.434 7.418 24.584.566 16 0zm-2 2.05C6.184 2.567 0 9.056 0 17c0 8.283 6.715 15 15 15 7.947 0 14.432-6.186 14.95-14H14V2.05z" fill-rule="evenodd"/></symbol><symbol id="chat" viewBox="0 0 32 32"><path d="M10 0C4.5 0 0 4.5 0 10v4c0 5.5 4.5 10 10 10v8l10-8h2c5.5 0 10-4.5 10-10v-4c0-5.5-4.5-10-10-10H10z" fill-rule="evenodd"/></symbol><symbol id="circle-add" viewBox="0 0 32 32"><path d="M21.998 18h-4v4c0 1.098-.9 2-2 1.998-1.1 0-2-.9-2-2v-4h-4c-1.1 0-2-.9-2-2s.9-2 2-2h4v-4c0-1.1.9-2 2-2s2 .9 2 2V14h4c1.1 0 2 .9 2 2s-.9 2-2 2m5.315-13.313c-6.245-6.246-16.38-6.25-22.628-.002-6.248 6.248-6.245 16.384 0 22.628 6.247 6.248 16.38 6.248 22.63 0 6.247-6.248 6.246-16.378-.003-22.626" fill-rule="evenodd"/></symbol><symbol id="clock" viewBox="0 0 32 32"><path d="M16 28C9.383 28 4 22.617 4 16S9.383 4 16 4s12 5.383 12 12-5.383 12-12 12m0-28C7.16 0 0 7.164 0 16s7.16 16 16 16c8.836 0 16-7.164 16-16S24.836 0 16 0m0 6.75c-.645 0-1.18.484-1.242 1.125l-.727 7.266-6.155.616A1.244 1.244 0 0 0 6.75 17c0 .645.484 1.18 1.125 1.244l9.602 1.004.023.002c.414 0 .75-.338.75-.773L17.242 7.875A1.243 1.243 0 0 0 16 6.75" fill-rule="evenodd"/></symbol><symbol id="cloud" viewBox="0 0 32 24"><path d="M26 8.98C26 4.02 22.008 0 17.082 0c-4.62 0-8.377 3.555-8.826 8.09-.115-.004-.225-.034-.342-.034-4.37 0-7.914 3.57-7.914 7.972C0 20.43 3.543 24 7.914 24h17.168C28.902 24 32 20.882 32 17.035a6.923 6.923 0 0 0-6.117-6.884c.05-.387.117-.77.117-1.17z" fill-rule="evenodd"/></symbol><symbol id="code" viewBox="0 0 32 32"><path d="M20.55.074a2.012 2.012 0 0 0-2.474 1.375l-8 28a2.004 2.004 0 0 0 1.926 2.548c.87 0 1.67-.572 1.922-1.45l8-28A2.003 2.003 0 0 0 20.55.073M9.413 8.584a2 2 0 0 0-2.828 0l-6 6a2 2 0 0 0 0 2.828l6 6c.39.39.902.586 1.414.586a2 2 0 0 0 1.414-3.414l-4.586-4.586 4.586-4.586a2 2 0 0 0 0-2.828m22 6l-6-6a2 2 0 1 0-2.828 2.828l4.586 4.586-4.586 4.586a2 2 0 1 0 2.828 2.828l6-6a2 2 0 0 0 0-2.828" fill-rule="evenodd"/></symbol><symbol id="coffee-togo" viewBox="0 0 28 32"><path d="M27.05 3.684l-1.1-.367c-.52-.174-1.09-.743-1.266-1.265L24.317.95C24.145.426 23.55 0 23 0H5c-.55 0-1.14.427-1.316.95L3.317 2.05c-.172.522-.743 1.09-1.266 1.265l-1.1.367C.43 3.858 0 4.45 0 5v2c0 .55.45 1 1 1h26c.55 0 1-.45 1-1V5c0-.55-.426-1.142-.95-1.316zM21.208 24H6.793l-1.23-8h16.875l-1.23 8zm-15.51 6.024C5.862 31.112 6.902 32 8 32h12c1.102 0 2.137-.888 2.305-1.976L25.387 10H2.617l3.08 20.024z" fill-rule="evenodd"/></symbol><symbol id="compass" viewBox="0 0 32 32"><path d="M14.588 14.586a2 2 0 1 1 2.828 2.828 2 2 0 0 1-2.828-2.828M8.932 23.07s7.07-1.414 9.898-4.242C21.66 16 23.074 8.93 23.074 8.93s-7.072 1.414-9.9 4.242C10.346 16 8.932 23.07 8.932 23.07M16 28C9.383 28 4 22.617 4 16 4.002 9.383 9.385 4 16.002 4 22.617 4 28 9.383 28 16s-5.383 12-12 12m.002-28H16C7.168 0 .002 7.164 0 16c0 8.836 7.168 16 16 16 8.84 0 16-7.164 16-16S24.84 0 16.002 0" fill-rule="evenodd"/></symbol><symbol id="contacts" viewBox="0 0 32 24"><path d="M27 8h-8c-.555 0-1-.447-1-1 0-.553.445-1 1-1h8a1 1 0 0 1 0 2zm0 4h-8c-.555 0-1-.447-1-1 0-.553.445-1 1-1h8a1 1 0 0 1 0 2zm-13 4H4v-1c0-1.65 2.25-3 5-3s5 1.35 5 3v1zM9 4a3 3 0 0 1 0 6 3 3 0 0 1 0-6zm21-4H2a2 2 0 0 0-2 2v20a2 2 0 0 0 2 2h6v-2H7c-.555 0-1-.447-1-1 0-.553.445-1 1-1h4a1 1 0 0 1 0 2h-1v2h12v-2h-1c-.555 0-1-.447-1-1 0-.553.445-1 1-1h4a1 1 0 0 1 0 2h-1v2h6a2 2 0 0 0 2-2V2a2 2 0 0 0-2-2z" fill-rule="evenodd"/></symbol><symbol id="dashboard" viewBox="0 0 32 32"><path d="M23.762 9.72c-.34-.44-.96-.5-1.402-.16-.438.36-.5.98-.14 1.4.202.26.48.38.78.38.22 0 .442-.08.62-.22.42-.36.5-.98.142-1.4m1.957 3.98a.974.974 0 0 0-1.2-.74.993.993 0 0 0-.74 1.198c.123.46.52.762.982.762.078 0 .16 0 .22-.02a.977.977 0 0 0 .737-1.2M16 28C9.383 28 4 22.617 4 16S9.383 4 16 4s12 5.383 12 12-5.383 12-12 12m0-28C7.16 0 0 7.164 0 16s7.16 16 16 16c8.836 0 16-7.164 16-16S24.836 0 16 0m4.28 6.96a1.007 1.007 0 0 0-1.338.48.977.977 0 0 0 .48 1.32c.14.08.277.1.418.1.38 0 .742-.202.922-.56.238-.5.02-1.1-.48-1.34m-12.84 6.1a.98.98 0 0 0-1.2.74c-.12.54.22 1.08.758 1.2.082.02.14.02.22.02.46 0 .862-.32.98-.78a.984.984 0 0 0-.758-1.18m8.5-5.06h.02c.538 0 .98-.46.98-1 0-.56-.442-1-1-1a1 1 0 0 0-1 1c.02.56.46 1 1 1m-2.88 13.883a2.936 2.936 0 1 0 5.876 0C18.942 20.258 16 10.823 16 10.823s-2.937 9.435-2.937 11.06M11.62 7.02c-.5.24-.698.84-.46 1.32.18.36.52.58.903.58a.914.914 0 0 0 .437-.12c.48-.24.7-.84.46-1.32-.26-.5-.84-.72-1.34-.46M8.16 9.8c-.34.44-.28 1.06.16 1.4.18.14.4.22.622.22.3 0 .578-.14.777-.38a.988.988 0 0 0-.157-1.4C9.12 9.3 8.5 9.36 8.16 9.8" fill-rule="evenodd"/></symbol><symbol id="database" viewBox="0 0 26 32"><path d="M0 7.965V12.5C0 14.987 5.82 17 13 17s13-2.015 13-4.5V7.968C23.224 10.032 17.983 11 13 11 8.02 11 2.776 10.03 0 7.965m0 8v4.536C0 22.987 5.82 25 13 25s13-2.015 13-4.5v-4.534C23.225 18.032 17.982 19 13 19c-4.982 0-10.225-.968-13-3.034M13 9c7.18 0 13-2.015 13-4.5S20.18 0 13 0 0 2.015 0 4.5C0 6.987 5.82 9 13 9M0 23.966V26.5C0 30.56 7.003 32 13 32s13-1.44 13-5.5v-2.534C23.225 26.032 17.982 27 13 27c-4.982 0-10.225-.968-13-3.034" fill-rule="evenodd"/></symbol><symbol id="document" viewBox="0 0 24 32"><path d="M20 15c0 .553-.445 1-1 1H5a1 1 0 0 1 0-2h14c.555 0 1 .447 1 1zm-1 7H5a1 1 0 0 1 0-2h14c.555 0 1 .447 1 1 0 .553-.445 1-1 1zm0 6H5a1 1 0 0 1 0-2h14c.555 0 1 .447 1 1 0 .553-.445 1-1 1zM14 8V0H0v32h23.998V10H16c-1.106 0-2-.895-2-2zm2-8v8h7.998L16 0z" fill-rule="evenodd"/></symbol><symbol id="download" viewBox="0 0 28 32"><path d="M26 26H2c-1.098 0-2 .9-2 2v2c0 1.1.902 2 2 2h24c1.102 0 2-.9 2-2v-2c0-1.1-.898-2-2-2M2.805 13.828l9.25 9.522c1.074.867 2.812.87 3.883-.008l9.257-9.514c1.075-.875 1.075-2.297 0-3.172A3.138 3.138 0 0 0 23.25 10H18V4a4 4 0 1 0-8 0v6H4.754a3.125 3.125 0 0 0-1.95.656c-1.073.875-1.073 2.297 0 3.172" fill-rule="evenodd"/></symbol><symbol id="edit" viewBox="0 0 32 32"><path d="M30.828 1.172a4 4 0 0 0-5.656 0l-1.414 1.413 5.656 5.657 1.414-1.415a4 4 0 0 0 0-5.655zM22 28H4V10h8V6H0v26h26V20h-4v8zM9.617 16.73l-1.402 7.055 7.058-1.403L28 9.655 22.344 4 9.617 16.73z" fill-rule="evenodd"/></symbol><symbol id="flag" viewBox="0 0 32 32"><path d="M2 0a2 2 0 0 0-2 2v28a2 2 0 1 0 4 0V2a2 2 0 0 0-2-2zm25.934 15.6c-.684-.88-.684-2.32 0-3.2l3.724-4.8c.682-.88.31-1.6-.828-1.6h-6.207c-1.14 0-2.728-.637-3.533-1.414l-1.21-1.172C19.073 2.637 17.483 2 16.345 2H6v16h6.207c1.14 0 2.73.637 3.533 1.414l1.213 1.172c.805.777 2.395 1.414 3.53 1.414H30.83c1.14 0 1.51-.72.828-1.6l-3.724-4.8z" fill-rule="evenodd"/></symbol><symbol id="folder" viewBox="0 0 32 28"><path d="M30.485 10H7.723c-1.136 0-2.36.854-2.724 1.896L.1 26.104C-.26 27.146.378 28 1.516 28h22.76c1.14 0 2.363-.854 2.727-1.896L31.9 11.896c.36-1.042-.276-1.896-1.415-1.896M7.723 8H26V4H12L8 0H1.56C.7 0 0 .697 0 1.56v18.7l3.11-9.018C3.75 9.395 5.733 8 7.723 8" fill-rule="evenodd"/></symbol><symbol id="heart" viewBox="0 0 32 28"><path d="M23.61 0c-3.376 0-6.266 1.918-7.606 4.68C14.664 1.917 11.766 0 8.402 0 3.766 0 0 5.23 0 9.703c0 .34.064.68.107 1.023.99 8.723 14.247 16.864 14.247 16.864.908.554 2.384.543 3.285-.024 0 0 13.235-8.375 14.26-16.84.036-.343.1-.683.1-1.023C32 5.23 28.234 0 23.61 0z" fill-rule="evenodd"/></symbol><symbol id="home" viewBox="0 0 32 32"><path d="M17.41.65c-.777-.866-2.047-.866-2.82 0L.422 16.427C-.352 17.293-.03 18 1.137 18H4v14h8V22h8v10h8V18h2.863c1.168 0 1.488-.707.71-1.572L17.41.65z" fill-rule="evenodd"/></symbol><symbol id="keyboard" viewBox="0 0 32 24"><path d="M28 7c0 .55-.45 1-1 1h-4c-.55 0-1-.45-1-1V5c0-.55.45-1 1-1h4c.55 0 1 .45 1 1v2zm0 6c0 .55-.45 1-1 1h-2c-.55 0-1-.45-1-1v-2c0-.55.45-1 1-1h2c.55 0 1 .45 1 1v2zm-2 6c0 .55-.45 1-1 1H7c-.55 0-1-.45-1-1v-2c0-.55.45-1 1-1h18c.55 0 1 .45 1 1v2zM4 13v-2c0-.55.45-1 1-1h4c.55 0 1 .45 1 1v2c0 .55-.45 1-1 1H5c-.55 0-1-.45-1-1zm0-8c0-.55.45-1 1-1h2c.55 0 1 .45 1 1v2c0 .55-.45 1-1 1H5c-.55 0-1-.45-1-1V5zm6 0c0-.55.45-1 1-1h2c.55 0 1 .45 1 1v2c0 .55-.45 1-1 1h-2c-.55 0-1-.45-1-1V5zm6 6v2c0 .55-.45 1-1 1h-2c-.55 0-1-.45-1-1v-2c0-.55.45-1 1-1h2c.55 0 1 .45 1 1zm0-6c0-.55.45-1 1-1h2c.55 0 1 .45 1 1v2c0 .55-.45 1-1 1h-2c-.55 0-1-.45-1-1V5zm6 6v2c0 .55-.45 1-1 1h-2c-.55 0-1-.45-1-1v-2c0-.55.45-1 1-1h2c.55 0 1 .45 1 1zm6-11H4C1.793 0 0 1.79 0 4v16c0 2.21 1.793 4 4 4h24c2.21 0 4-1.79 4-4V4c0-2.21-1.79-4-4-4z" fill-rule="evenodd"/></symbol><symbol id="keynote" viewBox="0 0 32 32"><path d="M0 18v3a2 2 0 0 0 2 2h10v5c0 1.1-.9 2-2 2H8v2h16v-2h-2c-1.1 0-2-.9-2-2v-5h10a2 2 0 0 0 2-2v-3H0zm28.897-8.632A2 2 0 0 0 27 8H8V5a1 1 0 0 1 1-1h1.182A2.992 2.992 0 0 0 13 6h6a3 3 0 1 0 0-6h-6a2.992 2.992 0 0 0-2.818 2H9C7.343 2 6 3.346 6 5v3H5a2 2 0 0 0-1.897 1.368L.615 16h30.77l-2.488-6.632z" fill-rule="evenodd"/></symbol><symbol id="lightbulb" viewBox="0 0 20 32"><path d="M20 10c0-5.523-4.477-10-10-10S0 4.477 0 10c0 2.262.78 4.325 2.045 6H2s4 6 4 8h8c0-2 4-8 4-8h-.045C19.22 14.325 20 12.262 20 10zM6 28c0 .728.414 1.34 1 1.69V30c0 1.1.9 2 2 2h2c1.1 0 2-.9 2-2v-.31c.586-.35 1-.962 1-1.69v-2H6v2z" fill-rule="evenodd"/></symbol><symbol id="link" viewBox="0 0 32 32"><path d="M29.63 3.81L28.196 2.37A8.078 8.078 0 0 0 22.46 0a8.083 8.083 0 0 0-5.738 2.37l-5.746 5.742c-3.156 3.158-3.154 8.322 0 11.476l1.436 1.438c.258.258.547.46.824.674l2.798-2.795c.036-.037.055-.086.082-.127a4.145 4.145 0 0 1-.832-.62l-1.437-1.437a4.07 4.07 0 0 1 0-5.737L19.59 5.24a4.044 4.044 0 0 1 2.87-1.18c1.085 0 2.105.423 2.866 1.18l1.438 1.438a4.067 4.067 0 0 1 0 5.74l-1.3 1.3c.667 1.532.968 3.183.914 4.825l3.258-3.26c3.15-3.154 3.15-8.318-.005-11.474zm-10.046 7.17a6.486 6.486 0 0 0-.804-.687l-2.813 2.81c-.035.036-.05.085-.08.124.3.168.58.373.83.623l1.438 1.438a4.065 4.065 0 0 1 0 5.738l-5.743 5.742a4.03 4.03 0 0 1-2.87 1.176 4.038 4.038 0 0 1-2.867-1.176l-1.44-1.437a4.07 4.07 0 0 1 0-5.738l1.302-1.3a11.157 11.157 0 0 1-.914-4.827L2.366 16.72c-3.157 3.16-3.152 8.323 0 11.478l1.437 1.44a8.085 8.085 0 0 0 5.74 2.366 8.08 8.08 0 0 0 5.74-2.367l5.743-5.744c3.152-3.154 3.152-8.318-.003-11.475l-1.44-1.437z" fill-rule="evenodd"/></symbol><symbol id="list" viewBox="0 0 32 26"><path d="M3 0a3 3 0 0 0 0 6 3 3 0 0 0 0-6m27 11H10a2 2 0 1 0 0 4h20a2 2 0 1 0 0-4m0 10H10a2 2 0 1 0 0 4h20a2 2 0 1 0 0-4M10 5h20a2 2 0 1 0 0-4H10a2 2 0 1 0 0 4M3 20a3 3 0 0 0 0 6 3 3 0 0 0 0-6m0-10a3 3 0 0 0 0 6 3 3 0 0 0 0-6" fill-rule="evenodd"/></symbol><symbol id="location" viewBox="0 0 24 32"><path d="M12 16a4 4 0 1 1 0-8 4 4 0 0 1 0 8m0-16C4 0 0 6 0 12s12 20 12 20 12-14 12-20S20 0 12 0" fill-rule="evenodd"/></symbol><symbol id="mail" viewBox="0 0 32 24"><path d="M30 0H2C.898 0 0 .896 0 2v.82l16 10 16-10V2a2 2 0 0 0-2-2M16 14.82c-.367 0-.734-.1-1.06-.303L0 5.18V22a2 2 0 0 0 2 2h28a2 2 0 0 0 2-2V5.18l-14.937 9.337A2.018 2.018 0 0 1 16 14.82" fill-rule="evenodd"/></symbol><symbol id="megaphone" viewBox="0 0 32 32"><path d="M18.208 27.854a.5.5 0 0 1-.632.316l-5.204-1.734a.5.5 0 0 1-.316-.633l.367-1.103 6.154 2.052-.37 1.102zM29.368.104L5 8.226v14l4.577 1.526-.367 1.102a3.478 3.478 0 0 0 .19 2.673 3.48 3.48 0 0 0 2.023 1.755l5.204 1.734a3.507 3.507 0 0 0 4.427-2.21l.37-1.104 7.944 2.647A2 2 0 0 0 32 28.45V2A2 2 0 0 0 29.368.105zM1.5 7.226c-.825 0-1.5.675-1.5 1.5v13c0 .825.675 1.5 1.5 1.5s1.5-.675 1.5-1.5v-13c0-.825-.675-1.5-1.5-1.5z" fill-rule="evenodd"/></symbol><symbol id="menu" viewBox="0 0 28 20"><path d="M26 16H2c-1.098 0-2 .9-2 2s.902 2 2 2h24c1.102 0 2-.9 2-2s-.898-2-2-2m0-8H2c-1.098 0-2 .9-2 2s.902 2 2 2h24c1.102 0 2-.9 2-2s-.898-2-2-2M2 4h24c1.102 0 2-.9 2-2s-.898-2-2-2H2C.902 0 0 .9 0 2s.902 2 2 2" fill-rule="evenodd"/></symbol><symbol id="microphone" viewBox="0 0 24 32"><path d="M22 8a2 2 0 0 0-2 2v6c0 4.412-3.586 8-8 8-4.41 0-8-3.588-8-8v-6a2 2 0 1 0-4 0v6c0 5.934 4.336 10.863 10 11.82V32h4v-4.18c5.668-.957 10-5.886 10-11.82v-6a2 2 0 0 0-2-2M12 22c3.3 0 6-2.7 6-6V6c0-3.3-2.7-6-6-6S6 2.7 6 6v10c0 3.3 2.7 6 6 6" fill-rule="evenodd"/></symbol><symbol id="music" viewBox="0 0 32 32"><path d="M11.97 3.317C10.886 3.512 10 4.575 10 5.674V6L10 20.6a7.896 7.896 0 0 0-3-.6c-3.867 0-7 2.686-7 6 0 3.315 3.133 6 7 6s7-2.685 7-6V11.274l14.002-2.547V18.6A7.906 7.906 0 0 0 25 18c-3.867 0-7 2.686-7 6 0 3.315 3.133 6 7 6s7-2.685 7-6l.002-22.326c0-1.1-.885-1.84-1.967-1.642L11.97 3.317z" fill-rule="evenodd"/></symbol><symbol id="newspaper" viewBox="0 0 32 32"><path d="M28.002 14H10V6h18.002v8zM27 22H11a1 1 0 1 1 0-2h16a1 1 0 1 1 0 2zm0 4H11a1 1 0 1 1 0-2h16a1 1 0 1 1 0 2zM6.002 0L6 25a1 1 0 1 1-2 0V6a2 2 0 0 0-4 0v20l.002.01a6 6 0 0 0 6 5.99h20A6 6 0 0 0 32 26V0H6.002z" fill-rule="evenodd"/></symbol><symbol id="notepad" viewBox="0 0 26 32"><path d="M20 14H6a1 1 0 0 1 0-2h14c.555 0 1 .447 1 1 0 .553-.445 1-1 1m0 6H6a1 1 0 0 1 0-2h14c.555 0 1 .447 1 1 0 .553-.445 1-1 1m0 6H6a1 1 0 0 1 0-2h14c.555 0 1 .447 1 1 0 .553-.445 1-1 1m4-23h-3V1c0-.55-.45-1-1-1s-1 .45-1 1v2h-5V1c0-.55-.45-1-1-1s-1 .45-1 1v2H7V1c0-.55-.45-1-1-1S5 .45 5 1v2H2a2 2 0 0 0-2 2v25a2 2 0 0 0 2 2h22a2 2 0 0 0 2-2V5a2 2 0 0 0-2-2" fill-rule="evenodd"/></symbol><symbol id="paint-roller" viewBox="0 0 32 32"><path d="M31 4h-3v2h2v5.246L16.727 15.04A1 1 0 0 0 16 16v4c-1.102 0-2 .9-2 2v8c0 1.1.898 2 2 2h2c1.098 0 2-.9 2-2v-8c0-1.1-.902-2-2-2v-3.246l13.277-3.793c.426-.122.723-.513.723-.96V5c0-.553-.445-1-1-1m-5 2V4c0-2.21-1.793-4-4-4H4C1.79 0 0 1.79 0 4v2c0 2.21 1.79 4 4 4h18c2.207 0 4-1.79 4-4" fill-rule="evenodd"/></symbol><symbol id="paintbrush" viewBox="0 0 32 32"><path d="M30.94.71a2.998 2.998 0 0 0-4.225.35L15.16 14.713l.044.038 3.88 3.458L31.21 5.025l.08-.092A2.997 2.997 0 0 0 30.94.71M5.104 24.312s-.982 4.767-4.45 6.113c0 0-.62.276-.654.916-.04.637.81.665.81.665S18.1 30.68 17.87 19.802l-3.996-3.56c-2.064.294-7.863 2.24-8.77 8.07" fill-rule="evenodd"/></symbol><symbol id="paper-airplane" viewBox="0 0 32 32"><path d="M.772 16.21c-1.016.543-1.03 1.46-.033 2.036l5.336 3.08L21 12l-9.643 10.498c-.747.808-1.357 2.37-1.357 3.47v5c0 1.1.636 1.363 1.414.585l4.53-4.53 6.31 3.646c1 .575 2.05.133 2.34-.983l7.333-28.42C32.215.15 31.62-.317 30.604.227L.772 16.21z" fill-rule="evenodd"/></symbol><symbol id="paperclip" viewBox="0 0 32 32"><path d="M15.488 2.825l-1.67 1.67c1.54.094 3.004.55 4.276 1.38l.222-.22a5.69 5.69 0 0 1 8.024-.003 5.68 5.68 0 0 1-.004 8.022L13.682 26.33a5.68 5.68 0 0 1-8.02 0A5.63 5.63 0 0 1 4 22.32c0-1.516.59-2.938 1.662-4.01l6.33-6.328a1.82 1.82 0 0 1 1.295-.538c.49 0 .95.19 1.297.538.348.348.54.806.537 1.296.003.49-.188.952-.534 1.3l-4.72 4.72a1.998 1.998 0 0 0 0 2.827c.782.78 2.048.78 2.83 0l4.718-4.718a5.81 5.81 0 0 0 1.71-4.128 5.798 5.798 0 0 0-1.706-4.12 5.792 5.792 0 0 0-4.13-1.715 5.796 5.796 0 0 0-4.128 1.71L2.834 15.48A9.602 9.602 0 0 0 0 22.32a9.605 9.605 0 0 0 2.834 6.84 9.634 9.634 0 0 0 6.836 2.826 9.65 9.65 0 0 0 6.84-2.826l12.654-12.657c3.772-3.77 3.774-9.905.004-13.68-3.77-3.767-9.908-3.763-13.68.002z" fill-rule="evenodd"/></symbol><symbol id="pencil-paintbrush-pen" viewBox="0 0 32 32"><path d="M11.762.164c-.31.387-.094.863-.094.863 1.31 2.56-.574 5.813-.574 5.813-2.473 3.828-.13 7.93.91 9.16h4.133C21.86 9.846 12.57.197 12.57.197s-.503-.42-.808-.033zM24 26.018L28 32l4-5.982V18h-8v8.018zm4-26A4.002 4.002 0 0 0 24 4h-4v11a1 1 0 0 0 2 0V6h2v10h8V4.018c0-2.21-1.793-4-4-4zm-24 0C1.79.018 0 1.79 0 4v2h8V4.018c0-2.21-1.793-4-4-4zM12 30a2 2 0 1 0 4 0V18h-4v12zM0 26.018L4 32l4-5.982v-18H0v18z" fill-rule="evenodd"/></symbol><symbol id="pencil" viewBox="0 0 32 32"><path d="M30.426 1.577a5.38 5.38 0 0 0-7.61 0l-2.495 2.495 7.614 7.61 2.492-2.497a5.38 5.38 0 0 0 0-7.608zm-28.54 20.93L0 32l9.496-1.886 17.02-17.02-7.61-7.61-17.02 17.02z" fill-rule="evenodd"/></symbol><symbol id="phone" viewBox="0 0 32 32"><path d="M31.37 5.098a8.13 8.13 0 0 0-1.646-2.578L28.058.843a2.832 2.832 0 0 0-1.9-.84 2.515 2.515 0 0 0-1.903.733l-4.738 4.736c-.988.99-.933 2.754.11 3.8l3.138 3.14c-.056.107-.12.216-.18.33-.826 1.506-1.95 3.572-4.11 5.73-2.16 2.16-4.227 3.286-5.73 4.112l-.333.18-3.137-3.137c-1.047-1.044-2.813-1.097-3.803-.11L.736 24.255c-.5.5-.76 1.174-.734 1.903.027.71.326 1.38.843 1.897l1.676 1.668a8.093 8.093 0 0 0 2.58 1.644 8.413 8.413 0 0 0 2.042.53c.46.06.94.097 1.43.102 4.906.054 10.508-2.795 15.59-7.84C29.205 19.08 32.056 13.48 32 8.573a11.973 11.973 0 0 0-.1-1.43 8.602 8.602 0 0 0-.53-2.044z" fill-rule="evenodd"/></symbol><symbol id="photo" viewBox="0 0 32 32"><path d="M28 24H4V4h24v20zm2-24H2C.9 0 0 .895 0 2v28c0 1.104.9 2 2 2h28a2 2 0 0 0 2-2V2c0-1.105-.894-2-2-2zm-7 11.5a2.5 2.5 0 1 0 0-5 2.5 2.5 0 0 0 0 5zM21 14l-1.863 2.984L14 8 6 22h20l-5-8z" fill-rule="evenodd"/></symbol><symbol id="photos" viewBox="0 0 32 32"><path d="M28 22H16V12h12v10zm2-14H14c-1.1 0-2 .895-2 2v20c0 1.104.9 2 2 2h16a2 2 0 0 0 2-2V10c0-1.105-.894-2-2-2zM4 4h12v2h4V2c0-1.105-.894-2-2-2H2a2 2 0 0 0-2 2v20a2 2 0 0 0 2 2h8V14H4V4z" fill-rule="evenodd"/></symbol><symbol id="plane" viewBox="0 0 32 28"><path d="M22 10L12 0H8l4.898 10H6L2 6H0l2 8-2 8h2l4-4h6.898L8 28h4l10-10h6c2.2 0 4-1.8 4-4s-1.8-4-4-4h-6z" fill-rule="evenodd"/></symbol><symbol id="popsicle" viewBox="0 0 18 32"><path d="M9 0C4.03 0 0 4.07 0 9.09V21c0 1.434 1.15 2.597 2.57 2.597h12.86c1.42 0 2.57-1.163 2.57-2.597V9.09C18 4.07 13.97 0 9 0zM7 30a2 2 0 0 0 4 0v-4.403H7V30z" fill-rule="evenodd"/></symbol><symbol id="pulse-wave" viewBox="0 0 32 32"><path d="M27.318 17l-4.102-9.573L18 17.5 12 0 4.455 28H2a2 2 0 1 0 0 4h5.545L12 14.5l6 13.598 4.784-11.525L24.682 21H30a2 2 0 0 0 0-4h-2.682z" fill-rule="evenodd"/></symbol><symbol id="puzzle" viewBox="0 0 32 32"><path d="M24.5 16.693c-.213.168-.958.557-1.25.557A1.25 1.25 0 0 1 22 16v-6h-6c-.69 0-1.25-.56-1.25-1.25 0-.243.264-.784.45-1.087.035-.056.07-.115.098-.15.44-.74.702-1.592.702-2.513A5 5 0 1 0 6 5c0 .915.264 1.762.694 2.5.167.213.556.958.556 1.25C7.25 9.44 6.69 10 6 10H0v22h6c.69 0 1.25-.56 1.25-1.25 0-.292-.39-1.037-.556-1.25A4.946 4.946 0 0 1 6 27a5 5 0 1 1 10 0 4.89 4.89 0 0 1-.7 2.512 1.833 1.833 0 0 0-.1.15c-.186.304-.45.845-.45 1.088 0 .69.56 1.25 1.25 1.25h6v-6c0-.69.56-1.25 1.25-1.25.243 0 .784.264 1.087.45.056.035.115.07.15.098.74.44 1.592.702 2.513.702a5 5 0 1 0 0-10c-.915 0-1.762.264-2.5.693z" fill-rule="evenodd"/></symbol><symbol id="question" viewBox="0 0 32 32"><path d="M16 28C9.383 28 4 22.617 4 16S9.383 4 16 4s12 5.383 12 12-5.383 12-12 12m0-28C7.164 0 0 7.164 0 16c0 8.84 7.164 16 16 16s16-7.16 16-16c0-8.836-7.164-16-16-16m-.032 6.99c-1.923 0-3.52.627-4.864 1.898-.384.33-.604.803-.604 1.3 0 .926.763 1.68 1.7 1.68.38 0 .773-.147 1.125-.43.796-.716 1.616-1.05 2.58-1.05 1.21 0 1.96.59 1.96 1.578 0 1.035-.898 1.645-2.682 1.815-.42.05-.78.24-1.012.544a1.427 1.427 0 0 0-.263 1.082l.215 1.85c.102.76.684 1.292 1.417 1.292h.128c.697 0 1.277-.522 1.42-1.315l.052-.607c2.816-.597 4.36-2.272 4.36-4.787 0-2.9-2.223-4.85-5.532-4.85m-.467 13c-1.154 0-2 .813-2 1.867v.27c0 1.053.846 1.864 2 1.864s2-.81 2-1.864v-.27c0-1.053-.844-1.865-2-1.865" fill-rule="evenodd"/></symbol><symbol id="quote" viewBox="0 0 32 28"><path d="M30 14h-4v-1.953C26.047 10.2 26.78 8 30 8V0c-8.805 0-12 7.176-12 12l.004 14c0 1.1.898 2 2 2H30c1.102 0 2-.9 2-2V16c0-1.1-.898-2-2-2m-18 0H8v-1.953C8.047 10.2 8.78 8 12 8V0C3.195 0 0 7.176 0 12l.004 14c0 1.1.898 2 2 2H12c1.102 0 2-.9 2-2V16c0-1.1-.898-2-2-2" fill-rule="evenodd"/></symbol><symbol id="redirect" viewBox="0 0 32 32"><path d="M22 28H4V10h4V6H0v26h26v-8h-4v4zM31.305.696A2.382 2.382 0 0 0 29.62 0L15.524 1.57a2.377 2.377 0 0 0-2.378 2.38c0 .656.468 1.728 1.652 2.146l5.433 1.23-9.308 9.31a3.138 3.138 0 0 0 0 4.443 3.137 3.137 0 0 0 4.44 0l9.314-9.31 1.23 5.436c.414 1.182 1.49 1.65 2.145 1.65a2.38 2.38 0 0 0 2.38-2.377L32 2.38c0-.658-.266-1.254-.695-1.684z" fill-rule="evenodd"/></symbol><symbol id="signs" viewBox="0 0 32 32"><path d="M28 16H6a2 2 0 0 0-2 2v4a2 2 0 0 0 2 2h8v6a2 2 0 1 0 4 0v-6h10l4-4-4-4zm-14-4v2h4v-2h8a2 2 0 0 0 2-2V6a2 2 0 0 0-2-2h-8V2a2 2 0 1 0-4 0v2H4L0 8l4 4h10z" fill-rule="evenodd"/></symbol><symbol id="tag" viewBox="0 0 32 32"><path d="M25.196 9.313a2.5 2.5 0 1 1 2.496-2.496 2.498 2.498 0 0 1-2.496 2.496zM32 2.918A2.923 2.923 0 0 0 31.14.86a2.91 2.91 0 0 0-2.066-.856V0H19.34v.024a2.853 2.853 0 0 0-1.964.832L.856 17.376v.003a2.913 2.913 0 0 0 0 4.124c1.14 1.14 8.5 8.504 9.64 9.64a2.918 2.918 0 0 0 4.13 0c.015-.01.023-.03.035-.042l16.47-16.465.015-.016a2.852 2.852 0 0 0 .832-1.967h.02v-.094L32 2.925l-.004-.004.004-.004z" fill-rule="evenodd"/></symbol><symbol id="theater-masks" viewBox="0 0 32 32"><path d="M21 28c-2.78 0-5.17-1.644-6.297-4h12.94c-.946 2.73-3.79 4-6.643 4m-3-12a2 2 0 1 1 0 4 2 2 0 0 1 0-4m6 0a2 2 0 1 1 0 4 2 2 0 0 1 0-4m6.002-4h-18a2 2 0 0 0-2 2L10 22c0 6.075 4.924 10 11 10s11-4 11-10v-8a2 2 0 0 0-1.998-2M8 4a2 2 0 1 1 0 4 2 2 0 0 1 0-4m6 0a2 2 0 1 1 0 4 2 2 0 0 1 0-4m-2 6h10V2a2 2 0 0 0-1.998-2h-18a2 2 0 0 0-2 2L0 10c0 5.034 3.385 8.586 8 9.656V14H5.06c.946-2.73 4.086-3.99 6.94-4" fill-rule="evenodd"/></symbol><symbol id="truck" viewBox="0 0 32 26"><path d="M24.5 19a3.5 3.5 0 1 0 0 7 3.5 3.5 0 0 0 0-7zm-16 0a3.5 3.5 0 1 0 0 7 3.5 3.5 0 0 0 0-7zM22 12V8h1.995c.148.008.49.122.605.2l5.078 3.8H22zm9.2-1.35L25.8 6.6c-.44-.33-1.25-.6-1.8-.6h-4v13.385C20.99 17.95 22.63 17 24.5 17c2.128 0 3.957 1.228 4.87 3H31c.55 0 1-.45 1-1v-6.75c0-.55-.36-1.27-.8-1.6zM16 0H2C.9 0 0 .9 0 2v16c0 1.1.9 2 2 2h1.63c.913-1.772 2.742-3 4.87-3s3.957 1.228 4.87 3H18V2c0-1.1-.9-2-2-2z" fill-rule="evenodd"/></symbol><symbol id="tv" viewBox="0 0 32 32"><path d="M27 18a2 2 0 1 1 0-4 2 2 0 0 1 0 4zm0 8a2 2 0 1 1 0-4 2 2 0 0 1 0 4zm-5 0c0 1.1-.9 2-2 2H6c-1.1 0-2-.9-2-2V14c0-1.1.9-2 2-2h14c1.1 0 2 .9 2 2v12zm6-18h-8.586l6.293-6.293A1 1 0 1 0 24.293.293L16.586 8h-1.172L7.707.293a1 1 0 1 0-1.414 1.414L12.586 8H4c-2.2 0-4 1.8-4 4v16c0 2.2 1.8 4 4 4h24c2.2 0 4-1.8 4-4V12c0-2.2-1.8-4-4-4z" fill-rule="evenodd"/></symbol><symbol id="umbrella" viewBox="0 0 32 32"><path d="M14 26a2 2 0 0 1-4 0 2 2 0 0 0-4 0c0 3.31 2.69 6 6 6s6-2.69 6-6v-6h-4v6zm4-21.863V2a2 2 0 0 0-4 0v2.137C6.695 5.035.91 10.76 0 18h32c-.914-7.24-6.7-12.965-14-13.863z" fill-rule="evenodd"/></symbol><symbol id="user-female" viewBox="0 0 24 32"><path d="M12 18C5.398 18 0 23.4 0 30c0 1.1.898 2 2 2h20c1.098 0 2-.9 2-2 0-6.6-5.402-12-12-12m-4.176-3.945C8.957 15.133 10.794 16 12 16c1.21 0 3.05-.883 4.184-1.966l-.024.025c3.43-.312 3.84-1.23 3.84-1.23-2.004-1.17-2-6.637-2-6.637C18 4.13 16.043 0 12 0 8.043 0 6 4.13 6 6.193c0 0 .004 5.468-2 6.636 0 0 .402.914 3.824 1.225" fill-rule="evenodd"/></symbol><symbol id="user" viewBox="0 0 24 32"><path d="M12 16c3.3 0 6-2.7 6-6V6c0-3.3-2.7-6-6-6S6 2.7 6 6v4c0 3.3 2.7 6 6 6m0 2C5.4 18 0 23.4 0 30c0 1.1.9 2 2 2h20c1.1 0 2-.9 2-2 0-6.6-5.4-12-12-12" fill-rule="evenodd"/></symbol><symbol id="users" viewBox="0 0 32 32"><path d="M11 20C4.95 20 0 24.63 0 30.286 0 31.23.824 32 1.836 32h18.332C21.172 32 22 31.23 22 30.286 22 24.63 17.047 20 11 20zm10.005-4.667c-1.297 0-2.538.224-3.695.614a7.08 7.08 0 0 1-2.2 2.692c4.183 1.32 7.39 4.28 8.467 8.36h6.596c1.004 0 1.832-.438 1.832-1.38 0-5.658-4.953-10.287-11-10.287zM11 18c2.75 0 5-2.25 5-5V9.667c0-2.75-2.25-5-5-5s-5 2.25-5 5V13c0 2.75 2.25 5 5 5zm7-5.7a4.947 4.947 0 0 0 3.005 1.033c2.75 0 5-2.25 5-5V5c0-2.75-2.25-5-5-5-2.686 0-4.88 2.15-4.98 4.812A6.966 6.966 0 0 1 18 9.667V12.3z" fill-rule="evenodd"/></symbol><symbol id="utensils" viewBox="0 0 32 32"><path d="M15 0c-1.656 0-3 1.344-3 3v15a2 2 0 0 0 2 2v10a2 2 0 1 0 4 0V3c0-1.656-1.344-3-3-3m11 0c-3.312 0-6 3.582-6 8 0 3.477 1.676 6.408 4 7.51V30a2 2 0 1 0 4 0V15.51c2.324-1.102 4-4.033 4-7.51 0-4.418-2.687-8-6-8M9 0a1 1 0 0 0-1 1v7H6V1a1 1 0 0 0-2 0v7H2V1a1 1 0 0 0-2 0v11a2 2 0 0 0 2 2h1v16a2 2 0 1 0 4 0V14h1a2 2 0 0 0 2-2V1c0-.553-.445-1-1-1" fill-rule="evenodd"/></symbol><symbol id="video" viewBox="0 0 32 24"><path d="M24 8v8l8 4V4l-8 4zm-6-8H4C1.8 0 0 1.8 0 4v16c0 2.2 1.8 4 4 4h14c2.2 0 4-1.8 4-4V4c0-2.2-1.8-4-4-4z" fill-rule="evenodd"/></symbol><symbol id="weather" viewBox="0 0 32 32"><path d="M31.38 14.985l-3.245-1.53c-.518-.243-.842-.593-.897-.963-.054-.367.157-.8.583-1.19l2.668-2.44c.356-.323.458-.854.254-1.293-.21-.44-.67-.695-1.142-.603l-3.565.65-.078.013c-.582.09-1.068-.026-1.336-.318-.24-.27-.32-.705-.208-1.234l.72-3.49A1.104 1.104 0 0 0 24.6 1.4a1.028 1.028 0 0 0-1.248.184l-2.533 2.578c-.313.32-.657.52-.99.57-.538.084-1.026-.245-1.33-.9L16.996.62a1.055 1.055 0 0 0-1.114-.607c-.46.072-.822.44-.89.915l-.524 3.523c-.108.722-.478 1.182-1.02 1.265-.33.052-.713-.037-1.108-.248l-3.15-1.704a1.04 1.04 0 0 0-1.252.202 1.117 1.117 0 0 0-.17 1.295l1.68 3.12c.255.474.304.914.148 1.245-.172.358-.602.615-1.186.706l-3.67.464c-.466.048-.845.433-.916.92-.076.48.174.957.606 1.16l3.244 1.53c.176.083.293.19.422.295a11.74 11.74 0 0 1 4.523-3.046c.747-1.856 2.36-3.283 4.43-3.603 3.15-.483 6.087 1.755 6.556 5 .017.115.015.227.023.34a11.985 11.985 0 0 1 3.466 4.24c.103-.033.182-.084.3-.103l3.67-.464c.467-.04.846-.434.92-.918a1.1 1.1 0 0 0-.605-1.16m-5.74 5.544c-.214 0-.42.032-.624.06-1.024-3.827-4.39-6.655-8.434-6.655-3.318 0-6.174 1.918-7.664 4.715a6.416 6.416 0 0 0-2.23-.414c-3.694 0-6.688 3.08-6.688 6.88C0 28.92 2.994 32 6.688 32H25.64c3.08 0 5.57-2.568 5.57-5.735 0-3.168-2.49-5.736-5.57-5.736" fill-rule="evenodd"/></symbol><symbol id="wine" viewBox="0 0 24 32"><path d="M4.5 10c.504-1.93 1.316-4.142 2.094-6h10.808c.746 1.793 1.578 4.032 2.094 6H4.5zM24 13.063C23.996 8.293 20 0 20 0H4S.004 8.293 0 13.063c-.004 4.27 4.324 8.23 10 9.023v5.247l-4.168 2.112C5.375 29.75 5 30.45 5 31s.45 1 1 1h12c.55 0 1-.45 1-1s-.375-1.25-.832-1.555L14 27.333v-5.247c5.676-.793 10.004-4.754 10-9.023z" fill-rule="evenodd"/></symbol><symbol id="world" viewBox="0 0 32 32"><path d="M21.92 22.123c-.56.48-1.702 1.065-2.202 1.89-.25.436-.245 1.02-.36 1.576-.256 1.237-.636 1.88-1.043 2.18-.48.417-1.048.16-1.048.16-.57-.176-1.018-.66-1.018-.66-1.61-1.65-.58-5.042-2.392-6.903-.86-.885-1.937-1.155-1.828-2.596.078-1.14.828-1.274 1.36-2.13.923-1.4-1.63-3.134-3.36-3.134a2.55 2.55 0 0 0-.25.013c-.65.07-1.067.37-1.397.37-.25 0-.45-.17-.665-.746-.328-.855-.078-1.996-.14-2.956a6.164 6.164 0 0 0-.272-1.435C9.494 5.447 12.578 4 16 4c.95 0 1.87.122 2.756.332-.354.833-.927 2.347-.507 2.725.095.027.188.04.277.04.746 0 1.282-.825 1.903-.825.19 0 .387.076.6.275 1 .9-.203 2.056-.812 2.67-1 1.006-.797 1.067-1.22 2.237-.147.343-.254.476-.34.476-.24 0-.314-1.04-.66-1.436-.206-.255-.567-.35-.978-.35-.7 0-1.548.278-2.02.515-1.063.524-1.282 1.83-.86 2.88.562 1.364 1.658 1.598 2.89 1.598.642 0 1.32-.063 1.98-.063.75 0 1.477.082 2.1.43 2.06 1.126 2.53 5.177.81 6.618M16 0C7.164 0 0 7.163 0 16c0 8.836 7.164 16 16 16 8.837 0 16-7.164 16-16 0-8.837-7.163-16-16-16" fill-rule="evenodd"/></symbol><symbol id="wrench" viewBox="0 0 32 32"><path d="M5 29a2 2 0 1 1 0-4 2 2 0 0 1 0 4M31.404 6.596L26.73 11.27c-.39.39-1.157.707-1.707.707h-4c-.55 0-1-.45-1-1v-4c0-.55.318-1.318.707-1.707L25.404.596c-3.53-1.268-7.624-.518-10.452 2.31-2.676 2.676-3.473 6.48-2.48 9.874L1.39 23.86a4.786 4.786 0 0 0 0 6.748 4.786 4.786 0 0 0 6.75 0l11.078-11.08c3.393.993 7.198.196 9.874-2.48 2.828-2.828 3.578-6.922 2.31-10.452" fill-rule="evenodd"/></symbol><symbol id="yin-yang" viewBox="0 0 32 32"><path d="M16 7.5c-1.103 0-2 .896-2 2s.897 2 2 2a2 2 0 0 0 0-4m4.537 19.87a6.76 6.76 0 0 0 2.244-5.026 6.79 6.79 0 0 0-6.78-6.78 5.913 5.913 0 0 1-5.906-5.908A5.913 5.913 0 0 1 16 3.75c6.755 0 12.25 5.495 12.25 12.25 0 5.15-3.2 9.56-7.713 11.37M16 24.5c-1.103 0-2-.896-2-2s.897-2 2-2a2 2 0 0 1 0 4M16 0C7.177 0 0 7.178 0 16c0 8.823 7.177 16 16 16 8.822 0 16-7.177 16-16 0-8.822-7.178-16-16-16" fill-rule="evenodd"/></symbol></svg>