<svg xmlns="http://www.w3.org/2000/svg" xmlns:xlink="http://www.w3.org/1999/xlink" viewBox="0 0 126.57 138.19"><defs><style>.\33 ac7d890-fd7c-407d-b3e3-d7c44511da33,.\33 adcdf27-2ef1-476f-aa05-6906f8ed1a79,.\33 e792c2f-fb6a-4567-bd06-ec6d36ba61e4,.\34 ebbeb2a-3c6e-4265-b941-9e6ddda8940b,.\35 6acf20d-49a1-4014-b907-a1face8e4c40,.\36 f7b530d-6dd0-434a-9a86-a4d912ece5a8,.\39 c6baa52-f2e1-4deb-954f-55a0c3c9bfab,.ab39d575-7226-4838-b99a-05db8b25c992,.b41e8603-574a-45e7-99df-6607417712d8,.f1fed8ee-6258-4a22-8e65-87ab8c55c669,.fbb33e45-f026-451d-9e47-cade100aa190{fill-rule:evenodd;}.ab39d575-7226-4838-b99a-05db8b25c992{fill:url(#6937ceae-d04d-4c24-bee2-e8ddc236a310);}.\39 c6baa52-f2e1-4deb-954f-55a0c3c9bfab{fill:url(#ddd4c3c9-68d9-4f2e-81b3-e2d9b963f8af);}.\33 ac7d890-fd7c-407d-b3e3-d7c44511da33{fill:url(#00f90824-3b25-441a-a039-27477e308ebc);}.\36 f7b530d-6dd0-434a-9a86-a4d912ece5a8{fill:url(#1d6f1b22-6d62-4411-af6f-631ad72c4068);}.f1fed8ee-6258-4a22-8e65-87ab8c55c669{fill:url(#aea6005f-4379-4913-80d8-ec4107300292);}.\33 adcdf27-2ef1-476f-aa05-6906f8ed1a79{fill:url(#fc801868-34cb-4eb0-b1a9-0b65afea7f95);}.b41e8603-574a-45e7-99df-6607417712d8{fill:url(#3d618ecb-ec57-4e40-978c-0eb68740cb45);}.\34 ebbeb2a-3c6e-4265-b941-9e6ddda8940b{fill:url(#e3340c21-5e9d-478d-aef2-fd3494387740);}.\35 6acf20d-49a1-4014-b907-a1face8e4c40{fill:url(#fcf0f7b9-f23b-4d0c-b5b7-a3b99e1dca96);}.\33 e792c2f-fb6a-4567-bd06-ec6d36ba61e4{fill:url(#11253291-edcf-429a-b3b6-d2bfef9a9b5d);}.fbb33e45-f026-451d-9e47-cade100aa190{fill:url(#a5a094ff-454f-48de-83aa-2dfce4d030be);}</style><linearGradient id="6937ceae-d04d-4c24-bee2-e8ddc236a310" x1="95.06" y1="137.19" x2="95.06" y2="118.95" gradientUnits="userSpaceOnUse"><stop offset="0" stop-color="#fff" stop-opacity="0.3"/><stop offset="0" stop-color="#fff" stop-opacity="0.5"/><stop offset="1" stop-color="#fff" stop-opacity="0.3"/></linearGradient><linearGradient id="ddd4c3c9-68d9-4f2e-81b3-e2d9b963f8af" x1="44.48" y1="135.67" x2="44.48" y2="122.19" xlink:href="#6937ceae-d04d-4c24-bee2-e8ddc236a310"/><linearGradient id="00f90824-3b25-441a-a039-27477e308ebc" x1="63.85" y1="1.42" x2="63.85" y2="126.18" gradientUnits="userSpaceOnUse"><stop offset="0" stop-color="#fff" stop-opacity="0.9"/><stop offset="0.51" stop-color="#fff" stop-opacity="0.8"/></linearGradient><linearGradient id="1d6f1b22-6d62-4411-af6f-631ad72c4068" x1="63.29" x2="63.29" y2="127.27" gradientUnits="userSpaceOnUse"><stop offset="0" stop-opacity="0.4"/><stop offset="1" stop-color="#1d1d1b" stop-opacity="0.6"/></linearGradient><linearGradient id="aea6005f-4379-4913-80d8-ec4107300292" x1="94.06" y1="138.19" x2="94.06" y2="119.95" gradientUnits="userSpaceOnUse"><stop offset="0" stop-color="#fff" stop-opacity="0.3"/><stop offset="0" stop-opacity="0.5"/><stop offset="1" stop-color="#1d1d1b" stop-opacity="0.3"/></linearGradient><linearGradient id="fc801868-34cb-4eb0-b1a9-0b65afea7f95" x1="43.48" y1="136.67" x2="43.48" y2="123.19" xlink:href="#aea6005f-4379-4913-80d8-ec4107300292"/><linearGradient id="3d618ecb-ec57-4e40-978c-0eb68740cb45" x1="89.77" y1="60.61" x2="89.77" y2="30.43" xlink:href="#aea6005f-4379-4913-80d8-ec4107300292"/><linearGradient id="e3340c21-5e9d-478d-aef2-fd3494387740" x1="84.99" y1="53.22" x2="84.99" y2="53.46" xlink:href="#aea6005f-4379-4913-80d8-ec4107300292"/><linearGradient id="fcf0f7b9-f23b-4d0c-b5b7-a3b99e1dca96" x1="39.56" y1="66.94" x2="39.56" y2="89.95" gradientUnits="userSpaceOnUse"><stop offset="0" stop-color="#fff" stop-opacity="0.3"/><stop offset="0" stop-color="#efefef" stop-opacity="0.5"/><stop offset="0" stop-opacity="0.5"/><stop offset="1" stop-color="#1d1d1b" stop-opacity="0.5"/></linearGradient><linearGradient id="11253291-edcf-429a-b3b6-d2bfef9a9b5d" x1="50.63" y1="39.87" x2="50.63" y2="46.18" gradientUnits="userSpaceOnUse"><stop offset="0" stop-color="#fff" stop-opacity="0.3"/><stop offset="0" stop-opacity="0.5"/><stop offset="1" stop-color="#1d1d1b" stop-opacity="0.5"/></linearGradient><linearGradient id="a5a094ff-454f-48de-83aa-2dfce4d030be" x1="113.14" y1="40.34" x2="113.14" y2="45.77" xlink:href="#11253291-edcf-429a-b3b6-d2bfef9a9b5d"/></defs><title>Asset 8</title><g id="f846da1e-3797-4b24-8233-2c25d0ec80c5" data-name="Layer 2"><g id="096d0b35-7856-488d-b377-eac9b41752e9" data-name="Layer 1"><path class="ab39d575-7226-4838-b99a-05db8b25c992" d="M96,135.45h-.22c0,.25.22.12.22,0,.48,0,.47.55.43,1.09-.55.41-1.16-.49-1.09.65-.85,0-1.13-.47-1.74-.65.28-.29.29-.81-.22-.87.59-.13.31-1.14.65-1.52-.41-1.59.21-1.85.22-3.69a7.64,7.64,0,0,1,0-3.47c0,.21.27.17.43.22,0-.21-.27-.17-.43-.22-1.21-2.47-.49-3.92-.87-6.73.88-.28,1.2-1.12,2.17-1.3-.31,3.07.69,6.42.43,9.55,0,.29.38.2.43.44.1.85-.46,1.13.22,1.52-.59.48-.06.72-.43,1.3.27,1-.3,2.13,0,3.26C96.09,135.06,96,135.2,96,135.45ZM95.39,122c-.06-.06-.33.1-.22.22S95.5,122.1,95.39,122ZM95,124.38c-.06-.06-.33.11-.22.22S95.06,124.49,95,124.38Zm-.43.65c-.17,0-.43,0-.43.22C94.25,125.2,94.51,125.24,94.52,125Zm.87,1.52c-.06-.06-.33.11-.22.22S95.5,126.66,95.39,126.55Zm-.43,1.3c.73.66.66-.8,0,0Zm1.08,0c-.06-.06-.33.1-.22.22S96.15,128,96,127.85Zm0,1.52c-.06-.06-.33.1-.22.22S96.15,129.48,96,129.37Zm0,3.91c-.06-.06-.33.1-.22.22S96.15,133.39,96,133.28Z"/><path class="9c6baa52-f2e1-4deb-954f-55a0c3c9bfab" d="M42.63,122.42c.59-.65,1.43.29,2.39,0a34.64,34.64,0,0,1,.43,5.21c.06.5-.05.82-.43.87.92,1.43.38,4,1.3,6.08-.26.32-.63.53-.65,1.09A3.44,3.44,0,0,1,43.5,135c0-.25,0-.39-.22-.43a1.77,1.77,0,0,1,.43-1.3c-.57-.72-.29-.68-.22-1.74-.6-1.84-.28-3.79-.65-5.64-.18-.62.3-.56.22-1.09C42.71,124,42.85,122.87,42.63,122.42Zm1.3,1.74c-.06-.06-.33.1-.22.21S44,124.27,43.93,124.16Zm.65.21c-.06-.06-.33.11-.22.22S44.7,124.49,44.58,124.38Zm.43,2.39c-.06-.06-.33.1-.22.22S45.13,126.88,45,126.77Zm-.65.43c-.06-.06-.33.1-.22.22S44.48,127.31,44.37,127.2Zm-.22.87c-.06-.06-.33.11-.22.22S44.26,128.18,44.15,128.07Zm.65,1.09c.13.31.26,0,0,0C45,128.25,44.15,129.11,44.8,129.15Zm.43,2c-.06-.06-.33.1-.22.22S45.35,131.22,45.24,131.11Zm.22,1.52c0-.12-.18-.25-.22,0S45.41,132.87,45.45,132.63Zm-.43.43c-.06-.06-.33.1-.22.22S45.13,133.17,45,133.06Z"/><path class="3ac7d890-fd7c-407d-b3e3-d7c44511da33" d="M124.43,71.25a57.66,57.66,0,0,0-4.56,11.07c-1.29,1.17-1.89,3-2.6,4.78-.21.45-.46.88-.65,1.3a14.48,14.48,0,0,1-.87,1.74,4,4,0,0,0-.65,2A3.1,3.1,0,0,0,114,93.18c.18,1.48-.61,2-.87,3-.17.82.26,1,.22,1.74-1,1-1.27,2.78-2.6,3.47.08,1.67-1.47,1.71-1.52,3.26-.54,0-.68.33-.87.65-2,.08-2.48,1.57-3.69,2.39a15.15,15.15,0,0,0-.44,2c-.66.42-1,1.19-1.52,1.74a2.84,2.84,0,0,0-1.3,1.74,12.42,12.42,0,0,0-3,2.39,1.85,1.85,0,0,1-1.3.22,16.13,16.13,0,0,1-5,5.21,12.12,12.12,0,0,0-3.47.87c-1,.88-2,1.76-3,2.61-.31,0-.61,0-.65.21-.66.14-1.87-.28-2.17.22a4.46,4.46,0,0,0-2-.65,5.07,5.07,0,0,0-2.17,1.08c-2,.27-3.7.69-5.21.87a12.65,12.65,0,0,1-1.74-1.09c-1.31.42-3.23-.49-4.34.43-1.94-.3-4.28-.2-5.21-1.52-2.05.28-3.88-.67-6.51-.43-.84.12-.89-.55-1.52-.65-3.38-.17-6.93-1.06-10.2-.65-1,0-1.23-.79-1.74-1.3-1.68.31-1.68-1.06-3.26-.87-1.41-1.77-4.57-1.8-6.29-3.26-.71-.12-1,.15-1.52.22a55.6,55.6,0,0,0-5.21-3.69c-.15-.43-1.21.05-1.3-.43-.39-.19-.55-.61-1.3-.43A11.61,11.61,0,0,0,19.58,109c-1.41-2-3.4-3.41-4.78-5.43A17.59,17.59,0,0,1,12.2,101c-.84-.82-2-1.35-2.39-2.61a9.53,9.53,0,0,1-2-1.52c-.25-1.17.07-.91.21-2-.8-2.1-2.29-3.5-2.82-5.86-1.49-1.62-2-4.18-3-6.29A59.75,59.75,0,0,1,2,76.25c.86-.22,2-.21,2.39-.87a2.63,2.63,0,0,0,2-1.09,5.76,5.76,0,0,0,3.26-1.52c1.68.31,1.89-.85,3.47-.65.75-1,2.23-1.24,3-2.17,1.23-.44,1.94-1.39,3.26-1.74a27.53,27.53,0,0,1,5.86-3.69h2c.73-.14,1-.77,1.73-.87.64-.59,1.46-1,1.74-2,.73-.42,1.71-.61,1.74-1.74,2-.22,2.59-1.9,3.69-3V55c.76-3.43,1.54-6.85,3-9.55-.4-2,.29-2.67.22-4.78a27.71,27.71,0,0,1,1.52-2.82c.64-.81.65-2.24,1.52-2.82a4,4,0,0,0,.22-1.74,2.8,2.8,0,0,0,1.09-2.39c.95-.28.85-1.62,1.52-2.17A4.07,4.07,0,0,0,45,27a3,3,0,0,0,1.52-2.17A10.12,10.12,0,0,0,48,22.62c1.12-1.34,2.12-2.8,3.26-4.13V17a8.62,8.62,0,0,0,2-1.3c.74-.28.82-1.2,1.74-1.3.77-1.25,2.27-1.79,3-3,1.35-.17,2.06-1,3-1.52,1.37-.15,1.87-1.17,3.26-1.3a3.71,3.71,0,0,0,1.08-2.17,10.19,10.19,0,0,0,4.13-.87c.84-.24,1.17-1,1.74-1.52h2.39C77.78,2.65,82.31.9,87.74,1.56c1,.33,1.43,1.18,2.17,1.74A4.4,4.4,0,0,1,93,4a8.51,8.51,0,0,1,4.34.87c.75,0,.32,1.13.87,1.3a10.65,10.65,0,0,1,3,1.52A7.09,7.09,0,0,1,104,9.38c.66-.16.79.22,1.3.22,1.57,1.39,4.09,1.84,5.43,3.47.62.17,1.15.44,1.74.65.67,1.29,1.94,2,2.17,3.69.6,1.28,1.86,1.9,2.17,3.47a12.09,12.09,0,0,1,2.17,2,4.35,4.35,0,0,0,1.74,2.39v1.09c1.19,1,1.25,3.09,2.39,4.12a10.46,10.46,0,0,0,.65,2.61,22.45,22.45,0,0,0,.22,7.16c.25,1,1.24,1.22,1.74,2,0,3.23.21,6.72-.87,8.9a4.05,4.05,0,0,0,.22,1.74c-.37,2-.33,4.45-1.09,6.08.33,3.61-.8,6.28-.43,10.42C123.45,70.35,124.49,70.26,124.43,71.25Z"/><path class="6f7b530d-6dd0-434a-9a86-a4d912ece5a8" d="M110.72,12h-.22c0,.25.22.12.22,0h.87a5.39,5.39,0,0,0,1.74,1.3c-.06.57.08.93.65.87v.65h-.22c0,.25.22.12.22,0h.65c.07.51.34.81.22,1.52,0,.17.18.25.43.22-.5.95,1.14,1.4,1.3,2.39.06.45.58.43.87.65,0,.17,0,.43-.21.43,1.81,1,2.33,3.32,3.91,4.56-.13.69.41.67,0,1.08a5.64,5.64,0,0,1,1.52,3c.06.31.47.25.65.43A23.94,23.94,0,0,0,124.39,33c0,.26,0,.62-.21.65,0,.17.18.25.43.22.15.58-.45.42-.65.65a23.36,23.36,0,0,0,.65,5.43,4.12,4.12,0,0,0,1.3.87,9.24,9.24,0,0,1,.22,4.34c-.06.63.49.67.43,1.3h-.43c.07,1.24-.53,2.93-.22,3.69a9,9,0,0,1-.87,1.09,3.75,3.75,0,0,0,.65.87,2.83,2.83,0,0,0-.22,2c-.13.8-.36,1.41-.43,2,0,.21.22.39.22.43,0,.55-.67.52-.22,1.3-.57-.07.2,1.22-.65.87,0,.43.59.28.43.87-.46,1.68-.25,2.88-.87,4.56.08-.37-.17-.41-.43-.43-.08.37.17.41.43.43.46.77,0,1.95,0,2.39-.31.13,0,.26,0,0,.45.56-.1,1.34,0,2.61.4.47.64,1.09,1.3,1.3-.29,1.23-1,2-1.3,3.26h-.43c-.13-.31-.26,0,0,0-.45,1.79-1.5,3-1.73,5-.22,0-.26.18-.43.22-.13-.32-.26,0,0,0,.19.92-.87,1.72-.43,2.17-.85.6-.54,2.35-1.73,2.6a7.92,7.92,0,0,1-.87,2c-.13-.31-.26,0,0,0-.1,1-.88,1.29-.87,2.39H117a2.78,2.78,0,0,1-1.08,2.39c.35.33,0,.92-.43,1.09.21,1.08-.58,1.16-.65,2h-.22V93c-.35-.09-.73.81-.21.87.08,1.16-.6,1.57-.87,2.39,0,.72.71.74.65,1.52-.82-.32,0,1-.87.65V99c-.22,0-.26.17-.43.22-.13-.32-.26,0,0,0,.23.55-.94.76-.22,1.08-.16.49-.65.65-1.09.87,0,.27-.06.51-.43.43.08,1.74-1.61,1.72-1.52,3.47-.75.29-1.56.84-1.52,1.3-.45.47-.62-.11-1.3,0-.66.43-1,1.16-1.74,1.52a14.37,14.37,0,0,0-.43,2,1.53,1.53,0,0,0-.87,1.3,1.64,1.64,0,0,0-1.09,1.3H102c.84.72-1.29,1-.65,1.52a.22.22,0,0,1-.43,0c-.37.79-1.45.87-1.74,1.74h-.65c0-.21-.27-.17-.43-.22,0,.21.26.17.43.22v.65c-.71-.59-1,1.33-1.74.22,0,.17,0,.43.22.43,0,.25-.34.24-.65.21v.65a3.06,3.06,0,0,0-1.52,1.74,30.28,30.28,0,0,0-3.25,2.39c-.22,0-.26-.18-.43-.21.13-.19.26-.39,0-.43a.22.22,0,0,0,0,.43c0,.48-.92.09-1.3.21s-1.34,1-1.52.65a5.3,5.3,0,0,1-2,1.52c0,.24-.32.34,0,.43-1.17.61-2.56,1.34-3.69.87-.17,0-.25.18-.22.43-1.14-.35-1.4-.22-2.17-.87-1.1.28-1.51,1.24-3,1.09-.17,0-.25.18-.21.43H75.33c-.17,0-.25.18-.22.44a4.45,4.45,0,0,0-2.6.22c-.36-.65-1.5-.53-1.74-1.3-.34.71-1.21.07-1.52.44-.47,0-.1-.77-.22-1.08-.63.19-.25.32-.22.87-.33,0-.8.07-.87-.22-1.34,1.16-2.36,0-3.91.44-1-.59-2.73-.45-3-1.74-.22.21-.44.43-.65.65a11.11,11.11,0,0,0-6.08-.65c-.24-.41-.84-.46-1.08-.87-2.37-.1-4.82-.51-6.51-.65h.44a.22.22,0,0,0-.44,0c-1.19.2-2.16-.45-2.6.22a5.4,5.4,0,0,0-2.17-.22c.17-1-1.31-.29-.87-1.52-.58.55-1.14-.13-2,0a1,1,0,0,0-.22-.65H37.77c-.1-.62-.93-.51-1.08-1.08-.47.36-1.13-.47-1.74-.65.32-.13,0-.26,0,0a8.73,8.73,0,0,1-3.47-1.52c-.32.11-.55.32-.87.43-.85-.32-1.72-.6-2-1.52-.28,0-.3.28-.65.22,0-.78-1.29-1.44-1.73-1.09-.25,0-.24-.34-.22-.65a1.79,1.79,0,0,0-1.3-.44c0-.21.18-.26.22-.43-.51-.07-.81-.34-1.52-.22-.05-.31-.36-.37-.43-.65-.77.38-1.12-.73-1.3-.22-.7-.09-.18-1.42-1.3-1.09v-.65A6.5,6.5,0,0,0,18,109.68v-.44c.18-.19.6-.13.65-.43-.44-.07-.68,0-.65.43h-.65c.19-.84-.53-.77-.65-1.3-1-1.21-2.34-2-3-3.47-.17,0-.43,0-.43.21a.22.22,0,0,1,0-.43c-.85-.67-1.42-2-2.39-2-.25-.91-.68-1.64-1.74-1.73-.2-.59-.67-.93-.87-1.52a1.44,1.44,0,0,1-.87-.87c-.13,0-.26,0-.22.22-.57-.45-.46-.57-1.08-.65a5.05,5.05,0,0,0-.43-2.17c.52.09-.12-1,.65-.65-.41-.74-.67-1.64-1.52-2,.47-1.06-1-1.41-.87-2.82.19.13.39.27.43,0a.22.22,0,0,0-.43,0c-.22,0-.26-.17-.43-.21.24-1.19-1-.9-.87-2,0-.25-.34-.24-.65-.22,0-.28.28-.3.22-.65C.6,84.7.24,81.07,0,77.34a9.22,9.22,0,0,0,.22-2.61c1,.49,2.14-.7,2.17.22-.25,0-.39,0-.43.21.25,0,.39,0,.43-.21.23-.05.52-.36.22-.43.18-.55,1.14-.3,1.52-.65.08-.5,1-.21.87-.87.86.27,1.53-.77,2-.22.23-.93,1.49-.82,2-1.52,1.22.7,2-1,3-.43.75-.34.84-1.33,2-1.3.25,0,.23-.34.22-.65.22,0,.26.18.43.22.46-.49,1.35-.53,1.52-1.3.69-.1,1.33-.27,1.52-.87h.65c.32-.19.69-.33.65-.87A1.62,1.62,0,0,0,20.41,65c.61.18.56-.31,1.08-.22a4.32,4.32,0,0,1,2-1.09c.17,0,.25-.18.22-.43.86.1,1.13-.45,1.52.22a.66.66,0,0,1,1.09-.22c1.1-.78,2.52-1.24,3-2.6.57-.09.65-.65,1.3-.65-.17-.75.24-.91.43-1.3.9.38,1.33-.81,1.52-.43.44-.06.43-.59.87-.65v-.87c.31.09.37.26.65,0,.29-1.66.15-3.78.87-4.78.13.31.26,0,0,0-.06-1.72.91-2.42.87-4.12.41,0,.15-.72.65-.65,0-.26,0-.62-.22-.65.48-.68,1.2-1.12,1.08-2.39h.22c0-.25-.22-.12-.22,0-.7-.86.19-2,.22-2.82.23-.81-.54-.62-.43-1.3.63,0,.38-.93,1.09-.87.29-.94.37-2.09,1.3-2.39-.45-.79.5-.58.22-1.74.7.27.17-.7.87-.43-.51-.25.17-.41.21-.65.08-.46-.19-.79,0-1.3,0-.13.56-.49.65-.65.22-.36.1-.57.43-.87,0-.17-.18-.25-.43-.22.55-.32.56-1.18,1.3-1.3a2,2,0,0,1,.65-1.52c.16-.67-.6-.42-.43-1.09a2.9,2.9,0,0,1,1.52-1.74c.13.32.26,0,0,0-.11-.69.39-.77.22-1.52.7.27.17-.7.87-.43-.24-.83,1.18-1.11.65-1.52.62-.61,1.4-1.06,1.52-2.17,1-.2,1-1.32,1.74-1.74V16.33c.51-.07.4-.75,1.08-.65,0-.13,0-.26-.21-.22a4,4,0,0,1,1.3-.65,6,6,0,0,0,1.52-1.52c1.09-.28,1.27-1.48,2.39-1.74.26-.32.19-1,.87-.87V10c2.06,0,2.61-1.44,4.34-1.74.17,0,.25-.18.22-.43.65,0,1.32,0,1.3-.65A1.41,1.41,0,0,0,63.39,7c-.12-.32.26-1.12-.21-1.09.19-.68,1.31-.43,1.3-1.3.54,0,.67.34,1.08.43.15-.43,1.29.14,1.09-.65.89.68,1.46-.46,2.39-.44a1.34,1.34,0,0,1,0-1.08c.07.49,1.07.49.43,0a6.69,6.69,0,0,1,3.26-.22c.38-.49,1.54-.2,1.74-.87.25,0,.62,0,.65.22A7.38,7.38,0,0,1,78.59.92c.17,0,.25-.18.22-.43.76.43,2.19,0,2.82-.43.29.07.41.31.87.22,2.44-.55,3.4-.09,5.64,0,.31.77,1,1.17,1.52,1.74.85-.4,2.32.21,3,.65,1.45-.26,1.4.24,2.6,0a6.91,6.91,0,0,0,3,1.08c-.31.65.18.74-.21,1.3.51.14,1.45,0,1.73.87,1.25,0,1.57,1,2.82,1.09-.06.57.85.17.65.87,1.27-.12,2,1.09,3.47,1.3V9.6c1.31,0,1.59,1,2.82,1.09,0,.28.28.3.22.65C110.22,10.95,110.7,11.4,110.72,12ZM86.84.48c-.06-.06-.33.1-.22.22S86.95.59,86.84.48ZM81.19.92c0-.12-.18-.25-.22,0S81.15,1.16,81.19.92ZM82.93.7c-.06-.06-.33.11-.22.22S83,.81,82.93.7ZM86.4.7c-.06-.06-.33.11-.22.22S86.51.81,86.4.7Zm-5.86.43c.13.32.26,0,0,0C80.41.82,80.28,1.16,80.54,1.13Zm1.3-.22c-.06-.06-.33.1-.21.22S82,1,81.84.92Zm6.3,0c-.06-.06-.33.1-.22.22S88.25,1,88.14.92Zm-5.43.22c-.06-.06-.33.1-.22.22S82.83,1.25,82.71,1.13Zm-5.43.43c-.06-.06-.33.1-.21.22S77.4,1.68,77.28,1.57ZM89.44,2c-.17,0-.43,0-.43.22C89.18,2.17,89.44,2.21,89.44,2ZM70.12,3.09c-.06-.06-.33.1-.22.22S70.23,3.2,70.12,3.09Zm-1.3,1.3c-.06-.06-.33.1-.22.22S68.93,4.5,68.82,4.39Zm.43,5.43c.31-.13,0-.26,0,0-.44.86-2,.65-2.6,1.3-.36-.48-1.28.3-1.74.43-1.17-.23-2.59,1.17-3.69,1.74-.67-.16-.79.22-1.3.22,0,.31,0,.62-.22.65a3.45,3.45,0,0,0-2,1.74h-.43a14.33,14.33,0,0,1-2.61,2.6,4.35,4.35,0,0,1-1.74,3,4.37,4.37,0,0,1-1.74,2.61c.21-.9-.65,0,0,0-.39.69-.68,1.5-1.52,1.74,0,1.42-1.35,1.54-1.3,3-.51.07-.49.67-.87.87-.24,1.86-1.62,2.58-1.74,4.56a3.3,3.3,0,0,0-1.3,2.39c-.56,0-.31,1-.87.43,0,.39.27.46.22.87-.33.47-.24,1.35-.87,1.52.29.79-.5,1.62-.87,2.39-.18.61.31.56.22,1.09H41.9c-.2,1.17-.26,2.48-.87,3.26a20.71,20.71,0,0,1-.87,4.56c-.45,2.3-.48,4.34-2,5.21.16.66-.22.79-.22,1.3a7.21,7.21,0,0,0,.44,2.6c-.38.49-.11,1.63-.65,2-1,.14-1.53-.29-2.17,0a1,1,0,0,1-.43.87c-.19-.41-.13.24-.44.22s-.39.19-.43.43c-.61,0-.59.71-1.08.87A5.51,5.51,0,0,0,31,65.83c0-.21-.27-.17-.43-.22-.75,1.2-2.46,1.45-3.26,2.6-.19-.64-.33.5-.87.22a3.75,3.75,0,0,1-.87.65c-.9.11-1.19.83-2.17.87-.22.29-.2.81-.65.87h-.65c.42.78-.08.8-.22,1.52.31,0,.62,0,.65.22a1,1,0,0,1-.65.22c0-.65-.9.21,0,0-.37.14-.36.66-.65.87-.33-1.24-2,.13-2.39-1.08,0,1-.53,0-1.08.22-1,1.25-3.22,1.27-4.13,2.61-1.85.17-2.67,1.38-3.69,2.38,0-.25-.4-.18-.65-.22-.63.83-1.29-.17-2.39.43-.23-.2-.07-.8-.65-.65-.27.53-1.38,1.36-.65,2.17a.22.22,0,0,1,.43,0c-.21.29-.73.28-.87.65.19,1.5.3,2.27.43,3.91.25,0,.38,0,.43.22-.1.68.31.85.43,1.3-.34,1.29,1,2.81,1.3,4.13.39,0,.46-.27.87-.22-.15.18-.34.59,0,.65,0-.47.77-.09,1.09-.21a1.57,1.57,0,0,0,.87,1.52c-.38,1,1.37,1.8.43,2,0-.18-.08-.21-.21-.22-.13-.32-.26,0,0,0,0,.18.08.21.21.22,0,.25,0,.38.22.43.06-.52.59.24.65.43.61,1.27,1.41,2.35,2,3.69-.9-.21,0,.65,0,0A10.32,10.32,0,0,0,15,99.26v.65c-.65,0,.21.9,0,0,.54,0,.53.49.87.65,0,.39.26.46.21.87.18.19.6.13.65.43.45,1.29,1.53,1.95,2.17,3,.37,0,.56-.37.65,0v.87c.42.52,1.3.58,1.3,1.52.88.13,1.11.92,1.73,1.3.15-.48.72.41.87.65.81,0,.62.24,1.3,0-.06.35.21.38.22.65,2,.52,2.92,2.14,5.21,2.38-.18.83,1,.26.87,1.09.35.06.37-.21.65-.22.09.85,1.21.67,1.3,1.52,1.81-.21,2.2,1,3.47,1.3.13.31.26,0,0,0,0-.21.27-.17.43-.22.07.73,1,.61,1.74.65-.34.77.74.13.65.65.94.15,1.75-.24,1.74.43a1.39,1.39,0,0,0,1.08-.22c-.19.69.34.67.43,1.09.88,0,1,.71,2.17.43,1.68,1.23,4.4.4,6.3,1.3.58-.52,1,.13,1.74-.21.43,0,.28.59.87.43a1.23,1.23,0,0,1,.87-.22,4.75,4.75,0,0,0,3,.65c.43,0,.28.59.87.43,1.5-.18,3,.23,4.78.22.47.5,1.57.81,2,.22.19.32.32.69.87.65a9.44,9.44,0,0,0,3.47-.22c1.28.91,2.19.23,3.47.87a6.13,6.13,0,0,1,3.26-.87c.76-.59,1.79-.54,2.6-1.08.69.57,1.21-.66,1.74.21a1.09,1.09,0,0,1,.65-.65c.68.66,1.68-.19,2.6,0,.5-.44.82-1.06,1.74-1.09-.11-1.14,1.2-1.21,1.08-1.74,2.74.33,4.93-1.71,6.95-2.82-.25,0-.12-.22,0-.22.7-.18.45-.18.87.22V114c1.37-.22,1.63-1.56,2.61-2.17-.41-.38-.49-.88,0-1.08.9.21,0-.65,0,0-.35-.43.54-1.47,1.3-1.52-.28-.93.45-.85.87-1.08v-1.09c1,.13,1-.72,1.52-1.08.84,0,.85-.75,1.52-.87h-.65c.39-.69,1.14-1,1.3-2,.17,0,.22.22.43.22-.15-.73.45-.71.65-1.09,0,.54.27.37.22,0a5.13,5.13,0,0,1,1.3-1.52c-.4-.41.95-.92,1.08-1.52-.46-.07,0-1,.43-.87,0-1.07.86-1.73.87-2.17h.43c.34-1,.37-1.55.87-2,.13.31.27,0,0,0V93.4c.35.06.37-.21.65-.22.33-1.48,1.51-2.11,1.52-3.91h.43a12.6,12.6,0,0,1-.22-3.26c1,.27.69-.76,1.3-.87a.22.22,0,0,0,.43,0c-.13-.3-.84,0-.87-.43,1.16-.51.92-2.41,2-3a1.4,1.4,0,0,0-.22-1.08c1,.1.47-1.27,1.3-1.3-.27-1,.6-.85.43-1.73.7.27.16-.7.87-.43.17-1.71.53-3.23,1.52-4.12-.37.08-.41-.17-.44-.43-.07-1.46,1.2-2.89.87-4.78.38-.05.49-.37.44-.87-.9-.72-.18-2.12,0-3h.65c.16-.59-.43-.44-.43-.87a5.34,5.34,0,0,0,.87-2c-1-.12.24-1.35-.43-2a3.74,3.74,0,0,0,.87-.65c-.7.19-.31-.71-.65-.87.7-.73.3-3.14.87-4.56a8.23,8.23,0,0,1,.22-2.82c-.42-.6.06-1,.22-2a4.25,4.25,0,0,1,0-.87c.06-.64-.26-1.33.21-2-.5-.81-1.22-1.52-.87-2.6-.25,0-.39,0-.43-.22.52-.14,0-1.34.43-1.52.31-.13,0-.26,0,0-.25,0-.39,0-.43-.22a13.64,13.64,0,0,1-.43-3c-.29-.21-.28-.73-.65-.87a1.87,1.87,0,0,0,.22-1.3c-.08-.29-.38-.34-.43-.65.55-.64-.19-1.83-.65-2.17a1.56,1.56,0,0,0,.43-.65c-.23-.5-.84-.6-1.08-1.09.23-.81-.46-.7-.65-1.08.41-.91-.74-2.66-.21-4.56-.22-.21-.44-.43-.65-.65a11.59,11.59,0,0,0-3.9-4.56c.21,0,.17-.27.21-.43a3.93,3.93,0,0,1-2-2c-.37,0-.56.37-.65,0s-.27-.46-.22-.87c-.68.25-.57-.06-1.08.22,0-.59-.36-.44,0-.87-1,.22-.72-.87-1.74-.65-1-1.31-2.83-1.81-4.34-2.61-.42-.88-1.36-1.25-1.52-2.39-.25-.32-.9-.26-.87-.87-.39,0-1.09.22-.87-.43-1.86-.23-3-1.23-4.56-1.74,1.15-.3-.71-.78,0,0a1.34,1.34,0,0,0-1.08,0C93.32,7,92.29,7,91.83,6.56c-.89.4-1.32-.35-2,0,.12-.48-.41-.31-.43-.65a9.38,9.38,0,0,0-3,.22c-.43-.32-.76.23-1.08-.43-.48.7-1.37.27-2.39.22-.29.22-.8.21-1.09.43,0-.38-.37-.49-.87-.43s-.67.34-1.08.43c-1.6.13-2.39,1.09-3.91,1.3q-.32.33-.65.65C74,8.8,72.44,9,71.42,9.82c-.21-.33-1.26.31-1.73.43C69.49,10.16,69.3,10.06,69.25,9.82ZM63.83,5.91c-.06-.06-.33.11-.22.22S63.94,6,63.83,5.91Zm14.76,0c-.06-.06-.33.11-.22.22S78.7,6,78.59,5.91Zm.87,0c-.06-.06-.33.11-.22.22S79.57,6,79.46,5.91ZM96.39,7.65c-.06-.06-.33.1-.22.22S96.5,7.76,96.39,7.65Zm-22.58.43c-.06-.06-.33.1-.22.22S73.92,8.19,73.81,8.08Zm-.43.43c-.06-.06-.33.1-.22.22S73.49,8.63,73.38,8.52Zm-1.52.22c-.06-.06-.33.1-.22.22S72,8.84,71.86,8.73Zm-11.29.22c-.06-.06-.33.1-.22.22S60.68,9.06,60.57,8.95Zm8.9,0c-.06-.06-.33.1-.22.22S69.58,9.06,69.47,8.95Zm-8.25.22c-.06-.06-.33.1-.22.22S61.33,9.28,61.22,9.17Zm-1.09.22c-.06-.06-.33.1-.22.22S60.25,9.5,60.13,9.38Zm41.47.22c-.06-.06-.33.11-.22.22S101.71,9.71,101.6,9.6ZM65.35,10.69c-.06-.06-.33.11-.22.22S65.46,10.8,65.35,10.69Zm-.65.22c-.17,0-.43,0-.43.22C64.43,11.07,64.69,11.11,64.7,10.9Zm43.2,0c-.06-.06-.33.1-.22.22S108,11,107.9,10.9Zm1.08,0c-.17,0-.43,0-.43.22C108.72,11.07,109,11.11,109,10.9Zm-52.1.43c-.06-.06-.33.11-.22.22S57,11.45,56.88,11.34Zm45.81.22c-.06-.06-.33.1-.21.22S102.8,11.67,102.68,11.55ZM62.52,12c-.24,0-.34-.32-.43,0A.22.22,0,0,0,62.52,12Zm-5.64.22c-.17,0-.43,0-.43.22C56.61,12.37,56.87,12.42,56.88,12.21Zm-2.17,1.09c-.06-.06-.33.11-.22.22S54.82,13.4,54.71,13.29Zm56,0c-.06-.06-.33.11-.22.22S110.83,13.4,110.72,13.29Zm-56.88.43c-.06-.06-.33.1-.22.22S54,13.84,53.84,13.73Zm-.87.43c-.06-.06-.33.1-.22.22S53.08,14.27,53,14.16Zm60.13,0c-.06-.06-.33.1-.22.22S113.22,14.27,113.11,14.16Zm1.3.87c-.06-.06-.33.11-.22.22S114.52,15.14,114.41,15Zm.21.44c-.06-.06-.33.1-.21.22S114.74,15.57,114.62,15.46ZM51,17c0-.12-.18-.25-.22,0S51,17.23,51,17Zm0,1.52c-.06-.06-.33.1-.22.22S51.13,18.61,51,18.5Zm-1.3.87h.43v-.43h-.43Zm1.3-.43c-.06-.06-.33.1-.22.22S51.13,19,51,18.94Zm.87.87a.6.6,0,0,0-.43-.65A.6.6,0,0,0,51.89,19.8Zm2.17-.22c-.31.13,0,.26,0,0C54.37,19.45,54,19.32,54.06,19.59Zm-5.43.87c-.25,0-.62,0-.65.22C48.23,20.64,48.59,20.71,48.63,20.46Zm-.65.43c-.17,0-.43,0-.43.22C47.71,21.06,48,21.1,48,20.89Zm-.87,1.3c-.24,0-.34-.32-.44,0A.22.22,0,0,0,47.11,22.19ZM48,22c-.06-.06-.33.11-.22.22S48.09,22.09,48,22Zm70.56.22c-.06-.06-.33.1-.22.22S118.65,22.3,118.53,22.19Zm-2.17,1.3c-.17,0-.43,0-.43.22C116.1,23.66,116.36,23.71,116.36,23.49Zm2.17.43c.13.32.27,0,0,0C118.4,23.61,118.27,24,118.53,23.93Zm.22,1.09c-.17,0-.43,0-.43.22C118.49,25.18,118.75,25.23,118.75,25Zm-1.3.22c-.06-.06-.33.1-.21.22S117.56,25.34,117.45,25.23Zm3.26.43c-.06-.06-.33.1-.22.22S120.82,25.78,120.71,25.67Zm.65.43c-.06-.06-.33.1-.22.22S121.47,26.21,121.36,26.1ZM43.85,27c-.06-.06-.33.11-.22.22S44,27.08,43.85,27Zm77.07.22c-.06-.06-.33.1-.22.22S121,27.3,120.92,27.19Zm-3.47.87c-.06-.06-.33.1-.21.22S117.56,28.17,117.45,28.05Zm5.21,2.6c-.06-.06-.33.1-.22.22S122.77,30.77,122.66,30.66ZM46,30.88c-.06-.06-.33.1-.22.22S46.14,31,46,30.88ZM41.9,32.61c-.24,0-.34-.32-.43,0S41.84,32.89,41.9,32.61Zm.65,0c-.06-.06-.33.1-.22.22S42.66,32.73,42.55,32.61Zm81.41.87c0-.23-.1-.55-.22-.22S123.85,33.82,124,33.48Zm-4.12.22c-.06-.06-.33.11-.22.22S120,33.81,119.84,33.7Zm3.91.65c-.06-.06-.33.1-.22.22S123.86,34.46,123.74,34.35Zm-83.37,2a.22.22,0,0,0-.43,0C40.19,36.28,40.28,36.62,40.38,36.3Zm83.37-.22c-.06-.06-.33.1-.22.22S123.86,36.2,123.74,36.09Zm-.87.65c-.06-.06-.33.1-.22.22S123,36.85,122.88,36.74Zm-2.6.22c-.06-.06-.33.1-.22.22S120.38,37.07,120.27,37Zm3.69.22c-1.57-.61-.51.67,0,0Zm-3.25,0c-.06-.06-.33.1-.22.22S120.82,37.28,120.71,37.17Zm-81.41.22c-.06-.06-.33.1-.22.22S39.41,37.5,39.29,37.39Zm82.93.22c-.06-.06-.33.1-.22.22S122.34,37.72,122.23,37.61ZM39.29,38c0-.12-.17-.25-.22,0S39.25,38.29,39.29,38Zm84.67.65c0-.12-.17-.25-.22,0S123.92,38.94,124,38.69ZM38.21,40.43c0-.12-.18-.25-.22,0S38.17,40.67,38.21,40.43Zm4.13.43c-.17,0-.43,0-.43.22C42.07,41,42.33,41.07,42.33,40.86Zm82.5.22c-.06-.06-.33.11-.22.22S124.94,41.19,124.83,41.08Zm.87.65a.6.6,0,0,0-.43-.65A.6.6,0,0,0,125.7,41.73Zm-87.49,0c-.17,0-.43,0-.43.22C37.94,41.9,38.2,41.94,38.21,41.73Zm-.65,1.52c-.32.13,0,.26,0,0C38.46,43.46,37.6,42.6,37.56,43.25Zm.87.87c-.06-.06-.33.11-.22.22S38.54,44.23,38.43,44.12Zm87.49,0c-.06-.06-.33.1-.22.22S126,44.23,125.91,44.12Zm-.43,1.74c-.06-.06-.33.11-.22.22S125.59,46,125.48,45.86Zm0,1.3c0-.12-.17-.25-.22,0S125.44,47.41,125.48,47.16Zm.43,0c-.06-.06-.33.1-.22.22S126,47.27,125.91,47.16Zm-.43.87c-.17,0-.43,0-.43.22C125.22,48.2,125.48,48.24,125.48,48Zm-3.47.43c-.06-.06-.33.1-.22.22S122.12,48.57,122,48.46Zm3.26.43c-.06-.06-.33.1-.22.22S125.38,49,125.26,48.9Zm-2,1.3c-.06-.06-.33.11-.22.22S123.42,50.31,123.31,50.2Zm.65,0c-.06-.06-.33.11-.22.22S124.07,50.31,124,50.2Zm-1.73.22c-.06-.06-.33.1-.22.22S122.34,50.53,122.23,50.41Zm-.65.87a.22.22,0,0,0-.43,0C121.38,51.26,121.48,51.6,121.57,51.28Zm-.21,2.39c.13.32.26,0,0,0C121.22,53.36,121.09,53.69,121.36,53.67Zm-83.15.22c-.06-.06-.33.1-.22.22S38.32,54,38.21,53.89Zm-.22.43c-.06-.06-.33.1-.22.22S38.1,54.44,38,54.32Zm83.15.22c-.06-.06-.33.11-.22.22S121.25,54.65,121.14,54.54Zm0,.87c0,.25.22.12.22,0,.31-.13,0-.26,0,0h-.22C121.35,54.51,120.49,55.37,121.14,55.41Zm3.47-.21c-.53.73.73-.53,0,0Zm-88.14.21c-.06-.06-.33.11-.22.22S36.58,55.52,36.47,55.41Zm84.67.43c-.06-.06-.33.11-.22.22S121.25,56,121.14,55.84Zm1.08.87c0-.12-.18-.25-.22,0S122.18,57,122.23,56.71Zm-84.45.43c-.17,0-.43,0-.43.22C37.51,57.31,37.77,57.35,37.77,57.14Zm82.93.22c-.06-.06-.33.11-.22.22S120.82,57.48,120.71,57.36Zm2.39,0c-.06-.06-.33.11-.22.22S123.21,57.48,123.09,57.36Zm-2,.65c-.06-.06-.33.11-.22.22S121.25,58.12,121.14,58Zm1.08.22c-.06-.06-.33.1-.22.22S122.34,58.34,122.23,58.23Zm2,.87c-.06-.06-.33.1-.22.22S124.29,59.21,124.18,59.1Zm-3,.87c-.17,0-.43,0-.43.22C120.87,60.14,121.13,60.18,121.14,60Zm-84.67.65c-.06-.06-.33.1-.22.22S36.58,60.73,36.47,60.62Zm.43.43c-.17,0-.43,0-.43.22C36.64,61.22,36.9,61.26,36.91,61.05Zm83.8,0c-.06-.06-.33.1-.22.22S120.82,61.16,120.71,61.05Zm-86.62.22c-.06-.06-.33.11-.22.22S34.2,61.38,34.08,61.27Zm.43,0c-.06-.06-.33.11-.22.22S34.63,61.38,34.52,61.27Zm88.79.22c-.06-.06-.33.1-.22.22S123.42,61.6,123.31,61.49Zm-88.58.65c0-.12-.18-.25-.22,0S34.69,62.38,34.73,62.14Zm88.79.65c-.06-.06-.33.11-.22.22S123.64,62.9,123.53,62.79Zm-3.25.87c0-.12-.18-.25-.22,0S120.23,63.9,120.27,63.66Zm-96.61.43a.6.6,0,0,0,.65-.43A.6.6,0,0,0,23.66,64.09Zm-.22.22c-.06-.06-.33.11-.22.22S23.56,64.42,23.44,64.31Zm-1.52,1.3c0-.12-.18-.25-.22,0S21.88,65.86,21.93,65.61Zm7.6,0c-.06-.06-.33.1-.22.22S29.64,65.72,29.52,65.61Zm94,.22c-.06-.06-.33.11-.22.22S123.64,65.94,123.53,65.83Zm-95.09.43c-.06-.06-.33.11-.21.22S28.55,66.38,28.44,66.26Zm-.21.43c-.06-.06-.33.11-.22.22S28.33,66.81,28.22,66.7Zm94,0c-.06-.06-.33.11-.22.22S122.34,66.81,122.23,66.7ZM19.1,67.35a.22.22,0,0,0-.43,0C18.72,67.61,18.91,67.48,19.1,67.35Zm100.52.43c0-.23-.1-.55-.22-.21S119.5,68.12,119.62,67.78ZM25.18,68c0-.12-.18-.25-.22,0S25.14,68.24,25.18,68Zm-8.47,0c-.06-.06-.33.1-.22.22S16.83,68.11,16.72,68Zm106.38.43c0-.12-.18-.25-.22,0S123.05,68.68,123.09,68.43Zm-106.6,0c-.06-.06-.33.1-.22.22S16.61,68.55,16.5,68.43Zm6.3.22c0-.12-.18-.25-.22,0S22.75,68.9,22.8,68.65Zm99.86.22c-.06-.06-.33.11-.22.22S122.77,69,122.66,68.87Zm.87,0c-.06-.06-.33.11-.22.22S123.64,69,123.53,68.87Zm-99.21.43c-.06-.06-.33.11-.22.22S24.43,69.41,24.31,69.3Zm99.21,0c-.06-.06-.33.11-.22.22S123.64,69.41,123.53,69.3Zm-2.39.43c-.06-.06-.33.11-.22.22S121.25,69.85,121.14,69.74ZM118.75,71c-.06-.06-.33.1-.22.21S118.86,71.15,118.75,71Zm5.86.21a.22.22,0,0,0-.43,0C124.42,71.23,124.52,71.57,124.61,71.26Zm-114.19.44c-.06-.06-.33.1-.22.22S10.53,71.8,10.42,71.69Zm9.34,0c-.06-.06-.33.1-.22.22S19.87,71.8,19.76,71.69Zm-.22.65c-.06-.06-.33.1-.22.22S19.65,72.45,19.54,72.34Zm-3,.22c-.17,0-.43,0-.44.22C16.23,72.73,16.49,72.77,16.5,72.56Zm4.13,0c-.06-.06-.33.11-.22.22S20.73,72.67,20.62,72.56Zm102.9.43c-.06-.06-.33.11-.22.22S123.64,73.11,123.53,73Zm-107.24.22c-.06-.06-.33.11-.22.22S16.39,73.32,16.28,73.21ZM119,73.86c-.06-.06-.33.11-.22.22S119.08,74,119,73.86ZM4.77,74.08c-.17,0-.43,0-.43.22C4.51,74.25,4.77,74.29,4.77,74.08ZM119,74.29c-.06-.06-.33.11-.22.22S119.08,74.41,119,74.29ZM3.47,74.73c-.06-.06-.33.11-.22.22S3.58,74.84,3.47,74.73Zm-2,.87c-.06-.06-.33.1-.22.22S1.63,75.71,1.52,75.6ZM122,76c-.06-.06-.33.11-.22.22S122.12,76.15,122,76ZM5.21,77.55c-.06-.06-.33.11-.22.22S5.32,77.66,5.21,77.55Zm111.15,1.09c-.06-.06-.33.11-.22.22S116.48,78.75,116.36,78.64Zm-.43.43c0-.12-.18-.25-.22,0S115.89,79.32,115.93,79.07Zm4.78.43c-.06-.06-.33.11-.22.21S120.82,79.62,120.71,79.51Zm-5.21.43c-.65,0,.21.9,0,0C115.81,79.81,115.47,79.68,115.49,79.94ZM1.74,81c-.06-.06-.33.11-.22.21S1.85,81.14,1.74,81Zm113.54.21c-.17,0-.43,0-.43.22C115,81.41,115.27,81.45,115.28,81.24Zm-.43.65c0-.12-.18-.25-.22,0S114.8,82.14,114.84,81.9Zm.65-.22c-.06-.06-.33.11-.22.22S115.61,81.79,115.49,81.67ZM1.3,82.33c-.06-.06-.33.1-.22.22S1.41,82.44,1.3,82.33Zm113.76,0c-.06-.06-.33.1-.22.22S115.17,82.44,115.06,82.33Zm4.34.22c-.06-.06-.33.11-.22.22S119.52,82.66,119.4,82.54ZM1.08,82.76C1,82.7.75,82.87.87,83S1.2,82.87,1.08,82.76Zm113.76.87c0-.12-.18-.24-.22,0S114.8,83.88,114.84,83.63Zm-.43.22c-.06-.06-.33.1-.22.22S114.52,84,114.41,83.85Zm-1.09,2c-.06-.06-.33.1-.22.22S113.44,85.91,113.32,85.8Zm-.65,1.09c-.18,0-.21.09-.22.21-.31.13,0,.27,0,0,.18,0,.2-.08.22-.21C113,86.75,112.65,86.63,112.67,86.89Zm4.56.43c-.06-.06-.33.1-.22.22S117.34,87.44,117.23,87.32Zm-4.78.43c-.21.9.65,0,0,0C112.41,87.11,111.55,88,112.46,87.76Zm-108.77,0c-.06-.06-.33.1-.22.22S3.8,87.87,3.69,87.76Zm113.11,0c-.06-.06-.33.1-.22.22S116.91,87.87,116.8,87.76ZM3,88c-.06-.06-.33.11-.22.22S3.15,88.08,3,88Zm109.2.65c-.06-.06-.33.11-.22.22S112.35,88.74,112.24,88.62ZM3.91,89.49c-.06-.06-.33.11-.22.22S4,89.6,3.91,89.49ZM5,89.71a.22.22,0,0,0-.43,0C4.8,89.69,4.9,90,5,89.71Zm107,.87a.6.6,0,0,0-.44-.65A.6.6,0,0,0,112,90.58Zm-102.69,0c-.06-.06-.33.11-.22.22S9.45,90.69,9.33,90.58ZM5,91.23a.22.22,0,0,0-.43,0C4.6,91.49,4.8,91.36,5,91.23ZM9.33,91c-.06-.06-.33.11-.22.22S9.45,91.12,9.33,91Zm102,0c-.06-.06-.33.11-.22.22S111.48,91.12,111.37,91Zm.21.44c-.06-.06-.33.11-.21.22S111.7,91.56,111.59,91.45ZM5.21,91.88c0-.12-.18-.25-.22,0S5.17,92.13,5.21,91.88Zm105.51.22c-.06-.06-.33.11-.22.22S110.83,92.21,110.72,92.1Zm2.61.43c-.06-.06-.33.11-.22.22S113.44,92.64,113.32,92.53Zm.65,0c-.06-.06-.33.11-.22.22S114.09,92.64,114,92.53ZM110.5,93c-.06-.06-.33.11-.21.22S110.61,93.08,110.5,93Zm2.39.22c-.06-.06-.33.1-.22.22S113,93.29,112.89,93.18Zm-2.17.87c0-.12-.17-.24-.22,0S110.68,94.3,110.72,94Zm-.87,0c-.06-.06-.33.11-.22.22S110,94.16,109.85,94ZM109,95.57c.13.32.26,0,0,0C108.85,95.25,108.72,95.59,109,95.57Zm-.22.65c-.06-.06-.33.1-.22.21S108.88,96.34,108.76,96.22Zm-96,.87c0,.65.9-.21,0,0C12.67,96.77,12.54,97.11,12.81,97.09Zm95.09,1.08a.6.6,0,0,0-.43-.65A.6.6,0,0,0,107.9,98.18Zm.65-.65c-.06-.06-.33.11-.22.22S108.66,97.64,108.55,97.52Zm-95.31.87c-.06-.06-.33.11-.22.22S13.35,98.5,13.24,98.39Zm94.22,0c-.06-.06-.33.11-.22.22S107.58,98.5,107.46,98.39Zm4.78.65c-.21.9.65,0,0,0C112.11,98.73,112,99.07,112.24,99ZM8.9,99c-.06-.06-.33.1-.22.22S9,99.16,8.9,99Zm3.91,0c-.06-.06-.33.1-.22.22S12.92,99.16,12.81,99Zm1.09.43c-.06-.06-.33.11-.22.22S14,99.59,13.89,99.48Zm92.92.22c-.06-.06-.33.1-.22.21S106.92,99.81,106.81,99.7Zm-.43,1.09a.22.22,0,0,0-.43,0C106.19,100.76,106.28,101.1,106.38,100.78Zm3.47,1.08c-.06-.06-.33.11-.22.22S110,102,109.85,101.87Zm-97.26.43c-.06-.06-.33.11-.22.22S12.7,102.41,12.59,102.3ZM104,103c-.17,0-.43,0-.43.22C103.72,103.12,104,103.16,104,103Zm-86,2.17c-.52.73.73-.53,0,0Zm84,.65c-.06-.06-.33.11-.22.22S102.15,105.89,102,105.77Zm4.34.43c-.06-.06-.33.11-.22.22S106.49,106.32,106.38,106.21Zm-5.43.65c-.17,0-.43,0-.43.22C100.68,107,100.94,107.07,101,106.86Zm2.39.44c-.06-.06-.33.11-.22.22S103.45,107.41,103.34,107.29Zm-82.28.22c-.06-.06-.33.1-.22.21S21.17,107.62,21.06,107.51Zm80.54.21c-.06-.06-.33.11-.22.22S101.71,107.84,101.6,107.73Zm-83.8.65c0-.12-.18-.24-.22,0S17.76,108.63,17.8,108.38Zm86.4.22c-.06-.06-.33.11-.22.22S104.32,108.71,104.21,108.6ZM23,109c-.17,0-.43,0-.43.21C22.75,109.2,23,109.24,23,109Zm79.89.43c-.06-.06-.33.1-.22.22S103,109.58,102.9,109.47Zm-3.69.65c-.06-.06-.33.11-.22.22S99.32,110.23,99.21,110.12Zm4.13.65c-.13,0-.26,0-.22.22.91.34.24-1.33,0-.43C103.25,110.56,103.38,110.58,103.34,110.77Zm-.87,1.08c.12-.12,0-.44-.22-.22S102.24,112.08,102.47,111.85Zm-73.16.43c-.06-.06-.33.11-.22.22S29.42,112.4,29.31,112.29Zm69.26,0c-.06-.06-.33.11-.22.22S98.68,112.4,98.56,112.29Zm-.43.43c-.17,0-.43,0-.43.22C97.86,112.89,98.12,112.93,98.13,112.72Zm2.82.65h.43v-.44H101Zm-70.12,0c-.06-.06-.33.1-.22.22S30.94,113.48,30.83,113.37Zm.43.43c-.06-.06-.33.11-.22.22S31.37,113.92,31.26,113.81Zm63.83.65c-.17,0-.43,0-.43.21C94.82,114.63,95.08,114.67,95.09,114.46Zm.87,0c-.06-.06-.33.1-.22.21S96.07,114.57,96,114.46Zm.43,0c-.06-.06-.33.1-.22.21S96.5,114.57,96.39,114.46Zm2.17.65c-.06-.06-.33.11-.22.22S98.68,115.22,98.56,115.11ZM35,115.54c-.06-.06-.33.11-.22.22S35.06,115.66,35,115.54Zm62.74.22c-.06-.06-.33.11-.22.22S97.81,115.87,97.69,115.76Zm-.22.65c0-.12-.18-.25-.22,0S97.43,116.66,97.48,116.41Zm-2.39.44c-.06-.06-.33.1-.22.21S95.2,117,95.09,116.85Zm-55.58.65c-.17.05-.43,0-.44.22C39.24,117.67,39.51,117.71,39.51,117.5Zm.87.22c-.06-.06-.33.11-.22.22S40.49,117.83,40.38,117.71Zm54.06.43c-.06-.06-.33.11-.22.22S94.55,118.26,94.43,118.15Zm-58.4.43c-.06-.06-.33.11-.22.22S36.15,118.7,36,118.58Zm7.16.22c-.17,0-.43,0-.43.22C42.94,119,43.2,119,43.2,118.8Zm-7.6.22c-.06-.06-.33.11-.22.22S35.72,119.13,35.6,119Zm11.07.65c-.17,0-.43,0-.43.22C46.41,119.84,46.67,119.88,46.67,119.67Zm39.08.22c-.06-.06-.33.1-.22.21S85.86,120,85.75,119.89Zm-34.3.21c-.06-.06-.33.11-.22.22S51.56,120.21,51.45,120.1Zm-13,.22c-.06-.06-.33.1-.22.22S38.54,120.43,38.43,120.32Zm46.67,0c-.17,0-.43,0-.43.22C84.84,120.49,85.09,120.53,85.1,120.32Zm6.73.43c-.06-.06-.33.1-.22.22S91.94,120.87,91.83,120.76Zm-5.21.43c0-.12-.18-.24-.22,0S86.58,121.43,86.62,121.19Zm-38.21.22c-.06-.06-.33.1-.22.22S48.52,121.52,48.41,121.41Zm34.52,0c-.06-.06-.33.1-.22.22S83,121.52,82.93,121.41Zm6.08.22c-.24,0-.34-.32-.43,0A.22.22,0,0,0,89,121.62Zm.87,0c-.06-.06-.33.11-.21.22S90,121.73,89.88,121.62Zm-28.22.22c-.06-.06-.33.1-.22.21S61.77,122,61.65,121.84Zm16.5,0c-.06-.06-.33.1-.22.21S78.27,122,78.15,121.84Zm-33,.43c-.52.73.73-.53,0,0Zm2.39-.22c-.06-.06-.33.11-.22.22S47.66,122.17,47.54,122.06Zm32.78.22c0-.12-.17-.25-.22,0S80.28,122.52,80.32,122.28Zm-30.83,0c-.17,0-.43,0-.43.22C49.23,122.44,49.49,122.48,49.5,122.28Zm37.34.22c-.44-.07-.68,0-.65.43a.6.6,0,0,0,.65-.43C87.52,123.2,87.2,121.72,86.84,122.49Zm-8,.21c0-.12-.17-.24-.22,0S78.77,123,78.8,122.71Zm8.9-.21c-.06-.06-.33.11-.22.21S87.82,122.6,87.71,122.49Zm-37.77.21c-.06-.06-.33.11-.22.22S50,122.82,49.93,122.71Zm18.67.22a.22.22,0,0,0-.44,0C68.41,122.9,68.5,123.24,68.6,122.93Zm9.12-.22c-.06-.06-.33.11-.21.22S77.83,122.82,77.72,122.71Zm1.74,0c-.06-.06-.33.11-.22.22S79.57,122.82,79.46,122.71ZM61,122.93c-.06-.06-.33.11-.22.22S61.12,123,61,122.93Zm10.21,0c-.06-.06-.33.11-.22.22S71.32,123,71.21,122.93Zm-19.76.22c-.17,0-.43,0-.44.22C51.19,123.31,51.44,123.35,51.45,123.14Zm.65,0c-.06-.06-.33.11-.22.22S52.21,123.25,52.1,123.14Zm18.67,0c-.06-.06-.33.11-.22.22S70.89,123.25,70.77,123.14Zm.87,0c-.06-.06-.33.11-.22.22S71.75,123.25,71.64,123.14Zm3,.22c0-.12-.18-.25-.22,0S74.64,123.61,74.68,123.36Zm-21.49,0c-.06-.06-.33.1-.22.21S53.3,123.47,53.19,123.36Zm6.08.44c.13.31.26,0,0,0C59.22,123.15,58.36,124,59.27,123.8Zm-2.82.21c0-.12-.18-.25-.22,0S56.4,124.26,56.44,124Zm21.71,0c-.06-.06-.33.11-.22.22S78.27,124.12,78.15,124ZM86,124c-.06-.06-.33.11-.22.22S86.08,124.12,86,124Zm-6.08.43c-.32.13,0,.26,0,0C80.21,124.31,79.87,124.18,79.89,124.44Zm-2.17,0c-.06-.06-.33.11-.21.22S77.83,124.56,77.72,124.44Zm3,.22c-.06-.06-.33.11-.22.22S80.87,124.77,80.76,124.66Zm.65,0c-.06-.06-.33.11-.22.22S81.52,124.77,81.41,124.66Zm3.69,0c-.06-.06-.33.11-.21.22S85.21,124.77,85.1,124.66Zm-1.08.22c-.06-.06-.33.11-.22.21S84.13,125,84,124.88Zm-20.41.44c0-.12-.18-.25-.22,0S63.57,125.56,63.61,125.32Zm6.95-.22c-.06-.06-.33.11-.22.22S70.67,125.21,70.56,125.09Zm8,.22a.22.22,0,0,0-.43,0C78.2,125.58,78.39,125.45,78.59,125.32Zm-11.07.21c.14.31.27,0,0,0C67.38,125.22,67.25,125.55,67.51,125.53Zm8.69.43c.13.32.26,0,0,0C76.07,125.65,75.94,126,76.2,126Zm-1.73.44c-.06-.06-.33.11-.22.21S74.57,126.51,74.46,126.4Z"/><path class="f1fed8ee-6258-4a22-8e65-87ab8c55c669" d="M95,136.45h-.22c0,.25.22.12.22,0,.48,0,.47.55.43,1.09-.55.41-1.16-.49-1.09.65-.85,0-1.13-.47-1.74-.65.28-.29.29-.81-.22-.87.59-.13.31-1.14.65-1.52-.41-1.59.21-1.85.22-3.69a7.64,7.64,0,0,1,0-3.47c0,.21.27.17.43.22,0-.21-.27-.17-.43-.22-1.21-2.47-.49-3.92-.87-6.73.88-.28,1.2-1.12,2.17-1.3-.31,3.07.69,6.42.43,9.55,0,.29.38.2.43.44.1.85-.46,1.13.22,1.52-.59.48-.06.72-.43,1.3.27,1-.3,2.13,0,3.26C95.09,136.06,95,136.2,95,136.45ZM94.39,123c-.06-.06-.33.1-.22.22S94.5,123.1,94.39,123ZM94,125.38c-.06-.06-.33.11-.22.22S94.06,125.49,94,125.38Zm-.43.65c-.17,0-.43,0-.43.22C93.25,126.2,93.51,126.24,93.52,126Zm.87,1.52c-.06-.06-.33.11-.22.22S94.5,127.66,94.39,127.55Zm-.43,1.3c.73.66.66-.8,0,0Zm1.08,0c-.06-.06-.33.1-.22.22S95.15,129,95,128.85Zm0,1.52c-.06-.06-.33.1-.22.22S95.15,130.48,95,130.37Zm0,3.91c-.06-.06-.33.1-.22.22S95.15,134.39,95,134.28Z"/><path class="3adcdf27-2ef1-476f-aa05-6906f8ed1a79" d="M41.63,123.42c.59-.65,1.43.29,2.39,0a34.64,34.64,0,0,1,.43,5.21c.06.5-.05.82-.43.87.92,1.43.38,4,1.3,6.08-.26.32-.63.53-.65,1.09A3.44,3.44,0,0,1,42.5,136c0-.25,0-.39-.22-.43a1.77,1.77,0,0,1,.43-1.3c-.57-.72-.29-.68-.22-1.74-.6-1.84-.28-3.79-.65-5.64-.18-.62.3-.56.22-1.09C41.71,125,41.85,123.87,41.63,123.42Zm1.3,1.74c-.06-.06-.33.1-.22.21S43,125.27,42.93,125.16Zm.65.21c-.06-.06-.33.11-.22.22S43.7,125.49,43.58,125.38Zm.43,2.39c-.06-.06-.33.1-.22.22S44.13,127.88,44,127.77Zm-.65.43c-.06-.06-.33.1-.22.22S43.48,128.31,43.37,128.2Zm-.22.87c-.06-.06-.33.11-.22.22S43.26,129.18,43.15,129.07Zm.65,1.09c.13.31.26,0,0,0C44,129.25,43.15,130.11,43.8,130.15Zm.43,2c-.06-.06-.33.1-.22.22S44.35,132.22,44.24,132.11Zm.22,1.52c0-.12-.18-.25-.22,0S44.41,133.87,44.45,133.63Zm-.43.43c-.06-.06-.33.1-.22.22S44.13,134.17,44,134.06Z"/><path class="b41e8603-574a-45e7-99df-6607417712d8" d="M88.57,35.64h-.22c0,.25.22.12.22,0h.65c.09.61.46.26,1.08.65,0,1,1.08.95,1.09,2A6.56,6.56,0,0,1,96,42.16c.73.25,1.84-.66,1.3.22.69.1.85-.31,1.3-.43,1.58.35,2.87.76,3.69.43.34.75,1.24.94,2,1.3a1.21,1.21,0,0,1-.22.87c0,.47.77.1,1.08.22-.13.78.64.66,1.3.65-.73.35-.46,1.06-.65,1.52-.13-.32-.27,0,0,0-.57.67-1.38,1.08-2,1.74-.12,0-.25.18,0,.22-.59.42-1.41.62-1.52,1.52a1.21,1.21,0,0,1-.87-.22c-.34.25-1.18,1.11-1.52.65a.59.59,0,0,0-.43.65c-.67-.16-.79.22-1.3.22a2,2,0,0,0-.87.87c-.95-.15-1,.63-1.74.65-.38.49-1.24.5-1.3,1.3h-.87c-.25,0-.23.34-.21.65-.47-.49-.74.18-1.52,0-1.48,1.07-3.78,2.56-5.21,2.39-.24.05-.52.36-.22.43,0,.41-.72.15-.65.65a4.6,4.6,0,0,0-3.69,2c-.24-.57-.86-1.22-1.3-.43-.55-.39-.87-1-1.74-1.09,0-.27.07-.51.43-.43.11-.69-1.08-.08-.87-.87h-.65c-.69-.18.38-.29.65-.22C77,56,76.23,53.77,74.9,52.14a7.56,7.56,0,0,0-1.3-3.69c.4-.5-.42-1.76.21-2.39-.23-.2-.07-.8-.65-.65a2.23,2.23,0,0,0,0-2.39c.75,0,0-1.61.87-1.52-.47-.83.72-2.84.43-3.47-.12-.31.84-.53.22-.65.53-.41.61-1.27,1.08-1.74a.6.6,0,0,0-.43-.65c0-.28.6-.28.65,0,.61-.18.6-1,1.3-1.08-.21-.41.65-.73,0-.87.88-.2,1-1.21,1.3-2,.7.32,2,.39,2-.65.17,0,.25.18.22.44,1.5,0,1.83,1.06,3.47.87.13.45.46.7.65,1.09,1.39-.1,2.14,1.39,3.47,2C87.92,35.22,88.45,35.2,88.57,35.64Zm-2.82-2c-.17,0-.43,0-.43.22C85.48,33.86,85.75,33.9,85.75,33.69Zm4.78,8.47a14.12,14.12,0,0,1-1.74-1.09c.57-.57-.35-.17-.21-.87-.57-.52-1.37-.8-1.74-1.52-.88-.27-1-1.31-2.17-1.3-.37-1.36-1.94-1.53-2.6-2.61h-.65c-.18.59-1.33.87-.43,1.3h-.65c-.07,1.16-.82,1.65-1.3,2.39,0,1-.55,1-.22,2a5.62,5.62,0,0,0-.65,4.34c1.45.19,3.59-.42,5.21.43h1.52c1-.62,2.6-.19,4.12-.65h1.52c.16-.49,1.5.2,1.3-.65S90.74,43,90.53,42.16Zm-2.39-6.51c-.06-.06-.33.1-.22.22S88.25,35.75,88.14,35.64Zm2.39,1.52c-.06-.06-.33.1-.22.22S90.64,37.27,90.53,37.16ZM74.46,41.29c-.06-.06-.33.11-.22.22S74.57,41.4,74.46,41.29Zm20.41.43c-.06-.06-.33.11-.22.22S95,41.83,94.87,41.72Zm-1.52,3.47c-.06-.06-.33.1-.21.22S93.46,45.31,93.35,45.19Zm-11.5.22c-.06-.06-.33.1-.22.22S82,45.53,81.85,45.41Zm.65.22c-.17,0-.43,0-.43.22C82.23,45.8,82.49,45.84,82.5,45.63Zm14.11.65c-1.08-.17-1.85-.38-2.6.22-3.82-1.39-8.69,1.22-12.16,0-1.27.11-3-.24-3.91.22-.06,1.38.47,1.93.22,3.26.33.39.78.67.65,1.52.77.17.82,1.06,1.3,1.52-.09.52.4.47.22,1.08,1,0,1.19.84,2.17.87.41-.6,1.43-.6,1.73-1.3,0,.17,0,.43.22.43,1.15-.87,3.2-.85,3.91-2.17,1.34-.33,2.15-1.18,3.69-1.3a1.52,1.52,0,0,1,.44-.65,1.4,1.4,0,0,1,1.08-.22c.05-.6.64-.66,1.08-.87.17-.48.76-.54,1.08-.87a1.85,1.85,0,0,0,2.17-1.3c0,.25.34.24.65.22-.28-1,1.1-.35,1.3-.87C99.1,45.71,97.87,46.06,96.61,46.28ZM83.8,46.06c-.06-.06-.33.1-.22.22S83.91,46.18,83.8,46.06Zm15,4.56c-.06-.06-.33.1-.22.22S98.89,50.74,98.78,50.62Zm-5.64,3.26c-.06-.06-.33.11-.22.22S93.25,54,93.13,53.88Zm-11.72.87c-.06-.06-.33.1-.22.22S81.52,54.86,81.41,54.75Zm9.55,0c-.06-.06-.33.1-.22.22S91.07,54.86,91,54.75Z"/><path class="4ebbeb2a-3c6e-4265-b941-9e6ddda8940b" d="M84.88,53.44c-.11-.11.16-.28.21-.22S84.94,53.5,84.88,53.44Z"/><path class="56acf20d-49a1-4014-b907-a1face8e4c40" d="M31.42,81.27v-.21c-.25,0-.12.22,0,.21-.47,1-.15,1.39-.65,2.17-.16.94.49,1.34-.22,1.74a6,6,0,0,0,1.52,2.17h1.52c1-.35,2.45-.16,3-.87.22,0,.26.17.43.21a1.08,1.08,0,0,0,.65-.65C39.1,86.28,39,85,40.1,85c1.56-1.26,2.58-3.07,4.34-4.12.4-.47,1-.75,1.08-1.52.81-.13.88-1,1.74-1.08-.26-.58.42-1.28,0-1.3.33-.61,1.6-.28,1.52-1.3.82.17,1-.27,1.73-.22,0,.76.74.71.87,1.3-.1.62-.25,1.2-.87,1.3-.24.68.06.57-.21,1.09h-.87c-.26.46-.82.63-.87,1.3h-.43c-.82,1.2-2.17,1.88-2.82,3.26a1.53,1.53,0,0,0-1.3.87H43.8c-.22-.35-.58-.5-.87-.22,0-.19-.08-.21-.22-.22,0,.18.08.2.22.22.07.29.54.18.87.22-.22.29-.21.81-.65.87V85a.22.22,0,0,0,0,.44c0,.22-.17.26-.22.43a1.41,1.41,0,0,0-1.08.22c-.9,1.56-2.71,2.21-4.13,3.26-1.88,0-3.38.57-4.56.22-.17,0-.25.18-.22.43-.58-.41-1.29.07-2-.22-.25-.11-.26-.47-.44-.65s-.36.07-.43,0,.07-.36,0-.43-.37.07-.43,0,0-.57-.22-.65c0-.4-.73-.13-.87-.44s0-.75-.43-.65c.06-.49-.05-.82-.43-.87.13-.13.51-1,0-1.09l.65-.65c.13.31.26,0,0,0,0-.41.17-.46.43-.22s.26,0,0,0c-.46-.68-.08-.94-.43-1.52.69-.33.47-1.56,1.09-2,.13.32.26,0,0,0,.41-1.76,1.41-2.93,2-4.56-.22-.61-.21.69-.65,0,.12-.75,1-.72,1.09-1.52.13,0,.26,0,.22.22.43-.22.34-1,1.08-.87-.09-.52.4-.47.22-1.08a6.77,6.77,0,0,0,2.17-1.74,5.61,5.61,0,0,0,2.17-1.74,1.62,1.62,0,0,0,1.52-1.08,10.43,10.43,0,0,0,2.61-1.3c.46.19.64.66,1.3.65-.35.71,0,.83,0,1.74-.28,0-.3-.28-.65-.22-.12,0-.25.18,0,.22-.22.36-.92.24-1.3.44-1.35.82-2.65,1.69-3.91,2.6-1.19.69-1.7,2.07-2.82,2.82,0,.93-.51,1.11.21,1.52-.47.4-1.07.67-1.52,1.08-.12,1.11-1,1.46-1.08,2.61-.28,0-.3.28-.65.22,0,.28.28.3.22.65Zm5-10.2c-.06-.06-.33.1-.22.22S36.53,71.18,36.42,71.07Zm-.87.65c-.06-.06-.33.1-.22.22S35.66,71.83,35.55,71.72ZM36,73c0-.23-.1-.55-.22-.22S35.86,73.35,36,73Zm-1.52,1.52c-.06-.06-.33.1-.22.22S34.57,74.65,34.46,74.54Zm-1.09,1.3c-.06-.06-.33.11-.22.22S33.49,76,33.37,75.84Zm15.2,2.82c0-.23-.1-.55-.22-.22S48.46,79,48.57,78.67Zm-16.28.22c-.06-.06-.33.1-.21.22S32.4,79,32.29,78.88Zm14.76,2.17c-.06-.06-.33.1-.22.21S47.16,81.17,47.05,81.05Zm-17.15.21c-.06-.06-.33.11-.22.22S30,81.38,29.9,81.27ZM46,81.7c-.06-.06-.33.11-.22.22S46.08,81.82,46,81.7Zm-15.2.43c-.06-.06-.33.11-.22.22S30.88,82.25,30.77,82.14Zm12.81.65c-.06-.06-.33.1-.22.21S43.69,82.9,43.58,82.79ZM29.9,84.09a1,1,0,0,1,.65.22C30.66,83.64,30,83.5,29.9,84.09Zm12.37-.44c-.06-.06-.33.11-.22.22S42.39,83.77,42.28,83.66Zm-12.16.65c-.06-.06-.33.1-.22.22S30.23,84.42,30.12,84.31Zm9.55,1.3c-.06-.06-.33.1-.22.22S39.78,85.73,39.67,85.61Zm-9.33.22c-.06-.06-.33.1-.22.22S30.45,85.94,30.34,85.83ZM41.19,86c-.24,0-.34-.32-.43,0S41.14,86.32,41.19,86Zm-1.74,0c-.06-.06-.33.1-.22.22S39.57,86.16,39.45,86Zm.43,1.08c0-.12-.18-.25-.22,0S39.85,87.38,39.89,87.13Zm-2.82,0c-.06-.06-.33.11-.22.22S37.18,87.24,37.07,87.13Zm-1.52,1.09c0-.12-.18-.25-.22,0S35.5,88.46,35.55,88.22ZM37.07,88c-.06-.06-.33.1-.22.22S37.18,88.11,37.07,88Zm1.52.22a.22.22,0,0,0-.44,0C38.39,88.2,38.49,88.53,38.59,88.22Zm-6.3.43c0-.12-.17-.25-.21,0S32.25,88.9,32.29,88.65Zm4.34,0c-.06-.06-.33.11-.22.22S36.74,88.76,36.63,88.65Zm-2.82.43c0-.12-.17-.25-.22,0S33.77,89.33,33.81,89.09Z"/><path class="3e792c2f-fb6a-4567-bd06-ec6d36ba61e4" d="M51.94,40.32a5.44,5.44,0,0,1,.22,2.17c.36,1,1,1.38.87,2.39a8.16,8.16,0,0,1-1.52.44c-.38.2-.36.8-.87.87H50c-1,.1-.77-1.1-1.74-1.08.2-.94-.11-2,0-3.47.33-.33.72-.56,1.09-.87s.71-.44.87-.87A3.36,3.36,0,0,1,51.94,40.32Z"/><path class="fbb33e45-f026-451d-9e47-cade100aa190" d="M114.44,40.55c.88,1.57.5,2.66,0,4.56-.6.13-.91.54-1.52.65-.93.06-.71-1-1.52-1.08-.4-1.92.81-2.23.65-3.91A2.54,2.54,0,0,1,114.44,40.55Z"/></g></g></svg>