<svg xmlns="http://www.w3.org/2000/svg" xmlns:xlink="http://www.w3.org/1999/xlink" style="display: none;"><symbol id="add" viewBox="0 0 32 28"><path d="M2 28h14c.5 0 1.2-.2 1.6-.5l13.6-11.9c.5-.4.8-1 .8-1.6 0-.6-.3-1.2-.8-1.6L17.6.5C17.2.2 16.5 0 16 0H2C.9 0 0 .9 0 2v24c0 1.1.9 2 2 2zm4-16h4V8c0-1.1.9-2 2-2s2 .9 2 2v4h4c1.1 0 2 .9 2 2s-.9 2-2 2h-4v4c0 1.1-.9 2-2 2s-2-.9-2-2v-4H6c-1.1 0-2-.9-2-2s.9-2 2-2z"/></symbol><symbol id="alert" viewBox="0 0 32 32"><path d="M16 28a3.001 3.001 0 0 1 0-6 3 3 0 1 1 0 6M15 6h2c1.101 0 1.937.898 1.858 1.992l-.716 10.012C18.063 19.102 17.1 20 16 20c-1.1 0-2.064-.898-2.143-1.996l-.712-10.012A1.838 1.838 0 0 1 15 6m16.152 18.383L19.995 3.141C18.897 1.047 17.448 0 16 0c-1.449 0-2.896 1.047-3.996 3.137L.847 24.387c-2.196 4.183.025 7.612 4.941 7.612h20.426c4.914 0 7.137-3.429 4.937-7.616"  fill-rule="evenodd"/></symbol><symbol id="arrow-circle-down" viewBox="0 0 32 32"><path d="M24.047 14.283L16.7 22.186a.972.972 0 0 1-.715.316.97.97 0 0 1-.713-.316l-7.348-7.903c-.578-.624-.578-1.675 0-2.297a1.508 1.508 0 0 1 2.185 0l5.876 6.321 5.876-6.321a1.51 1.51 0 0 1 2.187.001c.285.307.442.714.442 1.148 0 .433-.157.841-.443 1.148M16 0C7.164 0 0 7.16 0 16c0 8.836 7.164 16 16 16s16-7.164 16-16c0-8.84-7.164-16-16-16"  fill-rule="evenodd"/></symbol><symbol id="arrow-circle-right" viewBox="0 0 32 32"><path d="M22.187 16.728l-7.903 7.347c-.302.28-.71.433-1.149.433-.439 0-.847-.154-1.148-.433a1.479 1.479 0 0 1-.486-1.092c0-.415.173-.803.487-1.094l6.319-5.875-6.32-5.877a1.479 1.479 0 0 1-.486-1.092c0-.415.173-.803.488-1.094.611-.571 1.675-.574 2.294.002l7.904 7.346a.971.971 0 0 1 0 1.429M16 0C7.16 0 0 7.164 0 16s7.16 16 16 16c8.836 0 16-7.164 16-16S24.836 0 16 0"  fill-rule="evenodd"/></symbol><symbol id="arrow-circle-up" viewBox="0 0 32 32"><path d="M24.075 20.013c-.29.312-.678.485-1.093.485-.415 0-.803-.173-1.094-.486l-5.875-6.319-5.876 6.32a1.505 1.505 0 0 1-2.186-.003 1.671 1.671 0 0 1-.442-1.145c0-.431.157-.838.442-1.147L15.3 9.813a.987.987 0 0 1 1.428.002l7.347 7.901c.578.623.578 1.675 0 2.297M16 0C7.164 0 0 7.163 0 15.999c0 8.84 7.164 16 16 16 8.835 0 16-7.16 16-16C32 7.163 24.836 0 16 0"  fill-rule="evenodd"/></symbol><symbol id="box-storage" viewBox="0 0 32 28"><path d="M30 0H2C.902 0 0 .9 0 2v6h32V2c0-1.1-.898-2-2-2zm-8 14H10v-4H2v16c0 1.1.902 2 2 2h24c1.102 0 2-.9 2-2V10h-8v4z"  fill-rule="evenodd"/></symbol><symbol id="cancel" viewBox="0 0 32 32"><clipPath id="b"><use xlink:href="#a" overflow="visible"/></clipPath><g clip-path="url(#b)"><clipPath id="d"><use xlink:href="#c" overflow="visible"/></clipPath><path d="M32.002 15.998c0-8.836-7.164-15.998-16-15.998C7.17 0 0 7.164 0 16s7.17 16 16 16c8.836 0 16.002-7.166 16.002-16.002M18.83 21.656l-2.828-2.828-2.83 2.828a2.007 2.007 0 0 1-2.828 0 2.005 2.005 0 0 1 0-2.828L13.172 16l-2.828-2.828a2.007 2.007 0 0 1 0-2.83 2.005 2.005 0 0 1 2.828 0l2.83 2.83 2.828-2.83a2.005 2.005 0 0 1 2.828 0 2.01 2.01 0 0 1 0 2.83L18.83 16l2.828 2.828a2.007 2.007 0 0 1 0 2.828 2.007 2.007 0 0 1-2.828 0" clip-path="url(#d)"/></g></symbol><symbol id="chart-pie" viewBox="0 0 32 32"><path d="M20 12V5.008A13.274 13.274 0 0 1 26.992 12H20zM16 0v16h16C31.434 7.418 24.584.566 16 0zm-2 2.051C6.184 2.566 0 9.055 0 17c0 8.283 6.715 15 15 15 7.947 0 14.432-6.186 14.949-14H14V2.051z"  fill-rule="evenodd"/></symbol><symbol id="circle-check" viewBox="0 0 32 32"><path d="M22.158 12.925l-5.72 8.103a1.718 1.718 0 0 1-1.39.72c-.368 0-.73-.12-1.024-.34l-3.813-2.86a1.69 1.69 0 0 1-.664-1.12c-.064-.45.05-.9.323-1.264a1.69 1.69 0 0 1 1.366-.68c.37 0 .722.116 1.02.34l2.41 1.807 4.708-6.67c.315-.446.84-.713 1.404-.713.354 0 .69.105.97.303.767.543.95 1.608.41 2.374m5.154-8.24c-6.244-6.245-16.38-6.249-22.627 0-6.248 6.247-6.245 16.383 0 22.626 6.246 6.25 16.381 6.25 22.63 0 6.247-6.247 6.246-16.377-.003-22.626"  fill-rule="evenodd"/></symbol><symbol id="circle-delete" viewBox="0 0 32 32"><path d="M21.998 18l-12-.002c-1.099 0-2-.9-2-2 0-1.099.901-2 2-2H22c1.1 0 2 .901 2 2 0 1.101-.9 2-2 2.001m5.314-13.313c-6.245-6.246-16.38-6.25-22.628-.002-6.248 6.248-6.245 16.384 0 22.628 6.247 6.248 16.381 6.248 22.63 0 6.247-6.248 6.246-16.378-.003-22.626"  fill-rule="evenodd"/></symbol><symbol id="clock" viewBox="0 0 32 32"><path d="M16 28C9.383 28 4 22.617 4 16S9.383 4 16 4s12 5.383 12 12-5.383 12-12 12m0-28C7.16 0 0 7.164 0 16s7.16 16 16 16c8.836 0 16-7.164 16-16S24.836 0 16 0m0 6.75c-.645 0-1.18.484-1.242 1.125l-.727 7.266-6.156.615A1.244 1.244 0 0 0 6.75 17c0 .645.484 1.18 1.125 1.244l9.602 1.004.023.002c.414 0 .75-.338.75-.773L17.242 7.875A1.243 1.243 0 0 0 16 6.75"  fill-rule="evenodd"/></symbol><symbol id="document" viewBox="0 0 32 32"><clipPath id="b"><use xlink:href="#a" overflow="visible"/></clipPath><path clip-path="url(#b)" d="M20.002 0v8H28z"/><g><clipPath id="d"><use xlink:href="#c" overflow="visible"/></clipPath><g clip-path="url(#d)"><clipPath id="f"><use xlink:href="#e" overflow="visible"/></clipPath><path d="M18.002 8V0h-14v32H28V10h-7.998c-1.106 0-2-.895-2-2m5 20h-14a1 1 0 0 1 0-2h14c.555 0 1 .447 1 1s-.445 1-1 1m0-6h-14a1 1 0 0 1 0-2h14c.555 0 1 .447 1 1s-.445 1-1 1m1-7c0 .553-.445 1-1 1h-14a1 1 0 0 1 0-2h14c.555 0 1 .447 1 1" clip-path="url(#f)"/></g></g></symbol><symbol id="documents" viewBox="0 0 32 32"><path d="M27 8H17a1 1 0 0 1 0-2h10c.555 0 1 .447 1 1 0 .553-.445 1-1 1zm0 6H17a1 1 0 0 1 0-2h10c.555 0 1 .447 1 1 0 .553-.445 1-1 1zm0 6H17a1 1 0 0 1 0-2h10c.555 0 1 .447 1 1 0 .553-.445 1-1 1zm-15 6h20V0H12v26zm-2 0H5a1 1 0 1 1 0-2h5v-4H5a1 1 0 1 1 0-2h5v-4H5a1 1 0 1 1 0-2h5V6H0v26h20v-4H10v-2z"  fill-rule="evenodd"/></symbol><symbol id="face-pain" viewBox="0 0 32 32"><path d="M16 28C9.383 28 4 22.617 4 16S9.383 4 16 4s12 5.383 12 12-5.383 12-12 12zm0-28C7.16 0 0 7.164 0 16s7.16 16 16 16c8.836 0 16-7.164 16-16S24.836 0 16 0zm8 13.001h-2l1.6-1.201a.998.998 0 0 0-.601-1.799.994.994 0 0 0-.599.2l-5.067 3.8L22.4 17.8a1 1 0 0 0 1.2-1.599l-1.6-1.2h2a1 1 0 0 0 0-2zM20 22h-8a1 1 0 0 0 0 2h8a1 1 0 0 0 0-2zM9.6 10.2a1.001 1.001 0 0 0-1.2 1.6L10 13H8a1 1 0 0 0 0 2h2l-1.6 1.2a1 1 0 1 0 1.2 1.6l5.067-3.8L9.6 10.2z"  fill-rule="evenodd"/></symbol><symbol id="gear" viewBox="0 0 32 32"><clipPath id="b"><use xlink:href="#a" overflow="visible"/></clipPath><g clip-path="url(#b)"><clipPath id="d"><use xlink:href="#c" overflow="visible"/></clipPath><path d="M27.765 18.326c.148-.753.23-1.53.23-2.326s-.082-1.573-.23-2.326l2.827-2.425c.418-.358.534-1.041.259-1.517l-2-3.464c-.275-.476-.924-.717-1.443-.534l-3.523 1.239a11.97 11.97 0 0 0-4.018-2.322L19.179.983C19.078.442 18.545 0 17.995 0h-4c-.55 0-1.083.442-1.184.983l-.688 3.668a11.956 11.956 0 0 0-4.017 2.322L4.582 5.734c-.519-.183-1.168.058-1.443.534l-2 3.464c-.275.476-.159 1.159.259 1.517l2.827 2.425c-.148.753-.23 1.53-.23 2.326s.082 1.573.23 2.326l-2.827 2.425c-.418.358-.534 1.041-.259 1.517l2 3.464c.275.476.924.717 1.443.534l3.524-1.239a11.956 11.956 0 0 0 4.017 2.322l.688 3.668c.101.541.634.983 1.184.983h4c.55 0 1.083-.442 1.184-.983l.688-3.668a11.97 11.97 0 0 0 4.018-2.322l3.523 1.239c.519.183 1.168-.058 1.443-.534l2-3.464c.275-.476.159-1.159-.259-1.517l-2.827-2.425zM15.995 22a6 6 0 1 1 0-12 6 6 0 0 1 0 12" clip-path="url(#d)"/></g></symbol><symbol id="grid-big" viewBox="0 0 32 32"><path d="M30 0H20c-1.1 0-2 .9-2 2v10c0 1.1.9 2 2 2h10c1.1 0 2-.9 2-2V2c0-1.1-.9-2-2-2m0 18H20c-1.1 0-2 .9-2 2v10c0 1.1.9 2 2 2h10c1.1 0 2-.9 2-2V20c0-1.1-.9-2-2-2m-18 0H2c-1.1 0-2 .9-2 2v10c0 1.1.9 2 2 2h10c1.1 0 2-.9 2-2V20c0-1.1-.9-2-2-2m0-18H2C.9 0 0 .9 0 2v10c0 1.1.9 2 2 2h10c1.1 0 2-.9 2-2V2c0-1.1-.9-2-2-2"  fill-rule="evenodd"/></symbol><symbol id="grid" viewBox="0 0 32 32"><path d="M19 0h-6c-.551 0-1 .449-1 1v6c0 .551.449 1 1 1h6c.551 0 1-.449 1-1V1c0-.551-.449-1-1-1m0 12h-6c-.551 0-1 .449-1 1v6c0 .551.449 1 1 1h6c.551 0 1-.449 1-1v-6c0-.551-.449-1-1-1m12 0h-6c-.551 0-1 .449-1 1v6c0 .551.449 1 1 1h6c.551 0 1-.449 1-1v-6c0-.551-.449-1-1-1m0 12h-6c-.551 0-1 .449-1 1v6c0 .551.449 1 1 1h6c.551 0 1-.449 1-1v-6c0-.551-.449-1-1-1m0-24h-6c-.551 0-1 .449-1 1v6c0 .551.449 1 1 1h6c.551 0 1-.449 1-1V1c0-.551-.449-1-1-1M7 24H1c-.551 0-1 .449-1 1v6c0 .551.449 1 1 1h6c.551 0 1-.449 1-1v-6c0-.551-.449-1-1-1M7 0H1C.449 0 0 .449 0 1v6c0 .551.449 1 1 1h6c.551 0 1-.449 1-1V1c0-.551-.449-1-1-1m0 12H1c-.551 0-1 .449-1 1v6c0 .551.449 1 1 1h6c.551 0 1-.449 1-1v-6c0-.551-.449-1-1-1m12 12h-6c-.551 0-1 .449-1 1v6c0 .551.449 1 1 1h6c.551 0 1-.449 1-1v-6c0-.551-.449-1-1-1"  fill-rule="evenodd"/></symbol><symbol id="inbox-download" viewBox="0 0 32 28"><path d="M29.126 26H2.876A.887.887 0 0 1 2 25.125V17h8.09A5.996 5.996 0 0 0 16 22a5.996 5.996 0 0 0 5.91-5h8.059l.031.123.001 8.002a.877.877 0 0 1-.875.875zM27.781 0H19v2h7.219l3.5 14H21c0 2.757-2.243 5-5 5s-5-2.243-5-5H2.281l3.5-14H13V0H4.219L0 16.877l.001 8.248A2.879 2.879 0 0 0 2.876 28h26.25A2.878 2.878 0 0 0 32 25.125V17L27.781 0zM10.99 6.585a.993.993 0 0 0-.707.293 1.023 1.023 0 0 0 0 1.413L15.99 14l5.707-5.708a1.023 1.023 0 0 0 0-1.414 1 1 0 0 0-1.414 0L16.98 10 17 1a1 1 0 0 0-2 0v9l-3.303-3.122a.993.993 0 0 0-.707-.293z"  fill-rule="evenodd"/></symbol><symbol id="inbox-upload" viewBox="0 0 32 28"><path d="M29.126 26H2.876A.887.887 0 0 1 2 25.125V17h8.09A5.996 5.996 0 0 0 16 22a5.996 5.996 0 0 0 5.91-5h8.059l.031.123.001 8.002a.877.877 0 0 1-.875.875zM27.781 0h-8.963l2 2h5.401l3.5 14H21c0 2.757-2.243 5-5 5s-5-2.243-5-5H2.281l3.5-14h5.381l2-2H4.219L0 16.877l.001 8.248A2.879 2.879 0 0 0 2.876 28h26.25A2.878 2.878 0 0 0 32 25.125V17L27.781 0zM16 14a1 1 0 0 0 1-1V4l3.283 3.122c.189.189.44.293.707.293a.993.993 0 0 0 .707-.293c.379-.38.377-1.036.001-1.413L15.99 0l-5.707 5.708a1.025 1.025 0 0 0 0 1.414 1 1 0 0 0 1.414 0L15 4v9a1 1 0 0 0 1 1z"  fill-rule="evenodd"/></symbol><symbol id="info-alt" viewBox="0 0 32 32"><path d="M16 12c-1.66 0-3-1.344-3-3s1.34-3 3-3a3.001 3.001 0 0 1 0 6zm2 13c0 .55-.451 1-1 1h-2c-.551 0-1-.45-1-1V15c0-.55.449-1 1-1h2c.549 0 1 .45 1 1v10zM16 0C7.164 0 0 7.16 0 16c0 8.836 7.164 16 16 16s16-7.164 16-16c0-8.84-7.164-16-16-16z"  fill-rule="evenodd"/></symbol><symbol id="mail" viewBox="0 0 32 24"><path d="M30 0H2C.898 0 0 .896 0 2v.82l16 10 16-10V2a2 2 0 0 0-2-2M16 14.82c-.367 0-.734-.101-1.059-.303L0 5.18V22a2 2 0 0 0 2 2h28a2 2 0 0 0 2-2V5.18l-14.937 9.337A2.018 2.018 0 0 1 16 14.82"  fill-rule="evenodd"/></symbol><symbol id="menu" viewBox="0 0 28 20"><path d="M26 16H2c-1.098 0-2 .9-2 2s.902 2 2 2h24c1.102 0 2-.9 2-2s-.898-2-2-2m0-8H2c-1.098 0-2 .9-2 2s.902 2 2 2h24c1.102 0 2-.9 2-2s-.898-2-2-2M2 4h24c1.102 0 2-.9 2-2s-.898-2-2-2H2C.902 0 0 .9 0 2s.902 2 2 2"  fill-rule="evenodd"/></symbol><symbol id="o-backup" viewBox="0 0 32 28"><path d="M18.445.5C10.971.5 4.891 6.556 4.891 14v1.851l-3.133-3.64a1.001 1.001 0 0 0-1.516 1.305l5.65 6.562 5.648-6.562a1 1 0 0 0-1.516-1.305l-3.133 3.64V14c0-6.341 5.183-11.5 11.554-11.5S30 7.659 30 14s-5.184 11.5-11.555 11.5a1 1 0 1 0 0 2C25.92 27.5 32 21.444 32 14S25.92.5 18.445.5zm-.92 15.914L25 15.812a.803.803 0 0 0 .724-.803.8.8 0 0 0-.724-.799l-5.368-.366L19.202 8a.798.798 0 0 0-.799-.726.802.802 0 0 0-.8.724L17 15.89a.507.507 0 0 0 .502.524h.022z"  fill-rule="evenodd"/></symbol><symbol id="o-birdhouse" viewBox="0 0 32 32"><path d="M26 17v13H6V17H2.223L15.426 2.296a.756.756 0 0 1 1.149.002L29.772 17H26zm5.322-1.267L18.063.962c-1.072-1.194-3.061-1.192-4.127 0L.671 15.735c-.868.972-.796 1.744-.583 2.221C.381 18.609 1.096 19 2 19h2v13h24V19h2c1.267 0 1.726-.723 1.864-1.034.309-.692.112-1.506-.542-2.233zM19.501 16c0 1.93-1.57 3.5-3.5 3.5s-3.5-1.57-3.5-3.5c0-1.929 1.57-3.5 3.5-3.5s3.5 1.571 3.5 3.5zm-8 0c0 2.482 2.019 4.5 4.5 4.5s4.5-2.018 4.5-4.5c0-2.481-2.019-4.5-4.5-4.5a4.505 4.505 0 0 0-4.5 4.5zm4.5 10.5c-.827 0-1.5-.673-1.5-1.5s.673-1.5 1.5-1.5 1.5.673 1.5 1.5-.673 1.5-1.5 1.5zm0-4a2.503 2.503 0 0 0-2.5 2.5c0 1.378 1.121 2.5 2.5 2.5s2.5-1.122 2.5-2.5-1.121-2.5-2.5-2.5z"  fill-rule="evenodd"/></symbol><symbol id="o-box-storage" viewBox="0 0 32 28"><path d="M30 7H2V2h28v5zm-2 19H4V9h24v17zm2-26H2C.902 0 0 .9 0 2v7h2v17c0 1.1.902 2 2 2h24c1.102 0 2-.9 2-2V9h2V2c0-1.1-.898-2-2-2zM10.999 13c0-.551.448-1 1-1h8c.551 0 1 .449 1 1v1c0 .551-.449 1-1 1h-8c-.552 0-1-.449-1-1v-1zm1 3h8c1.1 0 2-.9 2-2v-1c0-1.1-.9-2-2-2h-8c-1.1 0-2 .9-2 2v1c0 1.1.9 2 2 2z"  fill-rule="evenodd"/></symbol><symbol id="o-chart-pie" viewBox="0 0 32 32"><path d="M15 29.858c-7.168 0-13-5.832-13-13C2 10.725 6.277 5.593 12 4.234V2.193C5.158 3.584 0 9.605 0 16.858c0 8.284 6.716 15 15 15 6.895 0 12.676-4.662 14.428-11h-2.084c-1.691 5.214-6.574 9-12.344 9zm3-15V2c6.452.927 11.497 6.271 11.965 12.858H18zM18.284.021A2.002 2.002 0 0 0 16 2v12.858a2 2 0 0 0 2 2h11.965a2 2 0 0 0 1.995-2.142C31.431 7.264 25.68 1.083 18.284.021z"  fill-rule="evenodd"/></symbol><symbol id="o-connect" viewBox="0 0 32 32"><path d="M26.5 30a3.5 3.5 0 1 1 0-7 3.5 3.5 0 0 1 0 7m-21-10.5a3.5 3.5 0 1 1 0-7 3.5 3.5 0 0 1 0 7M26.5 2a3.5 3.5 0 1 1 0 7 3.5 3.5 0 0 1 0-7m0 19a5.486 5.486 0 0 0-4.385 2.19l-11.333-5.667c.139-.484.218-.994.218-1.523 0-.529-.079-1.039-.218-1.523L22.115 8.81A5.486 5.486 0 0 0 26.5 11a5.5 5.5 0 1 0 0-11A5.5 5.5 0 0 0 21 5.5c0 .529.079 1.039.218 1.523L9.885 12.69A5.486 5.486 0 0 0 5.5 10.5a5.5 5.5 0 1 0 0 11 5.486 5.486 0 0 0 4.385-2.19l11.333 5.667A5.506 5.506 0 0 0 21 26.5a5.5 5.5 0 1 0 11 0 5.5 5.5 0 0 0-5.5-5.5"  fill-rule="evenodd"/></symbol><symbol id="o-connection" viewBox="0 0 32 32"><path d="M27 8a3 3 0 1 1 0-6 3 3 0 0 1 0 6M16 19a3 3 0 1 1 0-6 3 3 0 0 1 0 6m-8 8a3 3 0 1 1-6 0 3 3 0 0 1 6 0M27 0c-2.757 0-5 2.243-5 5a5.009 5.009 0 0 0 4 4.899V15h-5.101A5.009 5.009 0 0 0 16 11a5.009 5.009 0 0 0-4.899 4H5a1 1 0 0 0-1 1v6.101A5.009 5.009 0 0 0 0 27c0 2.757 2.243 5 5 5s5-2.243 5-5a5.009 5.009 0 0 0-4-4.899V17h5.101A5.009 5.009 0 0 0 16 21a5.009 5.009 0 0 0 4.899-4H27a1 1 0 0 0 1-1V9.899A5.009 5.009 0 0 0 32 5c0-2.757-2.243-5-5-5"  fill-rule="evenodd"/></symbol><symbol id="o-dashboard" viewBox="0 0 32 32"><path d="M16.001 0c-8.84 0-16 7.164-16 16s7.16 16 16 16c8.836 0 16-7.164 16-16s-7.164-16-16-16zm0 30c-7.72 0-14-6.28-14-14s6.28-14 14-14 14 6.28 14 14-6.28 14-14 14z"/><path d="M5.14 13.979a1 1 0 1 0-.18 1.99c.03 0 .06.01.09.01.51 0 .94-.39.99-.91a1.001 1.001 0 0 0-.9-1.09zM7.92 7.13c-.41.37-.44 1-.07 1.41.2.22.47.33.74.33.24 0 .479-.09.68-.271.41-.37.431-1 .061-1.41A.99.99 0 0 0 7.92 7.13zM6.6 10.189a1.012 1.012 0 0 0-1.34.45.988.988 0 0 0 .45 1.34c.14.08.29.11.439.11.37 0 .721-.2.9-.55.241-.499.041-1.1-.449-1.35zM16 6H16.051c.55 0 .99-.45 1-1 0-.55-.45-1-1-1h-.03-.02c-.55 0-1 .45-1 1S15.45 6 16 6zM22.7 7.22a1.005 1.005 0 0 0 .74 1.68 1.005 1.005 0 0 0 .68-1.739 1.008 1.008 0 0 0-1.42.059zM26.87 14.02c-.551.05-.96.54-.91 1.09a1 1 0 0 0 1 .91c.03 0 .06 0 .09-.01.54-.04.95-.53.9-1.08a.998.998 0 0 0-1.08-.91zM26.76 10.68c-.24-.49-.84-.689-1.34-.45-.49.25-.7.851-.45 1.34a1 1 0 0 0 .89.561 1.006 1.006 0 0 0 .9-1.451zM12.96 5.38a.984.984 0 0 0-1.29-.57.991.991 0 0 0-.57 1.29c.15.39.53.64.93.64a1.002 1.002 0 0 0 .93-1.36zM20.38 4.819c-.521-.199-1.1.061-1.3.57s.05 1.09.569 1.3c.12.04.24.07.36.07.4 0 .78-.25.93-.64a1 1 0 0 0-.559-1.3zM16.002 10a1 1 0 0 0-.959.717c-1.205 4.081-2.642 9.216-2.642 10.502a3.617 3.617 0 0 0 3.601 3.603 3.583 3.583 0 0 0 2.552-1.061 3.566 3.566 0 0 0 1.048-2.541c.003-1.287-1.435-6.423-2.641-10.503a1 1 0 0 0-.959-.717zm1.844 13.055a2.59 2.59 0 0 1-1.842.767 2.617 2.617 0 0 1-2.604-2.603c0-1.069 1.311-5.852 2.601-10.219 1.291 4.366 2.602 9.15 2.6 10.222a2.566 2.566 0 0 1-.755 1.833z"/></symbol><symbol id="o-document" viewBox="0 0 24 32"><path d="M19.5 14h-15a.5.5 0 0 0 0 1h15a.5.5 0 0 0 0-1zm0 4h-15a.5.5 0 0 0 0 1h15a.5.5 0 0 0 0-1zM22 30H2V2h12v8h8v20zM15 3l6 6h-6V3zm8.414 5.586l-8-8A2 2 0 0 0 14 0H2a2 2 0 0 0-2 2v28a2 2 0 0 0 2 2h20a2 2 0 0 0 2-2V10a2 2 0 0 0-.586-1.414zM19.5 26h-15a.5.5 0 0 0 0 1h15a.5.5 0 0 0 0-1zm0-4h-15a.5.5 0 0 0 0 1h15a.5.5 0 0 0 0-1z"  fill-rule="evenodd"/></symbol><symbol id="o-documents" viewBox="0 0 32 32"><path d="M16.5 19h11a.5.5 0 0 0 0-1h-11a.5.5 0 0 0 0 1zm0-8h11a.5.5 0 0 0 0-1h-11a.5.5 0 0 0 0 1zm0 4h11a.5.5 0 0 0 0-1h-11a.5.5 0 0 0 0 1zM30 24H14V2h16v22zm-12 6H2V8h10v4H4.5a.5.5 0 0 0 0 1H12v3H4.5a.5.5 0 0 0 0 1H12v3H4.5a.5.5 0 0 0 0 1H12v3H4.5a.5.5 0 0 0 0 1h7.777c.347.595.985 1 1.723 1h4v4zM30 0H14a2 2 0 0 0-2 2v4H2a2 2 0 0 0-2 2v22a2 2 0 0 0 2 2h16a2 2 0 0 0 2-2v-4h10a2 2 0 0 0 2-2V2a2 2 0 0 0-2-2zM16.5 7h11a.5.5 0 0 0 0-1h-11a.5.5 0 0 0 0 1z"  fill-rule="evenodd"/></symbol><symbol id="o-grid" viewBox="0 0 32 32"><path d="M7.001 24h-6c-.551 0-1 .449-1 1v6c0 .551.449 1 1 1h6A1 1 0 0 0 8 31v-6a1 1 0 0 0-.999-1zm-1 6H2v-4h4.001v4zM31.001 24h-6c-.551 0-1 .449-1 1v6c0 .551.449 1 1 1h6A1 1 0 0 0 32 31v-6a1 1 0 0 0-.999-1zm-1 6H26v-4h4.001v4zM19.001 24h-6c-.551 0-1 .449-1 1v6c0 .551.449 1 1 1h6A1 1 0 0 0 20 31v-6a1 1 0 0 0-.999-1zm-1 6H14v-4h4.001v4zM7.001 0h-6c-.551 0-1 .449-1 1v6c0 .551.449 1 1 1h6A1 1 0 0 0 8 7V1a1 1 0 0 0-.999-1zm-1 6H2V2h4.001v4zM31.001 0h-6c-.551 0-1 .449-1 1v6c0 .551.449 1 1 1h6A1 1 0 0 0 32 7V1a1 1 0 0 0-.999-1zm-1 6H26V2h4.001v4zM19.001 0h-6c-.551 0-1 .449-1 1v6c0 .551.449 1 1 1h6A1 1 0 0 0 20 7V1a1 1 0 0 0-.999-1zm-1 6H14V2h4.001v4zM7.001 12h-6c-.551 0-1 .449-1 1v6c0 .551.449 1 1 1h6A1 1 0 0 0 8 19v-6a1 1 0 0 0-.999-1zm-1 6H2v-4h4.001v4zM31.001 12h-6c-.551 0-1 .449-1 1v6c0 .551.449 1 1 1h6A1 1 0 0 0 32 19v-6a1 1 0 0 0-.999-1zm-1 6H26v-4h4.001v4zM19.001 12h-6c-.551 0-1 .449-1 1v6c0 .551.449 1 1 1h6A1 1 0 0 0 20 19v-6a1 1 0 0 0-.999-1zm-1 6H14v-4h4.001v4z"/></symbol><symbol id="o-heart-rate" viewBox="0 0 32 28"><path d="M17.007 25.75c-.497.311-1.555.303-2.011.028-.07-.044-3.766-2.438-7.2-5.778h-2.78c3.855 4.193 8.578 7.254 8.924 7.476.558.338 1.28.524 2.034.524.776 0 1.519-.196 2.1-.559.333-.212 5.048-3.259 8.9-7.441h-2.787c-3.43 3.327-7.116 5.709-7.18 5.75zM31 16h-8.568L19.6 10.958 16.769 16h-.23L13 7.363 9.46 16H1a1 1 0 1 0 0 2h9.803L13 12.637 15.198 18h2.74l1.662-2.958L21.262 18H31a1 1 0 1 0 0-2zM3.094 14C2.417 12.674 2 11.327 2 10.011 2 6.382 5.069 2 8.878 2c2.657 0 5.102 1.486 6.228 3.786.336.685 1.46.685 1.797 0C18.028 3.486 20.475 2 23.133 2 26.939 2 30 6.382 30 10.011c0 1.316-.418 2.663-1.097 3.989h2.195c.566-1.312.902-2.653.902-3.989C32 5.381 28.127 0 23.134 0c-2.828 0-5.475 1.319-7.13 3.463C14.349 1.319 11.704 0 8.878 0 3.88 0 0 5.381 0 10.011 0 11.346.336 12.687.9 14h2.194z"  fill-rule="evenodd"/></symbol><symbol id="o-key" viewBox="0 0 32 32"><path d="M20.688 20.625a9.34 9.34 0 0 1-2.252-.287 1.005 1.005 0 0 0-.949.263l-1.532 1.531c-.175.176-.642.368-.893.368h-2.061c-1.07 0-2.002.869-2.002 1.938V26H9c-1.068 0-2 .932-2 2v2H2.001v-5.406c0-.25.196-.717.373-.893l9.06-9.06c.252-.252.35-.62.26-.964a9.232 9.232 0 0 1-.32-2.365C11.374 6.178 15.553 2 20.687 2c5.135 0 9.314 4.178 9.314 9.312 0 5.135-4.179 9.313-9.314 9.313m0-20.625C14.45 0 9.374 5.075 9.374 11.312c0 .761.084 1.535.25 2.31L.96 22.286c-.553.552-.958 1.524-.958 2.308V32h8.998v-4h4.002v-3.485l2.062-.015c.785 0 1.756-.402 2.307-.956l1.14-1.14a11.1 11.1 0 0 0 2.177.221c6.239 0 11.314-5.075 11.314-11.313C32 5.075 26.926 0 20.688 0m1.875 11.75a2.315 2.315 0 0 1-2.312-2.313 2.315 2.315 0 0 1 2.311-2.312 2.315 2.315 0 0 1 2.312 2.312 2.315 2.315 0 0 1-2.311 2.313m0-5.625a3.316 3.316 0 0 0-3.312 3.312 3.316 3.316 0 0 0 3.311 3.313 3.316 3.316 0 0 0 3.312-3.313 3.316 3.316 0 0 0-3.311-3.312"  fill-rule="evenodd"/></symbol><symbol id="o-lock" viewBox="0 0 28 32"><path d="M26 28c0 1.103-.897 2-2 2H4c-1.103 0-2-.897-2-2V15c0-1.103.897-2 2-2h20c1.103 0 2 .897 2 2v13zM9.001 7.111c0-2.818 2.243-5.111 5-5.111s5 2.293 5 5.111V11h-10V7.111zM24 11h-2.999V7.111c0-3.921-3.141-7.111-7-7.111s-7 3.19-7 7.111V11H4c-2.207 0-4 1.791-4 4v13c0 2.209 1.793 4 4 4h20c2.211 0 4-1.791 4-4V15c0-2.209-1.789-4-4-4zm-7.811 16h-4.378l1.086-5.202-.325-.178A2.998 2.998 0 0 1 11 19c0-1.654 1.346-3 3-3s3 1.346 3 3a2.997 2.997 0 0 1-1.572 2.621l-.325.178L16.189 27zM18 19c0-2.206-1.794-4-4-4s-4 1.794-4 4c0 1.326.67 2.56 1.771 3.301L10.58 28h6.84l-1.191-5.697A3.987 3.987 0 0 0 18 19z"  fill-rule="evenodd"/></symbol><symbol id="o-menu" viewBox="0 0 26 18"><path d="M25 8H1c-.55 0-1 .45-1 1s.45 1 1 1h24c.55 0 1-.45 1-1s-.45-1-1-1m0 8H1c-.55 0-1 .45-1 1s.45 1 1 1h24c.55 0 1-.45 1-1s-.45-1-1-1M1 2h24c.55 0 1-.45 1-1s-.45-1-1-1H1C.45 0 0 .45 0 1s.45 1 1 1"  fill-rule="evenodd"/></symbol><symbol id="o-navigate-double-left" viewBox="0 0 32 28"><path d="M5 14L16.2 3.1c.4-.3.5-.8.5-1.3s-.2-.9-.5-1.3c-.4-.3-.8-.5-1.4-.5-.5 0-1 .2-1.4.5L.2 13.3c-.2.2-.3.4-.3.6s.1.4.3.6l13.2 12.8c.7.7 2 .7 2.7 0 .4-.3.5-.8.5-1.3s-.2-.9-.5-1.3L5 14z"/><path d="M20 14L31.2 3.1c.4-.3.5-.8.5-1.3s-.2-.9-.5-1.3c-.4-.3-.8-.5-1.4-.5-.5 0-1 .2-1.4.5L15.2 13.3c-.2.2-.3.4-.3.6s.1.4.3.6l13.2 12.8c.7.7 2 .7 2.7 0 .4-.3.5-.8.5-1.3s-.2-.9-.5-1.3L20 14z"/></symbol><symbol id="o-navigate-double-right" viewBox="0 0 31.8 28"><path d="M26.8 14L15.6 24.9c-.4.3-.5.8-.5 1.3s.2.9.5 1.3c.4.3.8.5 1.4.5.5 0 1-.2 1.4-.5l13.2-12.8c.2-.2.3-.4.3-.6s-.1-.4-.3-.6L18.4.7c-.7-.7-2-.7-2.7 0-.4.3-.5.8-.5 1.3s.2.9.5 1.3L26.8 14z"/><path d="M11.8 14L.6 24.9c-.4.3-.5.8-.5 1.3s.2.9.5 1.3c.4.3.8.5 1.4.5.5 0 1-.2 1.4-.5l13.2-12.8c.2-.2.3-.4.3-.6s-.1-.4-.3-.6L3.4.7C2.7 0 1.4 0 .7.7.3 1 .2 1.5.2 2s.2.9.5 1.3L11.8 14z"/></symbol><symbol id="o-navigate-left" viewBox="0 0 17 28"><path d="M4.957 14L16.205 3.083c.352-.341.545-.792.545-1.271 0-.478-.193-.929-.545-1.27-.36-.35-.84-.542-1.352-.542-.513 0-.993.192-1.353.542L.26 13.392a.844.844 0 0 0 0 1.216l13.24 12.85c.717.698 1.982.699 2.705 0 .352-.341.545-.792.545-1.27 0-.479-.193-.93-.545-1.271L4.957 14z"  fill-rule="evenodd"/></symbol><symbol id="o-navigate-right" viewBox="0 0 17 28"><path d="M16.49 13.392L3.251.542C2.89.193 2.41 0 1.898 0S.905.193.547.541A1.76 1.76 0 0 0 0 1.813c0 .477.193.929.546 1.27L11.793 14 .546 24.917A1.758 1.758 0 0 0 0 26.188c0 .477.193.929.546 1.27.719.699 1.983.7 2.705 0L16.49 14.609a.843.843 0 0 0 0-1.217" fill-rule="evenodd"/></symbol><symbol id="o-pencil" viewBox="0 0 32 32"><path d="M28.919 8.318l-1.447 1.447-5.23-5.23 1.446-1.446a3.685 3.685 0 0 1 2.616-1.084c.946 0 1.893.361 2.615 1.084a3.696 3.696 0 0 1 0 5.23zm-4.947 4.946l-5.23-5.23 2.793-2.793 5.23 5.231-2.793 2.792zM8.529 28.704L2 30l1.297-6.526L18.034 8.741l5.23 5.23L8.53 28.704zm21.804-27.03a5.661 5.661 0 0 0-4.03-1.669 5.662 5.662 0 0 0-4.03 1.67L1.884 22.06c-.28.28-.47.636-.547 1.024L.039 29.61a2 2 0 0 0 2.35 2.352l6.53-1.297a1.997 1.997 0 0 0 1.024-.547l20.39-20.386a5.652 5.652 0 0 0 1.67-4.025 5.665 5.665 0 0 0-1.67-4.033z"  fill-rule="evenodd"/></symbol><symbol id="o-redirect" viewBox="0 0 32 32"><path d="M23 20a1 1 0 0 0-1 1v8c0 .551-.448 1-1 1H3c-.552 0-1-.449-1-1V11c0-.551.448-1 1-1h8a1 1 0 1 0 0-2H3c-1.654 0-3 1.346-3 3v18c0 1.654 1.346 3 3 3h18c1.654 0 3-1.346 3-3v-8a1 1 0 0 0-1-1z"/><path d="M19.929 4c-.551 0-1 .449-1 1 .001.534.465.999 1 1h4.657L12.858 17.728a1 1 0 0 0 1.414 1.414L26 7.414v4.657c.001.534.465.999 1 1 .551 0 1-.449 1-1V4h-8.071z"/></symbol><symbol id="o-signs" viewBox="0 0 32 32"><path d="M26.172 23H6c-.551 0-1-.449-1-1v-4c0-.551.449-1 1-1h20.172l3 3-3 3zM5.829 11l-3-3 3-3h20.17c.553 0 1 .449 1 1v4c0 .551-.447 1-1 1H5.83zm21.17 4H17v-2h9c1.656 0 3-1.346 3-3V6c0-1.654-1.344-3-3-3h-9V1a1 1 0 1 0-2 0v2H5L0 8l5 5h10v2H6c-1.653 0-3 1.346-3 3v4c0 1.654 1.347 3 3 3h9v7h2v-7h10l5-5-5-5z"  fill-rule="evenodd"/></symbol><symbol id="o-tag" viewBox="0 0 32 32"><path d="M30 12.83a1.718 1.718 0 0 1-.513 1.175L13.887 29.6a1.698 1.698 0 0 1-1.111.401c-.47 0-.895-.176-1.23-.51l-9.039-9.04a1.693 1.693 0 0 1-.506-1.224c0-.47.176-.894.51-1.228L18.002 2.504A1.7 1.7 0 0 1 19.138 2l9.121-.019c.472.001.897.2 1.231.534.331.331.508.755.511 1.21L30 12.83zm.902-11.73A3.708 3.708 0 0 0 28.256.003l-9.152.018a3.677 3.677 0 0 0-2.521 1.073L1.097 16.585a3.708 3.708 0 0 0-1.096 2.641c0 1 .389 1.937 1.095 2.641l1.538 1.54 7.5 7.5A3.718 3.718 0 0 0 12.776 32c.998 0 1.937-.389 2.643-1.095l-.004-.004c1.293-1.27 15.345-15.34 15.488-15.484.667-.662 1.049-1.56 1.076-2.553l.022-9.134a3.726 3.726 0 0 0-1.099-2.63zm-6.28 8.13a1.849 1.849 0 0 1-1.848-1.845c-.002-.49.19-.952.538-1.3a1.842 1.842 0 0 1 1.304-.542 1.852 1.852 0 0 1 1.846 1.846 1.846 1.846 0 0 1-1.84 1.841zm-.006-4.687a2.84 2.84 0 0 0-2.011.835 2.81 2.81 0 0 0-.831 2.01 2.85 2.85 0 0 0 2.848 2.842 2.848 2.848 0 0 0 2.84-2.84 2.855 2.855 0 0 0-2.846-2.847z"  fill-rule="evenodd"/></symbol><symbol id="o-toggles" viewBox="0 0 32 32"><path d="M12 18c-1.103 0-2-.897-2-2s.897-2 2-2 2 .897 2 2-.897 2-2 2zm0-6a3.994 3.994 0 0 0-3.878 3.064H0V17h8.141c.447 1.722 1.997 3 3.859 3 1.862 0 3.412-1.278 3.859-3H32v-1.936H15.878A3.994 3.994 0 0 0 12 12zm10-6c-1.103 0-2-.897-2-2s.897-2 2-2 2 .897 2 2-.897 2-2 2zm3.878-2.936A3.994 3.994 0 0 0 22 0a3.994 3.994 0 0 0-3.878 3.064H0V5h18.141c.447 1.722 1.997 3 3.859 3 1.862 0 3.412-1.278 3.859-3H32V3.064h-6.122zM18 30c-1.103 0-2-.897-2-2s.897-2 2-2 2 .897 2 2-.897 2-2 2zm0-6a3.994 3.994 0 0 0-3.878 3.064H0V29h14.141c.447 1.722 1.997 3 3.859 3 1.862 0 3.412-1.278 3.859-3H32v-1.936H21.878A3.994 3.994 0 0 0 18 24z"  fill-rule="evenodd"/></symbol><symbol id="o-typewriter" viewBox="0 0 32 32"><path d="M17.001 25h-2a1 1 0 1 0 0 2h2a1 1 0 1 0 0-2zm4-3a1 1 0 0 0-1-1h-2a1 1 0 1 0 0 2h2a1 1 0 0 0 1-1zm5-1h-2a1 1 0 1 0 0 2h2a1 1 0 1 0 0-2zm0 9h-20c-1.783 0-3.9-.663-3.997-3.78L4.44 16h6.372a5.985 5.985 0 0 0 10.376 0h6.376l2.434 10.22c-.095 3.117-2.213 3.78-3.997 3.78zm-6.027-14c-.913 1.207-2.347 2-3.974 2-1.627 0-3.06-.793-3.975-2h7.95zM2 14a1 1 0 0 1 1-1h26a1 1 0 0 1 0 2H3a1 1 0 0 1-1-1zM7 2h18v10H7V2zm22.827 14.87A2.997 2.997 0 0 0 32 14c0-1.654-1.346-3-3-3h-2V2a2 2 0 0 0-2-2H7a2 2 0 0 0-2 2v9H3c-1.654 0-3 1.346-3 3 0 1.367.924 2.51 2.176 2.87L.001 26c0 4 2.57 6 6 6h20c3.43 0 6-2 6-6l-2.174-9.13zM23.001 25h-2a1 1 0 1 0 0 2h2a1 1 0 1 0 0-2zm-12 0h-2a1 1 0 1 0 0 2h2a1 1 0 1 0 0-2zm4-3a1 1 0 0 0-1-1h-2a1 1 0 1 0 0 2h2a1 1 0 0 0 1-1zm6.498-14h-11c-.275 0-.5.225-.5.5s.225.5.5.5h11c.275 0 .5-.225.5-.5s-.225-.5-.5-.5zM9 22a1 1 0 0 0-1-1H6a1 1 0 1 0 0 2h2a1 1 0 0 0 1-1zM21.5 4h-11c-.276 0-.5.225-.5.5s.224.5.5.5h11c.274 0 .5-.225.5-.5s-.226-.5-.5-.5z"  fill-rule="evenodd"/></symbol><symbol id="o-undo" viewBox="0 0 31 27"><path d="M17.793 0C10.51 0 4.586 5.902 4.586 13.156v.389l-2.06-2.393c-.5-.579-1.453-.648-2.026-.15a1.432 1.432 0 0 0-.151 2.026l5.674 6.593 5.675-6.593c.517-.6.449-1.509-.151-2.025-.578-.5-1.533-.428-2.027.15l-2.06 2.392v-.389c0-5.669 4.636-10.281 10.333-10.281s10.332 4.612 10.332 10.281c0 5.669-4.635 10.281-10.332 10.281a1.439 1.439 0 0 0 0 2.875C25.075 26.312 31 20.41 31 13.156 31 5.902 25.075 0 17.793 0"  fill-rule="evenodd"/></symbol><symbol id="o-world" viewBox="0 0 32 32"><path d="M16 30C8.28 30 2 23.72 2 16c0-3.903 1.609-7.434 4.193-9.975.207.523.354 1.098.387 1.673.019.302.004.639-.012.997-.033.751-.07 1.602.212 2.369.126.349.515 1.433 1.604 1.433.339 0 .629-.113.885-.213.206-.08.401-.156.624-.181a1.25 1.25 0 0 1 .138-.007c.854 0 2.102.688 2.474 1.364.126.229.075.311.041.365-.144.24-.302.401-.486.587-.402.409-.952.97-1.027 2.1-.117 1.604.802 2.351 1.472 2.896.224.182.436.354.623.555.713.762.865 1.965 1.026 3.239.179 1.416.364 2.88 1.366 3.95.138.159.998 1.077 2.139 1.077.923 0 2.137-.575 2.681-3.315.04-.201.068-.406.094-.607.039-.294.079-.599.16-.746.231-.397.813-.817 1.279-1.154.26-.188.506-.366.713-.55 1.027-.896 1.535-2.516 1.352-4.328-.191-1.895-1.064-3.458-2.335-4.18-.876-.512-1.846-.578-2.593-.578-.348 0-.702.016-1.053.034-.312.015-.623.031-.925.031-1.176 0-1.652-.251-1.962-1.032-.242-.629-.166-1.458.388-1.743.398-.207 1.078-.426 1.563-.426.11 0 .177.012.214.021.058.12.129.367.169.508.141.498.378 1.331 1.255 1.331.803 0 1.126-.779 1.265-1.111l.011-.028.01-.029c.109-.314.179-.556.237-.759.147-.51.17-.588.76-1.205l.054-.057c.542-.569 1.45-1.52 1.418-2.657-.016-.56-.257-1.074-.699-1.488-.377-.365-.813-.557-1.284-.557-.447 0-.811.172-1.118.365.112-.35.283-.813.541-1.417C25.703 4.231 30 9.618 30 16c0 7.72-6.28 14-14 14zM6.992 5.299A13.929 13.929 0 0 1 18.874 2.3c-.317.749-1.095 2.68-.624 3.122.096.027.189.04.278.04.746 0 1.281-.858 1.903-.858.19 0 .387.08.6.287 1 .937-.203 2.14-.812 2.781-1 1.047-.797 1.109-1.219 2.328-.148.357-.255.495-.341.495-.24 0-.314-1.081-.659-1.495-.208-.265-.569-.365-.979-.365-.702 0-1.548.29-2.021.537-1.063.547-1.281 1.906-.859 3 .562 1.421 1.658 1.664 2.891 1.664.641 0 1.318-.065 1.978-.065.751 0 1.478.084 2.099.448 2.063 1.172 2.532 5.39.813 6.89-.563.5-1.703 1.11-2.203 1.969-.25.453-.245 1.063-.36 1.641-.392 1.973-1.074 2.51-1.7 2.51-.745 0-1.409-.76-1.409-.76-1.609-1.719-.578-5.25-2.391-7.188-.859-.922-1.937-1.203-1.828-2.703.078-1.187.828-1.328 1.36-2.219.923-1.459-1.63-3.263-3.36-3.263-.085 0-.169.004-.25.013-.65.073-1.067.388-1.397.388-.25 0-.45-.18-.665-.778-.328-.891-.078-2.078-.141-3.078a6.466 6.466 0 0 0-.586-2.342zM16 0C7.163 0 0 7.163 0 16s7.163 16 16 16 16-7.163 16-16S24.837 0 16 0z"  fill-rule="evenodd"/></symbol><symbol id="pencil" viewBox="0 0 32 32"><path d="M30.426 1.577a5.379 5.379 0 0 0-7.609 0l-2.496 2.495 7.613 7.61 2.492-2.497a5.379 5.379 0 0 0 0-7.608zM1.887 22.507L0 32.001l9.496-1.887 17.02-17.019-7.609-7.61-17.02 17.02z"  fill-rule="evenodd"/></symbol><symbol id="plus" viewBox="0 0 26 26"><path d="M25.996 11c0-1.102-.902-2-2-2L17 9.002V2.004c0-1.102-.898-2-2-2L11 0C9.898 0 9 .898 9 2v7.004H2a2.008 2.008 0 0 0-2 2L.004 15c0 1.102.898 2 2 2H9v7c0 1.1.902 2 2 2h4c1.102 0 2-.9 2-2v-7h7c1.102 0 2-.9 2-2l-.004-4z"  fill-rule="evenodd"/></symbol><symbol id="question" viewBox="0 0 32 32"><clipPath id="b"><use xlink:href="#a" overflow="visible"/></clipPath><g clip-path="url(#b)"><clipPath id="d"><use xlink:href="#c" overflow="visible"/></clipPath><path d="M16 0C7.164 0 0 7.164 0 16c0 8.84 7.164 16 16 16s16-7.16 16-16c0-8.836-7.164-16-16-16m0 28a2.5 2.5 0 1 1 0-5 2.5 2.5 0 0 1 0 5m2.006-8.968l-.002.129C18 20.175 17.102 21 16 21c-1.101 0-2.008-.824-2.023-1.837l-.028-1.791a1.794 1.794 0 0 1 .532-1.295 2.096 2.096 0 0 1 1.492-.608c2.269 0 4.14-1.31 4.168-2.92.011-.622-.25-1.221-.754-1.735-.789-.803-2.078-1.284-3.449-1.284-1.207 0-2.319.361-3.127 1.019a2.122 2.122 0 0 1-1.33.463 2.203 2.203 0 0 1-1.621-.707 2.009 2.009 0 0 1-.538-1.501 1.952 1.952 0 0 1 .705-1.37c1.567-1.3 3.659-2.017 5.891-2.017 2.563 0 4.945.95 6.545 2.607 1.24 1.283 1.889 2.896 1.83 4.537-.111 3.094-2.683 5.73-6.287 6.471" clip-path="url(#d)"/></g></symbol><symbol id="search" viewBox="0 0 32 32"><clipPath id="b"><use xlink:href="#a" overflow="visible"/></clipPath><g clip-path="url(#b)"><clipPath id="d"><use xlink:href="#c" overflow="visible"/></clipPath><path d="M.879 31.121C1.465 31.707 2.232 32 3 32s1.535-.293 2.121-.879l7.065-7.066A12.903 12.903 0 0 0 19 26c7.18 0 13-5.82 13-13S26.18 0 19 0 6 5.82 6 13c0 2.5.719 4.832 1.943 6.813L.879 26.879a2.998 2.998 0 0 0 0 4.242M11 13c0-4.41 3.588-8 8-8 4.41 0 8 3.59 8 8s-3.59 8-8 8c-4.412 0-8-3.59-8-8" clip-path="url(#d)"/></g></symbol><symbol id="signs" viewBox="0 0 32 32"><path d="M28 16H6a2 2 0 0 0-2 2v4a2 2 0 0 0 2 2h8v6a2 2 0 1 0 4 0v-6h10l4-4-4-4zm-14-4v2h4v-2h8a2 2 0 0 0 2-2V6a2 2 0 0 0-2-2h-8V2a2 2 0 1 0-4 0v2H4L0 8l4 4h10z"  fill-rule="evenodd"/></symbol><symbol id="tag" viewBox="0 0 32 32"><path d="M25.196 9.313a2.5 2.5 0 1 1 2.496-2.496 2.498 2.498 0 0 1-2.496 2.496zM32 2.918A2.923 2.923 0 0 0 31.14.86a2.91 2.91 0 0 0-2.066-.856V0H19.34v.024a2.853 2.853 0 0 0-1.964.832L.856 17.376v.003a2.913 2.913 0 0 0 0 4.125c1.14 1.141 8.5 8.504 9.64 9.641a2.918 2.918 0 0 0 4.13 0c.015-.012.023-.031.035-.043L31.13 14.637l.015-.016a2.852 2.852 0 0 0 .832-1.968h.02v-.094L32 2.926l-.004-.004.004-.004z"  fill-rule="evenodd"/></symbol><symbol id="user" viewBox="0 0 24 32"><path d="M12.001 16c3.3 0 6-2.7 6-6V6c0-3.3-2.7-6-6-6s-6 2.7-6 6v4c0 3.3 2.7 6 6 6m0 2c-6.602 0-12 5.4-12 12 0 1.1.898 2 2 2h20c1.099 0 2-.9 2-2 0-6.6-5.401-12-12-12"  fill-rule="evenodd"/></symbol><symbol id="users" viewBox="0 0 32 32"><path d="M11 20C4.949 20 0 24.629 0 30.286 0 31.229.824 32 1.836 32h18.332C21.172 32 22 31.229 22 30.286 22 24.629 17.047 20 11 20zm10.005-4.667c-1.297 0-2.538.224-3.695.614a7.081 7.081 0 0 1-2.201 2.692c4.184 1.322 7.391 4.28 8.468 8.361h6.596c1.004 0 1.832-.438 1.832-1.381 0-5.657-4.953-10.286-11-10.286zM11 18c2.75 0 5-2.25 5-5V9.667c0-2.75-2.25-5-5-5s-5 2.25-5 5V13c0 2.75 2.25 5 5 5zm7-5.701a4.947 4.947 0 0 0 3.005 1.034c2.75 0 5-2.25 5-5V5c0-2.75-2.25-5-5-5-2.686 0-4.879 2.15-4.981 4.812A6.966 6.966 0 0 1 18 9.667v2.632z"  fill-rule="evenodd"/></symbol></svg>