<svg xmlns="http://www.w3.org/2000/svg" xmlns:xlink="http://www.w3.org/1999/xlink" style="display: none;"><symbol id="add" viewBox="0 0 32 28"><path d="M2 28h14c.5 0 1.2-.2 1.6-.5l13.6-11.9c.5-.4.8-1 .8-1.6 0-.6-.3-1.2-.8-1.6L17.6.5C17.2.2 16.5 0 16 0H2C.9 0 0 .9 0 2v24c0 1.1.9 2 2 2zm4-16h4V8c0-1.1.9-2 2-2s2 .9 2 2v4h4c1.1 0 2 .9 2 2s-.9 2-2 2h-4v4c0 1.1-.9 2-2 2s-2-.9-2-2v-4H6c-1.1 0-2-.9-2-2s.9-2 2-2z"/></symbol><symbol id="alert" viewBox="0 0 32 32"><path d="M16 28a3 3 0 0 1 0-6 3 3 0 1 1 0 6M15 6h2c1.1 0 1.937.898 1.858 1.992l-.716 10.012C18.062 19.102 17.1 20 16 20c-1.1 0-2.064-.898-2.143-1.996l-.712-10.012A1.838 1.838 0 0 1 15 6m16.152 18.383L19.995 3.14C18.897 1.048 17.448 0 16 0c-1.45 0-2.896 1.047-3.996 3.137L.847 24.387C-1.35 28.57.872 32 5.787 32h20.427c4.914 0 7.137-3.43 4.937-7.617" fill-rule="evenodd"/></symbol><symbol id="arrow-circle-down" viewBox="0 0 32 32"><path d="M24.047 14.283L16.7 22.186a.972.972 0 0 1-.715.316.97.97 0 0 1-.713-.316l-7.348-7.903c-.578-.624-.578-1.675 0-2.297a1.508 1.508 0 0 1 2.185 0l5.875 6.32 5.876-6.32a1.51 1.51 0 0 1 2.188 0c.285.308.442.715.442 1.15 0 .432-.157.84-.443 1.147M16 0C7.164 0 0 7.16 0 16c0 8.836 7.164 16 16 16s16-7.164 16-16c0-8.84-7.164-16-16-16" fill-rule="evenodd"/></symbol><symbol id="arrow-circle-right" viewBox="0 0 32 32"><path d="M22.187 16.728l-7.903 7.347c-.302.28-.71.433-1.15.433-.438 0-.846-.154-1.147-.433a1.48 1.48 0 0 1-.486-1.092c0-.415.174-.803.488-1.094l6.32-5.876-6.32-5.877a1.48 1.48 0 0 1-.487-1.092c0-.415.174-.803.49-1.094.61-.57 1.674-.573 2.293.003l7.904 7.346a.97.97 0 0 1 0 1.428M16 0C7.16 0 0 7.164 0 16s7.16 16 16 16c8.836 0 16-7.164 16-16S24.836 0 16 0" fill-rule="evenodd"/></symbol><symbol id="arrow-circle-up" viewBox="0 0 32 32"><path d="M24.075 20.013c-.29.312-.678.485-1.093.485-.415 0-.803-.173-1.094-.486l-5.875-6.32-5.876 6.32a1.505 1.505 0 0 1-2.186-.002 1.67 1.67 0 0 1-.44-1.145c0-.43.156-.838.44-1.147l7.35-7.905a.987.987 0 0 1 1.428.002l7.347 7.9c.578.624.578 1.676 0 2.298M16 0C7.164 0 0 7.163 0 16c0 8.84 7.164 16 16 16 8.835 0 16-7.16 16-16 0-8.837-7.164-16-16-16" fill-rule="evenodd"/></symbol><symbol id="box-storage" viewBox="0 0 32 28"><path d="M30 0H2C.902 0 0 .9 0 2v6h32V2c0-1.1-.898-2-2-2zm-8 14H10v-4H2v16c0 1.1.902 2 2 2h24c1.102 0 2-.9 2-2V10h-8v4z" fill-rule="evenodd"/></symbol><symbol id="cancel" viewBox="0 0 32 32"><defs><path id="a" d="M0 0h32v32H0z"/></defs><clipPath id="b"><use xlink:href="#a" overflow="visible"/></clipPath><g clip-path="url(#b)"><defs><path id="c" d="M0 0h32v32H0z"/></defs><clipPath id="d"><use xlink:href="#c" overflow="visible"/></clipPath><path d="M32.002 15.998c0-8.836-7.164-15.998-16-15.998C7.17 0 0 7.164 0 16s7.17 16 16 16c8.836 0 16.002-7.166 16.002-16.002M18.83 21.656l-2.828-2.828-2.83 2.828a2.007 2.007 0 0 1-2.828 0 2.005 2.005 0 0 1 0-2.828L13.172 16l-2.828-2.828a2.007 2.007 0 0 1 0-2.83 2.005 2.005 0 0 1 2.828 0l2.83 2.83 2.828-2.83a2.005 2.005 0 0 1 2.828 0 2.01 2.01 0 0 1 0 2.83L18.83 16l2.828 2.828a2.007 2.007 0 0 1 0 2.828 2.007 2.007 0 0 1-2.828 0" clip-path="url(#d)"/></g></symbol><symbol id="chart-pie" viewBox="0 0 32 32"><path d="M20 12V5.008A13.274 13.274 0 0 1 26.992 12H20zM16 0v16h16C31.434 7.418 24.584.566 16 0zm-2 2.05C6.184 2.567 0 9.056 0 17c0 8.283 6.715 15 15 15 7.947 0 14.432-6.186 14.95-14H14V2.05z" fill-rule="evenodd"/></symbol><symbol id="circle-check" viewBox="0 0 32 32"><path d="M22.158 12.925l-5.72 8.103a1.718 1.718 0 0 1-1.39.72c-.368 0-.73-.12-1.024-.34l-3.813-2.86a1.69 1.69 0 0 1-.663-1.12c-.064-.45.05-.9.323-1.264a1.69 1.69 0 0 1 1.366-.68c.37 0 .722.116 1.02.34l2.41 1.807 4.708-6.67c.315-.445.84-.712 1.404-.712.354 0 .69.105.97.303.767.544.95 1.61.41 2.375m5.154-8.24c-6.244-6.245-16.38-6.25-22.627 0-6.248 6.247-6.245 16.383 0 22.626 6.246 6.25 16.38 6.25 22.63 0 6.247-6.246 6.246-16.376-.003-22.625" fill-rule="evenodd"/></symbol><symbol id="circle-delete" viewBox="0 0 32 32"><path d="M21.998 18l-12-.002c-1.1 0-2-.9-2-2s.9-2 2-2H22c1.1 0 2 .9 2 2s-.9 2-2 2m5.314-13.312c-6.245-6.246-16.38-6.25-22.628-.002-6.248 6.248-6.245 16.384 0 22.628 6.247 6.248 16.38 6.248 22.63 0 6.247-6.248 6.246-16.378-.003-22.626" fill-rule="evenodd"/></symbol><symbol id="clock" viewBox="0 0 32 32"><path d="M16 28C9.383 28 4 22.617 4 16S9.383 4 16 4s12 5.383 12 12-5.383 12-12 12m0-28C7.16 0 0 7.164 0 16s7.16 16 16 16c8.836 0 16-7.164 16-16S24.836 0 16 0m0 6.75c-.645 0-1.18.484-1.242 1.125l-.727 7.266-6.155.616A1.244 1.244 0 0 0 6.75 17c0 .645.484 1.18 1.125 1.244l9.602 1.004.023.002c.414 0 .75-.338.75-.773L17.242 7.875A1.243 1.243 0 0 0 16 6.75" fill-rule="evenodd"/></symbol><symbol id="document" viewBox="0 0 32 32"><defs><path id="a" d="M0 0h32v32H0z"/></defs><clipPath id="b"><use xlink:href="#a" overflow="visible"/></clipPath><path clip-path="url(#b)" d="M20.002 0v8H28z"/><defs><path id="c" d="M0 0h32v32H0z"/></defs><clipPath id="d"><use xlink:href="#c" overflow="visible"/></clipPath><g clip-path="url(#d)"><defs><path id="e" d="M0 0h32v32H0z"/></defs><clipPath id="f"><use xlink:href="#e" overflow="visible"/></clipPath><path d="M18.002 8V0h-14v32H28V10h-7.998c-1.106 0-2-.895-2-2m5 20h-14a1 1 0 0 1 0-2h14c.555 0 1 .447 1 1s-.445 1-1 1m0-6h-14a1 1 0 0 1 0-2h14c.555 0 1 .447 1 1s-.445 1-1 1m1-7c0 .553-.445 1-1 1h-14a1 1 0 0 1 0-2h14c.555 0 1 .447 1 1" clip-path="url(#f)"/></g></symbol><symbol id="documents" viewBox="0 0 32 32"><path d="M27 8H17a1 1 0 0 1 0-2h10c.555 0 1 .447 1 1 0 .553-.445 1-1 1zm0 6H17a1 1 0 0 1 0-2h10c.555 0 1 .447 1 1 0 .553-.445 1-1 1zm0 6H17a1 1 0 0 1 0-2h10c.555 0 1 .447 1 1 0 .553-.445 1-1 1zm-15 6h20V0H12v26zm-2 0H5a1 1 0 1 1 0-2h5v-4H5a1 1 0 1 1 0-2h5v-4H5a1 1 0 1 1 0-2h5V6H0v26h20v-4H10v-2z" fill-rule="evenodd"/></symbol><symbol id="face-pain" viewBox="0 0 32 32"><path d="M16 28C9.383 28 4 22.617 4 16S9.383 4 16 4s12 5.383 12 12-5.383 12-12 12zm0-28C7.16 0 0 7.164 0 16s7.16 16 16 16c8.836 0 16-7.164 16-16S24.836 0 16 0zm8 13h-2l1.6-1.2A.998.998 0 0 0 23 10a.994.994 0 0 0-.6.2L17.333 14l5.067 3.8a1 1 0 0 0 1.2-1.6L22 15h2a1 1 0 0 0 0-2zm-4 9h-8a1 1 0 0 0 0 2h8a1 1 0 0 0 0-2zM9.6 10.2a1 1 0 0 0-1.2 1.6L10 13H8a1 1 0 0 0 0 2h2l-1.6 1.2a1 1 0 1 0 1.2 1.6l5.067-3.8L9.6 10.2z" fill-rule="evenodd"/></symbol><symbol id="gear" viewBox="0 0 32 32"><defs><path id="a" d="M0 0h32v32H0z"/></defs><clipPath id="b"><use xlink:href="#a" overflow="visible"/></clipPath><g clip-path="url(#b)"><defs><path id="c" d="M0 0h32v32H0z"/></defs><clipPath id="d"><use xlink:href="#c" overflow="visible"/></clipPath><path d="M27.765 18.326c.148-.753.23-1.53.23-2.326s-.082-1.573-.23-2.326l2.827-2.425c.418-.36.534-1.042.26-1.518l-2-3.464c-.276-.476-.925-.717-1.444-.534l-3.523 1.24a11.97 11.97 0 0 0-4.018-2.323L19.18.984C19.077.443 18.544 0 17.994 0h-4c-.55 0-1.083.442-1.184.983l-.687 3.668a11.956 11.956 0 0 0-4.017 2.323l-3.524-1.24c-.52-.182-1.168.06-1.443.535l-2 3.464c-.276.476-.16 1.16.258 1.517l2.827 2.424c-.148.753-.23 1.53-.23 2.326s.082 1.573.23 2.326L1.398 20.75c-.418.36-.534 1.042-.26 1.518l2 3.464c.276.476.925.717 1.444.534l3.524-1.24a11.956 11.956 0 0 0 4.017 2.323l.688 3.667c.102.54.635.983 1.185.983h4c.55 0 1.083-.442 1.184-.983l.687-3.668a11.97 11.97 0 0 0 4.018-2.323l3.523 1.24c.52.182 1.168-.06 1.443-.535l2-3.464c.276-.476.16-1.16-.258-1.517l-2.827-2.424zM15.995 22a6 6 0 1 1 0-12 6 6 0 0 1 0 12" clip-path="url(#d)"/></g></symbol><symbol id="grid-big" viewBox="0 0 32 32"><path d="M30 0H20c-1.1 0-2 .9-2 2v10c0 1.1.9 2 2 2h10c1.1 0 2-.9 2-2V2c0-1.1-.9-2-2-2m0 18H20c-1.1 0-2 .9-2 2v10c0 1.1.9 2 2 2h10c1.1 0 2-.9 2-2V20c0-1.1-.9-2-2-2m-18 0H2c-1.1 0-2 .9-2 2v10c0 1.1.9 2 2 2h10c1.1 0 2-.9 2-2V20c0-1.1-.9-2-2-2m0-18H2C.9 0 0 .9 0 2v10c0 1.1.9 2 2 2h10c1.1 0 2-.9 2-2V2c0-1.1-.9-2-2-2" fill-rule="evenodd"/></symbol><symbol id="grid" viewBox="0 0 32 32"><path d="M19 0h-6c-.55 0-1 .45-1 1v6c0 .55.45 1 1 1h6c.55 0 1-.45 1-1V1c0-.55-.45-1-1-1m0 12h-6c-.55 0-1 .45-1 1v6c0 .55.45 1 1 1h6c.55 0 1-.45 1-1v-6c0-.55-.45-1-1-1m12 0h-6c-.55 0-1 .45-1 1v6c0 .55.45 1 1 1h6c.55 0 1-.45 1-1v-6c0-.55-.45-1-1-1m0 12h-6c-.55 0-1 .45-1 1v6c0 .55.45 1 1 1h6c.55 0 1-.45 1-1v-6c0-.55-.45-1-1-1m0-24h-6c-.55 0-1 .45-1 1v6c0 .55.45 1 1 1h6c.55 0 1-.45 1-1V1c0-.55-.45-1-1-1M7 24H1c-.55 0-1 .45-1 1v6c0 .55.45 1 1 1h6c.55 0 1-.45 1-1v-6c0-.55-.45-1-1-1M7 0H1C.45 0 0 .45 0 1v6c0 .55.45 1 1 1h6c.55 0 1-.45 1-1V1c0-.55-.45-1-1-1m0 12H1c-.55 0-1 .45-1 1v6c0 .55.45 1 1 1h6c.55 0 1-.45 1-1v-6c0-.55-.45-1-1-1m12 12h-6c-.55 0-1 .45-1 1v6c0 .55.45 1 1 1h6c.55 0 1-.45 1-1v-6c0-.55-.45-1-1-1" fill-rule="evenodd"/></symbol><symbol id="inbox-download" viewBox="0 0 32 28"><path d="M29.126 26H2.876A.887.887 0 0 1 2 25.125V17h8.09A5.996 5.996 0 0 0 16 22a5.996 5.996 0 0 0 5.91-5h8.06l.03.123v8.002a.877.877 0 0 1-.874.875zM27.78 0H19v2h7.22l3.5 14H21c0 2.757-2.243 5-5 5s-5-2.243-5-5H2.28l3.5-14H13V0H4.22L0 16.877v8.248A2.88 2.88 0 0 0 2.877 28h26.25A2.878 2.878 0 0 0 32 25.125V17L27.78 0zM10.99 6.585a.993.993 0 0 0-.707.293 1.023 1.023 0 0 0 0 1.413L15.99 14l5.707-5.708a1.023 1.023 0 0 0 0-1.414 1 1 0 0 0-1.414 0L16.98 10 17 1a1 1 0 0 0-2 0v9l-3.303-3.122a.993.993 0 0 0-.707-.293z" fill-rule="evenodd"/></symbol><symbol id="inbox-upload" viewBox="0 0 32 28"><path d="M29.126 26H2.876A.887.887 0 0 1 2 25.125V17h8.09A5.996 5.996 0 0 0 16 22a5.996 5.996 0 0 0 5.91-5h8.06l.03.123v8.002a.877.877 0 0 1-.874.875zM27.78 0H18.82l2 2h5.4l3.5 14H21c0 2.757-2.243 5-5 5s-5-2.243-5-5H2.28l3.5-14h5.382l2-2H4.22L0 16.877v8.248A2.88 2.88 0 0 0 2.877 28h26.25A2.878 2.878 0 0 0 32 25.125V17L27.78 0zM16 14a1 1 0 0 0 1-1V4l3.283 3.122c.19.19.44.293.707.293a.993.993 0 0 0 .707-.293c.38-.38.377-1.036 0-1.413L15.99 0l-5.707 5.708a1.025 1.025 0 0 0 0 1.414 1 1 0 0 0 1.414 0L15 4v9a1 1 0 0 0 1 1z" fill-rule="evenodd"/></symbol><symbol id="info-alt" viewBox="0 0 32 32"><path d="M16 12c-1.66 0-3-1.344-3-3s1.34-3 3-3a3 3 0 0 1 0 6zm2 13c0 .55-.45 1-1 1h-2c-.55 0-1-.45-1-1V15c0-.55.45-1 1-1h2c.55 0 1 .45 1 1v10zM16 0C7.164 0 0 7.16 0 16c0 8.836 7.164 16 16 16s16-7.164 16-16c0-8.84-7.164-16-16-16z" fill-rule="evenodd"/></symbol><symbol id="mail" viewBox="0 0 32 24"><path d="M30 0H2C.898 0 0 .896 0 2v.82l16 10 16-10V2a2 2 0 0 0-2-2M16 14.82c-.367 0-.734-.1-1.06-.303L0 5.18V22a2 2 0 0 0 2 2h28a2 2 0 0 0 2-2V5.18l-14.937 9.337A2.018 2.018 0 0 1 16 14.82" fill-rule="evenodd"/></symbol><symbol id="menu" viewBox="0 0 28 20"><path d="M26 16H2c-1.098 0-2 .9-2 2s.902 2 2 2h24c1.102 0 2-.9 2-2s-.898-2-2-2m0-8H2c-1.098 0-2 .9-2 2s.902 2 2 2h24c1.102 0 2-.9 2-2s-.898-2-2-2M2 4h24c1.102 0 2-.9 2-2s-.898-2-2-2H2C.902 0 0 .9 0 2s.902 2 2 2" fill-rule="evenodd"/></symbol><symbol id="o-backup" viewBox="0 0 32 28"><path d="M18.445.5C10.97.5 4.89 6.556 4.89 14v1.85L1.76 12.21a1 1 0 0 0-1.516 1.306l5.65 6.562 5.648-6.562a1 1 0 0 0-1.516-1.305L6.89 15.85V14c0-6.34 5.184-11.5 11.555-11.5S30 7.66 30 14s-5.184 11.5-11.555 11.5a1 1 0 1 0 0 2C25.92 27.5 32 21.444 32 14S25.92.5 18.445.5zm-.92 15.914L25 15.812a.803.803 0 0 0 .724-.803.8.8 0 0 0-.724-.8l-5.368-.366L19.202 8a.798.798 0 0 0-.8-.726.802.802 0 0 0-.8.724L17 15.89a.507.507 0 0 0 .502.524h.022z" fill-rule="evenodd"/></symbol><symbol id="o-birdhouse" viewBox="0 0 32 32"><path d="M26 17v13H6V17H2.223L15.426 2.296a.756.756 0 0 1 1.15.002L29.77 17H26zm5.322-1.267L18.062.963c-1.07-1.195-3.06-1.193-4.126 0L.67 15.734c-.867.972-.795 1.744-.582 2.22C.38 18.61 1.096 19 2 19h2v13h24V19h2c1.267 0 1.726-.723 1.864-1.034.31-.692.112-1.506-.542-2.233zM19.502 16c0 1.93-1.57 3.5-3.5 3.5s-3.5-1.57-3.5-3.5 1.57-3.5 3.5-3.5 3.5 1.57 3.5 3.5zm-8 0c0 2.482 2.018 4.5 4.5 4.5s4.5-2.018 4.5-4.5c0-2.48-2.02-4.5-4.5-4.5a4.505 4.505 0 0 0-4.5 4.5zM16 26.5c-.828 0-1.5-.673-1.5-1.5s.672-1.5 1.5-1.5 1.5.673 1.5 1.5-.674 1.5-1.5 1.5zm0-4a2.503 2.503 0 0 0-2.5 2.5c0 1.378 1.12 2.5 2.5 2.5s2.5-1.122 2.5-2.5-1.122-2.5-2.5-2.5z" fill-rule="evenodd"/></symbol><symbol id="o-chart-pie" viewBox="0 0 32 32"><path d="M15 29.858c-7.168 0-13-5.832-13-13C2 10.725 6.277 5.593 12 4.234v-2.04C5.158 3.583 0 9.603 0 16.857c0 8.284 6.716 15 15 15 6.895 0 12.676-4.662 14.428-11h-2.084c-1.69 5.214-6.574 9-12.344 9zm3-15V2c6.452.927 11.497 6.27 11.965 12.858H18zM18.284.02A2.002 2.002 0 0 0 16 2v12.858a2 2 0 0 0 2 2h11.965a2 2 0 0 0 1.995-2.142C31.43 7.264 25.68 1.083 18.284.02z" fill-rule="evenodd"/></symbol><symbol id="o-connect" viewBox="0 0 32 32"><path d="M26.5 30a3.5 3.5 0 1 1 0-7 3.5 3.5 0 0 1 0 7m-21-10.5a3.5 3.5 0 1 1 0-7 3.5 3.5 0 0 1 0 7M26.5 2a3.5 3.5 0 1 1 0 7 3.5 3.5 0 0 1 0-7m0 19a5.486 5.486 0 0 0-4.385 2.19l-11.333-5.667c.14-.484.218-.994.218-1.523 0-.53-.08-1.04-.218-1.523L22.115 8.81A5.486 5.486 0 0 0 26.5 11a5.5 5.5 0 1 0 0-11A5.5 5.5 0 0 0 21 5.5c0 .53.08 1.04.218 1.523L9.885 12.69A5.486 5.486 0 0 0 5.5 10.5a5.5 5.5 0 1 0 0 11 5.486 5.486 0 0 0 4.385-2.19l11.333 5.667A5.506 5.506 0 0 0 21 26.5a5.5 5.5 0 1 0 11 0 5.5 5.5 0 0 0-5.5-5.5" fill-rule="evenodd"/></symbol><symbol id="o-connection" viewBox="0 0 32 32"><path d="M27 8a3 3 0 1 1 0-6 3 3 0 0 1 0 6M16 19a3 3 0 1 1 0-6 3 3 0 0 1 0 6m-8 8a3 3 0 1 1-6 0 3 3 0 0 1 6 0M27 0c-2.757 0-5 2.243-5 5a5.01 5.01 0 0 0 4 4.9V15h-5.1a5.01 5.01 0 0 0-4.9-4 5.01 5.01 0 0 0-4.9 4H5a1 1 0 0 0-1 1v6.1A5.01 5.01 0 0 0 0 27c0 2.757 2.243 5 5 5s5-2.243 5-5a5.01 5.01 0 0 0-4-4.9V17h5.1a5.01 5.01 0 0 0 4.9 4 5.01 5.01 0 0 0 4.9-4H27a1 1 0 0 0 1-1V9.9A5.01 5.01 0 0 0 32 5c0-2.757-2.243-5-5-5" fill-rule="evenodd"/></symbol><symbol id="o-dashboard" viewBox="0 0 32 32"><path d="M16 0C7.16 0 0 7.164 0 16s7.16 16 16 16c8.837 0 16-7.164 16-16S24.838 0 16 0zm0 30C8.28 30 2 23.72 2 16S8.28 2 16 2s14 6.28 14 14-6.28 14-14 14z"/><path d="M5.14 13.98a1 1 0 1 0-.18 1.99c.03 0 .06.01.09.01.51 0 .94-.39.99-.91a1 1 0 0 0-.9-1.09zm2.78-6.85c-.41.37-.44 1-.07 1.41.2.22.47.33.74.33.24 0 .48-.09.68-.27.41-.37.43-1 .06-1.41a.99.99 0 0 0-1.41-.06zM6.6 10.19a1.012 1.012 0 0 0-1.34.45.988.988 0 0 0 .45 1.34c.14.08.29.11.44.11.37 0 .72-.2.9-.55.24-.5.04-1.1-.45-1.35zM16 6h.05c.55 0 .99-.45 1-1 0-.55-.45-1-1-1H16c-.55 0-1 .45-1 1s.45 1 1 1zm6.7 1.22a1.005 1.005 0 0 0 .74 1.68 1.005 1.005 0 0 0 .68-1.74 1.008 1.008 0 0 0-1.42.06zm4.17 6.8c-.55.05-.96.54-.91 1.09a1 1 0 0 0 1 .91c.03 0 .06 0 .09-.01.54-.04.95-.53.9-1.08a.998.998 0 0 0-1.08-.91zm-.11-3.34c-.24-.49-.84-.69-1.34-.45-.49.25-.7.85-.45 1.34a1 1 0 0 0 .89.56 1.006 1.006 0 0 0 .9-1.45zm-13.8-5.3a.984.984 0 0 0-1.29-.57.99.99 0 0 0-.57 1.29c.15.39.53.64.93.64a1.002 1.002 0 0 0 .93-1.36zm7.42-.56c-.52-.2-1.1.06-1.3.57s.05 1.09.57 1.3c.12.04.24.07.36.07.4 0 .78-.25.93-.64a1 1 0 0 0-.56-1.3zM16.002 10a1 1 0 0 0-.96.717c-1.204 4.08-2.64 9.216-2.64 10.502A3.617 3.617 0 0 0 16 24.82a3.583 3.583 0 0 0 2.552-1.06 3.566 3.566 0 0 0 1.048-2.542c.003-1.287-1.435-6.423-2.64-10.503A1 1 0 0 0 16 10zm1.844 13.055a2.59 2.59 0 0 1-1.842.767A2.617 2.617 0 0 1 13.4 21.22c0-1.07 1.31-5.853 2.6-10.22 1.292 4.366 2.603 9.15 2.6 10.222a2.566 2.566 0 0 1-.754 1.833z"/></symbol><symbol id="o-document" viewBox="0 0 24 32"><path d="M19.5 14h-15a.5.5 0 0 0 0 1h15a.5.5 0 0 0 0-1zm0 4h-15a.5.5 0 0 0 0 1h15a.5.5 0 0 0 0-1zM22 30H2V2h12v8h8v20zM15 3l6 6h-6V3zm8.414 5.586l-8-8A2 2 0 0 0 14 0H2a2 2 0 0 0-2 2v28a2 2 0 0 0 2 2h20a2 2 0 0 0 2-2V10a2 2 0 0 0-.586-1.414zM19.5 26h-15a.5.5 0 0 0 0 1h15a.5.5 0 0 0 0-1zm0-4h-15a.5.5 0 0 0 0 1h15a.5.5 0 0 0 0-1z" fill-rule="evenodd"/></symbol><symbol id="o-documents" viewBox="0 0 32 32"><path d="M16.5 19h11a.5.5 0 0 0 0-1h-11a.5.5 0 0 0 0 1zm0-8h11a.5.5 0 0 0 0-1h-11a.5.5 0 0 0 0 1zm0 4h11a.5.5 0 0 0 0-1h-11a.5.5 0 0 0 0 1zM30 24H14V2h16v22zm-12 6H2V8h10v4H4.5a.5.5 0 0 0 0 1H12v3H4.5a.5.5 0 0 0 0 1H12v3H4.5a.5.5 0 0 0 0 1H12v3H4.5a.5.5 0 0 0 0 1h7.777c.347.595.985 1 1.723 1h4v4zM30 0H14a2 2 0 0 0-2 2v4H2a2 2 0 0 0-2 2v22a2 2 0 0 0 2 2h16a2 2 0 0 0 2-2v-4h10a2 2 0 0 0 2-2V2a2 2 0 0 0-2-2zM16.5 7h11a.5.5 0 0 0 0-1h-11a.5.5 0 0 0 0 1z" fill-rule="evenodd"/></symbol><symbol id="o-grid" viewBox="0 0 32 32"><path d="M7 24H1c-.55 0-1 .45-1 1v6c0 .55.45 1 1 1h6a1 1 0 0 0 1-1v-6a1 1 0 0 0-1-1zm-1 6H2v-4h4v4zm25-6h-6c-.55 0-1 .45-1 1v6c0 .55.45 1 1 1h6a1 1 0 0 0 1-1v-6a1 1 0 0 0-1-1zm-1 6h-4v-4h4v4zm-11-6h-6c-.55 0-1 .45-1 1v6c0 .55.45 1 1 1h6a1 1 0 0 0 1-1v-6a1 1 0 0 0-1-1zm-1 6h-4v-4h4v4zM7 0H1C.45 0 0 .45 0 1v6c0 .55.45 1 1 1h6a1 1 0 0 0 1-1V1a1 1 0 0 0-1-1zM6 6H2V2h4v4zm25-6h-6c-.55 0-1 .45-1 1v6c0 .55.45 1 1 1h6a1 1 0 0 0 1-1V1a1 1 0 0 0-1-1zm-1 6h-4V2h4v4zM19 0h-6c-.55 0-1 .45-1 1v6c0 .55.45 1 1 1h6a1 1 0 0 0 1-1V1a1 1 0 0 0-1-1zm-1 6h-4V2h4v4zM7 12H1c-.55 0-1 .45-1 1v6c0 .55.45 1 1 1h6a1 1 0 0 0 1-1v-6a1 1 0 0 0-1-1zm-1 6H2v-4h4v4zm25-6h-6c-.55 0-1 .45-1 1v6c0 .55.45 1 1 1h6a1 1 0 0 0 1-1v-6a1 1 0 0 0-1-1zm-1 6h-4v-4h4v4zm-11-6h-6c-.55 0-1 .45-1 1v6c0 .55.45 1 1 1h6a1 1 0 0 0 1-1v-6a1 1 0 0 0-1-1zm-1 6h-4v-4h4v4z"/></symbol><symbol id="o-heart-rate" viewBox="0 0 32 28"><path d="M17.007 25.75c-.497.31-1.555.303-2.01.028-.07-.044-3.767-2.438-7.2-5.778h-2.78c3.854 4.193 8.577 7.254 8.923 7.476.558.338 1.28.524 2.034.524.776 0 1.52-.196 2.1-.56.333-.21 5.048-3.258 8.9-7.44h-2.787c-3.43 3.327-7.116 5.71-7.18 5.75zM31 16h-8.568L19.6 10.958 16.77 16h-.23L13 7.363 9.46 16H1a1 1 0 1 0 0 2h9.803L13 12.637 15.198 18h2.74l1.662-2.958L21.262 18H31a1 1 0 1 0 0-2zM3.094 14C2.417 12.674 2 11.327 2 10.01 2 6.383 5.07 2 8.878 2c2.657 0 5.102 1.486 6.228 3.786.336.685 1.46.685 1.797 0C18.028 3.486 20.475 2 23.133 2 26.94 2 30 6.382 30 10.01c0 1.317-.418 2.664-1.097 3.99h2.195c.566-1.312.902-2.653.902-3.99C32 5.38 28.127 0 23.134 0c-2.828 0-5.475 1.32-7.13 3.463C14.35 1.32 11.704 0 8.878 0 3.88 0 0 5.38 0 10.01c0 1.336.336 2.677.9 3.99h2.194z" fill-rule="evenodd"/></symbol><symbol id="o-key" viewBox="0 0 32 32"><path d="M20.688 20.625a9.34 9.34 0 0 1-2.252-.287 1.005 1.005 0 0 0-.95.263l-1.53 1.532c-.176.176-.643.368-.894.368h-2.06c-1.07 0-2.003.87-2.003 1.938V26H9c-1.068 0-2 .932-2 2v2H2v-5.406c0-.25.197-.717.374-.893l9.06-9.06c.252-.25.35-.62.26-.963a9.232 9.232 0 0 1-.32-2.365c0-5.134 4.18-9.312 9.313-9.312C25.822 2 30 6.178 30 11.312c0 5.135-4.178 9.313-9.313 9.313m0-20.625C14.45 0 9.374 5.075 9.374 11.312c0 .76.084 1.535.25 2.31L.96 22.286c-.553.552-.958 1.524-.958 2.308V32H9v-4h4.002v-3.485l2.062-.015c.785 0 1.756-.402 2.307-.956l1.14-1.14a11.1 11.1 0 0 0 2.178.22c6.24 0 11.314-5.074 11.314-11.312C32 5.075 26.926 0 20.688 0m1.875 11.75a2.315 2.315 0 0 1-2.312-2.313 2.315 2.315 0 0 1 2.312-2.312 2.315 2.315 0 0 1 2.312 2.312 2.315 2.315 0 0 1-2.31 2.313m0-5.625a3.316 3.316 0 0 0-3.313 3.312 3.316 3.316 0 0 0 3.312 3.313 3.316 3.316 0 0 0 3.312-3.313 3.316 3.316 0 0 0-3.31-3.312" fill-rule="evenodd"/></symbol><symbol id="o-lock" viewBox="0 0 28 32"><path d="M26 28c0 1.103-.897 2-2 2H4c-1.103 0-2-.897-2-2V15c0-1.103.897-2 2-2h20c1.103 0 2 .897 2 2v13zM9 7.11C9 4.294 11.245 2 14 2s5 2.293 5 5.11V11H9V7.11zM24 11h-3V7.11C21 3.19 17.86 0 14 0S7 3.19 7 7.11V11H4c-2.207 0-4 1.79-4 4v13c0 2.21 1.793 4 4 4h20c2.21 0 4-1.79 4-4V15c0-2.21-1.79-4-4-4zm-7.81 16h-4.38l1.087-5.202-.325-.178A2.998 2.998 0 0 1 11 19c0-1.654 1.346-3 3-3s3 1.346 3 3a2.997 2.997 0 0 1-1.572 2.62l-.325.18L16.19 27zM18 19c0-2.206-1.794-4-4-4s-4 1.794-4 4c0 1.326.67 2.56 1.77 3.3L10.58 28h6.84l-1.19-5.697A3.987 3.987 0 0 0 18 19z" fill-rule="evenodd"/></symbol><symbol id="o-menu" viewBox="0 0 26 18"><path d="M25 8H1c-.55 0-1 .45-1 1s.45 1 1 1h24c.55 0 1-.45 1-1s-.45-1-1-1m0 8H1c-.55 0-1 .45-1 1s.45 1 1 1h24c.55 0 1-.45 1-1s-.45-1-1-1M1 2h24c.55 0 1-.45 1-1s-.45-1-1-1H1C.45 0 0 .45 0 1s.45 1 1 1" fill-rule="evenodd"/></symbol><symbol id="o-navigate-double-left" viewBox="0 0 32 28"><path d="M5 14L16.2 3.1c.4-.3.5-.8.5-1.3s-.2-.9-.5-1.3c-.4-.3-.8-.5-1.4-.5-.5 0-1 .2-1.4.5L.2 13.3c-.2.2-.3.4-.3.6s.1.4.3.6l13.2 12.8c.7.7 2 .7 2.7 0 .4-.3.5-.8.5-1.3s-.2-.9-.5-1.3L5 14z"/><path d="M20 14L31.2 3.1c.4-.3.5-.8.5-1.3s-.2-.9-.5-1.3c-.4-.3-.8-.5-1.4-.5-.5 0-1 .2-1.4.5L15.2 13.3c-.2.2-.3.4-.3.6s.1.4.3.6l13.2 12.8c.7.7 2 .7 2.7 0 .4-.3.5-.8.5-1.3s-.2-.9-.5-1.3L20 14z"/></symbol><symbol id="o-navigate-double-right" viewBox="0 0 31.8 28"><path d="M26.8 14L15.6 24.9c-.4.3-.5.8-.5 1.3s.2.9.5 1.3c.4.3.8.5 1.4.5.5 0 1-.2 1.4-.5l13.2-12.8c.2-.2.3-.4.3-.6s-.1-.4-.3-.6L18.4.7c-.7-.7-2-.7-2.7 0-.4.3-.5.8-.5 1.3s.2.9.5 1.3L26.8 14z"/><path d="M11.8 14L.6 24.9c-.4.3-.5.8-.5 1.3s.2.9.5 1.3c.4.3.8.5 1.4.5.5 0 1-.2 1.4-.5l13.2-12.8c.2-.2.3-.4.3-.6s-.1-.4-.3-.6L3.4.7C2.7 0 1.4 0 .7.7.3 1 .2 1.5.2 2s.2.9.5 1.3L11.8 14z"/></symbol><symbol id="o-navigate-left" viewBox="0 0 17 28"><path d="M4.957 14L16.205 3.083c.352-.34.545-.792.545-1.27 0-.48-.193-.93-.545-1.27-.36-.35-.84-.543-1.352-.543-.513 0-.993.192-1.353.542L.26 13.392a.844.844 0 0 0 0 1.216l13.24 12.85c.717.698 1.982.7 2.705 0 .352-.34.545-.792.545-1.27 0-.48-.193-.93-.545-1.27L4.957 14z" fill-rule="evenodd"/></symbol><symbol id="o-navigate-right" viewBox="0 0 17 28"><path d="M16.49 13.392L3.25.542C2.89.192 2.41 0 1.9 0S.905.193.548.54A1.76 1.76 0 0 0 0 1.814c0 .477.193.93.546 1.27L11.793 14 .546 24.917A1.758 1.758 0 0 0 0 26.187c0 .478.193.93.546 1.27.72.7 1.983.7 2.705 0L16.49 14.61a.843.843 0 0 0 0-1.218" fill-rule="evenodd"/></symbol><symbol id="o-pencil" viewBox="0 0 32 32"><path d="M28.92 8.318L27.47 9.765l-5.23-5.23 1.446-1.446a3.685 3.685 0 0 1 2.616-1.085c.946 0 1.893.36 2.615 1.084a3.696 3.696 0 0 1 0 5.23zm-4.948 4.946l-5.23-5.23 2.793-2.793 5.23 5.232-2.793 2.792zM8.53 28.704L2 30l1.297-6.526L18.034 8.74l5.23 5.23L8.53 28.705zm21.803-27.03a5.66 5.66 0 0 0-4.03-1.67 5.662 5.662 0 0 0-4.03 1.67L1.883 22.06c-.28.28-.47.636-.546 1.024L.04 29.61a2 2 0 0 0 2.35 2.352l6.53-1.297a1.997 1.997 0 0 0 1.023-.547l20.39-20.386a5.652 5.652 0 0 0 1.67-4.025 5.665 5.665 0 0 0-1.67-4.033z" fill-rule="evenodd"/></symbol><symbol id="o-redirect" viewBox="0 0 32 32"><path d="M23 20a1 1 0 0 0-1 1v8c0 .55-.448 1-1 1H3c-.552 0-1-.45-1-1V11c0-.55.448-1 1-1h8a1 1 0 1 0 0-2H3c-1.654 0-3 1.346-3 3v18c0 1.654 1.346 3 3 3h18c1.654 0 3-1.346 3-3v-8a1 1 0 0 0-1-1z"/><path d="M19.93 4c-.552 0-1 .45-1 1 0 .534.464 1 1 1h4.656L12.858 17.728a1 1 0 0 0 1.414 1.414L26 7.414v4.657c0 .535.465 1 1 1 .55 0 1-.448 1-1V4h-8.07z"/></symbol><symbol id="o-signs" viewBox="0 0 32 32"><path d="M26.172 23H6c-.55 0-1-.45-1-1v-4c0-.55.45-1 1-1h20.172l3 3-3 3zM5.83 11l-3-3 3-3H26c.552 0 1 .45 1 1v4c0 .55-.448 1-1 1H5.83zM27 15H17v-2h9c1.656 0 3-1.346 3-3V6c0-1.654-1.344-3-3-3h-9V1a1 1 0 1 0-2 0v2H5L0 8l5 5h10v2H6c-1.653 0-3 1.346-3 3v4c0 1.654 1.347 3 3 3h9v7h2v-7h10l5-5-5-5z" fill-rule="evenodd"/></symbol><symbol id="o-tag" viewBox="0 0 32 32"><path d="M30 12.83a1.718 1.718 0 0 1-.513 1.175L13.887 29.6a1.698 1.698 0 0 1-1.11.4c-.47 0-.896-.175-1.23-.51l-9.04-9.04A1.693 1.693 0 0 1 2 19.228c0-.47.177-.894.51-1.228L18.003 2.503A1.7 1.7 0 0 1 19.138 2l9.12-.02c.473.002.898.2 1.232.535.33.33.508.755.51 1.21v9.105zm.902-11.73A3.708 3.708 0 0 0 28.256.003L19.104.02a3.677 3.677 0 0 0-2.52 1.074L1.096 16.584A3.708 3.708 0 0 0 0 19.227c0 1 .39 1.937 1.096 2.64l1.538 1.54 7.5 7.5A3.718 3.718 0 0 0 12.776 32c.998 0 1.937-.39 2.643-1.095l-.005-.004c1.293-1.27 15.345-15.34 15.488-15.483.667-.662 1.05-1.56 1.076-2.553L32 3.73a3.726 3.726 0 0 0-1.098-2.63zm-6.28 8.13a1.85 1.85 0 0 1-1.848-1.845c-.002-.49.19-.952.538-1.3a1.842 1.842 0 0 1 1.304-.542 1.852 1.852 0 0 1 1.846 1.846 1.846 1.846 0 0 1-1.84 1.84zm-.006-4.687a2.84 2.84 0 0 0-2.01.835 2.81 2.81 0 0 0-.832 2.01 2.85 2.85 0 0 0 2.848 2.842 2.848 2.848 0 0 0 2.84-2.84 2.855 2.855 0 0 0-2.846-2.847z" fill-rule="evenodd"/></symbol><symbol id="o-toggles" viewBox="0 0 32 32"><path d="M12 18c-1.103 0-2-.897-2-2s.897-2 2-2 2 .897 2 2-.897 2-2 2zm0-6a3.994 3.994 0 0 0-3.878 3.064H0V17h8.14c.448 1.722 1.998 3 3.86 3 1.862 0 3.412-1.278 3.86-3H32v-1.936H15.878A3.994 3.994 0 0 0 12 12zm10-6c-1.103 0-2-.897-2-2s.897-2 2-2 2 .897 2 2-.897 2-2 2zm3.878-2.936A3.994 3.994 0 0 0 22 0a3.994 3.994 0 0 0-3.878 3.064H0V5h18.14C18.59 6.722 20.14 8 22 8c1.862 0 3.412-1.278 3.86-3H32V3.064h-6.122zM18 30c-1.103 0-2-.897-2-2s.897-2 2-2 2 .897 2 2-.897 2-2 2zm0-6a3.994 3.994 0 0 0-3.878 3.064H0V29h14.14c.448 1.722 1.998 3 3.86 3 1.862 0 3.412-1.278 3.86-3H32v-1.936H21.878A3.994 3.994 0 0 0 18 24z" fill-rule="evenodd"/></symbol><symbol id="o-typewriter" viewBox="0 0 32 32"><path d="M17 25h-2a1 1 0 1 0 0 2h2a1 1 0 1 0 0-2zm4-3a1 1 0 0 0-1-1h-2a1 1 0 1 0 0 2h2a1 1 0 0 0 1-1zm5-1h-2a1 1 0 1 0 0 2h2a1 1 0 1 0 0-2zm0 9H6c-1.782 0-3.9-.663-3.996-3.78L4.44 16h6.372a5.985 5.985 0 0 0 10.376 0h6.376l2.434 10.22C29.903 29.337 27.785 30 26 30zm-6.026-14c-.913 1.207-2.347 2-3.974 2-1.627 0-3.06-.793-3.975-2h7.95zM2 14a1 1 0 0 1 1-1h26a1 1 0 0 1 0 2H3a1 1 0 0 1-1-1zM7 2h18v10H7V2zm22.827 14.87A2.997 2.997 0 0 0 32 14c0-1.654-1.346-3-3-3h-2V2a2 2 0 0 0-2-2H7a2 2 0 0 0-2 2v9H3c-1.654 0-3 1.346-3 3 0 1.367.924 2.51 2.176 2.87L0 26c0 4 2.57 6 6 6h20c3.43 0 6-2 6-6l-2.173-9.13zM23 25h-2a1 1 0 1 0 0 2h2a1 1 0 1 0 0-2zm-12 0H9a1 1 0 1 0 0 2h2a1 1 0 1 0 0-2zm4-3a1 1 0 0 0-1-1h-2a1 1 0 1 0 0 2h2a1 1 0 0 0 1-1zm6.5-14h-11c-.276 0-.5.225-.5.5s.224.5.5.5h11c.274 0 .5-.225.5-.5s-.226-.5-.5-.5zM9 22a1 1 0 0 0-1-1H6a1 1 0 1 0 0 2h2a1 1 0 0 0 1-1zM21.5 4h-11c-.276 0-.5.225-.5.5s.224.5.5.5h11c.274 0 .5-.225.5-.5s-.226-.5-.5-.5z" fill-rule="evenodd"/></symbol><symbol id="o-undo" viewBox="0 0 31 27"><path d="M17.793 0C10.51 0 4.586 5.902 4.586 13.156v.39l-2.06-2.394c-.5-.58-1.453-.648-2.026-.15a1.432 1.432 0 0 0-.15 2.026l5.673 6.593 5.675-6.592c.517-.6.45-1.51-.15-2.025-.58-.5-1.534-.428-2.028.15l-2.06 2.392v-.39c0-5.668 4.636-10.28 10.333-10.28s10.332 4.612 10.332 10.28c0 5.67-4.635 10.282-10.332 10.282a1.44 1.44 0 0 0 0 2.875C25.075 26.312 31 20.41 31 13.156 31 5.902 25.075 0 17.793 0" fill-rule="evenodd"/></symbol><symbol id="o-world" viewBox="0 0 32 32"><path d="M16 30C8.28 30 2 23.72 2 16c0-3.903 1.61-7.434 4.193-9.975.207.523.354 1.098.387 1.673.02.302.004.64-.012.997-.033.75-.07 1.602.212 2.37.126.348.515 1.432 1.604 1.432.34 0 .63-.113.885-.213.205-.08.4-.156.623-.18a1.25 1.25 0 0 1 .138-.008c.855 0 2.103.688 2.475 1.364.126.23.075.31.04.365-.143.24-.3.4-.485.587-.402.41-.952.97-1.027 2.1-.117 1.604.802 2.35 1.472 2.896.224.182.436.354.623.555.713.762.865 1.965 1.026 3.24.18 1.415.364 2.88 1.366 3.95.138.158.998 1.076 2.14 1.076.922 0 2.136-.576 2.68-3.316.04-.2.068-.406.094-.607.04-.294.08-.6.16-.746.23-.396.813-.816 1.28-1.153.26-.188.505-.366.712-.55 1.027-.896 1.535-2.516 1.352-4.328-.19-1.896-1.064-3.46-2.335-4.18-.876-.513-1.846-.58-2.593-.58-.348 0-.702.017-1.053.035-.312.015-.623.03-.925.03-1.176 0-1.652-.25-1.962-1.03-.242-.63-.166-1.46.388-1.744.398-.206 1.078-.425 1.563-.425.11 0 .178.012.215.02.058.12.13.368.17.51.14.497.377 1.33 1.254 1.33.802 0 1.125-.78 1.264-1.11l.01-.03.01-.028c.11-.314.18-.556.238-.76.147-.51.17-.587.76-1.204l.054-.057c.542-.57 1.45-1.52 1.418-2.657-.016-.56-.257-1.075-.7-1.49-.376-.364-.812-.556-1.283-.556-.446 0-.81.172-1.117.365.112-.35.283-.814.54-1.418C25.704 4.232 30 9.618 30 16c0 7.72-6.28 14-14 14zM6.992 5.3a13.93 13.93 0 0 1 11.882-3c-.317.75-1.095 2.68-.624 3.122.096.027.19.04.278.04.746 0 1.28-.858 1.903-.858.19 0 .388.08.6.287 1 .938-.202 2.14-.81 2.782-1 1.047-.798 1.11-1.22 2.328-.148.357-.255.495-.34.495-.24 0-.315-1.08-.66-1.495-.208-.265-.57-.365-.98-.365-.7 0-1.547.29-2.02.537-1.063.547-1.28 1.906-.86 3 .563 1.42 1.66 1.664 2.892 1.664.64 0 1.318-.065 1.978-.065.75 0 1.478.085 2.1.45 2.062 1.17 2.53 5.39.812 6.89-.563.5-1.703 1.11-2.203 1.968-.25.453-.246 1.063-.36 1.64-.393 1.974-1.075 2.51-1.7 2.51-.746 0-1.41-.76-1.41-.76-1.61-1.718-.578-5.25-2.39-7.187-.86-.92-1.938-1.202-1.83-2.702.08-1.187.83-1.328 1.36-2.22.924-1.458-1.63-3.262-3.36-3.262-.084 0-.168.004-.25.013-.65.072-1.066.387-1.396.387-.25 0-.45-.18-.665-.778-.33-.892-.08-2.08-.142-3.08a6.466 6.466 0 0 0-.586-2.34zM16 0C7.163 0 0 7.163 0 16s7.163 16 16 16 16-7.163 16-16S24.837 0 16 0z" fill-rule="evenodd"/></symbol><symbol id="pencil" viewBox="0 0 32 32"><path d="M30.426 1.577a5.38 5.38 0 0 0-7.61 0l-2.495 2.495 7.614 7.61 2.492-2.497a5.38 5.38 0 0 0 0-7.608zm-28.54 20.93L0 32l9.496-1.886 17.02-17.02-7.61-7.61-17.02 17.02z" fill-rule="evenodd"/></symbol><symbol id="plus" viewBox="0 0 26 26"><path d="M25.996 11c0-1.102-.902-2-2-2L17 9.002V2.004c0-1.102-.898-2-2-2L11 0C9.898 0 9 .898 9 2v7.004H2a2.008 2.008 0 0 0-2 2L.004 15c0 1.102.898 2 2 2H9v7c0 1.1.902 2 2 2h4c1.102 0 2-.9 2-2v-7h7c1.102 0 2-.9 2-2l-.004-4z" fill-rule="evenodd"/></symbol><symbol id="question" viewBox="0 0 32 32"><defs><path id="a" d="M0 0h32v32H0z"/></defs><clipPath id="b"><use xlink:href="#a" overflow="visible"/></clipPath><g clip-path="url(#b)"><defs><path id="c" d="M0 0h32v32H0z"/></defs><clipPath id="d"><use xlink:href="#c" overflow="visible"/></clipPath><path d="M16 0C7.164 0 0 7.164 0 16c0 8.84 7.164 16 16 16s16-7.16 16-16c0-8.836-7.164-16-16-16m0 28a2.5 2.5 0 1 1 0-5 2.5 2.5 0 0 1 0 5m2.006-8.968l-.002.13C18 20.174 17.102 21 16 21c-1.1 0-2.008-.824-2.023-1.837l-.028-1.79a1.794 1.794 0 0 1 .53-1.296 2.096 2.096 0 0 1 1.493-.608c2.27 0 4.14-1.31 4.168-2.92.012-.623-.25-1.222-.753-1.736-.79-.803-2.078-1.284-3.45-1.284-1.206 0-2.318.36-3.126 1.02a2.122 2.122 0 0 1-1.33.462 2.203 2.203 0 0 1-1.62-.707 2.01 2.01 0 0 1-.538-1.5 1.952 1.952 0 0 1 .705-1.37c1.567-1.3 3.66-2.018 5.89-2.018 2.564 0 4.946.95 6.546 2.607 1.24 1.283 1.89 2.896 1.83 4.537-.11 3.095-2.683 5.73-6.287 6.472" clip-path="url(#d)"/></g></symbol><symbol id="search" viewBox="0 0 32 32"><defs><path id="a" d="M0 0h32v32H0z"/></defs><clipPath id="b"><use xlink:href="#a" overflow="visible"/></clipPath><g clip-path="url(#b)"><defs><path id="c" d="M0 0h32v32H0z"/></defs><clipPath id="d"><use xlink:href="#c" overflow="visible"/></clipPath><path d="M.88 31.12c.585.587 1.352.88 2.12.88s1.535-.293 2.12-.88l7.066-7.065A12.903 12.903 0 0 0 19 26c7.18 0 13-5.82 13-13S26.18 0 19 0 6 5.82 6 13c0 2.5.72 4.832 1.943 6.813L.88 26.88a2.998 2.998 0 0 0 0 4.24M11 13c0-4.41 3.588-8 8-8 4.41 0 8 3.59 8 8s-3.59 8-8 8c-4.412 0-8-3.59-8-8" clip-path="url(#d)"/></g></symbol><symbol id="signs" viewBox="0 0 32 32"><path d="M28 16H6a2 2 0 0 0-2 2v4a2 2 0 0 0 2 2h8v6a2 2 0 1 0 4 0v-6h10l4-4-4-4zm-14-4v2h4v-2h8a2 2 0 0 0 2-2V6a2 2 0 0 0-2-2h-8V2a2 2 0 1 0-4 0v2H4L0 8l4 4h10z" fill-rule="evenodd"/></symbol><symbol id="tag" viewBox="0 0 32 32"><path d="M25.196 9.313a2.5 2.5 0 1 1 2.496-2.496 2.498 2.498 0 0 1-2.496 2.496zM32 2.918A2.923 2.923 0 0 0 31.14.86a2.91 2.91 0 0 0-2.066-.856V0H19.34v.024a2.853 2.853 0 0 0-1.964.832L.856 17.376v.003a2.913 2.913 0 0 0 0 4.124c1.14 1.14 8.5 8.504 9.64 9.64a2.918 2.918 0 0 0 4.13 0c.015-.01.023-.03.035-.042l16.47-16.465.015-.016a2.852 2.852 0 0 0 .832-1.967h.02v-.094L32 2.925l-.004-.004.004-.004z" fill-rule="evenodd"/></symbol><symbol id="user" viewBox="0 0 24 32"><path d="M12 16c3.3 0 6-2.7 6-6V6c0-3.3-2.7-6-6-6S6 2.7 6 6v4c0 3.3 2.7 6 6 6m0 2C5.4 18 0 23.4 0 30c0 1.1.9 2 2 2h20c1.1 0 2-.9 2-2 0-6.6-5.4-12-12-12" fill-rule="evenodd"/></symbol><symbol id="users" viewBox="0 0 32 32"><path d="M11 20C4.95 20 0 24.63 0 30.286 0 31.23.824 32 1.836 32h18.332C21.172 32 22 31.23 22 30.286 22 24.63 17.047 20 11 20zm10.005-4.667c-1.297 0-2.538.224-3.695.614a7.08 7.08 0 0 1-2.2 2.692c4.183 1.32 7.39 4.28 8.467 8.36h6.596c1.004 0 1.832-.438 1.832-1.38 0-5.658-4.953-10.287-11-10.287zM11 18c2.75 0 5-2.25 5-5V9.667c0-2.75-2.25-5-5-5s-5 2.25-5 5V13c0 2.75 2.25 5 5 5zm7-5.7a4.947 4.947 0 0 0 3.005 1.033c2.75 0 5-2.25 5-5V5c0-2.75-2.25-5-5-5-2.686 0-4.88 2.15-4.98 4.812A6.966 6.966 0 0 1 18 9.667V12.3z" fill-rule="evenodd"/></symbol></svg>