<svg xmlns="http://www.w3.org/2000/svg" xmlns:xlink="http://www.w3.org/1999/xlink" style="display: none;"><symbol id="cloud-upload" viewBox="0 0 32 24"><path d="M16 0c-4.66 0-8.445 3.554-8.906 8.092C3.11 8.548 0 11.894 0 16a8 8 0 0 0 8 8h6v-4h-2c-2.2 0-2.875-1.406-1.5-3.125l4.254-5.312c.683-.86 1.808-.86 2.496 0l4.254 5.312C22.88 18.595 22.204 20 20 20h-2v4h6a8 8 0 0 0 8-8c0-4.106-3.106-7.452-7.09-7.908C24.45 3.554 20.66 0 16 0z" fill-rule="evenodd"/></symbol><symbol id="database" viewBox="0 0 26 32"><path d="M0 7.965V12.5C0 14.987 5.82 17 13 17s13-2.015 13-4.5V7.968C23.224 10.032 17.983 11 13 11 8.02 11 2.776 10.03 0 7.965m0 8v4.536C0 22.987 5.82 25 13 25s13-2.015 13-4.5v-4.534C23.225 18.032 17.982 19 13 19c-4.982 0-10.225-.968-13-3.034M13 9c7.18 0 13-2.015 13-4.5S20.18 0 13 0 0 2.015 0 4.5C0 6.987 5.82 9 13 9M0 23.966V26.5C0 30.56 7.003 32 13 32s13-1.44 13-5.5v-2.534C23.225 26.032 17.982 27 13 27c-4.982 0-10.225-.968-13-3.034" fill-rule="evenodd"/></symbol><symbol id="flame" viewBox="0 0 24 32"><path d="M12 28c-2.71 0-4.81-2.923-4.81-5.437C7.19 20.07 9.897 15.157 12 12c2.1 3.158 4.81 8.07 4.81 10.563C16.81 25.077 14.71 28 12 28M8.323.095A2.002 2.002 0 0 0 5.895 2.83c.092.213 1.747 4.238-2.53 9.04C1.1 14.41 0 17.134 0 20.2 0 26.707 5.383 32 12 32s12-5.293 12-11.8C24 14.978 20.723 4.056 8.323.095" fill-rule="evenodd"/></symbol><symbol id="o-alarm" viewBox="0 0 32 32"><path d="M28.866 11.48a14.026 14.026 0 0 0-8.896-7.9A5.957 5.957 0 0 1 24 2c3.31 0 6 2.69 6 6a5.93 5.93 0 0 1-1.134 3.48M16 30C8.832 30 3 24.168 3 17S8.832 4 16 4s13 5.832 13 13-5.832 13-13 13M8 2c1.5 0 2.92.566 4.03 1.58a14.027 14.027 0 0 0-8.896 7.9A5.93 5.93 0 0 1 2 8c0-3.31 2.692-6 6-6m24 6a8 8 0 0 0-8-8 7.968 7.968 0 0 0-5.523 2.22A15.08 15.08 0 0 0 16 2c-.846 0-1.67.087-2.477.22A7.966 7.966 0 0 0 8 0a8 8 0 0 0-8 8c0 1.802.603 3.46 1.608 4.796A14.996 14.996 0 0 0 1 17c0 8.284 6.713 15 15 15 8.284 0 15-6.716 15-15 0-1.46-.22-2.87-.608-4.204A7.953 7.953 0 0 0 32 8M16 27.312c-5.686 0-10.312-4.626-10.312-10.312 0-5.687 4.626-10.313 10.312-10.313 5.687 0 10.313 4.626 10.313 10.313 0 5.686-4.626 10.312-10.313 10.312M16 5.75C9.785 5.75 4.75 10.787 4.75 17S9.785 28.25 16 28.25c6.213 0 11.25-5.037 11.25-11.25S22.213 5.75 16 5.75M16 10a.8.8 0 0 0-.798.726l-.43 5.844-5.368.365a.805.805 0 1 0 0 1.603l7.475.602h.022a.508.508 0 0 0 .502-.525l-.602-7.89A.802.802 0 0 0 16 10" fill-rule="evenodd"/></symbol><symbol id="o-cloud-check" viewBox="0 0 32 24"><path d="M24.515 22H8.42C4.88 22 2 19.17 2 15.692c0-3.474 2.873-6.3 6.446-6.3h.012c.08.01.16.02.243.024l.94.038.096-.937C10.112 4.802 13.242 2 17.016 2c4.058 0 7.36 3.244 7.36 7.23 0 .25-.038.49-.073.73l-.165 1.223 1.013.116c2.765.316 4.85 2.6 4.85 5.316C30 19.584 27.54 22 24.515 22m1.853-12.51c.004-.084.007-.17.007-.26 0-5.09-4.2-9.23-9.36-9.23-4.49 0-8.265 3.123-9.13 7.402C3.49 7.675 0 11.29 0 15.692 0 20.272 3.777 24 8.42 24h16.095C28.643 24 32 20.688 32 16.616c0-3.398-2.36-6.305-5.632-7.125m-6.38-.095l-5.153 7.3-3.028-2.27a.95.95 0 0 0-1.335.19.95.95 0 0 0 .19 1.335l3.813 2.86a.957.957 0 0 0 1.352-.214l5.72-8.102a.956.956 0 0 0-.23-1.33.98.98 0 0 0-1.33.23" fill-rule="evenodd"/></symbol><symbol id="o-cloud-disable" viewBox="0 0 32 32"><path d="M1.707.293A1 1 0 1 0 .293 1.707l30 30a.997.997 0 0 0 1.414 0 1 1 0 0 0 0-1.414l-30-30zM17.015 6c4.058 0 7.36 3.244 7.36 7.23 0 .25-.037.49-.072.73l-.165 1.223 1.012.116c2.765.316 4.85 2.6 4.85 5.316 0 1.057-.316 2.04-.854 2.873l1.435 1.435a7.27 7.27 0 0 0 1.42-4.31c0-3.397-2.36-6.304-5.633-7.124.005-.084.008-.17.008-.26 0-5.09-4.2-9.23-9.36-9.23a9.34 9.34 0 0 0-5.546 1.813l1.436 1.436A7.355 7.355 0 0 1 17.016 6zM8.42 26C4.88 26 2 23.17 2 19.692c0-3.252 2.518-5.936 5.77-6.266l-1.703-1.703C2.567 12.73 0 15.92 0 19.693 0 24.272 3.776 28 8.42 28h13.923l-2-2H8.42z" fill-rule="evenodd"/></symbol><symbol id="o-cloud-download" viewBox="0 0 32 24"><path d="M26.367 9.49a4.44 4.44 0 0 0 .008-.26c0-5.09-4.2-9.23-9.36-9.23-4.49 0-8.265 3.123-9.13 7.402C3.49 7.675 0 11.29 0 15.692 0 20.272 3.776 24 8.42 24h5.742l-2-2H8.42C4.88 22 2 19.17 2 15.692c0-3.474 2.873-6.3 6.445-6.3h.013c.08.01.16.02.242.023l.94.038.095-.936C10.11 4.802 13.24 2 17.015 2c4.058 0 7.36 3.243 7.36 7.23 0 .25-.037.49-.072.73l-.165 1.222 1.012.117c2.765.316 4.85 2.6 4.85 5.316C30 19.584 27.54 22 24.514 22h-2.696l-2 2h4.696C28.642 24 32 20.687 32 16.616c0-3.398-2.36-6.306-5.633-7.125m-3.67 7.388a1 1 0 0 0-1.414 0L18 20l-.02-9a1 1 0 0 0-1-1c-.552 0-.98.49-.98 1v9l-3.303-3.122a.993.993 0 0 0-.707-.293.993.993 0 0 0-.707.293 1.023 1.023 0 0 0 0 1.413L16.99 24l5.707-5.708a1.023 1.023 0 0 0 0-1.414" fill-rule="evenodd"/></symbol><symbol id="o-cloud-lightning" viewBox="0 0 32 32"><path d="M26.367 9.49a4.44 4.44 0 0 0 .008-.26c0-5.09-4.2-9.23-9.36-9.23-4.49 0-8.265 3.123-9.13 7.402C3.49 7.675 0 11.29 0 15.692c0 4.18 3.145 7.637 7.22 8.214L8.89 22H8.42C4.88 22 2 19.17 2 15.692c0-3.474 2.873-6.3 6.445-6.3h.013c.08.01.16.02.242.023l.94.038.095-.936C10.11 4.802 13.24 2 17.015 2c4.058 0 7.36 3.243 7.36 7.23 0 .25-.037.49-.072.73l-.165 1.222 1.012.117c2.765.316 4.85 2.6 4.85 5.316C30 19.584 27.54 22 24.514 22h-.653l-1.75 2h2.404C28.642 24 32 20.687 32 16.616c0-3.398-2.36-6.306-5.633-7.125zm-6.614 6.168a1 1 0 0 0-1.506-1.316L9.797 24h7l-5.55 6.342a1 1 0 0 0 1.506 1.316L21.203 22h-7l5.55-6.342z" fill-rule="evenodd"/></symbol><symbol id="o-cloud-upload" viewBox="0 0 32 24"><path d="M26.367 9.49a4.44 4.44 0 0 0 .008-.26c0-5.09-4.2-9.23-9.36-9.23-4.49 0-8.265 3.123-9.13 7.402C3.49 7.675 0 11.29 0 15.692 0 20.272 3.776 24 8.42 24H13v-2H8.42C4.88 22 2 19.17 2 15.692c0-3.474 2.873-6.3 6.445-6.3h.013c.08.01.16.02.242.023l.94.038.095-.936C10.11 4.802 13.24 2 17.015 2c4.058 0 7.36 3.243 7.36 7.23 0 .25-.037.49-.072.73l-.165 1.222 1.012.117c2.765.316 4.85 2.6 4.85 5.316C30 19.584 27.54 22 24.514 22H19v2h5.514C28.642 24 32 20.687 32 16.616c0-3.398-2.36-6.306-5.633-7.125m-5.377 7.925a.997.997 0 0 0 .707-.293 1.023 1.023 0 0 0 0-1.413L15.99 10l-5.707 5.708a1.023 1.023 0 0 0 0 1.414 1 1 0 0 0 1.414 0L15 14v9a1 1 0 0 0 2 0v-9l3.283 3.122c.19.188.44.293.707.293" fill-rule="evenodd"/></symbol><symbol id="o-credit-card" viewBox="0 0 32 24"><path d="M30 5H2V4c0-1.103.897-2 2-2h24c1.103 0 2 .897 2 2v1zm0 5H2V6h28v4zm0 10c0 1.103-.897 2-2 2H4c-1.103 0-2-.897-2-2v-9h28v9zM28 0H4C1.794 0 0 1.794 0 4v16c0 2.206 1.794 4 4 4h24c2.206 0 4-1.794 4-4V4c0-2.206-1.794-4-4-4z" fill-rule="evenodd"/></symbol><symbol id="o-database" viewBox="0 0 26 32"><path d="M13 9C6.933 9 2.015 7.433 2.014 5.5 2.014 3.567 6.934 2 13 2c6.067 0 10.986 1.567 10.986 3.5S19.066 9 13 9zm10.986 3.5c0 1.933-4.92 3.5-10.986 3.5-6.067 0-10.985-1.567-10.986-3.5V7.49C4.03 9.143 8.534 10 13 10c4.466 0 8.97-.857 10.986-2.51v5.01zm0 7c0 1.933-4.92 3.5-10.986 3.5-6.067 0-10.985-1.567-10.986-3.5v-5.01C4.03 16.143 8.534 17 13 17c4.466 0 8.97-.857 10.986-2.51v5.01zm0 7c0 1.933-4.92 3.5-10.986 3.5-6.067 0-10.986-1.567-10.986-3.5v-5.01C4.03 23.143 8.534 24 13 24c4.466 0 8.97-.857 10.986-2.51v5.01zM13 0C7.003 0 0 1.44 0 5.5v21C0 30.56 7.003 32 13 32s13-1.44 13-5.5v-21C26 1.44 18.997 0 13 0z" fill-rule="evenodd"/></symbol><symbol id="o-flag" viewBox="0 0 28 32"><path d="M12 20c-1.103 0-2-.897-2-2h7V8h7.816l-2.462 3.174c-1.25 1.61-1.25 4.04 0 5.652L24.816 20H12zM2 16V4h11c1.103 0 2 .897 2 2v10H2zm21.934-.4c-.684-.88-.684-2.32 0-3.2l3.725-4.8c.68-.88.31-1.6-.83-1.6H17c0-2.2-1.8-4-4-4H2V1a1 1 0 0 0-2 0v30a1 1 0 0 0 2 0V18h6c0 2.2 1.8 4 4 4h14.83c1.14 0 1.51-.72.83-1.6l-3.726-4.8z" fill-rule="evenodd"/></symbol><symbol id="o-flame" viewBox="0 0 24 32"><path d="M15.858 29.243c1.212-1.262 1.955-3.023 1.955-4.68 0-3.46-4.147-9.868-4.977-11.117l-.834-1.25-.83 1.25c-.833 1.248-4.98 7.653-4.98 11.117 0 1.657.743 3.418 1.955 4.68-3.61-1.48-6.145-4.97-6.145-9.043 0-2.662 1.012-4.93 2.858-7C10.175 7.234 7.716 2 7.716 2 18.49 5.44 22.002 14.787 22.002 20.2c0 4.073-2.536 7.564-6.144 9.043M12.002 30c-2.71 0-4.81-2.923-4.81-5.437 0-2.495 2.71-7.406 4.81-10.563 2.1 3.157 4.81 8.07 4.81 10.563 0 2.514-2.1 5.437-4.81 5.437M8.325.095A2 2 0 0 0 5.897 2.83c.093.212 1.747 4.238-2.53 9.04C1.102 14.41 0 17.133 0 20.2 0 26.706 5.385 32 12 32c6.62 0 12-5.294 12-11.8C24 14.978 20.726 4.056 8.325.095" fill-rule="evenodd"/></symbol><symbol id="o-heart" viewBox="0 0 32 28"><path d="M17.008 25.75c-.497.31-1.555.303-2.01.028C14.867 25.695 2 17.368 2 10.01 2 6.383 5.07 2 8.88 2c2.656 0 5.1 1.486 6.227 3.786.336.685 1.46.685 1.797 0C18.03 3.486 20.476 2 23.134 2 26.94 2 30 6.382 30 10.01c0 7.348-12.87 15.663-12.992 15.74M23.135 0c-2.828 0-5.475 1.32-7.13 3.463C14.35 1.32 11.705 0 8.88 0 3.88 0 0 5.38 0 10.01 0 18.45 13.35 27.1 13.94 27.477c.558.338 1.28.524 2.034.524.776 0 1.52-.196 2.1-.56C18.644 27.08 32 18.45 32 10.01 32 5.38 28.128 0 23.135 0" fill-rule="evenodd"/></symbol><symbol id="o-mail" viewBox="0 0 32 24"><path d="M30 5.066L16 14.4 2 5.066V4c0-1.1.9-2 2-2h24c1.1 0 2 .9 2 2v1.066zM30 20c0 1.1-.9 2-2 2H4c-1.1 0-2-.9-2-2V6.27l14 9.33L30 6.27V20zM28 0H4C1.795 0 0 1.795 0 4v16c0 2.206 1.795 4 4 4h24c2.205 0 4-1.794 4-4V4c0-2.205-1.795-4-4-4z" fill-rule="evenodd"/></symbol><symbol id="o-map" viewBox="0 0 32 32"><path d="M30 28.832l-8-3.81V2.454l8 3.808v22.57zm-9-3.818l-9 4.5V6.986l9-4.5v22.528zM11 29.6l-9-3.913V3.05l9 3.914V29.6zM31.097 4.387L22.403.18c-.242-.117-.558-.175-.875-.175-.334 0-.67.065-.922.192L12.394 4.37c-.264.133-.622.202-.975.202a2.13 2.13 0 0 1-.837-.154L.917.148A.83.83 0 0 0 .58.073C.24.073 0 .333 0 .76v25.4c0 .56.413 1.198.917 1.422l9.666 4.27c.233.102.533.153.836.153.352 0 .71-.068.974-.202l8.212-4.173c.252-.128.588-.192.922-.192.317 0 .633.06.875.175l8.694 4.207c.126.06.245.09.354.09.323 0 .55-.25.55-.67V5.84c0-.56-.406-1.213-.903-1.453z" fill-rule="evenodd"/></symbol><symbol id="o-megaphone" viewBox="0 0 32 29"><path d="M30 26L6 19.76l-1-.26v-11l1-.26L30 2v24zm-10.68.238a1 1 0 0 1-1.208.733l-5.828-1.428a1.002 1.002 0 0 1-.733-1.21l.246-1 7.744 2.015-.22.89zM4 20.5c0 .55-.45 1-1 1s-1-.45-1-1v-13c0-.55.45-1 1-1s1 .45 1 1v13zM31.223.418a1.998 1.998 0 0 0-1.726-.354L5.717 6.247A2.997 2.997 0 0 0 3 4.5c-1.654 0-3 1.346-3 3v13c0 1.654 1.346 3 3 3a2.997 2.997 0 0 0 2.717-1.747L9.86 22.83l-.25 1.026a3.003 3.003 0 0 0 2.198 3.628l5.827 1.43a3.004 3.004 0 0 0 3.63-2.2l.21-.864 8.022 2.086a2.005 2.005 0 0 0 1.726-.354A2 2 0 0 0 32 26V2a2 2 0 0 0-.777-1.582z" fill-rule="evenodd"/></symbol><symbol id="o-money" viewBox="0 0 32 26"><path d="M30 21.19c0 .19-.07.248-.118.25-.107 0-.246-.03-.387-.085-1.52-.605-3.1-.9-4.834-.9-3.036 0-6.043.924-8.95 1.817C12.812 23.16 10.077 24 7.34 24c-1.475 0-2.815-.248-4.1-.76C2.64 23.004 2 21.95 2 21.19V4.808c0-.186.04-.25.116-.25h.002c.107 0 .245.03.387.087 1.52.604 3.102.898 4.836.898 3.04 0 6.047-.923 8.956-1.816C19.19 2.837 21.926 2 24.662 2c1.475 0 2.814.247 4.098.758.602.236 1.24 1.29 1.24 2.05V21.19zM29.495.898C27.975.293 26.395 0 24.662 0c-3.037 0-6.044.922-8.953 1.815-2.897.89-5.632 1.728-8.37 1.728-1.475 0-2.815-.248-4.1-.758a3.076 3.076 0 0 0-1.122-.228C.87 2.557 0 3.483 0 4.807V21.19c0 1.412 1.008 3.32 2.505 3.91 1.52.605 3.102.9 4.836.9 3.04 0 6.047-.924 8.956-1.817 2.894-.888 5.63-1.727 8.365-1.727 1.477 0 2.816.248 4.1.76.385.15.76.225 1.122.225.606 0 1.15-.222 1.533-.627.267-.283.585-.794.585-1.623V4.808c0-1.414-1.01-3.324-2.505-3.91zm-12.842 11.63c-1.72-.45-2.618-.737-2.618-1.877 0-.74.568-1.456 1.836-1.456.777 0 1.554.25 2.446.785.416.246.895-.04.895-.48A.573.573 0 0 0 18.95 9a5.313 5.313 0 0 0-1.877-.743l-.402-.08V7.057c0-.38-.3-.687-.668-.687a.68.68 0 0 0-.668.688v1.105l-.387.09c-1.37.32-2.187 1.283-2.187 2.58 0 1.715.907 2.223 3.08 2.787 1.674.438 2.47.823 2.47 1.833 0 .722-.524 1.53-2.003 1.53-1.046 0-2.016-.344-2.964-1.054a.58.58 0 0 0-.352-.114.567.567 0 0 0-.57.576.59.59 0 0 0 .222.473 6.065 6.065 0 0 0 2.3 1.016l.392.088v.972c0 .38.3.69.668.69a.68.68 0 0 0 .668-.69v-.898l.42-.068c1.585-.257 2.494-1.247 2.494-2.718 0-1.45-.767-2.155-2.93-2.73z" fill-rule="evenodd"/></symbol><symbol id="o-museum" viewBox="0 0 32 32"><path d="M2 10V8l14-6 14 6v2H2zm21 1h4v13h-4V11zm-6 0h4v13h-4V11zm-6 0h4v13h-4V11zm-6 0h4v13H5V11zm22 14l1 1H4l1-1h22zm3 3H2l1-1h26l1 1zm0 2H2v-1h28v1zm-1-18h1a2 2 0 0 0 2-2V8a2 2 0 0 0-1.212-1.838l-14-6a2 2 0 0 0-1.576 0l-14 6A2 2 0 0 0 0 8v2a2 2 0 0 0 2 2h1v12.172L.586 26.586A2 2 0 0 0 0 28v2a2 2 0 0 0 2 2h28a2 2 0 0 0 2-2v-2a2 2 0 0 0-.586-1.414L29 24.172V12z" fill-rule="evenodd"/></symbol><symbol id="o-poop" viewBox="0 0 32 30"><path d="M26 28H6c-2.206 0-4-1.794-4-4s1.794-4 4-4h20c2.206 0 4 1.794 4 4s-1.794 4-4 4M8 13h16c1.654 0 3 1.346 3 3s-1.346 3-3 3H8c-1.654 0-3-1.346-3-3s1.346-3 3-3m1.447-5.394c.922-2.105 3.085-3.613 4.83-4.54-.37 1.097-.35 2.025.057 2.806.843 1.616 2.906 1.666 3.167 1.666h.003c.082-.002.163-.002.243-.002 2.414 0 4.273.8 4.97 2.138.382.73.375 1.555-.005 2.326H9.45c-.604-1.578-.604-3.02-.003-4.394M28.32 18.49A4.903 4.903 0 0 0 29 16a5.01 5.01 0 0 0-4.015-4.903 4.497 4.497 0 0 0-.835-2.9c-1.218-1.716-3.492-2.66-6.404-2.66l-.284.002c-.255-.005-1.113-.122-1.357-.597-.11-.217-.352-1.1 1.23-3.37A1 1 0 1 0 16.213.046c-.252.08-6.193 2.018-8.393 6.345a7.273 7.273 0 0 0-.69 4.684A5.008 5.008 0 0 0 3 16c0 .883.24 1.74.68 2.49A5.97 5.97 0 0 0 0 24c0 3.308 2.692 6 6 6h20c3.308 0 6-2.692 6-6 0-2.46-1.5-4.6-3.68-5.51" fill-rule="evenodd"/></symbol><symbol id="o-ruler" viewBox="0 0 32 32"><path d="M7.79 29.96l-5.75-5.754 2.263-2.262 3.23 3.23a.5.5 0 0 0 .707-.707l-3.23-3.23 3.537-3.534 1.864 1.864a.5.5 0 0 0 .708-.707l-1.864-1.864 3.536-3.535 2.893 2.894a.5.5 0 0 0 .707-.707l-2.892-2.893 3.532-3.53 1.816 1.816a.5.5 0 0 0 .708-.707l-1.817-1.817 3.54-3.538 3.226 3.226a.5.5 0 0 0 .707-.708L21.985 4.27l2.23-2.227L29.96 7.79 7.79 29.96zM31.495 6.495l-5.99-5.99A1.757 1.757 0 0 0 24.25 0c-.51 0-1.036.204-1.44.606L.608 22.81c-.768.77-.813 1.98-.1 2.693l5.99 5.99c.34.34.79.507 1.253.507.51 0 1.037-.204 1.44-.607L31.393 9.188c.768-.768.813-1.98.1-2.692z" fill-rule="evenodd"/></symbol><symbol id="o-scissors" viewBox="0 0 32 28"><path d="M13 14.982c.552 0 1-.44 1-.982a.992.992 0 0 0-1-.983c-.552 0-1 .44-1 .983 0 .542.448.982 1 .982zm-3.022 5.586c-.177.656-.707 1.293-1.422 1.702a3.256 3.256 0 0 1-1.61.45c-.246 0-1.076-.045-1.425-.63-.197-.333-.156-.716-.085-.98.175-.656.705-1.293 1.422-1.7a3.25 3.25 0 0 1 1.607-.45c.246 0 1.08.043 1.425.626.2.334.157.718.088.982zm-1.514-2.593c-.714 0-1.444.202-2.11.584-.954.543-1.642 1.382-1.886 2.3-.17.63-.106 1.23.19 1.725.618 1.038 1.908 1.118 2.288 1.118.717 0 1.447-.202 2.114-.584.95-.545 1.637-1.383 1.885-2.3.168-.65.1-1.246-.195-1.735-.61-1.03-1.904-1.11-2.286-1.11zm15.444 3.64a3.35 3.35 0 0 1-.908.114c-.755 0-1.59-.196-2.138-.536l-6.966-4.318 4.906-2.33 11.2 5.322-6.094 1.748zm-10.563-.707c-.184 1.135-.764 2.252-1.683 3.16-.405.4-.874.76-1.403 1.063a6.76 6.76 0 0 1-2.48.85 6.333 6.333 0 0 1-.834.055 5.532 5.532 0 0 1-2.517-.582 4.58 4.58 0 0 1-1.028-.71 4.282 4.282 0 0 1-.793-.978c-.53-.89-.702-1.9-.56-2.9.07-.5.22-1 .442-1.478.516-1.118 1.428-2.135 2.66-2.842 0 0 16.084-9.932 16.3-10.008A4.76 4.76 0 0 1 23 6.27c.327 0 .64.037.908.114l6.095 1.75-18.21 8.65c.39.318.746.68 1.012 1.128a4.34 4.34 0 0 1 .603 2.4 4.82 4.82 0 0 1-.063.596zm-8.193-9.454C2.335 9.84 1.197 6.607 2.61 4.236c.874-1.478 2.53-2.272 4.336-2.272 1.1 0 2.25.294 3.313.904 2.82 1.615 3.957 4.85 2.545 7.22-.266.446-.98 1.143-.966 1.15l-3.52 2.18-3.168-1.965zM30.874 18.1L22.247 14l8.626-4.098a1.96 1.96 0 0 0 1.123-1.932 1.974 1.974 0 0 0-1.433-1.723l-6.094-1.75A5.323 5.323 0 0 0 23 4.306c-1.16 0-2.358.313-3.205.838l-4.384 2.72a6.814 6.814 0 0 0-.234-1.773c-.538-2.01-1.963-3.805-3.91-4.92A8.72 8.72 0 0 0 6.946 0C4.352 0 2.086 1.214.88 3.248-.1 4.894-.27 6.858.405 8.77c.632 1.797 1.948 3.345 3.707 4.363L5.51 14l-1.4.867c-1.757 1.02-3.073 2.567-3.705 4.362-.675 1.913-.505 3.876.477 5.526C2.086 26.786 4.352 28 6.946 28a8.697 8.697 0 0 0 4.323-1.173c1.943-1.113 3.368-2.906 3.905-4.916a6.786 6.786 0 0 0 .236-1.772l4.385 2.718c.848.525 2.046.838 3.205.838.53 0 1.024-.065 1.47-.193l6.093-1.746a1.975 1.975 0 0 0 1.433-1.723 1.96 1.96 0 0 0-1.122-1.93zM5.434 6.89c-.07-.263-.11-.647.087-.98.35-.584 1.18-.63 1.426-.63.54 0 1.098.155 1.61.45.715.41 1.245 1.045 1.422 1.7.07.265.113.65-.09.984-.344.582-1.178.627-1.424.627-.54 0-1.094-.153-1.607-.45-.717-.408-1.247-1.045-1.422-1.7zm5.32 2.018c.29-.48.36-1.078.193-1.72-.25-.924-.937-1.76-1.887-2.306a4.25 4.25 0 0 0-2.114-.584c-.38 0-1.67.08-2.288 1.115-.292.49-.36 1.105-.19 1.73.244.914.932 1.753 1.887 2.298.66.38 1.39.584 2.11.584.38 0 1.675-.08 2.29-1.116z" fill-rule="evenodd"/></symbol><symbol id="o-shirt" viewBox="0 0 32 27"><path d="M27.695 10.723l-3.83-1.35v15.413h-16V9.373l-4 1.413-1.864-5.744L10.12 2c1.237 1.563 3.396 2.536 5.746 2.536s4.51-.973 5.747-2.536l8.118 3.042-2.035 5.68zm2.738-7.554L22.315.126a2 2 0 0 0-2.27.63c-.87 1.098-2.47 1.78-4.18 1.78s-3.31-.682-4.18-1.78a1.998 1.998 0 0 0-2.268-.63L1.3 3.17A2 2 0 0 0 .097 5.66l1.866 5.744a1.998 1.998 0 0 0 2.568 1.268l1.334-.47v14.584h20V12.2l1.164.41a2 2 0 0 0 2.548-1.212l2.036-5.68a2 2 0 0 0-1.18-2.55z" fill-rule="evenodd"/></symbol><symbol id="o-shirts" viewBox="1017 636 35 31"><path d="M1049.837 641.745l-2.05-.724v8.26h-8.573v-8.26l-2.143.758-.998-3.077 4.35-1.63c.662.84 1.82 1.36 3.078 1.36 1.26 0 2.416-.52 3.08-1.36l4.35 1.63-1.093 3.045zm1.467-4.047l-4.35-1.63a1.072 1.072 0 0 0-1.215.338c-.467.588-1.324.953-2.24.953-.916 0-1.773-.366-2.24-.954a1.07 1.07 0 0 0-1.215-.338l-4.35 1.63c-.536.2-.82.79-.642 1.334l1 3.078a1.07 1.07 0 0 0 1.375.68l.715-.253v7.813h10.714v-7.815l.624.22a1.072 1.072 0 0 0 1.366-.65l1.09-3.042a1.072 1.072 0 0 0-.632-1.365zm-19.467 4.047l-2.05-.724v8.26h-8.573v-8.26l-2.143.758-.998-3.077 4.35-1.63c.662.84 1.82 1.36 3.078 1.36 1.26 0 2.416-.52 3.08-1.36l4.35 1.63-1.093 3.045zm1.467-4.047l-4.35-1.63a1.072 1.072 0 0 0-1.215.338c-.467.588-1.324.953-2.24.953-.916 0-1.773-.366-2.24-.954a1.07 1.07 0 0 0-1.215-.338l-4.35 1.63c-.536.2-.82.79-.642 1.334l1 3.078a1.07 1.07 0 0 0 1.375.68l.715-.253v7.813h10.714v-7.815l.624.22a1.072 1.072 0 0 0 1.366-.65l1.09-3.042a1.072 1.072 0 0 0-.632-1.365zm16.533 20.047l-2.05-.724v8.26h-8.573v-8.26l-2.143.758-.998-3.077 4.35-1.63c.662.84 1.82 1.36 3.078 1.36 1.26 0 2.416-.52 3.08-1.36l4.35 1.63-1.093 3.045zm1.467-4.047l-4.35-1.63a1.072 1.072 0 0 0-1.215.338c-.467.588-1.324.953-2.24.953-.916 0-1.773-.366-2.24-.954a1.07 1.07 0 0 0-1.215-.338l-4.35 1.63c-.536.2-.82.79-.642 1.334l1 3.078a1.07 1.07 0 0 0 1.375.68l.715-.253v7.813h10.714v-7.815l.624.22a1.072 1.072 0 0 0 1.366-.65l1.09-3.042a1.072 1.072 0 0 0-.632-1.365zm-19.467 4.047l-2.05-.724v8.26h-8.573v-8.26l-2.143.758-.998-3.077 4.35-1.63c.662.84 1.82 1.36 3.078 1.36 1.26 0 2.416-.52 3.08-1.36l4.35 1.63-1.093 3.045zm1.467-4.047l-4.35-1.63a1.072 1.072 0 0 0-1.215.338c-.467.588-1.324.953-2.24.953-.916 0-1.773-.366-2.24-.954a1.07 1.07 0 0 0-1.215-.338l-4.35 1.63c-.536.2-.82.79-.642 1.334l1 3.078a1.07 1.07 0 0 0 1.375.68l.715-.253v7.813h10.714v-7.815l.624.22a1.072 1.072 0 0 0 1.366-.65l1.09-3.042a1.072 1.072 0 0 0-.632-1.365z" fill-rule="evenodd"/></symbol><symbol id="o-shop" viewBox="0 0 32 32"><path d="M26.504 15a3.5 3.5 0 0 1-3.5-3.5 3.5 3.5 0 0 1-7 0c0 1.933-1.57 3.5-3.5 3.5a3.5 3.5 0 0 1-3.5-3.5A3.5 3.5 0 0 1 2 11.5L2 9h28v2.5a3.5 3.5 0 0 1-3.497 3.5zM28 25H4v-8.214a5.476 5.476 0 0 0 5.003-1.046 5.476 5.476 0 0 0 3.5 1.26 5.472 5.472 0 0 0 3.5-1.26 5.477 5.477 0 0 0 3.5 1.26 5.476 5.476 0 0 0 3.5-1.26A5.472 5.472 0 0 0 28 16.788V25zm0 5H4v-4h24v4zM5.503 2h21L30 8H2l3.503-6zM32 7.46L27.653 0h-23.3L0 7.46l.002 4.04A5.49 5.49 0 0 0 2 15.737V32h28V15.742a5.494 5.494 0 0 0 2.002-4.242L32 7.46z" fill-rule="evenodd"/></symbol><symbol id="o-sync" viewBox="0 0 29 29"><path d="M27.082 18.115a1.503 1.503 0 0 0-1.962.808A11.476 11.476 0 0 1 14.5 26a11.47 11.47 0 0 1-9.485-5H7.5a1.5 1.5 0 0 0 0-3H0v7.5a1.5 1.5 0 0 0 3 0v-2.174A14.458 14.458 0 0 0 14.5 29a14.47 14.47 0 0 0 13.39-8.923 1.5 1.5 0 0 0-.81-1.962M.925 10.885a1.502 1.502 0 0 0 1.962-.808A11.477 11.477 0 0 1 13.506 3c3.854 0 7.37 1.906 9.484 5h-2.485a1.5 1.5 0 0 0 0 3h7.5V3.5a1.5 1.5 0 0 0-3 0v2.174A14.457 14.457 0 0 0 13.505 0 14.47 14.47 0 0 0 .115 8.923a1.502 1.502 0 0 0 .81 1.962" fill-rule="evenodd"/></symbol><symbol id="o-truck" viewBox="0 0 32 28"><path d="M30 18H28.97a6.495 6.495 0 0 0-5.468-3 6.46 6.46 0 0 0-3.5 1.03V12h9.668l.28.21c.02.03.04.073.053.106V18zm-6.5 8a4.5 4.5 0 1 1 0-9 4.5 4.5 0 0 1 0 9zm-5.47-8H13.97A6.495 6.495 0 0 0 8.5 15a6.497 6.497 0 0 0-5.47 3H2V2h17v14.82a6.585 6.585 0 0 0-.97 1.18zM8.5 26a4.5 4.5 0 1 1 0-9 4.5 4.5 0 0 1 0 9zM20 8h3.992c.148.007.492.122.608.2l3.733 2.8H20V8zm11.2 2.65L25.8 6.6c-.44-.33-1.25-.6-1.8-.6h-3V2c0-1.1-.9-2-2-2H2C.9 0 0 .9 0 2v16c0 1.1.9 2 2 2h.18A6.504 6.504 0 0 0 2 21.5C2 25.084 4.915 28 8.5 28c3.583 0 6.5-2.916 6.5-6.5a6.45 6.45 0 0 0-.183-1.5h2.363a6.504 6.504 0 0 0-.18 1.5c0 3.584 2.915 6.5 6.5 6.5 3.583 0 6.5-2.916 6.5-6.5a6.45 6.45 0 0 0-.183-1.5H31c.55 0 1-.45 1-1v-6.75c0-.55-.36-1.27-.8-1.6z" fill-rule="evenodd"/></symbol><symbol id="o-umbrella" viewBox="0 0 32 32"><path d="M2.142 17c.974-6.776 6.818-12 13.86-12 7.04 0 12.882 5.224 13.856 12H2.142zm14.86-13.95V1a1 1 0 0 0-2 0v2.05C6.63 3.57 0 10.5 0 19h15v8c0 1.654-1.346 3-3 3-1.656 0-3-1.346-3-3a1 1 0 1 0-2 0c0 2.757 2.243 5 5 5 2.755 0 5-2.243 5-5v-8h15c0-8.5-6.632-15.43-15-15.95z" fill-rule="evenodd"/></symbol><symbol id="umbrella" viewBox="0 0 32 32"><path d="M14 26a2 2 0 0 1-4 0 2 2 0 0 0-4 0c0 3.31 2.69 6 6 6s6-2.69 6-6v-6h-4v6zm4-21.863V2a2 2 0 0 0-4 0v2.137C6.695 5.035.91 10.76 0 18h32c-.914-7.24-6.7-12.965-14-13.863z" fill-rule="evenodd"/></symbol></svg>