<svg xmlns="http://www.w3.org/2000/svg" xmlns:xlink="http://www.w3.org/1999/xlink" style="display: none;"><symbol id="cloud-upload" viewBox="0 0 32 24"><path d="M16 0c-4.66 0-8.445 3.554-8.906 8.092C3.109 8.548 0 11.894 0 16a8 8 0 0 0 8 8h6v-4h-2c-2.199 0-2.875-1.406-1.5-3.125l4.254-5.312c.683-.86 1.808-.86 2.496 0l4.254 5.312C22.879 18.594 22.203 20 20 20h-2v4h6a8 8 0 0 0 8-8c0-4.106-3.106-7.452-7.09-7.908C24.449 3.554 20.66 0 16 0z"  fill-rule="evenodd"/></symbol><symbol id="database" viewBox="0 0 26 32"><path d="M0 7.965v4.536C.001 14.986 5.821 17 13 17c7.18 0 13-2.015 13-4.5V7.968C23.224 10.032 17.983 11 13.001 11 8.018 11 2.775 10.031 0 7.965m0 8.001v4.535C.001 22.986 5.821 25 13 25c7.18 0 13-2.015 13-4.5v-4.534C23.225 18.032 17.982 19 13 19c-4.982 0-10.225-.968-13-3.034M13 9c7.18 0 13-2.015 13-4.5S20.18 0 13 0 0 2.015 0 4.5v.001C.001 6.986 5.821 9 13 9M0 23.966V26.5C0 30.56 7.003 32 13 32s13-1.44 13-5.5v-2.534C23.225 26.032 17.982 27 13 27c-4.982 0-10.225-.968-13-3.034"  fill-rule="evenodd"/></symbol><symbol id="flame" viewBox="0 0 24 32"><path d="M12 28c-2.709 0-4.811-2.923-4.811-5.437C7.189 20.069 9.898 15.157 12 12c2.101 3.158 4.811 8.07 4.811 10.563C16.811 25.077 14.709 28 12 28M8.323.095a2.002 2.002 0 0 0-2.428 2.736c.092.212 1.747 4.237-2.531 9.038C1.1 14.41 0 17.135 0 20.2 0 26.707 5.383 32 12 32s12-5.293 12-11.8C24 14.978 20.723 4.056 8.323.095"  fill-rule="evenodd"/></symbol><symbol id="o-alarm" viewBox="0 0 32 32"><path d="M28.866 11.48a14.026 14.026 0 0 0-8.896-7.9A5.957 5.957 0 0 1 24 2c3.309 0 6 2.691 6 6a5.931 5.931 0 0 1-1.134 3.48M16 30C8.832 30 3 24.168 3 17S8.832 4 16 4s13 5.832 13 13-5.832 13-13 13M8 2c1.499 0 2.92.566 4.03 1.58a14.027 14.027 0 0 0-8.896 7.9A5.931 5.931 0 0 1 2 8c0-3.309 2.692-6 6-6m24 6a8 8 0 0 0-8-8 7.968 7.968 0 0 0-5.523 2.221A15.079 15.079 0 0 0 16 2.001c-.846 0-1.67.086-2.477.22A7.966 7.966 0 0 0 8 .001a8 8 0 0 0-8 8c0 1.801.603 3.458 1.608 4.795A14.996 14.996 0 0 0 1 17c0 8.284 6.713 15 15 15 8.284 0 15-6.716 15-15 0-1.46-.22-2.869-.608-4.204A7.953 7.953 0 0 0 32 8M16 27.312c-5.686 0-10.312-4.626-10.312-10.312 0-5.687 4.626-10.313 10.312-10.313 5.687 0 10.313 4.626 10.313 10.313 0 5.686-4.626 10.312-10.313 10.312M16 5.75C9.785 5.75 4.75 10.787 4.75 17S9.785 28.25 16 28.25c6.213 0 11.25-5.037 11.25-11.25S22.213 5.75 16 5.75M16 10a.799.799 0 0 0-.798.726l-.431 5.844-5.367.365a.805.805 0 1 0 0 1.603l7.475.602h.023a.508.508 0 0 0 .502-.525l-.602-7.89A.802.802 0 0 0 16 10"  fill-rule="evenodd"/></symbol><symbol id="o-cloud-check" viewBox="0 0 32 24"><path d="M24.515 22H8.419c-3.54 0-6.42-2.83-6.42-6.308 0-3.474 2.874-6.3 6.447-6.3h.012c.08.011.16.021.243.024l.94.038.095-.937C10.112 4.802 13.242 2 17.015 2c4.059 0 7.36 3.244 7.36 7.23 0 .25-.037.49-.072.731l-.165 1.222 1.013.116c2.764.317 4.849 2.602 4.849 5.317C30 19.584 27.539 22 24.515 22m1.853-12.509c.004-.085.007-.172.007-.261 0-5.089-4.2-9.23-9.36-9.23-4.49 0-8.265 3.123-9.131 7.402C3.49 7.675 0 11.29 0 15.692 0 20.273 3.777 24 8.419 24h16.096C28.643 24 32 20.688 32 16.616c0-3.398-2.36-6.305-5.632-7.125m-6.38-.096l-5.153 7.301-3.028-2.272a.951.951 0 0 0-1.335.192.95.95 0 0 0 .19 1.334l3.813 2.86a.957.957 0 0 0 1.352-.214l5.719-8.102a.956.956 0 0 0-.23-1.329.98.98 0 0 0-1.328.23"  fill-rule="evenodd"/></symbol><symbol id="o-cloud-disable" viewBox="0 0 32 32"><path d="M1.707.293A.999.999 0 1 0 .293 1.707l30 30a.997.997 0 0 0 1.414 0 .999.999 0 0 0 0-1.414l-30-30zM17.015 6c4.058 0 7.36 3.244 7.36 7.231 0 .25-.037.489-.072.73l-.165 1.222 1.012.116c2.765.317 4.85 2.602 4.85 5.317 0 1.057-.316 2.04-.854 2.873l1.435 1.436A7.27 7.27 0 0 0 32 20.616c0-3.398-2.36-6.305-5.633-7.125.005-.085.008-.172.008-.26 0-5.09-4.199-9.231-9.36-9.231a9.34 9.34 0 0 0-5.546 1.813l1.437 1.436A7.355 7.355 0 0 1 17.015 6zM8.419 26C4.88 26 2 23.17 2 19.692c0-3.252 2.518-5.936 5.77-6.266l-1.703-1.703C2.567 12.731 0 15.919 0 19.692 0 24.273 3.776 28 8.419 28h13.924l-2-2H8.419z"  fill-rule="evenodd"/></symbol><symbol id="o-cloud-download" viewBox="0 0 32 24"><path d="M26.367 9.491a4.44 4.44 0 0 0 .008-.26c0-5.09-4.199-9.23-9.36-9.23-4.49 0-8.265 3.122-9.13 7.401C3.49 7.675 0 11.29 0 15.692 0 20.273 3.776 24 8.42 24h5.742l-1.999-2H8.42C4.88 22 2 19.17 2 15.692c0-3.474 2.873-6.3 6.445-6.3h.013c.08.011.16.02.242.023l.94.038.095-.936C10.111 4.802 13.241 2 17.015 2c4.058 0 7.36 3.243 7.36 7.23 0 .25-.037.49-.072.731l-.165 1.221 1.012.117c2.765.317 4.85 2.602 4.85 5.317C30 19.584 27.54 22 24.514 22h-2.696l-2 2h4.696C28.642 24 32 20.687 32 16.616c0-3.398-2.36-6.306-5.633-7.125m-3.67 7.387a1 1 0 0 0-1.414 0L18 20l-.02-9a1 1 0 0 0-1-1c-.552 0-.98.49-.98 1v9l-3.303-3.122a.993.993 0 0 0-.707-.293.993.993 0 0 0-.707.293 1.023 1.023 0 0 0 0 1.413l5.707 5.71 5.707-5.709a1.023 1.023 0 0 0 0-1.414"  fill-rule="evenodd"/></symbol><symbol id="o-cloud-lightning" viewBox="0 0 32 32"><path d="M26.367 9.491a4.44 4.44 0 0 0 .008-.26c0-5.09-4.199-9.23-9.36-9.23-4.49 0-8.265 3.122-9.13 7.401C3.49 7.675 0 11.29 0 15.692c0 4.18 3.145 7.637 7.221 8.214L8.888 22H8.42C4.88 22 2 19.17 2 15.692c0-3.474 2.873-6.3 6.445-6.3h.013c.08.011.16.02.242.023l.94.038.095-.936C10.111 4.802 13.241 2 17.015 2c4.058 0 7.36 3.243 7.36 7.23 0 .25-.037.49-.072.731l-.165 1.221 1.012.117c2.765.317 4.85 2.602 4.85 5.317C30 19.584 27.54 22 24.514 22h-.653l-1.75 2h2.403C28.642 24 32 20.687 32 16.616c0-3.398-2.36-6.306-5.633-7.125zm-6.614 6.167a1 1 0 0 0-1.506-1.316L9.797 24h7l-5.55 6.342a1 1 0 0 0 1.506 1.316L21.204 22h-7l5.55-6.342z"  fill-rule="evenodd"/></symbol><symbol id="o-cloud-upload" viewBox="0 0 32 24"><path d="M26.367 9.491a4.44 4.44 0 0 0 .008-.26c0-5.09-4.199-9.23-9.36-9.23-4.49 0-8.265 3.122-9.13 7.401C3.49 7.675 0 11.29 0 15.692 0 20.273 3.776 24 8.42 24H13v-2H8.42C4.88 22 2 19.17 2 15.692c0-3.474 2.873-6.3 6.445-6.3h.013c.08.011.16.02.242.023l.94.038.095-.936C10.111 4.802 13.241 2 17.015 2c4.058 0 7.36 3.243 7.36 7.23 0 .25-.037.49-.072.731l-.165 1.221 1.012.117c2.765.317 4.85 2.602 4.85 5.317C30 19.584 27.54 22 24.514 22H19v2h5.514C28.642 24 32 20.687 32 16.616c0-3.398-2.36-6.306-5.633-7.125m-5.377 7.924a.997.997 0 0 0 .707-.293 1.023 1.023 0 0 0 0-1.413L15.99 10l-5.707 5.708a1.023 1.023 0 0 0 0 1.414 1 1 0 0 0 1.414 0L15 14v9a1 1 0 0 0 2 0v-9l3.283 3.122c.19.188.44.293.707.293"  fill-rule="evenodd"/></symbol><symbol id="o-credit-card" viewBox="0 0 32 24"><path d="M30 5H2V4c0-1.103.897-2 2-2h24c1.103 0 2 .897 2 2v1zm0 5H2V6h28v4zm0 10c0 1.103-.897 2-2 2H4c-1.103 0-2-.897-2-2v-9h28v9zM28 0H4C1.794 0 0 1.794 0 4v16c0 2.206 1.794 4 4 4h24c2.206 0 4-1.794 4-4V4c0-2.206-1.794-4-4-4z"  fill-rule="evenodd"/></symbol><symbol id="o-database" viewBox="0 0 26 32"><path d="M13 9C6.933 9 2.015 7.433 2.014 5.5 2.014 3.567 6.933 2 13 2c6.067 0 10.986 1.567 10.986 3.5S19.067 9 13 9zm10.986 3.5c0 1.933-4.919 3.5-10.986 3.5-6.067 0-10.985-1.567-10.986-3.5V7.49C4.031 9.143 8.534 10 13 10c4.466 0 8.969-.857 10.986-2.51v5.01zm0 7c0 1.933-4.919 3.5-10.986 3.5-6.067 0-10.985-1.567-10.986-3.5v-5.01C4.031 16.143 8.534 17 13 17c4.466 0 8.969-.857 10.986-2.51v5.01zm0 7c0 1.933-4.919 3.5-10.986 3.5-6.067 0-10.986-1.567-10.986-3.5v-5.01C4.031 23.143 8.534 24 13 24c4.466 0 8.969-.857 10.986-2.51v5.01zM13 0C7.003 0 0 1.44 0 5.5v21C0 30.56 7.003 32 13 32s13-1.44 13-5.5v-21C26 1.44 18.997 0 13 0z"  fill-rule="evenodd"/></symbol><symbol id="o-flag" viewBox="0 0 28 32"><path d="M12 20c-1.103 0-2-.897-2-2h7V8h2l5.816.001-2.462 3.173c-1.25 1.611-1.25 4.041 0 5.652L24.816 20H12zM2 16V4h11c1.103 0 2 .897 2 2v10H2zm21.934-.4c-.684-.881-.684-2.319 0-3.2l3.725-4.8c.681-.881.31-1.6-.829-1.6H17c0-2.2-1.8-4-4-4H2V1a1 1 0 0 0-2 0v30a1 1 0 0 0 2 0V18h6c0 2.2 1.8 4 4 4h14.83c1.139 0 1.51-.719.829-1.6l-3.725-4.8z"  fill-rule="evenodd"/></symbol><symbol id="o-flame" viewBox="0 0 24 32"><path d="M15.858 29.243c1.212-1.262 1.955-3.023 1.955-4.68 0-3.46-4.147-9.868-4.977-11.117l-.834-1.25-.831 1.25c-.832 1.248-4.98 7.653-4.98 11.117 0 1.657.744 3.418 1.956 4.68-3.609-1.479-6.145-4.97-6.145-9.043 0-2.662 1.012-4.929 2.858-7C10.175 7.234 7.716 2 7.716 2 18.49 5.441 22.002 14.787 22.002 20.2c0 4.073-2.536 7.564-6.144 9.043M12.002 30c-2.709 0-4.81-2.923-4.81-5.437 0-2.495 2.709-7.406 4.81-10.563 2.101 3.157 4.811 8.07 4.811 10.563 0 2.514-2.101 5.437-4.81 5.437M8.324.095A2 2 0 0 0 5.897 2.83c.093.212 1.747 4.238-2.53 9.04C1.102 14.41.001 17.133.001 20.2c0 6.506 5.383 11.8 12 11.8 6.618 0 12-5.294 12-11.8 0-5.222-3.276-16.144-15.677-20.105"  fill-rule="evenodd"/></symbol><symbol id="o-heart" viewBox="0 0 32 28"><path d="M17.008 25.75c-.497.311-1.555.303-2.011.028C14.867 25.695 2 17.368 2 10.011 2 6.382 5.07 2 8.879 2c2.657 0 5.102 1.486 6.228 3.786.336.685 1.46.685 1.797 0C18.029 3.486 20.476 2 23.134 2c3.805 0 6.867 4.382 6.867 8.011 0 7.347-12.872 15.662-12.993 15.739M23.135 0c-2.828 0-5.475 1.319-7.13 3.463C14.35 1.319 11.705 0 8.879 0 3.88 0 .002 5.381 0 10.011 0 18.45 13.35 27.098 13.94 27.476c.558.338 1.28.524 2.034.524.776 0 1.519-.196 2.1-.559.569-.363 13.926-8.99 13.926-17.43C32 5.381 28.128 0 23.135 0"  fill-rule="evenodd"/></symbol><symbol id="o-mail" viewBox="0 0 32 24"><path d="M29.999 5.066l-14 9.333-14-9.332V4c0-1.1.901-2 2.001-2h23.999c1.1 0 2 .9 2 2v1.066zm0 14.934c0 1.1-.9 2-2 2H4c-1.1 0-2.001-.9-2.001-2V6.269l14 9.332 14-9.333V20zm-2-20H4C1.795 0 0 1.795 0 4v16c0 2.206 1.795 4 4 4h23.999c2.206 0 4-1.794 4-4V4c0-2.205-1.794-4-4-4z"  fill-rule="evenodd"/></symbol><symbol id="o-map" viewBox="0 0 32 32"><path d="M30 28.832l-8-3.81V2.454l8 3.808v22.57zm-9-3.818l-9 4.5V6.986l9-4.5v22.528zM11 29.6l-9-3.913V3.051l9 3.913V29.6zM31.097 4.387L22.403.18c-.242-.117-.558-.175-.875-.175-.334 0-.67.065-.922.192L12.394 4.37c-.264.133-.622.202-.975.202a2.13 2.13 0 0 1-.836-.154L.917.148A.83.83 0 0 0 .58.073C.241.072 0 .332 0 .76v25.4c0 .56.413 1.198.917 1.422l9.666 4.27c.233.102.533.153.836.153.353 0 .711-.068.975-.202l8.212-4.173c.252-.128.588-.192.922-.192.317 0 .633.059.875.175l8.694 4.207c.126.06.245.09.354.09.322 0 .549-.251.549-.67V5.84c0-.56-.406-1.213-.903-1.453z"  fill-rule="evenodd"/></symbol><symbol id="o-megaphone" viewBox="0 0 32 29"><path d="M30 26L6 19.76l-1-.26v-11l1-.26L30 2v24zm-10.679.238a1 1 0 0 1-1.209.733l-5.828-1.429a1.002 1.002 0 0 1-.733-1.21l.245-.999 7.744 2.014-.219.891zM4 20.5c0 .55-.45 1-1 1s-1-.45-1-1v-13c0-.55.45-1 1-1s1 .45 1 1v13zM31.223.418a1.998 1.998 0 0 0-1.726-.354L5.717 6.247A2.997 2.997 0 0 0 3 4.5c-1.654 0-3 1.346-3 3v13c0 1.654 1.346 3 3 3a2.997 2.997 0 0 0 2.717-1.747L9.86 22.83l-.251 1.026a3.003 3.003 0 0 0 2.199 3.628l5.827 1.429a3.004 3.004 0 0 0 3.629-2.199l.212-.864 8.021 2.086a2.005 2.005 0 0 0 1.726-.354A2 2 0 0 0 32 26V2a2 2 0 0 0-.777-1.582z"  fill-rule="evenodd"/></symbol><symbol id="o-money" viewBox="0 0 32 26"><path d="M30 21.19c0 .191-.07.248-.118.251-.107 0-.246-.031-.387-.086-1.519-.605-3.1-.899-4.834-.899-3.037 0-6.044.923-8.952 1.816-2.896.888-5.631 1.727-8.368 1.727-1.476 0-2.816-.247-4.1-.758C2.638 23.003 2 21.949 2 21.19V4.808c0-.186.041-.251.116-.251h.002c.107 0 .245.031.387.088 1.52.604 3.102.898 4.836.898 3.038 0 6.046-.923 8.955-1.816C19.19 2.838 21.926 2 24.662 2c1.475 0 2.814.247 4.098.758.602.236 1.24 1.29 1.24 2.05V21.19zM29.495.898C27.976.293 26.395 0 24.662 0c-3.037 0-6.044.922-8.953 1.815-2.896.889-5.631 1.728-8.368 1.728-1.476 0-2.816-.248-4.1-.758a3.076 3.076 0 0 0-1.123-.228C.871 2.557 0 3.483 0 4.808V21.19c0 1.412 1.008 3.321 2.505 3.911 1.52.604 3.102.898 4.836.898 3.038 0 6.046-.923 8.955-1.816 2.894-.888 5.629-1.727 8.365-1.727 1.476 0 2.815.248 4.1.759.384.15.76.226 1.121.226.606 0 1.151-.223 1.533-.628.267-.283.585-.794.585-1.623V4.808c0-1.414-1.009-3.324-2.505-3.91zM16.653 12.527c-1.719-.449-2.618-.736-2.618-1.876 0-.741.568-1.457 1.836-1.457.776 0 1.553.249 2.445.785.416.247.895-.039.895-.48a.573.573 0 0 0-.263-.497 5.313 5.313 0 0 0-1.877-.743l-.403-.08V7.058c0-.379-.3-.687-.668-.687a.679.679 0 0 0-.668.687v1.105l-.387.09c-1.37.319-2.187 1.283-2.187 2.579 0 1.716.907 2.224 3.079 2.788 1.675.438 2.472.823 2.472 1.833 0 .722-.525 1.531-2.004 1.531-1.046 0-2.016-.345-2.964-1.055a.58.58 0 0 0-.353-.113.567.567 0 0 0-.57.576.59.59 0 0 0 .222.473 6.065 6.065 0 0 0 2.299 1.016l.393.087v.972c0 .381.3.69.668.69a.68.68 0 0 0 .668-.69v-.898l.42-.068c1.585-.257 2.494-1.247 2.494-2.718 0-1.449-.767-2.155-2.929-2.729z"  fill-rule="evenodd"/></symbol><symbol id="o-museum" viewBox="0 0 32 32"><path d="M2 10V8l14-6 14 6v2H2zm21 1h4v13h-4V11zm-6 0h4v13h-4V11zm-6 0h4v13h-4V11zm-6 0h4v13H5V11zm22 14l1 1H4l1-1h22zm3 3H2l1-1h26l1 1zm0 2H2v-1h28v1zm-1-18h1a2 2 0 0 0 2-2V8a2 2 0 0 0-1.212-1.838l-14-6a2 2 0 0 0-1.576 0l-14 6A2 2 0 0 0 0 8v2a2 2 0 0 0 2 2h1v12.172L.586 26.586A2 2 0 0 0 0 28v2a2 2 0 0 0 2 2h28a2 2 0 0 0 2-2v-2a2 2 0 0 0-.586-1.414L29 24.172V12z"  fill-rule="evenodd"/></symbol><symbol id="o-poop" viewBox="0 0 32 30"><path d="M26 28H6c-2.206 0-4-1.794-4-4s1.794-4 4-4h20c2.206 0 4 1.794 4 4s-1.794 4-4 4M8 13h16c1.654 0 3 1.346 3 3s-1.346 3-3 3H8c-1.654 0-3-1.346-3-3s1.346-3 3-3m1.447-5.394c.922-2.105 3.085-3.613 4.831-4.539-.372 1.096-.352 2.024.056 2.805.843 1.616 2.906 1.666 3.167 1.666h.002c.082-.002.163-.002.243-.002 2.414 0 4.273.799 4.971 2.138.381.729.374 1.555-.006 2.326H9.45c-.604-1.578-.604-3.021-.003-4.394M28.319 18.49A4.903 4.903 0 0 0 29 16a5.01 5.01 0 0 0-4.015-4.903 4.497 4.497 0 0 0-.835-2.901c-1.218-1.715-3.492-2.66-6.404-2.66l-.284.003c-.255-.004-1.113-.121-1.357-.596-.111-.217-.352-1.101 1.231-3.371A.999.999 0 1 0 16.212.047c-.252.081-6.193 2.018-8.393 6.345a7.273 7.273 0 0 0-.689 4.684A5.008 5.008 0 0 0 3 16c0 .883.239 1.739.681 2.49A5.971 5.971 0 0 0 0 24c0 3.308 2.692 6 6 6h20c3.308 0 6-2.692 6-6 0-2.461-1.499-4.6-3.681-5.51"  fill-rule="evenodd"/></symbol><symbol id="o-ruler" viewBox="0 0 32 32"><path d="M7.79 29.96L2.04 24.206l2.263-2.262 3.23 3.23a.5.5 0 0 0 .707-.707l-3.23-3.23 3.537-3.534 1.864 1.864a.5.5 0 0 0 .707-.707l-1.864-1.864 3.536-3.535 2.893 2.893a.5.5 0 0 0 .707-.707l-2.892-2.893 3.532-3.53 1.816 1.816a.5.5 0 0 0 .708-.707l-1.817-1.817 3.54-3.538 3.226 3.226a.5.5 0 0 0 .707-.708l-3.225-3.225 2.229-2.228 5.748 5.748L7.79 29.96zM31.495 6.495l-5.99-5.99A1.757 1.757 0 0 0 24.25 0c-.511 0-1.036.204-1.44.606L.608 22.811c-.768.768-.813 1.98-.1 2.692l5.99 5.99c.339.34.79.507 1.253.507.51 0 1.036-.204 1.439-.607L31.393 9.188c.768-.768.813-1.979.1-2.692z"  fill-rule="evenodd"/></symbol><symbol id="o-scissors" viewBox="0 0 32 28"><path d="M13 14.982c.552 0 1-.44 1-.982a.992.992 0 0 0-1-.983c-.552 0-1 .44-1 .983 0 .542.448.982 1 .982zm-3.022 5.586c-.177.656-.707 1.293-1.422 1.702a3.256 3.256 0 0 1-1.61.451c-.246 0-1.076-.046-1.425-.63-.198-.334-.157-.717-.086-.982.175-.655.705-1.292 1.422-1.7a3.25 3.25 0 0 1 1.607-.45c.246 0 1.08.044 1.425.627.202.334.158.718.089.982zm-1.514-2.593c-.714 0-1.444.202-2.11.584-.954.544-1.642 1.383-1.886 2.301-.171.631-.106 1.23.189 1.725.619 1.038 1.909 1.118 2.289 1.118.717 0 1.447-.202 2.114-.584.95-.544 1.637-1.382 1.885-2.299.168-.649.1-1.246-.195-1.735-.61-1.029-1.904-1.11-2.286-1.11zm15.444 3.641a3.35 3.35 0 0 1-.908.113c-.755 0-1.589-.195-2.138-.535l-6.966-4.318 4.906-2.33 11.201 5.322-6.095 1.748zm-10.563-.708c-.184 1.135-.764 2.252-1.683 3.161-.405.4-.874.76-1.403 1.062a6.76 6.76 0 0 1-2.48.85 6.333 6.333 0 0 1-.833.054 5.532 5.532 0 0 1-2.517-.582 4.58 4.58 0 0 1-1.027-.71 4.282 4.282 0 0 1-.793-.978c-.53-.89-.701-1.9-.559-2.9.071-.5.22-.999.442-1.478.516-1.118 1.428-2.135 2.66-2.842 0 0 16.084-9.932 16.299-10.008A4.76 4.76 0 0 1 23 6.27c.327 0 .64.037.908.114l6.095 1.75-18.21 8.65h.001-.001c.39.318.746.681 1.012 1.128a4.34 4.34 0 0 1 .603 2.4 4.82 4.82 0 0 1-.063.596zm-8.193-9.454C2.335 9.84 1.197 6.607 2.609 4.236c.875-1.478 2.532-2.272 4.337-2.272 1.101 0 2.25.294 3.313.904 2.82 1.615 3.958 4.85 2.546 7.22-.266.446-.98 1.143-.966 1.15L8.32 13.418l-3.168-1.965zM30.874 18.1L22.247 14l8.626-4.098a1.96 1.96 0 0 0 1.123-1.932 1.974 1.974 0 0 0-1.433-1.723l-6.094-1.749A5.323 5.323 0 0 0 23 4.305c-1.159 0-2.358.313-3.205.838l-4.384 2.72a6.814 6.814 0 0 0-.235-1.773c-.538-2.01-1.963-3.805-3.91-4.92A8.72 8.72 0 0 0 6.946 0C4.352 0 2.085 1.214.88 3.248-.1 4.894-.27 6.858.405 8.771c.632 1.796 1.948 3.344 3.707 4.362L5.51 14l-1.399.867c-1.758 1.02-3.074 2.567-3.706 4.362-.675 1.914-.505 3.877.477 5.527C2.086 26.786 4.353 28 6.946 28a8.697 8.697 0 0 0 4.323-1.173c1.944-1.113 3.369-2.906 3.906-4.916a6.786 6.786 0 0 0 .236-1.773l4.384 2.718c.848.525 2.046.838 3.205.838.53 0 1.024-.065 1.469-.193l6.094-1.747a1.975 1.975 0 0 0 1.433-1.723 1.961 1.961 0 0 0-1.122-1.932zM5.435 6.891c-.071-.264-.112-.648.086-.98.349-.585 1.179-.63 1.425-.63.541 0 1.098.154 1.61.45.715.41 1.245 1.044 1.422 1.7.069.264.113.65-.089.983-.345.582-1.179.627-1.425.627-.54 0-1.094-.154-1.607-.45-.717-.409-1.247-1.046-1.422-1.7zm5.319 2.017c.291-.48.36-1.078.193-1.72-.25-.924-.937-1.76-1.887-2.306a4.25 4.25 0 0 0-2.114-.584c-.38 0-1.67.08-2.288 1.115-.292.49-.359 1.105-.189 1.731.243.913.931 1.752 1.886 2.297.661.38 1.391.583 2.109.583.382 0 1.676-.08 2.29-1.116z"  fill-rule="evenodd"/></symbol><symbol id="o-shirt" viewBox="0 0 32 27"><path d="M27.695 10.723l-3.829-1.35v15.413h-16V9.373l-4 1.413-1.865-5.744L10.119 2c1.238 1.563 3.397 2.536 5.747 2.536S20.375 3.563 21.613 2l8.118 3.042-2.036 5.681zm2.738-7.554L22.315.127a2.001 2.001 0 0 0-2.27.631c-.869 1.097-2.47 1.778-4.179 1.778s-3.31-.681-4.18-1.778A1.998 1.998 0 0 0 9.417.127L1.299 3.169A2.001 2.001 0 0 0 .098 5.66l1.866 5.744a1.998 1.998 0 0 0 2.568 1.268l1.334-.471v14.585h20V12.199l1.164.41a2.001 2.001 0 0 0 2.548-1.211l2.036-5.681a2 2 0 0 0-1.181-2.548z"  fill-rule="evenodd"/></symbol><symbol id="o-shirts" viewBox="1017 636 35 31"><path d="M1049.837 641.745l-2.051-.724v8.258h-8.572v-8.258l-2.143.757-.999-3.077 4.35-1.63c.662.838 1.82 1.36 3.078 1.36 1.259 0 2.416-.522 3.079-1.36l4.35 1.63-1.092 3.044zm1.467-4.047l-4.349-1.63a1.072 1.072 0 0 0-1.216.338c-.466.588-1.323.953-2.239.953-.916 0-1.773-.365-2.24-.953a1.07 1.07 0 0 0-1.215-.338l-4.35 1.63c-.536.201-.82.789-.642 1.334l1 3.078a1.07 1.07 0 0 0 1.375.679l.715-.252v7.813h10.714v-7.815l.624.22a1.072 1.072 0 0 0 1.365-.649l1.09-3.043a1.072 1.072 0 0 0-.632-1.365zM1031.837 641.745l-2.051-.724v8.258h-8.572v-8.258l-2.143.757-.999-3.077 4.35-1.63c.662.838 1.82 1.36 3.078 1.36 1.259 0 2.416-.522 3.079-1.36l4.35 1.63-1.092 3.044zm1.467-4.047l-4.349-1.63a1.072 1.072 0 0 0-1.216.338c-.466.588-1.323.953-2.239.953-.916 0-1.773-.365-2.24-.953a1.07 1.07 0 0 0-1.215-.338l-4.35 1.63c-.536.201-.82.789-.642 1.334l1 3.078a1.07 1.07 0 0 0 1.375.679l.715-.252v7.813h10.714v-7.815l.624.22a1.072 1.072 0 0 0 1.365-.649l1.09-3.043a1.072 1.072 0 0 0-.632-1.365zM1049.837 657.745l-2.051-.724v8.258h-8.572v-8.258l-2.143.757-.999-3.077 4.35-1.63c.662.838 1.82 1.36 3.078 1.36 1.259 0 2.416-.522 3.079-1.36l4.35 1.63-1.092 3.044zm1.467-4.047l-4.349-1.63a1.072 1.072 0 0 0-1.216.338c-.466.588-1.323.953-2.239.953-.916 0-1.773-.365-2.24-.953a1.07 1.07 0 0 0-1.215-.338l-4.35 1.63c-.536.201-.82.789-.642 1.334l1 3.078a1.07 1.07 0 0 0 1.375.679l.715-.252v7.813h10.714v-7.815l.624.22a1.072 1.072 0 0 0 1.365-.649l1.09-3.043a1.072 1.072 0 0 0-.632-1.365zM1031.837 657.745l-2.051-.724v8.258h-8.572v-8.258l-2.143.757-.999-3.077 4.35-1.63c.662.838 1.82 1.36 3.078 1.36 1.259 0 2.416-.522 3.079-1.36l4.35 1.63-1.092 3.044zm1.467-4.047l-4.349-1.63a1.072 1.072 0 0 0-1.216.338c-.466.588-1.323.953-2.239.953-.916 0-1.773-.365-2.24-.953a1.07 1.07 0 0 0-1.215-.338l-4.35 1.63c-.536.201-.82.789-.642 1.334l1 3.078a1.07 1.07 0 0 0 1.375.679l.715-.252v7.813h10.714v-7.815l.624.22a1.072 1.072 0 0 0 1.365-.649l1.09-3.043a1.072 1.072 0 0 0-.632-1.365z" fill-rule="evenodd"/></symbol><symbol id="o-shop" viewBox="0 0 32 32"><path d="M26.504 15a3.499 3.499 0 0 1-3.5-3.5 3.501 3.501 0 0 1-7.001 0c0 1.933-1.57 3.5-3.5 3.5a3.499 3.499 0 0 1-3.5-3.5 3.501 3.501 0 0 1-7.001 0L2 9h28v2.5a3.5 3.5 0 0 1-3.497 3.5zM28 25H4v-8.214a5.476 5.476 0 0 0 5.003-1.046 5.476 5.476 0 0 0 3.5 1.26 5.472 5.472 0 0 0 3.5-1.26 5.477 5.477 0 0 0 3.5 1.26 5.476 5.476 0 0 0 3.5-1.26A5.472 5.472 0 0 0 28 16.788V25zm0 5H4v-4h24v4zM5.503 2h21L30 8H2l3.503-6zM32 7.46L27.653 0h-23.3L0 7.46.002 11.5A5.49 5.49 0 0 0 2 15.737V32h28V15.742a5.494 5.494 0 0 0 2.002-4.242L32 7.46z"  fill-rule="evenodd"/></symbol><symbol id="o-sync" viewBox="0 0 29 29"><path d="M27.082 18.115a1.503 1.503 0 0 0-1.962.808A11.476 11.476 0 0 1 14.5 26a11.469 11.469 0 0 1-9.485-5H7.5a1.5 1.5 0 0 0 0-3H0v7.5a1.5 1.5 0 0 0 3 0v-2.174A14.458 14.458 0 0 0 14.5 29a14.469 14.469 0 0 0 13.389-8.923 1.501 1.501 0 0 0-.808-1.962M.924 10.885a1.502 1.502 0 0 0 1.962-.808A11.477 11.477 0 0 1 13.505 3c3.855 0 7.37 1.906 9.485 5h-2.485a1.5 1.5 0 0 0 0 3h7.5V3.5a1.5 1.5 0 0 0-3 0v2.174A14.457 14.457 0 0 0 13.505 0 14.47 14.47 0 0 0 .115 8.923a1.502 1.502 0 0 0 .809 1.962"  fill-rule="evenodd"/></symbol><symbol id="o-truck" viewBox="0 0 32 28"><path d="M30.001 18h-1.033a6.495 6.495 0 0 0-5.468-3 6.46 6.46 0 0 0-3.5 1.031V12h9.668l.28.21c.02.03.041.073.053.106V18zm-6.5 8a4.5 4.5 0 1 1 0-9 4.5 4.5 0 0 1 0 9zm-5.47-8h-4.063A6.495 6.495 0 0 0 8.5 15a6.497 6.497 0 0 0-5.469 3h-1.03V2h17v14.82a6.585 6.585 0 0 0-.97 1.18zm-9.53 8a4.5 4.5 0 1 1 0-9 4.5 4.5 0 0 1 0 9zM20 8h3.992c.148.007.492.122.608.2l3.733 2.8H20V8zm11.2 2.65l-5.4-4.05c-.44-.33-1.25-.6-1.8-.6h-3V2c0-1.1-.9-2-2-2H2C.9 0 0 .9 0 2v16c0 1.1.9 2 2 2h.18a6.504 6.504 0 0 0-.18 1.5C2 25.084 4.915 28 8.5 28c3.583 0 6.5-2.916 6.5-6.5a6.45 6.45 0 0 0-.183-1.5h2.363a6.504 6.504 0 0 0-.18 1.5c0 3.584 2.915 6.5 6.5 6.5 3.583 0 6.5-2.916 6.5-6.5a6.45 6.45 0 0 0-.183-1.5h1.183c.55 0 1-.45 1-1v-6.75c0-.55-.36-1.27-.8-1.6z"  fill-rule="evenodd"/></symbol><symbol id="o-umbrella" viewBox="0 0 32 32"><path d="M2.142 17C3.116 10.224 8.96 5 16.001 5c7.04 0 12.883 5.224 13.857 12H2.142zM17.001 3.05V1a1 1 0 0 0-2 0v2.05C6.63 3.569 0 10.501 0 19h15v8c0 1.654-1.346 3-3 3-1.656 0-3-1.346-3-3a1 1 0 1 0-2 0c0 2.757 2.243 5 5 5 2.755 0 5-2.243 5-5v-8h15c0-8.499-6.632-15.431-15-15.95z"  fill-rule="evenodd"/></symbol><symbol id="umbrella" viewBox="0 0 32 32"><path d="M14 26a2 2 0 0 1-4 0 2 2 0 0 0-4 0c0 3.309 2.691 6 6 6s6-2.691 6-6v-6h-4v6zm4-21.863V2a2 2 0 0 0-4 0v2.137C6.695 5.035.91 10.76 0 17.999h32c-.914-7.239-6.699-12.964-14-13.862z"  fill-rule="evenodd"/></symbol></svg>