<?xml version="1.0" standalone="no"?><!DOCTYPE svg PUBLIC "-//W3C//DTD SVG 1.1//EN" "http://www.w3.org/Graphics/SVG/1.1/DTD/svg11.dtd"><svg id="assets.fw-Page%201" viewBox="0 0 50 1600" style="background-color:#ffffff00" version="1.1"	xmlns="http://www.w3.org/2000/svg" xmlns:xlink="http://www.w3.org/1999/xlink" xml:space="preserve"	x="0px" y="0px" width="50px" height="1600px">	<defs>		<!-- Library -->		<symbol id="Presentation" overflow="visible">			<g id="Layer%201">				<g>					<path d="M 0.1934 -19.7236 C 19.5879 -19.7236 36 -0.1885 36 -0.1885 L 36 0.5439 C 36 0.5439 19.5254 19.957 0.1309 19.957 C -19.2656 19.957 -35.6758 0.4219 -35.6758 0.4219 L -35.6758 -0.3105 C -35.6758 -0.3105 -19.2031 -19.7236 0.1934 -19.7236 ZM -50 -50 L -50 50 L 50 50 L 50 -50 L -50 -50 ZM 0.0693 -5.1357 C 3.0742 -5.1357 5.5098 -2.7002 5.5098 0.3037 C 5.5098 3.3076 3.0742 5.7441 0.0693 5.7441 C -2.9355 5.7441 -5.3711 3.3076 -5.3711 0.3037 C -5.3711 -2.7002 -2.9355 -5.1357 0.0693 -5.1357 ZM 0.0693 12.2588 C 6.6328 12.2588 11.9531 6.9385 11.9531 0.376 C 11.9531 -6.1865 6.6328 -11.5068 0.0693 -11.5068 C -6.4941 -11.5068 -11.8135 -6.1865 -11.8135 0.376 C -11.8135 6.9385 -6.4941 12.2588 0.0693 12.2588 Z" fill="#000000"/>				</g>			</g>		</symbol>		<symbol id="Image" overflow="visible">			<g id="Layer%2012">				<path d="M -118.6011 -126.537 C -120.1271 -126.537 -121.3643 -127.797 -121.3643 -129.3514 C -121.3643 -130.9067 -120.1271 -132.1667 -118.6011 -132.1667 C -117.0752 -132.1667 -115.8383 -130.9067 -115.8383 -129.3514 C -115.8383 -127.797 -117.0752 -126.537 -118.6011 -126.537 ZM -121.5 -117.1667 L -116.0122 -123.2423 L -112.5097 -120.9432 L -105.9716 -130.5595 L -103.9481 -126.6726 L -101.613 -127.4648 L -98.5 -117.1667 L -121.5 -117.1667 ZM -93.3333 -141.3333 L -126.6667 -141.3329 L -126.6667 -108 L -93.3333 -108 L -93.3333 -141.3333 Z" fill="#000000"/>			</g>		</symbol>		<symbol id="Spreadsheet" overflow="visible">			<g id="Layer%2013">				<path d="M -275 -191.6667 L -308.3333 -191.6662 L -308.3333 -158.3333 L -275 -158.3333 L -275 -191.6667 Z" fill="#000000"/>				<rect x="-283.1667" y="-182.5" width="3" height="15" fill="#ffffff"/>				<rect x="-288.1667" y="-170.5" width="3" height="3" fill="#ffffff"/>				<rect x="-293.1667" y="-177.5" width="3" height="10" fill="#ffffff"/>				<rect x="-298.1667" y="-179.5" width="3" height="12" fill="#ffffff"/>				<rect x="-303.1667" y="-173.5" width="3" height="6" fill="#ffffff"/>			</g>		</symbol>		<symbol id="Document" overflow="visible">			<g id="Layer%2014">				<path d="M -173.3333 -141.3333 L -206.6667 -141.3329 L -206.6667 -108 L -173.3333 -108 L -173.3333 -141.3333 Z" fill="#000000"/>				<g>					<rect x="-200" y="-116.1667" width="20" height="3" fill="#ffffff"/>					<rect x="-200" y="-121.1667" width="4" height="3" fill="#ffffff"/>					<rect x="-200" y="-126.1667" width="13.3335" height="3" fill="#ffffff"/>					<rect x="-200" y="-131.1667" width="16" height="3" fill="#ffffff"/>					<rect x="-200" y="-136.1667" width="8" height="3" fill="#ffffff"/>				</g>			</g>		</symbol>		<symbol id="Music" overflow="visible">			<g id="Layer%2015">				<g>					<rect x="-50" y="-50" width="100" height="100" fill="#000000"/>					<path d="M -19.859 12.7667 C -18.1693 12.7667 -16.5791 13.0934 -15.1586 13.6595 L -15.1586 -21.4177 L -15.0428 -21.4177 L 14.5551 -28.5645 L 20.4807 -29.9946 L 20.5 -30 L 20.5 -24.2639 L 20.4977 -24.2639 L 20.4977 10.8429 L 20.4877 10.8429 C 20.3943 15.5358 15.6736 19.3208 9.8561 19.3208 C 3.9791 19.3208 -0.7845 15.4631 -0.7845 10.7041 C -0.7845 5.9443 3.9791 2.0844 9.8561 2.0844 C 11.5453 2.0844 13.1362 2.4127 14.5551 2.9819 L 14.5551 -18.0591 L -9.2176 -12.3246 L -9.2176 21.5205 L -9.2284 21.5205 C -9.321 26.2172 -14.0422 30 -19.859 30 C -25.7361 30 -30.5 26.1423 -30.5 21.3826 C -30.5 16.6219 -25.7361 12.7667 -19.859 12.7667 Z" fill="#ffffff"/>				</g>			</g>		</symbol>		<symbol id="Video" overflow="visible">			<g id="Layer%2016">				<g>					<rect x="-50" y="-50" width="100" height="100" fill="#000000"/>					<path d="M 13.1243 -8.3589 L 13.1243 -16.1539 C 13.1243 -17.9937 11.6711 -19.5 9.8962 -19.5 L -26.7728 -19.5 C -28.5473 -19.5 -30 -17.9937 -30 -16.1539 L -30 16.1538 C -30 17.9937 -28.5473 19.5 -26.7728 19.5 L 9.8962 19.5 C 11.6711 19.5 13.1243 17.9937 13.1243 16.1538 L 13.1243 8.4589 L 13.125 8.5646 L 30 16.7657 L 30 -16.6354 L 13.1243 -8.3589 Z" fill="#ffffff"/>				</g>			</g>		</symbol>		<symbol id="Type" overflow="visible">			<g id="Layer%2017">				<path d="M 5.7842 -0.8401 L 5.7842 -4.5192 L 3.7167 -4.5192 L 1.6497 -4.5192 L 1.1516 -4.5192 L -0.4178 -4.5192 L -0.4178 -6 L -5.0504 -6 L -5.0504 -5.9944 L -6.9323 -4.0877 L -6.9323 -0.8401 L -8 -0.8401 L -8 6 L 7 6 L 7 -0.8401 L 5.7842 -0.8401 ZM 5.0355 -3.759 L 5.0355 -0.8401 L 3.7167 -0.8401 L 3.7167 -3.759 L 5.0355 -3.759 ZM 1.9003 -3.759 L 2.968 -3.759 L 2.968 -0.8401 L 1.6497 -0.8401 L 1.6497 -3.759 L 1.9003 -3.759 ZM 1.3705 3.5717 L -2.3795 3.5717 L -2.3795 1.6678 L 1.3705 1.6678 L 1.3705 3.5717 ZM -0.1672 -3.759 L 0.9009 -3.759 L 0.9009 -0.8401 L -0.4178 -0.8401 L -0.4178 -3.759 L -0.1672 -3.759 ZM -6.1836 -3.3275 L -4.3017 -3.3275 L -4.3017 -5.2398 L -1.1669 -5.2398 L -1.1669 -0.8401 L -6.1836 -0.8401 L -6.1836 -3.3275 Z" fill="#000000"/>			</g>		</symbol>		<symbol id="Viewmodehover" overflow="visible">			<g id="Layer%2018">				<g>					<rect x="4.5" y="4.5" width="3" height="3" stroke="#7c7c7c" stroke-width="1" fill="none"/>					<rect x="4.5" y="-1.5" width="3" height="3" stroke="#7c7c7c" stroke-width="1" fill="none"/>					<rect x="-1.5" y="4.5" width="3" height="3" stroke="#7c7c7c" stroke-width="1" fill="none"/>					<rect x="-1.5" y="-1.5" width="3" height="3" stroke="#7c7c7c" stroke-width="1" fill="none"/>					<rect x="4.5" y="-7.5" width="3" height="3" stroke="#7c7c7c" stroke-width="1" fill="none"/>					<rect x="-1.5" y="-7.5" width="3" height="3" stroke="#7c7c7c" stroke-width="1" fill="none"/>					<rect x="-7.5" y="4.5" width="3" height="3" stroke="#7c7c7c" stroke-width="1" fill="none"/>					<rect x="-7.5" y="-1.5" width="3" height="3" stroke="#7c7c7c" stroke-width="1" fill="none"/>					<rect x="-7.5" y="-7.5" width="3" height="3" stroke="#7c7c7c" stroke-width="1" fill="none"/>				</g>			</g>		</symbol>		<!-- End Library -->	</defs>	<g id="Icons">		<use id="Presentation2" opacity="0.102" xlink:href="#Presentation" transform="matrix(0.5, 0, 0, 0.5, 25, 649)"/>		<use id="Image2" opacity="0.102" xlink:href="#Image" transform="matrix(1.5, 0, 0, 1.5, 190, 212)"/>		<use id="Spreadsheet2" opacity="0.102" xlink:href="#Spreadsheet" transform="matrix(1.5, 0, 0, 1.5, 462.5, 537)"/>		<use id="Document2" opacity="0.102" xlink:href="#Document" transform="matrix(1.5, 0, 0, 1.5, 310, 337)"/>		<use id="Music2" opacity="0.102" xlink:href="#Music" transform="matrix(0.5, 0, 0, 0.5, 25, 399)"/>		<use id="Video2" opacity="0.102" xlink:href="#Video" transform="matrix(0.5, 0, 0, 0.5, 25, 524)"/>		<rect visibility="hidden" x="-7" y="766" width="69" height="48" fill="#b20000"/>		<use id="Type2" opacity="0.149" xlink:href="#Type" transform="matrix(1, 0, 0, 1, 8, 820)"/>		<use id="Type3" opacity="0.502" xlink:href="#Type" transform="matrix(1, 0, 0, 1, 8, 870)"/>		<use id="View%20mode%20hover" opacity="0.302" xlink:href="#Viewmodehover" transform="matrix(1, 0, 0, 1, 8, 757)"/>		<use id="View%20mode%20hover2" xlink:href="#Viewmodehover" transform="matrix(1, 0, 0, 1, 41, 757)"/>		<g>			<path id="Line" d="M 0.5 914.5 L 16.3827 914.4847 " stroke="#cccccc" stroke-width="1" fill="none"/>			<path id="Line2" d="M 0.5 916.5 L 16.3827 916.4847 " stroke="#cccccc" stroke-width="1" fill="none"/>			<path id="Line3" d="M 0.5 918.5 L 16.3827 918.4847 " stroke="#cccccc" stroke-width="1" fill="none"/>			<path id="Line4" d="M 0.5 920.5 L 16.3827 920.4847 " stroke="#cccccc" stroke-width="1" fill="none"/>			<path id="Line5" d="M 0.5 922.5 L 16.3827 922.4847 " stroke="#cccccc" stroke-width="1" fill="none"/>			<path id="Line6" d="M 0.5 924.5 L 16.3827 924.4847 " stroke="#cccccc" stroke-width="1" fill="none"/>			<path id="Line7" d="M 0.5 926.5 L 16.3827 926.4847 " stroke="#cccccc" stroke-width="1" fill="none"/>			<path id="Line8" d="M 0.5 928.5 L 16.3827 928.4847 " stroke="#cccccc" stroke-width="1" fill="none"/>			<path id="Line9" d="M 0.5 930.5 L 16.3827 930.4847 " stroke="#cccccc" stroke-width="1" fill="none"/>			<path id="Line10" d="M 0.5 914.5 L 0.5 930.5 " stroke="#cccccc" stroke-width="1" fill="none"/>			<path id="Line11" d="M 16.5 914.5 L 16.5 930.5 " stroke="#cccccc" stroke-width="1" fill="none"/>		</g>		<g>			<path id="Line12" d="M 33.5 914.5 L 49.3827 914.4847 " stroke="#7c7c7c" stroke-width="1" fill="none"/>			<path id="Line13" d="M 33.5 916.5 L 49.3827 916.4847 " stroke="#7c7c7c" stroke-width="1" fill="none"/>			<path id="Line14" d="M 33.5 918.5 L 49.3827 918.4847 " stroke="#7c7c7c" stroke-width="1" fill="none"/>			<path id="Line15" d="M 33.5 920.5 L 49.3827 920.4847 " stroke="#7c7c7c" stroke-width="1" fill="none"/>			<path id="Line16" d="M 33.5 922.5 L 49.3827 922.4847 " stroke="#7c7c7c" stroke-width="1" fill="none"/>			<path id="Line17" d="M 33.5 924.5 L 49.3827 924.4847 " stroke="#7c7c7c" stroke-width="1" fill="none"/>			<path id="Line18" d="M 33.5 926.5 L 49.3827 926.4847 " stroke="#7c7c7c" stroke-width="1" fill="none"/>			<path id="Line19" d="M 33.5 928.5 L 49.3827 928.4847 " stroke="#7c7c7c" stroke-width="1" fill="none"/>			<path id="Line20" d="M 33.5 930.5 L 49.3827 930.4847 " stroke="#7c7c7c" stroke-width="1" fill="none"/>			<path id="Line21" d="M 33.5 914.5 L 33.5 930.5 " stroke="#7c7c7c" stroke-width="1" fill="none"/>			<path id="Line22" d="M 49.5 914.5 L 49.5 930.5 " stroke="#7c7c7c" stroke-width="1" fill="none"/>		</g>		<g opacity="0.251">			<g>				<rect x="0" y="970" width="2" height="15" fill="#000000"/>				<path id="Line23" d="M 2.5 977.5 L 9.5 970.5 " stroke="#000000" stroke-width="1" fill="none"/>				<path id="Line24" d="M 2.5 977.5 L 9.5 984.5 " stroke="#000000" stroke-width="1" fill="none"/>			</g>		</g>	</g></svg>