<svg height="42" viewBox="0 0 42 42" width="42" xmlns="http://www.w3.org/2000/svg" role="presentation">
    <path d="m9.10401761 5.49054739c4.81521129 3.6169377 9.99422539 10.95061571 11.89598239 14.88597471 1.901757-3.935285 7.0807711-11.26903701 11.8959824-14.88604869 3.4743908-2.60966394 9.1040176-4.62902033 9.1040176 1.79659464 0 1.28330302-.7353697 10.78023365-1.1666831 12.32218005-1.4992077 5.3602648-6.9621655 6.7274641-11.821743 5.8999682 8.4942782 1.4463608 10.6550599 6.2374771 5.9884015 11.0285934-8.8628874 9.0992739-12.7384226-2.2830306-13.731486-5.1995745-.1820493-.5346726-.2672324-.784808-.2684894-.5721078-.001257-.2127002-.0864401.0374352-.2684894.5721078-.9930634 2.9165439-4.8685986 14.2988484-13.73148595 5.1995745-4.66665845-4.7911163-2.50595071-9.5822326 5.98840145-11.0286674-4.85957751.8274959-10.32253525-.5397034-11.821743-5.8999682-.43131338-1.5419464-1.1666831-11.038951-1.1666831-12.32218004 0-6.42554098 5.6297007-4.40625857 9.10401761-1.79644667z" fill="currentColor"/>
</svg>
