<svg class="bluesky" role="presentation" height="42" viewBox="0 0 48 42" width="48" xmlns="http://www.w3.org/2000/svg">
  <path d="m10.4045915 2.82710785c5.5030986 4.10571307 11.4219719 12.43042865 13.5954085 16.89759295 2.1734366-4.4670803 8.0923099-12.79187988 13.5954085-16.89767693 3.9707323-2.96232123 10.4045915-5.25456361 10.4045915 2.0393777 0 1.45672234-.8404225 12.23702193-1.3333521 13.98733943-1.7133803 6.084625-7.9567606 7.636581-13.5105634 6.6972613 9.7077465 1.6418149 12.1772113 7.0803794 6.8438873 12.5189438-10.1290141 10.3289055-14.5581972-2.5915481-15.6931267-5.9022197-.2080564-.6069256-.3054085-.890863-.3068451-.6494197-.0014366-.2414433-.0987887.0424941-.3068451.6494197-1.1349295 3.3106716-5.5641126 16.2311252-15.69312673 5.9022197-5.33332394-5.4385644-2.86394366-10.8771289 6.84388733-12.5190278-5.55380282.9393197-11.79718311-.6126363-13.51056339-6.6972612-.49292957-1.7503175-1.33335211-12.53070115-1.33335211-13.98733951 0-7.29385733 6.43394366-5.00169893 10.4045915-2.03920974z" fill="currentColor" />
</svg>
