<svg height="42" viewBox="0 0 42 42" width="42" xmlns="http://www.w3.org/2000/svg" role="presentation">
    <path d="m25.769 24.0584474 12.1488735 12.1486037c-1.1579472.6516696-2.4944996 1.0233963-3.9178735 1.0233963h-26c-1.42337389 0-2.75992634-.3717267-3.91787348-1.0233963l12.14787348-12.1486037 3.3557864 3.3557662c.7810486.7810485 2.0473786.7810485 2.8284272 0zm-24.57469502-15.03515941 12.20769502 12.20715941-12.20769502 12.2071594c-.75719102-1.2222685-1.19430498-2.6636672-1.19430498-4.2071594v-16c0-1.5434922.43711396-2.984891 1.19430498-4.20715941zm40.80569502 4.20715941v16c0 1.5434922-.437114 2.9848909-1.194305 4.2071594l-12.207695-12.2071594 12.207695-12.20715941c.757191 1.22226841 1.194305 2.66366721 1.194305 4.20715941zm-8-8.00000002c1.4233739 0 2.7599263.37172672 3.9178735 1.02339628l-15.5036599 15.50351564c-.3288626.3288626-.7437584.5192567-1.1722384.5711824l-.1611753.0129814h-.1615998c-.4845871-.0194722-.9634433-.2141934-1.3334137-.5841638l-15.50365988-15.50351564c1.15794714-.65166956 2.49449959-1.02339628 3.91787348-1.02339628z" fill="currentColor"/>
</svg>
