<svg height="42" viewBox="0 0 42 42" width="42" xmlns="http://www.w3.org/2000/svg" role="presentation">
    <path d="m26.269 23.5584474 11.9105003 11.9099176c-.9540643.487264-2.0346887.7620824-3.1795003.7620824h-28c-1.14481164 0-2.225436-.2748184-3.17950025-.7620824l11.90950025-11.9099176 3.8557864 3.8557662c.7810486.7810485 2.0473786.7810485 2.8284272 0zm-25.34558996-14.8053161 11.97858996 11.9773161-11.97858996 11.9773161c-.58751256-1.0244641-.92341004-2.2116636-.92341004-3.4773161v-17c0-1.2656526.33589748-2.45285207.92341004-3.4773161zm41.07658996 3.4773161v17c0 1.2656525-.3358975 2.452852-.92341 3.4773161l-11.97859-11.9773161 11.97859-11.9773161c.5875125 1.02446403.92341 2.2116635.92341 3.4773161zm-7-7.00000002c1.1448116 0 2.225436.27481841 3.1795003.76208238l-15.7652867 15.76482954c-.3288626.3288626-.7437584.5192567-1.1722384.5711824l-.1611753.0129814h-.1615998c-.4845871-.0194722-.9634433-.2141934-1.3334137-.5841638l-15.76528665-15.76482954c.95406425-.48726397 2.03468861-.76208238 3.17950025-.76208238z" fill="currentColor"/>
</svg>
