<svg height="42" viewBox="0 0 42 42" width="42" xmlns="http://www.w3.org/2000/svg" role="presentation">
    <path d="m21.0429592 1c-11.66184445 0-21.0429592 9.3964387-21.0429592 21.0138538 0 9.3110165 6.02456911 17.1698562 14.3729006 19.9460767 1.0327833.2135554 1.420077-.4698219 1.420077-1.025066 0-.469822-.0430326-2.1782654-.0430326-3.8867088-5.85243861 1.2386215-7.05735243-2.519954-7.05735243-2.519954-.946718-2.4345318-2.32376237-3.0751981-2.32376237-3.0751981-1.89343601-1.2813325.12909791-1.2813325.12909791-1.2813325 2.10859919.1281332 3.22744774 2.1782653 3.22744774 2.1782653 1.89343605 3.2033314 4.90572055 2.3063986 6.11063435 1.7511545.1721306-1.3667548.7315548-2.3063986 1.3340118-2.8189316-4.6475248-.469822-9.55324534-2.3063986-9.55324534-10.3787937 0-2.3063986.81762009-4.1856863 2.15163182-5.6378632-.21516318-.512533-.946718-2.6907984.21516319-5.55244106 0 0 1.76433813-.55524411 5.76637333 2.17826536 1.6782728-.469822 3.4856435-.6833774 5.2499816-.6833774s3.5717088.2562665 5.2499817.6833774c4.0020352-2.73350947 5.7663732-2.17826536 5.7663732-2.17826536 1.1618812 2.90435376.4303264 5.03990806.2151632 5.55244106 1.3770444 1.4521769 2.1516319 3.3314646 2.1516319 5.6378632 0 8.0723951-4.9057206 9.8662606-9.596278 10.3787937.7745875.6406662 1.420077 1.9219988 1.420077 3.8867087 0 2.8189316-.0430326 5.0826191-.0430326 5.7659965 0 .5552441.3872937 1.2386214 1.420077 1.025066 8.3913641-2.7762205 14.41608-10.6350602 14.41608-19.9460767.0428858-11.6174151-9.3812615-21.0138538-20.9570408-21.0138538z" fill="currentColor"/>
</svg>
