<svg height="42" viewBox="0 0 42 42" width="42" xmlns="http://www.w3.org/2000/svg">
    <path d="m8.13138282 3.71982629 2.97847168 3.00633331-.7131552.71982629c-.89493985.9315399-1.48923583 1.76428011-1.78288797 2.49822064-.29365213.73394057-.30763557 1.46082397-.0419503 2.18065017.26568526.7198263.83201438 1.5172809 1.69898737 2.3923639l4.1950305 4.276615c1.1746085 1.1573677 1.8108548 2.3147355 1.9087389 3.4721032.097884 1.1573678-.3425942 2.3288498-1.3214346 3.514446l.4614533.46577c2.3212502-1.9477653 4.6844507-1.7078232 7.0896016.7198263l4.6984341 4.7423849c1.2585092 1.2702817 2.4051508 1.8983654 3.439925 1.8842512 1.0347742-.0141143 2.2093828-.6845407 3.5238257-2.0112794l.7551054-.762169 2.9784717 3.0486761-1.3843601 1.4396525c-2.3212502 2.342964-4.4956743 3.570903-6.5232724 3.6838169s-4.0901547-.8750829-6.18767-2.9639906l-3.985279-4.0649014c-.8390061-.8468544-1.5871198-1.4325954-2.2443413-1.757223-.6572214-.3246275-1.2934677-.3881416-1.9087389-.1905422-.6152711.1975994-1.2724925.6492551-1.9716643 1.3549671l-.0419503-.0423427c-.5313705.4516557-1.1536334.6704264-1.8667886.6563122s-1.3214346-.2752277-1.8248382-.7833404c-.50340371-.5081126-.76209725-1.1220821-.77608069-1.8419084-.01398343-.7198263.20275981-1.34791.65022973-1.8842512l.18738346-.1950081c.9037341-.9709054 1.309718-1.8797853 1.2179518-2.7266397-.0978841-.9033115-.7760807-2.0042222-2.03458984-3.3027324l-3.43992501-3.4721033c-2.04158151-2.0606791-2.99245509-4.0931298-2.85262074-6.097352.13983435-2.00422225 1.37037663-4.17781535 3.69162684-6.52077934zm14.51480558 12.06767601c.7271386.0282284 1.3563932.3034561 1.8877637.8256831.5313705.5222269.7970558 1.1573677.7970558 1.9054225 0 .7480547-.2656853 1.3902527-.7970558 1.9265939-.5313705.5363411-1.1676168.8045117-1.9087389.8045117-.741122 0-1.3773683-.2681706-1.9087389-.8045117-.5313705-.5363412-.7970558-1.1785392-.7970558-1.9265939 0-.7480548.2656853-1.3902528.7970558-1.9265939.5313706-.5363412 1.1746086-.8045117 1.9297141-.8045117zm6.3764463-6.39375117c.7271386.02822848 1.3494015.30345618 1.8667886.82568307.5173871.5222269.7760806 1.1573678.7760806 1.9054225 0 .7480548-.2656852 1.3902528-.7970558 1.9265939-.5313705.5363412-1.1676168.8045118-1.9087388.8045118-.7411221 0-1.3703767-.2681706-1.8877638-.8045118-.5173871-.5363411-.7760806-1.1785391-.7760806-1.9265939 0-.7480547.2586935-1.3902527.7760806-1.9265938.5173871-.53634119 1.1676169-.80451177 1.9506892-.80451177zm6.3344961-6.39375113c.7271386 0 1.3494015.26817058 1.8667886.80451173.5173871.53634116.7760806 1.17853912.7760806 1.92659389 0 .74805476-.2656853 1.3831956-.7970558 1.90542252-.5313705.52222691-1.1676168.78334037-1.9087389.78334037-.741122 0-1.3703766-.26111346-1.8877637-.78334037-.5173871-.52222692-.7760806-1.15736776-.7760806-1.90542252 0-.74805477.2656852-1.39025273.7970558-1.92659389.5313705-.53634115 1.1746085-.80451173 1.929714-.80451173z" fill="currentColor"/>
</svg>
