<svg height="42" viewBox="0 0 42 42" width="42" xmlns="http://www.w3.org/2000/svg" role="presentation">
    <path d="m35.7777778 2c2.3318689 0 4.2222222 1.89035328 4.2222222 4.22222222v29.55555558c0 2.3318689-1.8903533 4.2222222-4.2222222 4.2222222h-29.55555558c-2.33186894 0-4.22222222-1.8903533-4.22222222-4.2222222v-29.55555558c0-2.33186894 1.89035328-4.22222222 4.22222222-4.22222222zm-7.7147642 13.8669469c-3.8826027 0-5.5165835 3.0234875-5.5165835 3.0234875v-2.4645085h-5.4343931v18.2962963h5.4343931v-9.6044393c0-2.5734469 1.1846137-4.1048353 3.4519965-4.1048353 2.0842412 0 3.0848199 1.4715616 3.0848199 4.1048353v9.6044393h5.6389757v-11.5840825c0-4.9013358-2.7783926-7.2711928-6.6592086-7.2711928zm-14.5736075.558979h-5.66667027v18.2962963h5.66667027zm-2.860583-9.14814812c-1.85107064 0-3.35104532 1.51174376-3.35104532 3.37619802 0 1.8644541 1.49997468 3.3761979 3.35104532 3.3761979 1.8510706 0 3.3501519-1.5117438 3.3501519-3.3761979 0-1.86445426-1.4990813-3.37619802-3.3501519-3.37619802z" fill="currentColor"/>
</svg>
