<svg class="linkedin" width="42" height="42" viewBox="0 0 42 42" role="presentation" xmlns="http://www.w3.org/2000/svg" xmlns:xlink="http://www.w3.org/1999/xlink" version="1.1">
    <path d="M37.3333333,0 C39.9106622,0 42,2.08933783 42,4.66666667 L42,37.3333333 C42,39.9106622 39.9106622,42 37.3333333,42 L4.66666667,42 C2.08933783,42 0,39.9106622 0,37.3333333 L0,4.66666667 C0,2.08933783 2.08933783,0 4.66666667,0 Z M28.8064887,15.3266255 C24.515191,15.3266255 22.7092122,18.6683748 22.7092122,18.6683748 L22.7092122,15.9444444 L16.7027778,15.9444444 L16.7027778,36.1666667 L22.7092122,36.1666667 L22.7092122,25.5512337 C22.7092122,22.7068977 24.0185222,21.0143105 26.5245768,21.0143105 C28.8282118,21.0143105 29.9341146,22.6407733 29.9341146,25.5512337 L29.9341146,36.1666667 L36.1666667,36.1666667 L36.1666667,23.363207 C36.1666667,17.9459411 33.0958116,15.3266255 28.8064887,15.3266255 Z M12.6988173,15.9444444 L6.43565539,15.9444444 L6.43565539,36.1666667 L12.6988173,36.1666667 L12.6988173,15.9444444 Z M9.53712025,5.83333333 C7.49120009,5.83333333 5.83333333,7.50420802 5.83333333,9.56492058 C5.83333333,11.6256331 7.49120009,13.2965078 9.53712025,13.2965078 C11.5830404,13.2965078 13.2399197,11.6256331 13.2399197,9.56492058 C13.2399197,7.50420802 11.5830404,5.83333333 9.53712025,5.83333333 Z" fill="currentColor"></path>
</svg>
