<svg class="tempertemper" width="270" height="61" viewBox="0 0 270 61" version="1.1" xmlns="http://www.w3.org/2000/svg" xmlns:xlink="http://www.w3.org/1999/xlink" role="presentation">
    <style>
      @keyframes blink {
        89.9% {opacity: 1;}
        90% {opacity: 0;}
        99.9% {opacity: 0;}
      }
      @media screen and (prefers-reduced-motion: no-preference) {
        [id="underscore"] {
          animation: blink 2s steps(20, start) infinite;
        }
      }
    </style>
    <path d="M3.75055851,52.683691 C3.75055851,51.5924346 3.7690492,50.6705111 3.80603059,50.1436977 C3.87999335,49.3346628 4.08339096,49.0148118 4.30527926,48.7890346 C4.73056516,48.356295 5.45170213,48.0928883 6.13585771,48.0928883 C7.70756649,48.0928883 8.50266622,49.2594037 8.50266622,51.5171756 C8.50266622,53.7749474 7.4671875,55.336573 5.35924867,55.336573 C4.82301862,55.336573 4.2128258,55.2048696 3.75055851,55.0167219 L3.75055851,52.683691 Z M2.88149601,42.3167553 C2.14186835,42.3167553 2.08639628,42.3920144 2.08639628,42.5425325 L2.08639628,55.9574602 C2.08639628,56.0327193 2.10488697,56.1267931 2.14186835,56.1456079 C2.99244016,56.5407179 4.08339096,56.8041247 5.5071742,56.8041247 C8.63210106,56.8041247 10.2407912,54.7156857 10.2407912,51.3854722 C10.2407912,50.3130306 10.0373936,49.3346628 9.68607048,48.5632574 C9.09436835,47.2838534 7.98492686,46.4936332 6.50567154,46.4936332 C5.41472074,46.4936332 4.28678856,46.9640024 3.75055851,47.6037044 L3.75055851,42.5425325 C3.75055851,42.4108291 3.73206782,42.3167553 2.99244016,42.3167553 L2.88149601,42.3167553 Z M13.0143949,46.8887433 C12.9589229,46.7382252 12.7370346,46.6817809 12.0713697,46.6817809 C11.331742,46.6817809 11.1098537,46.7194104 11.2023072,46.9451876 L14.8819548,56.7288656 C14.1053457,58.8549341 13.3842088,59.5322656 12.1638231,59.5322656 C11.7940093,59.5322656 11.4981582,59.4570066 11.1653258,59.3629327 C10.9619282,59.3064884 10.9064561,59.3817475 10.7585306,59.8333019 L10.6845678,60.0590791 C10.5736237,60.3977448 10.5366423,60.548263 10.7400399,60.6611516 C11.1283444,60.868114 11.7385372,60.9998173 12.2192952,60.9998173 C13.2917553,60.9998173 14.2162899,60.6799663 14.9744082,59.8521166 C15.5476197,59.2312294 16.065359,58.2152321 16.546117,56.8417542 L20.0408577,46.9451876 C20.1148205,46.7382252 19.9114229,46.6817809 19.1902859,46.6817809 C18.6170745,46.6817809 18.4136769,46.7194104 18.3582048,46.8887433 L16.7125332,51.7053232 C16.3427194,52.8153944 15.9729056,53.9254656 15.769508,54.7909448 C15.5106383,53.7561327 15.2517686,52.928283 14.7525199,51.5736199 L13.0143949,46.8887433 Z M27.6035505,43.0693459 C26.8084508,43.0693459 26.6975066,43.1069755 26.679016,43.3515674 L26.0688231,56.4090146 C26.0688231,56.5595327 26.3276928,56.615977 26.7899601,56.615977 L26.974867,56.615977 C27.4741157,56.615977 27.7329854,56.5595327 27.7329854,56.4090146 L28.1027992,46.2302265 L31.1907447,54.0571689 C31.2462168,54.207687 31.412633,54.2641313 32.0228258,54.2641313 L32.1707513,54.2641313 C32.7624535,54.2641313 32.9473604,54.207687 33.0028324,54.0759837 L36.0537965,45.9668198 L36.386629,56.4090146 C36.386629,56.5595327 36.6454987,56.615977 37.1447473,56.615977 L37.3481449,56.615977 C37.8104122,56.615977 38.0692819,56.5595327 38.0692819,56.4090146 L37.5515426,43.3515674 C37.5515426,43.1634198 37.3666356,43.0693459 36.5900266,43.0693459 L36.4605918,43.0693459 C35.7394548,43.0693459 35.5730386,43.144605 35.4990758,43.3515674 L32.1522606,52.1192481 L28.712992,43.3515674 C28.6390293,43.144605 28.417141,43.0693459 27.696004,43.0693459 L27.6035505,43.0693459 Z M47.6104787,46.6817809 C47.055758,46.6817809 46.9633045,46.6817809 46.9448138,46.9075581 L46.8523604,47.6977782 C46.334621,47.0204467 45.4655585,46.4936332 44.356117,46.4936332 C41.9153457,46.4936332 40.103258,48.600887 40.103258,51.8182118 C40.103258,54.527538 41.360625,56.8041247 44.060266,56.8041247 C45.2621609,56.8041247 46.3161303,56.2584965 46.9078324,55.5247206 L47.0187766,56.3901998 C47.0372673,56.5595327 47.1482114,56.615977 47.7214229,56.615977 L47.7953856,56.615977 C48.3685971,56.615977 48.4610505,56.5407179 48.4610505,56.3901998 C48.4055785,55.3553877 48.3316157,54.132428 48.3316157,52.4014696 L48.3316157,49.7674024 C48.3316157,48.5632574 48.3685971,47.3591124 48.3685971,46.9075581 C48.3685971,46.7570399 48.3501064,46.6817809 47.6474601,46.6817809 L47.6104787,46.6817809 Z M46.6674535,51.96873 C46.6674535,53.6056145 46.5934907,54.132428 46.2051862,54.5651676 C45.7059375,55.1107958 44.9663098,55.2989434 44.356117,55.2989434 C42.4515758,55.2989434 41.841383,53.4927259 41.841383,51.724138 C41.841383,49.4663662 42.8398803,48.0176292 44.5410239,48.0176292 C45.4100864,48.0176292 46.2421676,48.6197017 46.6674535,49.2970333 L46.6674535,51.96873 Z M51.9003191,46.6817809 C51.1976729,46.6817809 51.1422008,46.7570399 51.1422008,46.9075581 C51.1422008,47.3779272 51.1791822,48.6949608 51.1791822,49.9743648 L51.1791822,56.3901998 C51.1791822,56.5407179 51.2346543,56.615977 51.9742819,56.615977 L52.0852261,56.615977 C52.8248537,56.615977 52.8433444,56.5219032 52.8433444,56.3901998 L52.8433444,54.2265018 C52.8433444,53.1352454 52.8618351,51.96873 52.8988165,51.4419165 C52.9357979,50.7833997 53.0837234,50.2565863 53.3425931,49.8238467 C53.8788231,48.9395527 54.544488,48.1117031 55.8573271,48.1117031 C56.042234,48.1117031 56.0607247,47.9611849 56.0607247,47.4155567 L56.0607247,47.1333353 C56.0607247,46.7005957 56.042234,46.6441514 55.8758178,46.6065218 C55.7833644,46.5877071 55.6539295,46.5688923 55.4875133,46.5688923 C54.5075066,46.5688923 53.4905186,47.2650386 52.7878723,48.8454789 L52.750891,46.9075581 C52.750891,46.7382252 52.6584375,46.6817809 51.9927726,46.6817809 L51.9003191,46.6817809 Z M58.982254,43.8971956 C58.2426263,43.8971956 58.1871543,43.9724547 58.1871543,44.1229728 L58.1871543,46.6817809 L57.0222407,46.6817809 C56.8928059,46.6817809 56.8558245,46.7758547 56.8558245,47.2650386 L56.8558245,47.4155567 C56.8558245,47.9235554 56.8928059,48.0176292 57.0222407,48.0176292 L58.1871543,48.0176292 L58.1871543,53.6996884 C58.1871543,54.9602776 58.3535705,55.6752387 58.8898005,56.1832374 C59.2965957,56.5783475 59.9067886,56.8041247 60.7388697,56.8041247 C61.4230253,56.8041247 62.218125,56.6347918 62.6803923,56.3337555 C62.8283178,56.2396817 62.8283178,56.1267931 62.7358644,55.731683 L62.6803923,55.4870911 C62.5879388,55.1296105 62.5324668,55.0543515 62.3475598,55.1107958 C61.977746,55.2236844 61.5154787,55.3553877 61.0901928,55.3553877 C60.6649069,55.3553877 60.3505652,55.2424991 60.1471676,55.0167219 C59.9067886,54.7533152 59.8513165,54.2829461 59.8513165,53.567985 L59.8513165,48.0176292 L62.1811436,48.0176292 C62.3105785,48.0176292 62.3475598,47.9235554 62.3475598,47.4155567 L62.3475598,47.2650386 C62.3475598,46.7758547 62.3105785,46.6817809 62.1811436,46.6817809 L59.8513165,46.6817809 L59.8513165,44.1229728 C59.8513165,43.9912694 59.8328258,43.8971956 59.0931981,43.8971956 L58.982254,43.8971956 Z M65.3800332,46.6817809 C64.6404056,46.6817809 64.5849335,46.7570399 64.5849335,46.9075581 L64.5849335,56.3901998 C64.5849335,56.5407179 64.6404056,56.615977 65.3800332,56.615977 L65.4909774,56.615977 C66.2306051,56.615977 66.2490957,56.5219032 66.2490957,56.3901998 L66.2490957,46.9075581 C66.2490957,46.7758547 66.2306051,46.6817809 65.4909774,46.6817809 L65.3800332,46.6817809 Z M64.2521011,43.6337889 C64.2521011,44.2923057 64.7698404,44.8191191 65.4170146,44.8191191 C66.0641888,44.8191191 66.5819282,44.2923057 66.5819282,43.6337889 C66.5819282,42.9752721 66.0641888,42.4484587 65.4170146,42.4484587 C64.7698404,42.4484587 64.2521011,42.9752721 64.2521011,43.6337889 Z M69.7993085,46.6817809 C69.0966622,46.6817809 69.0411902,46.7570399 69.0411902,46.9075581 C69.0411902,47.3779272 69.0781715,48.6949608 69.0781715,49.9743648 L69.0781715,56.3901998 C69.0781715,56.5407179 69.1336436,56.615977 69.8732713,56.615977 L69.9842154,56.615977 C70.7238431,56.615977 70.7423338,56.5219032 70.7423338,56.3901998 L70.7423338,52.683691 C70.7423338,51.5924346 70.7608245,50.6328816 70.7978059,50.1060682 C70.8717686,49.2970333 71.0751662,48.9771823 71.2970545,48.7702198 C71.7408311,48.3374802 72.5729122,48.0928883 73.2570678,48.0928883 C74.0706582,48.0928883 74.6623604,48.2810359 75.0136835,48.7137755 C75.4574601,49.240589 75.5129322,49.9555501 75.5129322,51.4795461 L75.5129322,56.3901998 C75.5129322,56.5407179 75.5684043,56.615977 76.3080319,56.615977 L76.4189761,56.615977 C77.1586037,56.615977 77.1770944,56.5219032 77.1770944,56.3901998 L77.1770944,50.6893259 C77.1770944,49.1653299 76.899734,48.1869621 76.2340691,47.4908158 C75.6238763,46.8511138 74.7178324,46.4936332 73.7008444,46.4936332 C72.5544215,46.4936332 71.3340359,46.9828171 70.6868617,47.7542225 L70.668371,47.7542225 L70.6498803,46.9075581 C70.6498803,46.7382252 70.5574269,46.6817809 69.891762,46.6817809 L69.7993085,46.6817809 Z M85.1835638,43.0693459 C84.7028059,43.0693459 84.4254455,43.1257902 84.4254455,43.2763084 L84.4254455,51.6865085 C84.4254455,55.2613139 86.0896077,56.8041247 89.2700066,56.8041247 C92.5983311,56.8041247 94.2624934,55.0543515 94.2624934,51.3478427 L94.2624934,43.2763084 C94.2624934,43.1257902 93.985133,43.0693459 93.4673936,43.0693459 L93.263996,43.0693459 C92.783238,43.0693459 92.5058777,43.1257902 92.5058777,43.2763084 L92.5058777,51.5736199 C92.5058777,54.0383541 91.3594548,55.2989434 89.3439694,55.2989434 C87.2915027,55.2989434 86.1820612,54.207687 86.1820612,51.5548051 L86.1820612,43.2763084 C86.1820612,43.1257902 85.9047008,43.0693459 85.3869614,43.0693459 L85.1835638,43.0693459 Z M97.7757247,46.6817809 C97.0730785,46.6817809 97.0176064,46.7570399 97.0176064,46.9075581 C97.0176064,47.3779272 97.0545878,48.6949608 97.0545878,49.9743648 L97.0545878,56.3901998 C97.0545878,56.5407179 97.1100598,56.615977 97.8496875,56.615977 L97.9606316,56.615977 C98.7002593,56.615977 98.71875,56.5219032 98.71875,56.3901998 L98.71875,52.683691 C98.71875,51.5924346 98.7372407,50.6328816 98.7742221,50.1060682 C98.8481848,49.2970333 99.0515824,48.9771823 99.2734707,48.7702198 C99.7172473,48.3374802 100.549328,48.0928883 101.233484,48.0928883 C102.047074,48.0928883 102.638777,48.2810359 102.9901,48.7137755 C103.433876,49.240589 103.489348,49.9555501 103.489348,51.4795461 L103.489348,56.3901998 C103.489348,56.5407179 103.54482,56.615977 104.284448,56.615977 L104.395392,56.615977 C105.13502,56.615977 105.153511,56.5219032 105.153511,56.3901998 L105.153511,50.6893259 C105.153511,49.1653299 104.87615,48.1869621 104.210485,47.4908158 C103.600293,46.8511138 102.694249,46.4936332 101.677261,46.4936332 C100.530838,46.4936332 99.3104521,46.9828171 98.6632779,47.7542225 L98.6447872,47.7542225 L98.6262965,46.9075581 C98.6262965,46.7382252 98.5338431,46.6817809 97.8681782,46.6817809 L97.7757247,46.6817809 Z M114.639235,42.3167553 C114.010552,42.3167553 113.844136,42.3731996 113.844136,42.5613473 L113.844136,47.1145205 C113.381868,46.7946695 112.512806,46.4936332 111.754688,46.4936332 C108.703723,46.4936332 107.261449,49.0336266 107.261449,51.8558414 C107.261449,54.9414629 108.777686,56.8041247 111.218457,56.8041247 C112.549787,56.8041247 113.585266,56.2020522 114.047533,55.5623501 L114.066024,55.5623501 C114.287912,56.296126 114.787161,56.6536065 115.341882,56.6536065 C115.656223,56.6536065 115.896602,56.6347918 116.155472,56.5407179 C116.266416,56.5030884 116.321888,56.3713851 116.321888,55.9198307 L116.321888,55.7881273 C116.321888,55.3930173 116.266416,55.2801287 116.155472,55.2801287 C115.656223,55.2801287 115.508298,55.2048696 115.508298,54.2641313 L115.508298,42.5613473 C115.508298,42.3731996 115.341882,42.3167553 114.75018,42.3167553 L114.639235,42.3167553 Z M113.844136,52.0251743 C113.844136,53.6056145 113.733191,54.2265018 113.307906,54.6592414 C112.88262,55.091981 112.179973,55.2989434 111.55129,55.2989434 C110.109016,55.2989434 108.999574,54.1136132 108.999574,51.7993971 C108.999574,49.5228105 110.109016,48.036444 111.847141,48.036444 C112.586769,48.036444 113.381868,48.3374802 113.844136,48.7325903 L113.844136,52.0251743 Z M126.232899,52.2509514 C126.380824,52.2509514 126.417806,52.1380628 126.417806,51.5736199 C126.417806,50.4635487 126.232899,49.4287366 125.807613,48.5632574 C125.19742,47.3214829 124.069488,46.4936332 122.423816,46.4936332 C119.687194,46.4936332 117.986051,48.7137755 117.986051,51.8746561 C117.986051,54.9038334 119.520778,56.8041247 122.51627,56.8041247 C123.755146,56.8041247 124.92006,56.5030884 125.863085,55.9386454 C126.011011,55.8445716 126.029501,55.731683 125.826104,55.2424991 L125.73365,55.0167219 C125.548743,54.5463528 125.437799,54.5839823 125.271383,54.6592414 C124.38383,55.0731662 123.607221,55.2613139 122.830612,55.2613139 C121.869096,55.2613139 121.147959,55.0355367 120.64871,54.5839823 C120.075499,54.0947984 119.779648,53.2857635 119.724176,52.2509514 L126.232899,52.2509514 Z M119.779648,50.8586588 C120.038517,48.920738 121.092487,48.036444 122.442307,48.036444 C123.995525,48.036444 124.698172,49.4475514 124.716662,50.8586588 L119.779648,50.8586588 Z M129.357826,46.6817809 C128.65518,46.6817809 128.599707,46.7570399 128.599707,46.9075581 C128.599707,47.3779272 128.636689,48.6949608 128.636689,49.9743648 L128.636689,56.3901998 C128.636689,56.5407179 128.692161,56.615977 129.431789,56.615977 L129.542733,56.615977 C130.28236,56.615977 130.300851,56.5219032 130.300851,56.3901998 L130.300851,54.2265018 C130.300851,53.1352454 130.319342,51.96873 130.356323,51.4419165 C130.393305,50.7833997 130.54123,50.2565863 130.8001,49.8238467 C131.33633,48.9395527 132.001995,48.1117031 133.314834,48.1117031 C133.499741,48.1117031 133.518231,47.9611849 133.518231,47.4155567 L133.518231,47.1333353 C133.518231,46.7005957 133.499741,46.6441514 133.333324,46.6065218 C133.240871,46.5877071 133.111436,46.5688923 132.94502,46.5688923 C131.965013,46.5688923 130.948025,47.2650386 130.245379,48.8454789 L130.208398,46.9075581 C130.208398,46.7382252 130.115944,46.6817809 129.450279,46.6817809 L129.357826,46.6817809 Z M136.014475,42.3167553 C135.274847,42.3167553 135.256356,42.4108291 135.256356,42.5425325 L135.256356,56.3901998 C135.256356,56.5407179 135.311828,56.615977 136.051456,56.615977 L136.1624,56.615977 C136.902028,56.615977 136.920519,56.5219032 136.920519,56.3901998 L136.920519,52.683691 C136.920519,51.5924346 136.939009,50.6328816 136.975991,50.1060682 C137.049953,49.2970333 137.253351,48.9771823 137.475239,48.7702198 C137.919016,48.3374802 138.751097,48.0928883 139.435253,48.0928883 C140.248843,48.0928883 140.840545,48.2810359 141.191868,48.7137755 C141.635645,49.240589 141.691117,49.9555501 141.691117,51.4795461 L141.691117,56.3901998 C141.691117,56.5407179 141.746589,56.615977 142.486217,56.615977 L142.597161,56.615977 C143.336789,56.615977 143.355279,56.5219032 143.355279,56.3901998 L143.355279,50.6893259 C143.355279,49.1653299 143.077919,48.1869621 142.412254,47.4908158 C141.802061,46.8511138 140.896017,46.4936332 139.879029,46.4936332 C138.769588,46.4936332 137.567693,46.9640024 136.920519,47.6977782 L136.920519,42.5425325 C136.920519,42.3920144 136.865047,42.3167553 136.125419,42.3167553 L136.014475,42.3167553 Z M146.831529,46.6817809 C146.091902,46.6817809 146.03643,46.7570399 146.03643,46.9075581 L146.03643,56.3901998 C146.03643,56.5407179 146.091902,56.615977 146.831529,56.615977 L146.942473,56.615977 C147.682101,56.615977 147.700592,56.5219032 147.700592,56.3901998 L147.700592,46.9075581 C147.700592,46.7758547 147.682101,46.6817809 146.942473,46.6817809 L146.831529,46.6817809 Z M145.703597,43.6337889 C145.703597,44.2923057 146.221336,44.8191191 146.868511,44.8191191 C147.515685,44.8191191 148.033424,44.2923057 148.033424,43.6337889 C148.033424,42.9752721 147.515685,42.4484587 146.868511,42.4484587 C146.221336,42.4484587 145.703597,42.9752721 145.703597,43.6337889 Z M151.102879,42.3167553 C150.474195,42.3167553 150.289289,42.3731996 150.307779,42.5613473 C150.400233,43.2951231 150.418723,45.7410426 150.418723,47.716593 L150.418723,54.0195394 C150.418723,55.0167219 150.492686,55.6376092 150.733065,55.9950897 C151.065898,56.5030884 151.583637,56.6347918 152.101376,56.6347918 C152.378737,56.6347918 152.711569,56.5783475 152.970439,56.4842736 C153.081383,56.4466441 153.081383,56.3713851 153.081383,55.8822012 L153.081383,55.8257569 C153.081383,55.3930173 153.062892,55.3177582 152.970439,55.3177582 L152.785532,55.3177582 C152.175339,55.3177582 152.082886,55.0731662 152.082886,54.3770199 L152.082886,48.1305178 C152.082886,45.3459325 152.064395,43.0881607 151.971941,42.5613473 C151.93496,42.3731996 151.805525,42.3167553 151.213823,42.3167553 L151.102879,42.3167553 Z M155.836496,42.3167553 C155.207813,42.3167553 155.022906,42.3731996 155.041396,42.5613473 C155.13385,43.2951231 155.15234,45.7410426 155.15234,47.716593 L155.15234,54.0195394 C155.15234,55.0167219 155.226303,55.6376092 155.466682,55.9950897 C155.799515,56.5030884 156.317254,56.6347918 156.834993,56.6347918 C157.112354,56.6347918 157.445186,56.5783475 157.704056,56.4842736 C157.815,56.4466441 157.815,56.3713851 157.815,55.8822012 L157.815,55.8257569 C157.815,55.3930173 157.796509,55.3177582 157.704056,55.3177582 L157.519149,55.3177582 C156.908956,55.3177582 156.816503,55.0731662 156.816503,54.3770199 L156.816503,48.1305178 C156.816503,45.3459325 156.798012,43.0881607 156.705559,42.5613473 C156.668577,42.3731996 156.539142,42.3167553 155.94744,42.3167553 L155.836496,42.3167553 Z" id="by-martin-underhill" fill="currentColor"></path>
    <path d="M256.190976,6.85798817 C258.091673,6.85798817 259.587766,5.32884216 259.587766,3.42899408 C259.587766,1.51987846 258.110492,0 256.200385,0 C254.27146,0 252.765957,1.51987846 252.765957,3.42899408 C252.765957,5.32884216 254.280869,6.85798817 256.190976,6.85798817 Z M256.181566,6.28339997 C254.647836,6.28339997 253.481071,5.03228051 253.481071,3.42899408 C253.481071,1.82570766 254.676064,0.574588198 256.200385,0.574588198 C257.724707,0.574588198 258.891471,1.82570766 258.891471,3.42899408 C258.891471,5.05081561 257.705888,6.28339997 256.181566,6.28339997 Z M255.409996,5.25470174 C255.551137,5.25470174 255.626412,5.20836399 255.626412,5.17129378 L255.626412,3.8460339 L256.115701,3.8460339 L256.445029,4.41135455 C256.58617,4.66157844 256.755539,4.91180233 256.953136,5.16202623 C256.990774,5.20836399 257.05664,5.25470174 257.282465,5.25470174 L257.498881,5.25470174 C257.687069,5.25470174 257.809391,5.21763154 257.762344,5.15275868 C257.489472,4.79132416 257.263646,4.46695986 257.084868,4.16113066 L256.859043,3.77189349 C257.376559,3.56800736 257.630613,3.17877019 257.630613,2.6227171 C257.630613,1.81644011 257.028412,1.54768111 256.106291,1.54768111 L254.88307,1.54768111 L254.88307,5.17129378 C254.88307,5.20836399 254.967755,5.25470174 255.108896,5.25470174 L255.409996,5.25470174 Z M256.172157,3.27144571 L255.626412,3.27144571 L255.626412,2.15007197 L256.087472,2.15007197 C256.473258,2.15007197 256.90609,2.22421238 256.90609,2.67832241 C256.90609,3.02122181 256.699083,3.27144571 256.172157,3.27144571 Z" id="trademark" fill="currentColor"></path>
    <rect id="underscore" fill="#0097db" x="249.893617" y="31.0335668" width="20.106383" height="5.05457909"></rect>
    <path d="M5.69653825,2.87234043 C7.87897823,2.87234043 8.10246255,3.02056746 8.10246255,3.42819181 L8.10246255,8.20851372 L12.504333,8.20851372 C12.8372476,8.20851372 12.9852096,8.28262723 12.9852096,10.0613517 L12.9852096,10.320749 C12.9852096,12.1010174 12.8372476,12.1735869 12.504333,12.1735869 L8.10246255,12.1735869 L8.10246255,21.3281504 C8.10246255,22.4027964 8.28741509,22.9957046 8.73130119,23.4033289 C9.10120627,23.7368397 9.65452262,23.9221235 10.3573423,23.9221235 C10.9491904,23.9221235 11.6165608,23.7738965 12.2808487,23.551556 C12.6522951,23.4403857 12.8372476,23.6627262 13.2426019,25.0338263 L13.3551147,25.4043939 C13.760469,26.775494 13.7250198,26.9978345 13.2811337,27.2217191 C12.0958962,27.8130832 10.4698551,28.1481381 9.02568399,28.1481381 C6.95421553,28.1481381 5.51158571,27.5907427 4.5498325,26.6272669 C3.51409827,25.5896777 3.03322167,24.0332938 3.03322167,21.6246045 L3.03322167,12.1735869 L0.480876606,12.1735869 C0.147962033,12.1735869 -4.31654712e-13,12.1010174 -4.31654712e-13,10.320749 L-4.31654712e-13,10.0613517 C-4.31654712e-13,8.28262723 0.147962033,8.20851372 0.480876606,8.20851372 L3.03322167,8.20851372 L3.03322167,3.42819181 C3.03322167,3.02056746 3.10720268,2.87234043 5.51158571,2.87234043 L5.69653825,2.87234043 Z M28.2256072,16.1028386 C28.0021229,13.8053195 26.8554172,12.1007086 24.78549,12.1007086 C22.7494708,12.1007086 21.4178125,13.6200357 20.9369359,16.1028386 L28.2256072,16.1028386 Z M20.9369359,19.734401 C21.3438314,22.3654309 23.0084043,23.8106445 25.8196829,23.8106445 C27.6322178,23.8106445 29.372313,23.3289066 31.0368859,22.6248282 C31.4437814,22.4395444 31.628734,22.5877714 32.0356296,23.6994742 L32.3670029,24.6274372 C32.8124302,25.885823 32.7754397,26.1081635 32.3315536,26.3675608 C30.4820282,27.4051501 27.7447306,28.1478293 25.1553951,28.1478293 C19.346344,28.1478293 15.6472932,24.5147229 15.6472932,18.2150739 C15.6472932,12.1377654 19.0874105,7.83763732 24.7469582,7.83763732 C30.3710567,7.83763732 33.2933068,12.0265951 33.2933068,17.8074495 C33.2933068,19.2526631 33.2193258,19.734401 32.9234018,19.734401 L20.9369359,19.734401 Z M39.5442403,8.20851372 C41.3567752,8.20851372 41.6896898,8.28262723 41.8361106,8.69025158 C41.9486234,9.02376241 42.0595949,9.72784083 42.1335759,10.2836922 C43.3542627,8.87553538 45.2407786,7.83794613 47.3492376,7.83794613 C49.6426491,7.83794613 51.8620796,8.83847862 52.8978138,10.7654301 C54.3774341,8.87553538 56.4858931,7.83794613 58.7793046,7.83794613 C60.9262953,7.83794613 62.6278587,8.5790813 63.7375739,9.83901111 C64.9582607,11.2101112 65.4761278,12.9903797 65.4761278,15.8066933 L65.4761278,27.2201751 C65.4761278,27.6277994 65.2541848,27.7760265 63.0717448,27.7760265 L62.8867922,27.7760265 C60.4824092,27.7760265 60.4084282,27.6277994 60.4084282,27.2201751 L60.4084282,17.2148502 C60.4084282,14.6579338 60.2589249,13.8781978 59.668618,13.2127202 C59.1877414,12.6553248 58.3354185,12.3588707 57.338216,12.3588707 C56.6708456,12.3588707 55.7476242,12.5086418 55.0802538,12.9147221 C54.3034531,13.39646 54.1185005,13.9909121 54.0445195,14.8802744 C53.9705385,15.7325798 53.9705385,17.1036799 53.9705385,18.5118367 L53.9705385,27.2201751 C53.9705385,27.6277994 53.7501367,27.7760265 51.5661555,27.7760265 L51.3827442,27.7760265 C48.9768199,27.7760265 48.9028389,27.6277994 48.9028389,27.2201751 L48.9028389,17.2148502 C48.9028389,14.6579338 48.7564181,13.8781978 48.1630287,13.2127202 C47.6821521,12.6553248 46.8313704,12.3588707 45.8326267,12.3588707 C45.1652563,12.3588707 44.2420349,12.5086418 43.5762057,12.9147221 C42.7978638,13.39646 42.6144525,13.9909121 42.5389302,14.8802744 C42.4664905,15.7325798 42.4664905,17.1036799 42.4664905,18.5118367 L42.4664905,27.2201751 C42.4664905,27.6277994 42.2445474,27.7760265 40.0621075,27.7760265 L39.8771549,27.7760265 C37.4712306,27.7760265 37.3972496,27.6277994 37.3972496,27.2201751 L37.3972496,16.9925096 C37.3972496,14.1005384 37.2862781,10.8781444 37.138316,8.87553538 C37.1013255,8.35674075 37.2508288,8.20851372 39.3592878,8.20851372 L39.5442403,8.20851372 Z M75.3877345,22.402642 C76.2755067,23.329061 77.4961934,23.8107989 78.6798897,23.8107989 C81.3801968,23.8107989 82.7118551,21.6244501 82.7118551,17.6964336 C82.7118551,15.5100849 82.2309785,14.101928 81.4911683,13.2496226 C80.8253392,12.4698866 79.7526144,12.1734325 78.7168802,12.1734325 C77.681146,12.1734325 76.4604592,12.5455441 75.9056016,13.1384523 C75.498706,13.5831334 75.3877345,14.1760415 75.3877345,15.1395173 L75.3877345,22.402642 Z M72.4654843,8.20835931 C74.276478,8.20835931 74.6109338,8.28247283 74.7588958,8.69164121 C74.8698674,9.02360801 74.9438484,9.61651615 75.0178294,10.1739116 C76.2385162,8.7642107 78.1250321,7.83779172 80.2704815,7.83779172 C84.8942951,7.83779172 87.929058,11.6561819 87.929058,17.6964336 C87.929058,24.25548 84.5999123,28.1479837 79.7526144,28.1479837 C78.0880416,28.1479837 76.4974497,27.627645 75.3877345,26.7012261 L75.3877345,35.485222 C75.3877345,35.8928463 75.1642502,36.0410734 72.9818102,36.0410734 L72.7968576,36.0410734 C70.3940159,36.0410734 70.3200349,35.8928463 70.3200349,35.485222 L70.3200349,16.9923552 C70.3200349,14.101928 70.2090633,10.87799 70.0611013,8.87538097 C70.0241108,8.35658635 70.1705316,8.20835931 72.2789905,8.20835931 L72.4654843,8.20835931 Z M103.242049,16.1028386 C103.018565,13.8053195 101.871859,12.1007086 99.8019322,12.1007086 C97.765913,12.1007086 96.4342547,13.6200357 95.9533781,16.1028386 L103.242049,16.1028386 Z M95.9533781,19.734401 C96.3602737,22.3654309 98.0248466,23.8106445 100.836125,23.8106445 C102.64866,23.8106445 104.388755,23.3289066 106.053328,22.6248282 C106.460224,22.4395444 106.645176,22.5877714 107.052072,23.6994742 L107.384986,24.6274372 C107.828872,25.885823 107.791882,26.1081635 107.347996,26.3675608 C105.49847,27.4051501 102.761173,28.1478293 100.171837,28.1478293 C94.3627863,28.1478293 90.6637354,24.5147229 90.6637354,18.2150739 C90.6637354,12.1377654 94.1038527,7.83763732 99.7634004,7.83763732 C105.387499,7.83763732 108.309749,12.0265951 108.309749,17.8074495 C108.309749,19.2526631 108.235768,19.734401 107.939844,19.734401 L95.9533781,19.734401 Z M114.596902,8.20851372 C116.409437,8.20851372 116.742352,8.28262723 116.853323,8.69025158 C116.964295,9.02376241 117.223229,11.0248274 117.29721,12.5086418 C118.480906,9.46844352 120.034507,7.83794613 122.4019,7.83794613 C122.771805,7.83794613 123.106261,7.87500288 123.363653,7.98617316 C123.622586,8.09734344 123.696567,8.17145696 123.696567,9.83901111 L123.696567,10.3593498 C123.696567,12.2492445 123.585596,12.323358 123.1787,12.3588707 C121.107232,12.5456985 119.812564,13.4350608 118.850811,14.8802744 C117.926048,16.2884312 117.482162,18.4006665 117.482162,21.8840018 L117.482162,27.2201751 C117.482162,27.6277994 117.260219,27.7760265 115.077779,27.7760265 L114.891285,27.7760265 C112.488443,27.7760265 112.414462,27.6277994 112.414462,27.2201751 L112.414462,16.9925096 C112.414462,14.1005384 112.303491,10.8781444 112.155529,8.87553538 C112.118538,8.35674075 112.264959,8.20851372 114.373418,8.20851372 L114.596902,8.20851372 Z M131.167109,2.87234043 C133.349549,2.87234043 133.573033,3.02056746 133.573033,3.42819181 L133.573033,8.20851372 L137.974904,8.20851372 C138.307818,8.20851372 138.45578,8.28262723 138.45578,10.0613517 L138.45578,10.320749 C138.45578,12.1010174 138.307818,12.1735869 137.974904,12.1735869 L133.573033,12.1735869 L133.573033,21.3281504 C133.573033,22.4027964 133.757986,22.9957046 134.201872,23.4033289 C134.571777,23.7368397 135.125093,23.9221235 135.827913,23.9221235 C136.419761,23.9221235 137.087131,23.7738965 137.751419,23.551556 C138.122866,23.4403857 138.307818,23.6627262 138.713172,25.0338263 L138.825685,25.4043939 C139.23104,26.775494 139.19559,26.9978345 138.751704,27.2217191 C137.566467,27.8130832 135.940426,28.1481381 134.496255,28.1481381 C132.424786,28.1481381 130.982156,27.5907427 130.020403,26.6272669 C128.984669,25.5896777 128.503792,24.0332938 128.503792,21.6246045 L128.503792,12.1735869 L125.951447,12.1735869 C125.618533,12.1735869 125.470571,12.1010174 125.470571,10.320749 L125.470571,10.0613517 C125.470571,8.28262723 125.618533,8.20851372 125.951447,8.20851372 L128.503792,8.20851372 L128.503792,3.42819181 C128.503792,3.02056746 128.577773,2.87234043 130.982156,2.87234043 L131.167109,2.87234043 Z M153.696178,16.1028386 C153.472693,13.8053195 152.325988,12.1007086 150.256061,12.1007086 C148.220041,12.1007086 146.888383,13.6200357 146.407506,16.1028386 L153.696178,16.1028386 Z M146.407506,19.734401 C146.814402,22.3654309 148.478975,23.8106445 151.290254,23.8106445 C153.102788,23.8106445 154.842884,23.3289066 156.507456,22.6248282 C156.914352,22.4395444 157.099305,22.5877714 157.5062,23.6994742 L157.839115,24.6274372 C158.283001,25.885823 158.24601,26.1081635 157.802124,26.3675608 C155.952599,27.4051501 153.215301,28.1478293 150.625966,28.1478293 C144.816915,28.1478293 141.117864,24.5147229 141.117864,18.2150739 C141.117864,12.1377654 144.557981,7.83763732 150.217529,7.83763732 C155.841627,7.83763732 158.763877,12.0265951 158.763877,17.8074495 C158.763877,19.2526631 158.689896,19.734401 158.393972,19.734401 L146.407506,19.734401 Z M165.014811,8.20851372 C166.827346,8.20851372 167.16026,8.28262723 167.306681,8.69025158 C167.419194,9.02376241 167.530165,9.72784083 167.604146,10.2836922 C168.824833,8.87553538 170.711349,7.83794613 172.819808,7.83794613 C175.11322,7.83794613 177.33265,8.83847862 178.368384,10.7654301 C179.848005,8.87553538 181.956464,7.83794613 184.249875,7.83794613 C186.396866,7.83794613 188.098429,8.5790813 189.208145,9.83901111 C190.428831,11.2101112 190.946698,12.9903797 190.946698,15.8066933 L190.946698,27.2201751 C190.946698,27.6277994 190.724755,27.7760265 188.542315,27.7760265 L188.357363,27.7760265 C185.95298,27.7760265 185.878999,27.6277994 185.878999,27.2201751 L185.878999,17.2148502 C185.878999,14.6579338 185.729495,13.8781978 185.139189,13.2127202 C184.658312,12.6553248 183.805989,12.3588707 182.808787,12.3588707 C182.141416,12.3588707 181.218195,12.5086418 180.550824,12.9147221 C179.774024,13.39646 179.589071,13.9909121 179.51509,14.8802744 C179.441109,15.7325798 179.441109,17.1036799 179.441109,18.5118367 L179.441109,27.2201751 C179.441109,27.6277994 179.220707,27.7760265 177.036726,27.7760265 L176.853315,27.7760265 C174.447391,27.7760265 174.373409,27.6277994 174.373409,27.2201751 L174.373409,17.2148502 C174.373409,14.6579338 174.226989,13.8781978 173.633599,13.2127202 C173.152723,12.6553248 172.301941,12.3588707 171.303197,12.3588707 C170.635827,12.3588707 169.712605,12.5086418 169.046776,12.9147221 C168.268434,13.39646 168.085023,13.9909121 168.009501,14.8802744 C167.937061,15.7325798 167.937061,17.1036799 167.937061,18.5118367 L167.937061,27.2201751 C167.937061,27.6277994 167.715118,27.7760265 165.532678,27.7760265 L165.347725,27.7760265 C162.941801,27.7760265 162.86782,27.6277994 162.86782,27.2201751 L162.86782,16.9925096 C162.86782,14.1005384 162.756849,10.8781444 162.608887,8.87553538 C162.571896,8.35674075 162.721399,8.20851372 164.829858,8.20851372 L165.014811,8.20851372 Z M200.858459,22.402642 C201.746231,23.329061 202.966918,23.8107989 204.150614,23.8107989 C206.850922,23.8107989 208.18258,21.6244501 208.18258,17.6964336 C208.18258,15.5100849 207.701703,14.101928 206.961893,13.2496226 C206.296064,12.4698866 205.223339,12.1734325 204.187605,12.1734325 C203.151871,12.1734325 201.931184,12.5455441 201.376326,13.1384523 C200.969431,13.5831334 200.858459,14.1760415 200.858459,15.1395173 L200.858459,22.402642 Z M197.936209,8.20835931 C199.747203,8.20835931 200.081659,8.28247283 200.229621,8.69164121 C200.340592,9.02360801 200.414573,9.61651615 200.488554,10.1739116 C201.709241,8.7642107 203.595757,7.83779172 205.741206,7.83779172 C210.36502,7.83779172 213.399783,11.6561819 213.399783,17.6964336 C213.399783,24.25548 210.070637,28.1479837 205.223339,28.1479837 C203.558766,28.1479837 201.968174,27.627645 200.858459,26.7012261 L200.858459,35.485222 C200.858459,35.8928463 200.634975,36.0410734 198.452535,36.0410734 L198.267582,36.0410734 C195.864741,36.0410734 195.79076,35.8928463 195.79076,35.485222 L195.79076,16.9923552 C195.79076,14.101928 195.679788,10.87799 195.531826,8.87538097 C195.494836,8.35658635 195.641256,8.20835931 197.749715,8.20835931 L197.936209,8.20835931 Z M228.71262,16.1028386 C228.489136,13.8053195 227.34243,12.1007086 225.272503,12.1007086 C223.236484,12.1007086 221.904825,13.6200357 221.423949,16.1028386 L228.71262,16.1028386 Z M221.423949,19.734401 C221.830844,22.3654309 223.495417,23.8106445 226.306696,23.8106445 C228.119231,23.8106445 229.859326,23.3289066 231.523899,22.6248282 C231.930794,22.4395444 232.115747,22.5877714 232.522642,23.6994742 L232.855557,24.6274372 C233.299443,25.885823 233.262453,26.1081635 232.818566,26.3675608 C230.969041,27.4051501 228.231743,28.1478293 225.642408,28.1478293 C219.833357,28.1478293 216.134306,24.5147229 216.134306,18.2150739 C216.134306,12.1377654 219.574423,7.83763732 225.233971,7.83763732 C230.85807,7.83763732 233.78032,12.0265951 233.78032,17.8074495 C233.78032,19.2526631 233.706339,19.734401 233.410415,19.734401 L221.423949,19.734401 Z M240.067473,8.20851372 C241.880008,8.20851372 242.212923,8.28262723 242.323894,8.69025158 C242.434866,9.02376241 242.693799,11.0248274 242.76778,12.5086418 C243.951476,9.46844352 245.505078,7.83794613 247.87247,7.83794613 C248.242375,7.83794613 248.576831,7.87500288 248.834223,7.98617316 C249.093157,8.09734344 249.167138,8.17145696 249.167138,9.83901111 L249.167138,10.3593498 C249.167138,12.2492445 249.056167,12.323358 248.649271,12.3588707 C246.577802,12.5456985 245.283135,13.4350608 244.321381,14.8802744 C243.396619,16.2884312 242.952733,18.4006665 242.952733,21.8840018 L242.952733,27.2201751 C242.952733,27.6277994 242.73079,27.7760265 240.54835,27.7760265 L240.361856,27.7760265 C237.959014,27.7760265 237.885033,27.6277994 237.885033,27.2201751 L237.885033,16.9925096 C237.885033,14.1005384 237.774062,10.8781444 237.6261,8.87553538 C237.589109,8.35674075 237.73553,8.20851372 239.843989,8.20851372 L240.067473,8.20851372 Z" id="tempertemper" fill="currentColor"></path>
</svg>