<svg height="66" viewBox="0 0 270 66" width="270" xmlns="http://www.w3.org/2000/svg">
    <style>
      @keyframes blink {
        89.9% {opacity: 1;}
        90% {opacity: 0;}
        99.9% {opacity: 0;}
      }
      @media screen and (prefers-reduced-motion: no-preference) {
        [fill="#0097db"] {
          animation: blink 2s steps(20, start) infinite;
        }
      }
    </style>
    <path d="m256.190976 6.85798817c1.900697 0 3.39679-1.52914601 3.39679-3.42899409 0-1.90911562-1.477274-3.42899408-3.387381-3.42899408-1.928925 0-3.434428 1.51987846-3.434428 3.42899408 0 1.89984808 1.514912 3.42899409 3.425019 3.42899409zm-.00941-.5745882c-1.53373 0-2.700495-1.25111946-2.700495-2.85440589 0-1.60328642 1.194993-2.85440588 2.719314-2.85440588 1.524322 0 2.691086 1.25111946 2.691086 2.85440588 0 1.62182153-1.185583 2.85440589-2.709905 2.85440589zm-.77157-1.02869823c.141141 0 .216416-.04633775.216416-.08340796v-1.32525988h.489289l.329328.56532065c.141141.25022389.31051.50044778.508107.75067168.037638.04633776.103504.09267551.329329.09267551h.216416c.188188 0 .31051-.0370702.263463-.10194306-.272872-.36143452-.498698-.68579882-.677476-.99162802l-.225825-.38923717c.517516-.20388613.77157-.5931233.77157-1.14917639 0-.80627699-.602201-1.07503599-1.524322-1.07503599h-1.223221v3.62361267c0 .03707021.084685.08340796.225826.08340796zm.762161-1.98325603h-.545745v-1.12137374h.46106c.385786 0 .818618.07414041.818618.52825044 0 .3428994-.207007.5931233-.733933.5931233z" fill="currentColor"/>
    <path d="m3.750352 54.920268c0-1.326344.022868-2.446876.068604-3.08718.091472-.983324.34302-1.37208.617436-1.646496.525964-.525964 1.417816-.846116 2.263932-.846116 1.94378 0 2.927104 1.417816 2.927104 4.161976s-1.280608 4.642204-3.88756 4.642204c-.663172 0-1.417816-.160076-1.989516-.388756zm-1.074796-12.600268c-.91472 0-.983324.091472-.983324.274416v16.304884c0 .091472.022868.205812.068604.22868 1.051928.480228 2.40114.80038 4.161976.80038 3.864692 0 5.854208-2.538348 5.854208-6.585984 0-1.303476-.251548-2.492612-.68604-3.4302-.731776-1.555024-2.103856-2.51548-3.933296-2.51548-1.349212 0-2.74416.5717-3.407332 1.349212v-6.151492c0-.160076-.022868-.274416-.937588-.274416zm12.783212 5.556924c-.068604-.182944-.34302-.251548-1.166268-.251548-.91472 0-1.189136.045736-1.074796.320152l4.550732 11.89136c-.960456 2.584084-1.852308 3.407332-3.361596 3.407332-.45736 0-.823248-.091472-1.234872-.205812-.251548-.068604-.320152.022868-.503096.5717l-.091472.274416c-.137208.411624-.182944.594568.068604.731776.480228.251548 1.234872.411624 1.82944.411624 1.326344 0 2.469744-.388756 3.407332-1.394948.708908-.754644 1.349212-1.989516 1.94378-3.65888l4.322052-12.028568c.091472-.251548-.160076-.320152-1.051928-.320152-.708908 0-.960456.045736-1.02906.251548l-2.035252 5.854208c-.45736 1.349212-.91472 2.698424-1.166268 3.750352-.320152-1.25774-.640304-2.263932-1.25774-3.910428zm18.042852-4.642204c-.983324 0-1.120532.045736-1.1434.34302l-.754644 15.870392c0 .182944.320152.251548.891852.251548h.22868c.617436 0 .937588-.068604.937588-.251548l.45736-12.371588 3.818956 9.513088c.068604.182944.274416.251548 1.02906.251548h.182944c.731776 0 .960456-.068604 1.02906-.22868l3.77322-9.856108.411624 12.69174c0 .182944.320152.251548.937588.251548h.251548c.5717 0 .891852-.068604.891852-.251548l-.640304-15.870392c0-.22868-.22868-.34302-1.189136-.34302h-.160076c-.891852 0-1.097664.091472-1.189136.34302l-4.139108 10.656488-4.253448-10.656488c-.091472-.251548-.365888-.34302-1.25774-.34302zm24.743176 4.390656c-.68604 0-.80038 0-.823248.274416l-.11434.960456c-.640304-.823248-1.7151-1.463552-3.08718-1.463552-3.018576 0-5.25964 2.561216-5.25964 6.471644 0 3.292992 1.555024 6.06002 4.893752 6.06002 1.48642 0 2.789896-.663172 3.521672-1.555024l.137208 1.051928c.022868.205812.160076.274416.868984.274416h.091472c.708908 0 .823248-.091472.823248-.274416-.068604-1.25774-.160076-2.74416-.160076-4.848016v-3.20152c0-1.463552.045736-2.927104.045736-3.475936 0-.182944-.022868-.274416-.891852-.274416zm-1.166268 6.425908c0 1.989516-.091472 2.62982-.5717 3.155784-.617436.663172-1.532156.891852-2.2868.891852-2.355404 0-3.110048-2.195328-3.110048-4.34492 0-2.74416 1.234872-4.504996 3.338728-4.504996 1.074796 0 2.103856.731776 2.62982 1.555024zm6.471644-6.425908c-.868984 0-.937588.091472-.937588.274416 0 .5717.045736 2.17246.045736 3.727484v7.797988c0 .182944.068604.274416.983324.274416h.137208c.91472 0 .937588-.11434.937588-.274416v-2.62982c0-1.326344.022868-2.74416.068604-3.384464.045736-.80038.22868-1.440684.548832-1.966648.663172-1.074796 1.48642-2.080988 3.110048-2.080988.22868 0 .251548-.182944.251548-.846116v-.34302c0-.525964-.022868-.594568-.22868-.640304-.11434-.022868-.274416-.045736-.480228-.045736-1.212004 0-2.469744.846116-3.338728 2.767028l-.045736-2.355404c0-.205812-.11434-.274416-.937588-.274416zm8.758444-3.384464c-.91472 0-.983324.091472-.983324.274416v3.110048h-1.440684c-.160076 0-.205812.11434-.205812.708908v.182944c0 .617436.045736.731776.205812.731776h1.440684v6.906136c0 1.532156.205812 2.40114.868984 3.018576.503096.480228 1.25774.754644 2.2868.754644.846116 0 1.82944-.205812 2.40114-.5717.182944-.11434.182944-.251548.068604-.731776l-.068604-.297284c-.11434-.434492-.182944-.525964-.411624-.45736-.45736.137208-1.02906.297284-1.555024.297284s-.91472-.137208-1.166268-.411624c-.297284-.320152-.365888-.891852-.365888-1.760836v-6.74606h2.881368c.160076 0 .205812-.11434.205812-.731776v-.182944c0-.594568-.045736-.708908-.205812-.708908h-2.881368v-3.110048c0-.160076-.022868-.274416-.937588-.274416zm7.912328 3.384464c-.91472 0-.983324.091472-.983324.274416v11.525472c0 .182944.068604.274416.983324.274416h.137208c.91472 0 .937588-.11434.937588-.274416v-11.525472c0-.160076-.022868-.274416-.937588-.274416zm-1.394948-3.704616c0 .80038.640304 1.440684 1.440684 1.440684s1.440684-.640304 1.440684-1.440684-.640304-1.440684-1.440684-1.440684-1.440684.640304-1.440684 1.440684zm6.8604 3.704616c-.868984 0-.937588.091472-.937588.274416 0 .5717.045736 2.17246.045736 3.727484v7.797988c0 .182944.068604.274416.983324.274416h.137208c.91472 0 .937588-.11434.937588-.274416v-4.504996c0-1.326344.022868-2.492612.068604-3.132916.091472-.983324.34302-1.37208.617436-1.623628.548832-.525964 1.577892-.823248 2.424008-.823248 1.006192 0 1.737968.22868 2.17246.754644.548832.640304.617436 1.509288.617436 3.361596v5.968548c0 .182944.068604.274416.983324.274416h.137208c.91472 0 .937588-.11434.937588-.274416v-6.929004c0-1.852308-.34302-3.041444-1.166268-3.88756-.754644-.777512-1.875176-1.212004-3.132916-1.212004-1.417816 0-2.927104.594568-3.727484 1.532156h-.022868l-.022868-1.02906c0-.205812-.11434-.274416-.937588-.274416zm19.026176-4.390656c-.594568 0-.937588.068604-.937588.251548v10.221996c0 4.34492 2.05812 6.220096 5.991416 6.220096 4.11624 0 6.17436-2.126724 6.17436-6.63172v-9.810372c0-.182944-.34302-.251548-.983324-.251548h-.251548c-.594568 0-.937588.068604-.937588.251548v10.084788c0 2.995708-1.417816 4.527864-3.910428 4.527864-2.538348 0-3.910428-1.326344-3.910428-4.550732v-10.06192c0-.182944-.34302-.251548-.983324-.251548zm15.573108 4.390656c-.868984 0-.937588.091472-.937588.274416 0 .5717.045736 2.17246.045736 3.727484v7.797988c0 .182944.068604.274416.983324.274416h.137208c.91472 0 .937588-.11434.937588-.274416v-4.504996c0-1.326344.022868-2.492612.068604-3.132916.091472-.983324.34302-1.37208.617436-1.623628.548832-.525964 1.577892-.823248 2.424008-.823248 1.006192 0 1.737968.22868 2.17246.754644.548832.640304.617436 1.509288.617436 3.361596v5.968548c0 .182944.068604.274416.983324.274416h.137208c.91472 0 .937588-.11434.937588-.274416v-6.929004c0-1.852308-.34302-3.041444-1.166268-3.88756-.754644-.777512-1.875176-1.212004-3.132916-1.212004-1.417816 0-2.927104.594568-3.727484 1.532156h-.022868l-.022868-1.02906c0-.205812-.11434-.274416-.937588-.274416zm20.855616-5.305376c-.777512 0-.983324.068604-.983324.297284v5.534056c-.5717-.388756-1.646496-.754644-2.584084-.754644-3.77322 0-5.556924 3.08718-5.556924 6.51738 0 3.750352 1.875176 6.014284 4.893752 6.014284 1.646496 0 2.927104-.731776 3.498804-1.509288h.022868c.274416.891852.891852 1.326344 1.577892 1.326344.388756 0 .68604-.022868 1.006192-.137208.137208-.045736.205812-.205812.205812-.754644v-.160076c0-.480228-.068604-.617436-.205812-.617436-.617436 0-.80038-.091472-.80038-1.234872v-14.223896c0-.22868-.205812-.297284-.937588-.297284zm-.983324 11.799888c0 1.920912-.137208 2.675556-.663172 3.20152s-1.394948.777512-2.17246.777512c-1.783704 0-3.155784-1.440684-3.155784-4.253448 0-2.767028 1.37208-4.5736 3.521672-4.5736.91472 0 1.898044.365888 2.469744.846116zm15.32156.274416c.182944 0 .22868-.137208.22868-.823248 0-1.349212-.22868-2.606952-.754644-3.65888-.754644-1.509288-2.149592-2.51548-4.184844-2.51548-3.384464 0-5.48832 2.698424-5.48832 6.540248 0 3.681748 1.898044 5.991416 5.60266 5.991416 1.532156 0 2.97284-.365888 4.139108-1.051928.182944-.11434.205812-.251548-.045736-.846116l-.11434-.274416c-.22868-.5717-.365888-.525964-.5717-.434492-1.097664.503096-2.05812.731776-3.018576.731776-1.189136 0-2.080988-.274416-2.698424-.823248-.708908-.594568-1.074796-1.577892-1.1434-2.835632zm-7.980932-1.692232c.320152-2.355404 1.623628-3.4302 3.292992-3.4302 1.920912 0 2.789896 1.7151 2.812764 3.4302zm11.845624-5.076696c-.868984 0-.937588.091472-.937588.274416 0 .5717.045736 2.17246.045736 3.727484v7.797988c0 .182944.068604.274416.983324.274416h.137208c.91472 0 .937588-.11434.937588-.274416v-2.62982c0-1.326344.022868-2.74416.068604-3.384464.045736-.80038.22868-1.440684.548832-1.966648.663172-1.074796 1.48642-2.080988 3.110048-2.080988.22868 0 .251548-.182944.251548-.846116v-.34302c0-.525964-.022868-.594568-.22868-.640304-.11434-.022868-.274416-.045736-.480228-.045736-1.212004 0-2.469744.846116-3.338728 2.767028l-.045736-2.355404c0-.205812-.11434-.274416-.937588-.274416zm8.23248-5.305376c-.91472 0-.937588.11434-.937588.274416v16.830848c0 .182944.068604.274416.983324.274416h.137208c.91472 0 .937588-.11434.937588-.274416v-4.504996c0-1.326344.022868-2.492612.068604-3.132916.091472-.983324.34302-1.37208.617436-1.623628.548832-.525964 1.577892-.823248 2.424008-.823248 1.006192 0 1.737968.22868 2.17246.754644.548832.640304.617436 1.509288.617436 3.361596v5.968548c0 .182944.068604.274416.983324.274416h.137208c.91472 0 .937588-.11434.937588-.274416v-6.929004c0-1.852308-.34302-3.041444-1.166268-3.88756-.754644-.777512-1.875176-1.212004-3.132916-1.212004-1.37208 0-2.8585.5717-3.65888 1.463552v-6.265832c0-.182944-.068604-.274416-.983324-.274416zm13.37778 5.305376c-.91472 0-.983324.091472-.983324.274416v11.525472c0 .182944.068604.274416.983324.274416h.137208c.91472 0 .937588-.11434.937588-.274416v-11.525472c0-.160076-.022868-.274416-.937588-.274416zm-1.394948-3.704616c0 .80038.640304 1.440684 1.440684 1.440684s1.440684-.640304 1.440684-1.440684-.640304-1.440684-1.440684-1.440684-1.440684.640304-1.440684 1.440684zm6.677456-1.60076c-.777512 0-1.006192.068604-.983324.297284.11434.891852.137208 3.864692.137208 6.265832v7.66078c0 1.212004.091472 1.966648.388756 2.40114.411624.617436 1.051928.777512 1.692232.777512.34302 0 .754644-.068604 1.074796-.182944.137208-.045736.137208-.137208.137208-.731776v-.068604c0-.525964-.022868-.617436-.137208-.617436h-.22868c-.754644 0-.868984-.297284-.868984-1.1434v-7.592176c0-3.384464-.022868-6.128624-.137208-6.768928-.045736-.22868-.205812-.297284-.937588-.297284zm5.854208 0c-.777512 0-1.006192.068604-.983324.297284.11434.891852.137208 3.864692.137208 6.265832v7.66078c0 1.212004.091472 1.966648.388756 2.40114.411624.617436 1.051928.777512 1.692232.777512.34302 0 .754644-.068604 1.074796-.182944.137208-.045736.137208-.137208.137208-.731776v-.068604c0-.525964-.022868-.617436-.137208-.617436h-.22868c-.754644 0-.868984-.297284-.868984-1.1434v-7.592176c0-3.384464-.022868-6.128624-.137208-6.768928-.045736-.22868-.205812-.297284-.937588-.297284z" fill="currentColor"/>
    <path d="m249.893617 31.033567h20.106383v5.054579h-20.106383z" fill="#0097db"/>
    <path d="m5.69653825 2.87234043c2.18243998 0 2.4059243.14822703 2.4059243.55585138v4.78032191h4.40187045c.3329146 0 .4808766.07411351.4808766 1.85283798v.2593973c0 1.7802684-.147962 1.8528379-.4808766 1.8528379h-4.40187045v9.1545635c0 1.074646.18495254 1.6675542.62883864 2.0751785.36990508.3335108.92322143.5187946 1.62604111.5187946.5918481 0 1.2592185-.148227 1.9235064-.3705675.3714464-.1111703.5563989.1111702.9617532 1.4822703l.1125128.3705676c.4053543 1.3711001.3699051 1.5934406-.073981 1.8173252-1.1852375.5913641-2.8112786.926419-4.25544971.926419-2.07146846 0-3.51409828-.5573954-4.47585149-1.5208712-1.03573423-1.0375892-1.51661083-2.5939731-1.51661083-5.0026624v-9.4510176h-2.55234506c-.33291458 0-.48087661-.0725695-.48087661-1.8528379v-.2593973c0-1.77872447.14796203-1.85283798.48087661-1.85283798h2.55234506v-4.78032191c0-.40762435.07398101-.55585138 2.47836404-.55585138zm22.52906895 13.23049817c-.2234843-2.2975191-1.37019-4.00213-3.4401172-4.00213-2.0360192 0-3.3676775 1.5193271-3.8485541 4.00213zm-7.2886713 3.6315624c.4068955 2.6310299 2.0714684 4.0762435 4.882747 4.0762435 1.8125349 0 3.5526301-.4817379 5.217203-1.1858163.4068955-.1852838.5918481-.0370568.9987437 1.074646l.3313733.927963c.4454273 1.2583858.4084368 1.4807263-.0354493 1.7401236-1.8495254 1.0375893-4.586823 1.7802685-7.1761585 1.7802685-5.8090511 0-9.5081019-3.6331064-9.5081019-9.9327554 0-6.0773085 3.4401173-10.37743658 9.099665-10.37743658 5.6240985 0 8.5463486 4.18895778 8.5463486 9.96981218 0 1.4452136-.073981 1.9269515-.369905 1.9269515zm18.6073044-11.52588728c1.8125349 0 2.1454495.07411351 2.2918703.48173786.1125128.33351083.2234843 1.03758925.2974653 1.59344062 1.2206868-1.40815682 3.1072027-2.44574607 5.2156617-2.44574607 2.2934115 0 4.512842 1.00053249 5.5485762 2.92748397 1.4796203-1.88989472 3.5880793-2.92748397 5.8814908-2.92748397 2.1469907 0 3.8485541.74113517 4.9582693 2.00106498 1.2206868 1.37110009 1.7385539 3.15136859 1.7385539 5.96768219v11.4134818c0 .4076243-.221943.5558514-2.404383.5558514h-.1849526c-2.404383 0-2.478364-.1482271-2.478364-.5558514v-10.0053249c0-2.5569164-.1495033-3.3366524-.7398102-4.00213-.4808766-.5573954-1.3331995-.8538495-2.330402-.8538495-.6673704 0-1.5905918.1497711-2.2579622.5558514-.7768007.4817379-.9617533 1.07619-1.0357343 1.9655523-.073981.8523054-.073981 2.2234055-.073981 3.6315623v8.7083384c0 .4076243-.2204018.5558514-2.404383.5558514h-.1834113c-2.4059243 0-2.4799053-.1482271-2.4799053-.5558514v-10.0053249c0-2.5569164-.1464208-3.3366524-.7398102-4.00213-.4808766-.5573954-1.3316583-.8538495-2.330402-.8538495-.6673704 0-1.5905918.1497711-2.256421.5558514-.7783419.4817379-.9617532 1.07619-1.0372755 1.9655523-.0724397.8523054-.0724397 2.2234055-.0724397 3.6315623v8.7083384c0 .4076243-.2219431.5558514-2.404383.5558514h-.1849526c-2.4059243 0-2.4799053-.1482271-2.4799053-.5558514v-10.2276655c0-2.8919712-.1109715-6.1143652-.2589336-8.11697422-.0369905-.51879463.1125128-.66702166 2.2209718-.66702166zm35.8434942 14.19412828c.8877722.926419 2.1084589 1.4081569 3.2921552 1.4081569 2.7003071 0 4.0319654-2.1863488 4.0319654-6.1143653 0-2.1863487-.4808766-3.5945056-1.2206868-4.446811-.6658291-.779736-1.7385539-1.0761901-2.7742881-1.0761901s-2.256421.3721116-2.8112786.9650198c-.4068956.4446811-.5178671 1.0375892-.5178671 2.001065zm-2.9222502-14.19428269c1.8109937 0 2.1454495.07411352 2.2934115.4832819.1109716.3319668.1849526.92487494.2589336 1.48227039 1.2206868-1.4097009 3.1072027-2.33611988 5.2526521-2.33611988 4.6238136 0 7.6585765 3.81839018 7.6585765 9.85864188 0 6.5590464-3.3291457 10.4515501-8.1764436 10.4515501-1.6645728 0-3.2551647-.5203387-4.3648799-1.4467576v8.7839959c0 .4076243-.2234843.5558514-2.4059243.5558514h-.1849526c-2.4028417 0-2.4768227-.1482271-2.4768227-.5558514v-18.4928668c0-2.8904272-.1109716-6.1143652-.2589336-8.11697423-.0369905-.51879462.1094303-.66702166 2.2178892-.66702166zm30.7765647 7.89447929c-.223484-2.2975191-1.37019-4.00213-3.4401168-4.00213-2.0360192 0-3.3676775 1.5193271-3.8485541 4.00213zm-7.2886709 3.6315624c.4068956 2.6310299 2.0714685 4.0762435 4.8827469 4.0762435 1.812535 0 3.55263-.4817379 5.217203-1.1858163.406896-.1852838.591848-.0370568.998744 1.074646l.332914.927963c.443886 1.2583858.406896 1.4807263-.03699 1.7401236-1.849526 1.0375893-4.586823 1.7802685-7.176159 1.7802685-5.8090507 0-9.5081016-3.6331064-9.5081016-9.9327554 0-6.0773085 3.4401173-10.37743658 9.099665-10.37743658 5.6240986 0 8.5463486 4.18895778 8.5463486 9.96981218 0 1.4452136-.073981 1.9269515-.369905 1.9269515zm18.6435239-11.52588728c1.812535 0 2.14545.07411351 2.256421.48173786.110972.33351083.369906 2.33457582.443887 3.81839022 1.183696-3.04019828 2.737297-4.67069567 5.10469-4.67069567.369905 0 .704361.03705675.961753.14822703.258933.11117028.332914.1852838.332914 1.85283795v.52033869c0 1.8898947-.110971 1.9640082-.517867 1.9995209-2.071468.1868278-3.366136 1.0761901-4.327889 2.5214037-.924763 1.4081568-1.368649 3.5203921-1.368649 7.0037274v5.3361733c0 .4076243-.221943.5558514-2.404383.5558514h-.186494c-2.402842 0-2.476823-.1482271-2.476823-.5558514v-10.2276655c0-2.8919712-.110971-6.1143652-.258933-8.11697422-.036991-.51879463.10943-.66702166 2.217889-.66702166zm16.570207-5.33617329c2.18244 0 2.405924.14822703 2.405924.55585138v4.78032191h4.401871c.332914 0 .480876.07411351.480876 1.85283798v.2593973c0 1.7802684-.147962 1.8528379-.480876 1.8528379h-4.401871v9.1545635c0 1.074646.184953 1.6675542.628839 2.0751785.369905.3335108.923221.5187946 1.626041.5187946.591848 0 1.259218-.148227 1.923506-.3705675.371447-.1111703.556399.1111702.961753 1.4822703l.112513.3705676c.405355 1.3711001.369905 1.5934406-.073981 1.8173252-1.185237.5913641-2.811278.926419-4.255449.926419-2.071469 0-3.514099-.5573954-4.475852-1.5208712-1.035734-1.0375892-1.516611-2.5939731-1.516611-5.0026624v-9.4510176h-2.552345c-.332914 0-.480876-.0725695-.480876-1.8528379v-.2593973c0-1.77872447.147962-1.85283798.480876-1.85283798h2.552345v-4.78032191c0-.40762435.073981-.55585138 2.478364-.55585138zm22.529069 13.23049817c-.223485-2.2975191-1.37019-4.00213-3.440117-4.00213-2.03602 0-3.367678 1.5193271-3.848555 4.00213zm-7.288672 3.6315624c.406896 2.6310299 2.071469 4.0762435 4.882748 4.0762435 1.812534 0 3.55263-.4817379 5.217202-1.1858163.406896-.1852838.591849-.0370568.998744 1.074646l.332915.927963c.443886 1.2583858.406895 1.4807263-.036991 1.7401236-1.849525 1.0375893-4.586823 1.7802685-7.176158 1.7802685-5.809051 0-9.508102-3.6331064-9.508102-9.9327554 0-6.0773085 3.440117-10.37743658 9.099665-10.37743658 5.624098 0 8.546348 4.18895778 8.546348 9.96981218 0 1.4452136-.073981 1.9269515-.369905 1.9269515zm18.607305-11.52588728c1.812535 0 2.145449.07411351 2.29187.48173786.112513.33351083.223484 1.03758925.297465 1.59344062 1.220687-1.40815682 3.107203-2.44574607 5.215662-2.44574607 2.293412 0 4.512842 1.00053249 5.548576 2.92748397 1.479621-1.88989472 3.58808-2.92748397 5.881491-2.92748397 2.146991 0 3.848554.74113517 4.95827 2.00106498 1.220686 1.37110009 1.738553 3.15136859 1.738553 5.96768219v11.4134818c0 .4076243-.221943.5558514-2.404383.5558514h-.184952c-2.404383 0-2.478364-.1482271-2.478364-.5558514v-10.0053249c0-2.5569164-.149504-3.3366524-.73981-4.00213-.480877-.5573954-1.3332-.8538495-2.330402-.8538495-.667371 0-1.590592.1497711-2.257963.5558514-.7768.4817379-.961753 1.07619-1.035734 1.9655523-.073981.8523054-.073981 2.2234055-.073981 3.6315623v8.7083384c0 .4076243-.220402.5558514-2.404383.5558514h-.183411c-2.405924 0-2.479906-.1482271-2.479906-.5558514v-10.0053249c0-2.5569164-.14642-3.3366524-.73981-4.00213-.480876-.5573954-1.331658-.8538495-2.330402-.8538495-.66737 0-1.590592.1497711-2.256421.5558514-.778342.4817379-.961753 1.07619-1.037275 1.9655523-.07244.8523054-.07244 2.2234055-.07244 3.6315623v8.7083384c0 .4076243-.221943.5558514-2.404383.5558514h-.184953c-2.405924 0-2.479905-.1482271-2.479905-.5558514v-10.2276655c0-2.8919712-.110971-6.1143652-.258933-8.11697422-.036991-.51879463.112512-.66702166 2.220971-.66702166zm35.843648 14.19412828c.887772.926419 2.108459 1.4081569 3.292155 1.4081569 2.700308 0 4.031966-2.1863488 4.031966-6.1143653 0-2.1863487-.480877-3.5945056-1.220687-4.446811-.665829-.779736-1.738554-1.0761901-2.774288-1.0761901s-2.256421.3721116-2.811279.9650198c-.406895.4446811-.517867 1.0375892-.517867 2.001065zm-2.92225-14.19428269c1.810994 0 2.14545.07411352 2.293412.4832819.110971.3319668.184952.92487494.258933 1.48227039 1.220687-1.4097009 3.107203-2.33611988 5.252652-2.33611988 4.623814 0 7.658577 3.81839018 7.658577 9.85864188 0 6.5590464-3.329146 10.4515501-8.176444 10.4515501-1.664573 0-3.255165-.5203387-4.36488-1.4467576v8.7839959c0 .4076243-.223484.5558514-2.405924.5558514h-.184953c-2.402841 0-2.476822-.1482271-2.476822-.5558514v-18.4928668c0-2.8904272-.110972-6.1143652-.258934-8.11697423-.03699-.51879462.10943-.66702166 2.217889-.66702166zm30.776411 7.89447929c-.223484-2.2975191-1.37019-4.00213-3.440117-4.00213-2.036019 0-3.367678 1.5193271-3.848554 4.00213zm-7.288671 3.6315624c.406895 2.6310299 2.071468 4.0762435 4.882747 4.0762435 1.812535 0 3.55263-.4817379 5.217203-1.1858163.406895-.1852838.591848-.0370568.998743 1.074646l.332915.927963c.443886 1.2583858.406896 1.4807263-.036991 1.7401236-1.849525 1.0375893-4.586823 1.7802685-7.176158 1.7802685-5.809051 0-9.508102-3.6331064-9.508102-9.9327554 0-6.0773085 3.440117-10.37743658 9.099665-10.37743658 5.624099 0 8.546349 4.18895778 8.546349 9.96981218 0 1.4452136-.073981 1.9269515-.369905 1.9269515zm18.643524-11.52588728c1.812535 0 2.14545.07411351 2.256421.48173786.110972.33351083.369905 2.33457582.443886 3.81839022 1.183696-3.04019828 2.737298-4.67069567 5.10469-4.67069567.369905 0 .704361.03705675.961753.14822703.258934.11117028.332915.1852838.332915 1.85283795v.52033869c0 1.8898947-.110971 1.9640082-.517867 1.9995209-2.071469.1868278-3.366136 1.0761901-4.32789 2.5214037-.924762 1.4081568-1.368648 3.5203921-1.368648 7.0037274v5.3361733c0 .4076243-.221943.5558514-2.404383.5558514h-.186494c-2.402842 0-2.476823-.1482271-2.476823-.5558514v-10.2276655c0-2.8919712-.110971-6.1143652-.258933-8.11697422-.036991-.51879463.10943-.66702166 2.217889-.66702166z" fill="currentColor"/>
</svg>