<svg class="mastodon" width="45" height="47" viewBox="0 0 45 47" role="presentation" xmlns="http://www.w3.org/2000/svg" xmlns:xlink="http://www.w3.org/1999/xlink" version="1.1">
    <path d="m22.3112347.00050525c7.4812701.01741916 10.7355156.48024328 11.6065254.60917875 5.26188.777726 9.70062 4.791306 10.38582 9.884196.1040317 1.0557377.1538589 2.2963732.1715876 3.558447l.0062919.6320667c.0184715 3.0563083-.1290032 6.0787137-.1304195 6.7601463 0 .2973-.04314 3.01182-.06036 3.29832-.4611 7.27746-4.99902 10.15134-9.76746 11.067-.06462.01938-.14004.03228-.21546.0474-3.0231.59028-6.26166.74754-9.33432.8337-.73476.01938-1.46736.01938-2.20212.01938-3.05508.00084-6.09948-.36078-9.0693-1.07718-.01578-.00408-.03222-.00438-.04812-.0009s-.03072.01062-.04332.02094c-.0126.01026-.02262.02334-.02916.03822-.0066.01488-.0096.03108-.0087.04734.084.96678.29406 1.91844.62484 2.8308.4116 1.05564 1.84878 3.59136 7.19256 3.59136 3.10512.0057 6.19998-.35592 9.22014-1.07718.0153-.00354.03126-.0036.04662-.00018s.02976.0102.04218.01992.02244.02208.02946.03618.01074.02958.01098.0453v3.57192c-.00054.01686-.00492.03336-.01278.0483-.0078.01488-.0189.02784-.03246.03792-.98688.7152-2.32926 1.12242-3.47556 1.4865-.50568.15942-1.01778.29946-1.53636.42012-4.7139 1.07358-9.63366.81396-14.20836-.74976-4.27283997-1.4994-8.63402997-5.17476-9.71140197-9.59124-.575346-2.3913-.980736-4.82028-1.213116-7.26882-.3361392-3.6861-.3641508-7.38084-.50851836-11.082-.10127304-2.58096-.04309478-5.39454.50205456-7.93242 1.1333958-5.153208 5.8048818-8.759616 10.92024177-9.515796.88776-.131415 2.55978-.609684 10.35348-.609684zm7.0944654 7.75509475c-2.562 0-4.50126.9867-5.79408 2.95794l-1.24974 2.09406-1.24758-2.09406c-1.29288-1.97124-3.23214-2.95794-5.79846-2.95794-2.21718 0-4.0035.77988-5.36525997 2.29872-1.32018 1.52244-1.98024 3.57624-1.98024 6.16146v12.65262h5.01191997v-12.2799c0-2.58522 1.08816-3.90372 3.26664-3.90372 2.409 0 3.61776 1.55976 3.61776 4.64052v6.72162h4.98396v-6.72162c0-3.08076 1.2066-4.64052 3.6156-4.64052 2.19138 0 3.26874 1.3185 3.26874 3.90372v12.2799h5.0140824v-12.65262c.0014376-2.58666-.6571824-4.64046-1.9758624-6.16146-1.36614-1.51884-3.1524-2.29872-5.36748-2.29872z" fill="currentColor"/>
</svg>