<svg height="42" viewBox="0 0 42 42" width="42" xmlns="http://www.w3.org/2000/svg" role="presentation">
    <path d="m19.591976.00052329c6.5372052.01664595 9.3825726.42563559 10.1450214.53970281 4.6132915.68912402 8.5049046 4.24545925 9.1056456 8.75814471.1118104 1.14676319.1522043 2.53973129.1568861 3.91208189l-.000245.630957c-.0096627 2.4056079-.1139167 4.618187-.1150311 5.1600735 0 .1170801-.0074711.6572397-.0170978 1.2435679l-.0075411.4425136c-.0103722.5858557-.0215711 1.1236524-.028281 1.2364793-.404264 6.4483796-4.382832 8.9948545-8.5635057 9.8061985-.0566549.0171721-.1227785.0286025-.1889021.0419999-2.6504673.5230327-5.4898367.662377-8.1837553.7387213-.6441922.0171721-1.2864906.0171721-1.9306828.0171721-2.6785055.0007443-5.3476474-.3196783-7.9514021-.9544629-.013835-.0036152-.0282486-.003881-.0421887-.0007975-.0139401.0030836-.0269334.0094102-.0379803.0185545-.0110469.0090911-.0198318.020681-.0255657.0338658-.0057865.0131848-.0084167.0275392-.0076276.0419468.073646.8566401.2578136 1.6998828.5478211 2.5083027.3608655.9353769 1.6208962 3.1822164 6.3059924 3.1822164 2.7223775.0050507 5.4357596-.315372 8.0836494-.9544629.0134141-.0031367.0274068-.0031898.0408735-.0001595.0134667.0030304.0260918.009038.0369808.0176507.0108891.0086126.019674.0195645.0258287.0320582.0061548.0124937.0094162.0262101.0096266.0401392v3.1649911c-.0004734.0149392-.0043135.0295595-.0112047.0427974-.0068385.0131849-.0165703.0246684-.0284589.0336-.8652354.6337213-2.0421513.994549-3.0471564 1.3171514-.443349.1412581-.8923266.2653442-1.3469855.3722581-4.1328564.951273-8.4461982.72123-12.4570126-.6643441-3.74616226-1.3285817-7.56978431-4.5852284-8.51435755-8.4985635-.50442784-2.1188726-.85984875-4.2711324-1.06358519-6.4407239-.29470609-3.2661632-.31926493-6.5399821-.44583749-9.8194896-.08878995-2.2869256-.03778285-4.7799701.44017043-7.02872364.99369144-4.56613176 5.08936187-7.76168182 9.5741936-8.43171446.7783332-.11644362 2.244257-.5402261 9.0772919-.5402261zm6.1891259 6.87152448c-2.2462034 0-3.9464268.87429077-5.0798916 2.6209584l-1.0956948 1.85549543-1.0938011-1.85549543c-1.1335173-1.74666763-2.8337407-2.6209584-5.0837316-2.6209584-1.9438865 0-3.51002159.69103262-4.70392866 2.03683965-1.15745229 1.34899688-1.73615214 3.16881898-1.73615214 5.45951928v11.2111776h4.3941419v-10.8809195c0-2.2907004.9540315-3.458991 2.8639883-3.458991 2.1120624 0 3.1718285 1.3820652 3.1718285 4.1118514v5.9558634h4.3696283v-5.9558634c0-2.7297862 1.0578724-4.1118514 3.1699348-4.1118514 1.9212667 0 2.8658294 1.1682906 2.8658294 3.458991v10.8809195h4.3960377v-11.2111776c.0012605-2.2919763-.5761769-4.1117983-1.732314-5.45951928-1.1977472-1.34580703-2.7638297-2.03683965-4.705875-2.03683965z" fill="currentColor" transform="translate(2)"/>
</svg>
