<svg class="tempertemper" width="270" height="40" viewBox="0 0 270 40" role="img" version="1.1" aria-labelledby="logo-title">
    <style>
      @keyframes blink {
        89.9% {opacity: 1;}
        90% {opacity: 0;}
        99.9% {opacity: 0;}
      }
      @media screen and (prefers-reduced-motion: no-preference) {
        rect {animation: blink 2s steps(20, start) infinite;}
      }
    </style>
    <title id="logo-title">tempertemper (go to home page)</title>
    <g class="mark">
        <path d="M6.153,3.13c2.172,0 2.394,0.147 2.394,0.552l0,4.749l4.381,0c0.332,0 0.479,0.074 0.479,1.841l0,0.258c0,1.768 -0.147,1.84 -0.479,1.84l-4.381,0l0,9.096c0,1.067 0.184,1.656 0.626,2.061c0.368,0.332 0.919,0.516 1.619,0.516c0.589,0 1.253,-0.148 1.914,-0.368c0.37,-0.111 0.554,0.11 0.957,1.472l0.112,0.368c0.404,1.363 0.368,1.583 -0.073,1.806c-1.18,0.587 -2.798,0.92 -4.236,0.92c-2.062,0 -3.497,-0.554 -4.455,-1.511c-1.03,-1.031 -1.509,-2.577 -1.509,-4.97l0,-9.39l-2.54,0c-0.332,0 -0.479,-0.072 -0.479,-1.84l0,-0.258c0,-1.767 0.147,-1.841 0.479,-1.841l2.54,0l0,-4.749c0,-0.405 0.074,-0.552 2.467,-0.552l0.184,0Z" fill="currentColor"/>
        <path d="M28.576,16.274c-0.223,-2.282 -1.364,-3.976 -3.424,-3.976c-2.027,0 -3.352,1.51 -3.831,3.976l7.255,0Zm-7.255,3.608c0.405,2.614 2.062,4.05 4.86,4.05c1.804,0 3.536,-0.479 5.193,-1.178c0.405,-0.184 0.589,-0.037 0.994,1.067l0.329,0.922c0.444,1.251 0.407,1.472 -0.035,1.729c-1.841,1.031 -4.565,1.769 -7.142,1.769c-5.782,0 -9.463,-3.61 -9.463,-9.868c0,-6.038 3.423,-10.31 9.056,-10.31c5.598,0 8.506,4.161 8.506,9.905c0,1.436 -0.073,1.914 -0.368,1.914l-11.93,0Z" fill="currentColor"/>
        <path d="M39.841,8.431c1.804,0 2.135,0.074 2.281,0.479c0.112,0.331 0.222,1.031 0.296,1.583c1.215,-1.399 3.092,-2.43 5.191,-2.43c2.283,0 4.491,0.994 5.522,2.908c1.473,-1.877 3.571,-2.908 5.854,-2.908c2.137,0 3.83,0.736 4.935,1.988c1.215,1.362 1.73,3.131 1.73,5.929l0,11.339c0,0.405 -0.221,0.553 -2.393,0.553l-0.184,0c-2.393,0 -2.466,-0.148 -2.466,-0.553l0,-9.94c0,-2.54 -0.149,-3.315 -0.737,-3.976c-0.478,-0.554 -1.327,-0.848 -2.319,-0.848c-0.664,0 -1.583,0.148 -2.248,0.552c-0.773,0.478 -0.957,1.069 -1.03,1.953c-0.074,0.846 -0.074,2.209 -0.074,3.608l0,8.651c0,0.405 -0.219,0.553 -2.393,0.553l-0.183,0c-2.394,0 -2.468,-0.148 -2.468,-0.553l0,-9.94c0,-2.54 -0.146,-3.315 -0.736,-3.976c-0.479,-0.554 -1.325,-0.848 -2.32,-0.848c-0.664,0 -1.583,0.148 -2.245,0.552c-0.775,0.478 -0.958,1.069 -1.033,1.953c-0.072,0.846 -0.072,2.209 -0.072,3.608l0,8.651c0,0.405 -0.221,0.553 -2.393,0.553l-0.184,0c-2.394,0 -2.468,-0.148 -2.468,-0.553l0,-10.161c0,-2.873 -0.111,-6.075 -0.258,-8.064c-0.037,-0.516 0.112,-0.663 2.211,-0.663l0.184,0Z" fill="currentColor"/>
        <path d="M75.515,22.533c0.884,0.92 2.099,1.399 3.277,1.399c2.687,0 4.013,-2.172 4.013,-6.075c0,-2.172 -0.479,-3.571 -1.215,-4.417c-0.663,-0.775 -1.731,-1.07 -2.761,-1.07c-1.031,0 -2.246,0.37 -2.798,0.959c-0.405,0.442 -0.516,1.031 -0.516,1.988l0,7.216Zm-2.908,-14.102c1.802,0 2.135,0.074 2.282,0.48c0.111,0.33 0.184,0.919 0.258,1.473c1.215,-1.401 3.093,-2.321 5.228,-2.321c4.602,0 7.622,3.793 7.622,9.794c0,6.517 -3.313,10.384 -8.138,10.384c-1.656,0 -3.239,-0.517 -4.344,-1.437l0,8.727c0,0.405 -0.222,0.552 -2.394,0.552l-0.185,0c-2.391,0 -2.465,-0.147 -2.465,-0.552l0,-18.373c0,-2.872 -0.11,-6.075 -0.257,-8.064c-0.037,-0.516 0.109,-0.663 2.207,-0.663l0.186,0Z" fill="currentColor"/>
        <path d="M103.238,16.274c-0.222,-2.282 -1.364,-3.976 -3.424,-3.976c-2.026,0 -3.352,1.51 -3.83,3.976l7.254,0Zm-7.254,3.608c0.405,2.614 2.061,4.05 4.859,4.05c1.804,0 3.536,-0.479 5.193,-1.178c0.405,-0.184 0.589,-0.037 0.994,1.067l0.331,0.922c0.442,1.251 0.405,1.472 -0.036,1.729c-1.841,1.031 -4.566,1.769 -7.143,1.769c-5.781,0 -9.463,-3.61 -9.463,-9.868c0,-6.038 3.424,-10.31 9.057,-10.31c5.597,0 8.506,4.161 8.506,9.905c0,1.436 -0.074,1.914 -0.368,1.914l-11.93,0Z" fill="currentColor"/>
        <path d="M114.539,8.431c1.804,0 2.136,0.074 2.246,0.479c0.111,0.331 0.368,2.319 0.442,3.793c1.178,-3.02 2.724,-4.64 5.081,-4.64c0.368,0 0.701,0.037 0.957,0.147c0.257,0.111 0.331,0.184 0.331,1.841l0,0.517c0,1.878 -0.11,1.951 -0.515,1.987c-2.062,0.185 -3.351,1.069 -4.308,2.505c-0.92,1.399 -1.362,3.497 -1.362,6.958l0,5.301c0,0.405 -0.221,0.553 -2.393,0.553l-0.186,0c-2.391,0 -2.465,-0.148 -2.465,-0.553l0,-10.161c0,-2.873 -0.11,-6.075 -0.258,-8.064c-0.036,-0.516 0.109,-0.663 2.208,-0.663l0.222,0Z" fill="currentColor"/>
        <path d="M131.031,3.13c2.173,0 2.395,0.147 2.395,0.552l0,4.749l4.381,0c0.331,0 0.479,0.074 0.479,1.841l0,0.258c0,1.768 -0.148,1.84 -0.479,1.84l-4.381,0l0,9.096c0,1.067 0.184,1.656 0.626,2.061c0.368,0.332 0.919,0.516 1.618,0.516c0.589,0 1.253,-0.148 1.915,-0.368c0.369,-0.111 0.553,0.11 0.957,1.472l0.112,0.368c0.403,1.363 0.368,1.583 -0.074,1.806c-1.179,0.587 -2.798,0.92 -4.235,0.92c-2.062,0 -3.498,-0.554 -4.455,-1.511c-1.031,-1.031 -1.509,-2.577 -1.509,-4.97l0,-9.39l-2.541,0c-0.331,0 -0.478,-0.072 -0.478,-1.84l0,-0.258c0,-1.767 0.147,-1.841 0.478,-1.841l2.541,0l0,-4.749c0,-0.405 0.073,-0.552 2.466,-0.552l0.184,0Z" fill="currentColor"/>
        <path d="M153.454,16.274c-0.222,-2.282 -1.364,-3.976 -3.424,-3.976c-2.026,0 -3.352,1.51 -3.83,3.976l7.254,0Zm-7.254,3.608c0.405,2.614 2.062,4.05 4.86,4.05c1.804,0 3.535,-0.479 5.192,-1.178c0.405,-0.184 0.589,-0.037 0.994,1.067l0.332,0.922c0.441,1.251 0.405,1.472 -0.037,1.729c-1.841,1.031 -4.565,1.769 -7.143,1.769c-5.781,0 -9.463,-3.61 -9.463,-9.868c0,-6.038 3.424,-10.31 9.057,-10.31c5.597,0 8.506,4.161 8.506,9.905c0,1.436 -0.074,1.914 -0.368,1.914l-11.93,0Z" fill="currentColor"/>
        <path d="M164.719,8.431c1.804,0 2.136,0.074 2.281,0.479c0.112,0.331 0.223,1.031 0.297,1.583c1.214,-1.399 3.092,-2.43 5.191,-2.43c2.282,0 4.491,0.994 5.522,2.908c1.473,-1.877 3.571,-2.908 5.854,-2.908c2.137,0 3.83,0.736 4.935,1.988c1.215,1.362 1.73,3.131 1.73,5.929l0,11.339c0,0.405 -0.221,0.553 -2.393,0.553l-0.184,0c-2.393,0 -2.467,-0.148 -2.467,-0.553l0,-9.94c0,-2.54 -0.149,-3.315 -0.736,-3.976c-0.479,-0.554 -1.327,-0.848 -2.32,-0.848c-0.664,0 -1.583,0.148 -2.247,0.552c-0.773,0.478 -0.957,1.069 -1.031,1.953c-0.073,0.846 -0.073,2.209 -0.073,3.608l0,8.651c0,0.405 -0.22,0.553 -2.393,0.553l-0.183,0c-2.395,0 -2.468,-0.148 -2.468,-0.553l0,-9.94c0,-2.54 -0.146,-3.315 -0.736,-3.976c-0.479,-0.554 -1.326,-0.848 -2.32,-0.848c-0.664,0 -1.583,0.148 -2.246,0.552c-0.774,0.478 -0.957,1.069 -1.032,1.953c-0.072,0.846 -0.072,2.209 -0.072,3.608l0,8.651c0,0.405 -0.221,0.553 -2.393,0.553l-0.184,0c-2.395,0 -2.468,-0.148 -2.468,-0.553l0,-10.161c0,-2.873 -0.111,-6.075 -0.258,-8.064c-0.037,-0.516 0.112,-0.663 2.21,-0.663l0.184,0Z" fill="currentColor"/>
        <path d="M200.394,22.533c0.884,0.92 2.098,1.399 3.277,1.399c2.687,0 4.013,-2.172 4.013,-6.075c0,-2.172 -0.479,-3.571 -1.215,-4.417c-0.663,-0.775 -1.731,-1.07 -2.762,-1.07c-1.03,0 -2.245,0.37 -2.798,0.959c-0.405,0.442 -0.515,1.031 -0.515,1.988l0,7.216Zm-2.909,-14.102c1.803,0 2.136,0.074 2.283,0.48c0.111,0.33 0.184,0.919 0.258,1.473c1.215,-1.401 3.092,-2.321 5.228,-2.321c4.602,0 7.622,3.793 7.622,9.794c0,6.517 -3.313,10.384 -8.138,10.384c-1.656,0 -3.24,-0.517 -4.344,-1.437l0,8.727c0,0.405 -0.222,0.552 -2.395,0.552l-0.184,0c-2.391,0 -2.465,-0.147 -2.465,-0.552l0,-18.373c0,-2.872 -0.11,-6.075 -0.258,-8.064c-0.036,-0.516 0.109,-0.663 2.208,-0.663l0.185,0Z" fill="currentColor"/>
        <path d="M228.117,16.274c-0.223,-2.282 -1.364,-3.976 -3.424,-3.976c-2.027,0 -3.352,1.51 -3.831,3.976l7.255,0Zm-7.255,3.608c0.405,2.614 2.062,4.05 4.86,4.05c1.804,0 3.536,-0.479 5.193,-1.178c0.405,-0.184 0.589,-0.037 0.994,1.067l0.331,0.922c0.442,1.251 0.405,1.472 -0.037,1.729c-1.841,1.031 -4.565,1.769 -7.142,1.769c-5.782,0 -9.463,-3.61 -9.463,-9.868c0,-6.038 3.424,-10.31 9.056,-10.31c5.598,0 8.506,4.161 8.506,9.905c0,1.436 -0.073,1.914 -0.368,1.914l-11.93,0Z" fill="currentColor"/>
        <path d="M239.418,8.431c1.804,0 2.135,0.074 2.246,0.479c0.11,0.331 0.368,2.319 0.442,3.793c1.178,-3.02 2.724,-4.64 5.08,-4.64c0.368,0 0.701,0.037 0.957,0.147c0.258,0.111 0.332,0.184 0.332,1.841l0,0.517c0,1.878 -0.111,1.951 -0.516,1.987c-2.061,0.185 -3.35,1.069 -4.307,2.505c-0.921,1.399 -1.362,3.497 -1.362,6.958l0,5.301c0,0.405 -0.221,0.553 -2.393,0.553l-0.186,0c-2.392,0 -2.465,-0.148 -2.465,-0.553l0,-10.161c0,-2.873 -0.111,-6.075 -0.258,-8.064c-0.037,-0.516 0.109,-0.663 2.208,-0.663l0.222,0Z" fill="currentColor"/>
    </g>
    <path class="trademark" d="M253.619,1.933l0.747,0c0.738,0 1.422,0.189 1.422,1.08c0,0.477 -0.234,0.828 -0.639,1.035l0.117,0.216c0.297,0.558 0.54,0.918 0.774,1.224c0.045,0.063 0.018,0.099 -0.198,0.099l-0.297,0c-0.18,0 -0.252,0 -0.315,-0.072c-0.126,-0.144 -0.315,-0.432 -0.63,-1.026l-0.171,-0.306l-0.288,0l0,1.332c0,0.063 -0.072,0.072 -0.342,0.072l-0.072,0c-0.279,0 -0.333,-0.009 -0.333,-0.072l0,-3.51c0,-0.063 0.027,-0.072 0.225,-0.072Zm0.522,0.612l0,1.044l0.243,0c0.234,0 0.405,-0.063 0.504,-0.162c0.099,-0.099 0.144,-0.225 0.144,-0.396c0,-0.162 -0.045,-0.27 -0.126,-0.351c-0.099,-0.099 -0.279,-0.135 -0.54,-0.135l-0.225,0Zm0.459,-2.115c1.827,0 3.276,1.314 3.276,3.33c0,2.016 -1.449,3.33 -3.276,3.33c-1.827,0 -3.276,-1.314 -3.276,-3.33c0,-2.016 1.449,-3.33 3.276,-3.33Zm-0.009,0.72c-1.35,0 -2.439,1.044 -2.439,2.61c0,1.566 1.089,2.61 2.457,2.61c1.35,0 2.439,-1.044 2.439,-2.61c0,-1.566 -1.089,-2.61 -2.457,-2.61Z" fill="currentColor"/>
    <rect class="underscore" x="249" y="31" width="20" height="5" fill="#0097db" />

<!--         <animate
            attributeName="fill"
            calcMode="discrete"
            from="1"
            to="0"
            values="#0097db; transparent"
            keyTimes="0; 0.9"
            dur="2s"
            repeatCount="indefinite"
        />
        </rect>
 -->
</svg>