<svg height="42" viewBox="0 0 42 42" width="42" xmlns="http://www.w3.org/2000/svg" role="presentation">
    <path d="m21.5529175 6.00093327c1.3757843.0062554 5.0953166.03675048 8.6643811.18541399l.688238.03027437c2.740078.12720156 5.2935195.32886257 6.5029266.64856904 1.8071481.47641701 3.2305322 1.88009087 3.7135216 3.66264753.7879333 2.9012211.8683347 8.6328304.8765389 9.7723381l.0007309.1262269c.0000671.0160616.0001119.0295769.0001417.0404589v.0659889c-.0000298.0108819-.0000746.0243972-.0001417.0404588l-.0007309.1262266c-.0082042 1.1395045-.0886056 6.8710826-.8765389 9.7719974-.4829894 1.7825567-1.9063735 3.1865716-3.7135216 3.6629886-1.2094071.3197065-3.7628486.5213675-6.5029266.6485691l-.688238.0302743c-3.6841956.1534591-7.5287232.1810031-8.7901212.1859469l-.2055713.0006873c-.0289935.0000788-.0552969.0001419-.0788265.0001923h-.2877142c-.0235296-.0000504-.049833-.0001135-.0788265-.0001923l-.2055713-.0006873c-1.143142-.0044803-4.40778-.0275219-7.7519742-.1460214l-.6923677-.0259044c-3.11473445-.1229262-6.17636095-.3331947-7.53694392-.6928645-1.80714807-.476417-3.23053216-1.8804319-3.71352162-3.6629886-.77002572-2.8349849-.86431458-8.3734287-.87586016-9.6872753v-.5688046c.01154558-1.313851.10583444-6.8523314.87586016-9.6876157.48298946-1.78255666 1.90637355-3.18623052 3.71352162-3.66264753 1.36058297-.35966978 4.42220947-.56993827 7.53694392-.69286447l.6923677-.02590442c3.2288772-.1144133 6.3835902-.13983848 7.6262341-.14548851zm-4.7541709 8.28432433v12.4291297l10.9120352-6.2145649z" fill="currentColor"/>
</svg>
