<?xml version="1.0" standalone="no"?><!DOCTYPE svg PUBLIC "-//W3C//DTD SVG 1.1//EN" "http://www.w3.org/Graphics/SVG/1.1/DTD/svg11.dtd"><svg id="Untitled-Page%201" viewBox="0 0 12 12" style="background-color:#ffffff00" version="1.1"	xmlns="http://www.w3.org/2000/svg" xmlns:xlink="http://www.w3.org/1999/xlink" xml:space="preserve"	x="0px" y="0px" width="12px" height="12px">	<g id="Layer%201">		<path d="M 12 10.1343 L 8.4637 6.6042 C 8.8015 5.974 8.9937 5.2542 8.9937 4.4895 C 8.9937 2.0099 6.9803 0 4.4968 0 C 2.0134 0 0 2.0099 0 4.4895 C 0 6.9687 2.0134 8.9789 4.4968 8.9789 C 5.2525 8.9789 5.9641 8.7919 6.5892 8.4631 L 10.1315 12 L 12 10.1343 ZM 1.4996 4.4895 C 1.4996 2.8396 2.8441 1.4972 4.4968 1.4972 C 6.1495 1.4972 7.494 2.8396 7.494 4.4895 C 7.494 6.1395 6.1495 7.4818 4.4968 7.4818 C 2.8441 7.4818 1.4996 6.1395 1.4996 4.4895 Z" fill="#1f6891"/>	</g></svg>